*
G04 Job   : D:\PD-Master\Mas\Mas100n1 ACB_0001_0\Mas100n1 PPC_PORTABILE R_0.pcb*
G04 User  : SHINA:Administrator*
G04 Layer : 3-Internal2.gbr*
G04 Date  : Thu Feb 04 15:45:08 2021*
G04 RSM MASTER DESIGN srl*
%ICAS*%
%MOMM*%
%FSLAX24Y24*%
%OFA0.0000B0.0000*%
G90*
G74*
%AMVB_RECTANGLE*
21,1,$1,$2,0,0,$3*
%
%ADD12C,0.08000*%
%ADD10C,0.15000*%
%ADD14C,0.35000*%
%ADD11C,0.50000*%
%ADD13C,0.50800*%
%ADD15C,1.27000*%
%ADD16VB_RECTANGLE,1.77800X1.77800X0.00000*%
G01*
G36*
X2142500Y1182705D02*
G02X2143101Y1183440I750D01*
G03X2143289Y1183483I801J3960*
G02X2143305Y1183487I184J727*
G01X2150127Y1185168*
G02X2150143Y1185172I191J726*
G03X2152720Y1187118I943J3928*
G02X2153374Y1187500I654J368*
G01X2155460*
Y1143700*
G03X2159500Y1139660I4040*
X2163540Y1143700J4040*
X2159500Y1147740I4040*
X2155460Y1143700J4040*
G01Y1187500*
X2166435*
G02X2167150Y1186977J750*
G03X2171000Y1184160I3850J1223*
X2174850Y1186977J4040*
G02X2175565Y1187500I715J227*
G01X2200660*
Y1110800*
G03X2204700Y1106760I4040*
X2208740Y1110800J4040*
X2204700Y1114840I4040*
X2200660Y1110800J4040*
G01Y1187500*
X2200760*
Y1144000*
Y1143972*
G02Y1143961I750*
G01Y1136239*
G02Y1136228I750J11*
G01Y1136200*
Y1123900*
G03X2204800Y1119860I4040*
X2208840Y1123900J4040*
X2204800Y1127940I4040*
X2200760Y1123900J4040*
G01Y1136200*
G03X2204800Y1132160I4040*
X2208840Y1136200J4040*
G01Y1136228*
G02Y1136239I750*
G01Y1143143*
G02X2208887Y1143403I750*
G01X2211276Y1149862*
G02X2211281Y1149877I707J250*
G03X2211540Y1151300I3781J1423*
X2207500Y1155340I4040*
X2203703Y1152680J4040*
G02X2203698Y1152666I705J256*
G01X2201024Y1145438*
G02X2201019Y1145423I707J250*
G03X2200760Y1144000I3781J1423*
G01Y1187500*
X2213760*
Y1170000*
G03X2217800Y1165960I4040*
X2221840Y1170000J4040*
X2217800Y1174040I4040*
X2213760Y1170000J4040*
G01Y1187500*
X2234160*
Y1109900*
G03X2238200Y1105860I4040*
X2242240Y1109900J4040*
X2238200Y1113940I4040*
X2234160Y1109900J4040*
G01Y1187500*
X2235960*
Y1169800*
G03X2240000Y1165760I4040*
X2244040Y1169800J4040*
X2240000Y1173840I4040*
X2235960Y1169800J4040*
G01Y1187500*
X2265960*
Y1117800*
G03X2270000Y1113760I4040*
X2274040Y1117800J4040*
X2270000Y1121840I4040*
X2265960Y1117800J4040*
G01Y1169300*
G03X2270000Y1165260I4040*
X2274040Y1169300J4040*
X2270000Y1173340I4040*
X2265960Y1169300J4040*
G01Y1187500*
X2279960*
Y1091700*
G03X2281160Y1088827I4040*
G01Y1037500*
G03X2285200Y1033460I4040*
X2289240Y1037500J4040*
X2285200Y1041540I4040*
X2281160Y1037500J4040*
G01Y1088827*
G03X2284000Y1087660I2840J2873*
X2288040Y1091700J4040*
X2284000Y1095740I4040*
X2279960Y1091700J4040*
G01Y1187500*
X2295960*
Y1168900*
G03X2296960Y1166239I4040*
G01Y1070700*
G03X2301000Y1066660I4040*
X2305040Y1070700J4040*
X2301000Y1074740I4040*
X2296960Y1070700J4040*
G01Y1166239*
G03X2300000Y1164860I3040J2661*
X2304040Y1168900J4040*
X2300000Y1172940I4040*
X2295960Y1168900J4040*
G01Y1187500*
X2312560*
Y1170100*
G03X2316600Y1166060I4040*
X2317560Y1166176J4040*
G01Y1160000*
G03X2318460Y1157458I4040*
G01Y1117500*
G03X2322360Y1113462I4040*
G01Y1022900*
G03X2326400Y1018860I4040*
X2330440Y1022900J4040*
X2326400Y1026940I4040*
X2322360Y1022900J4040*
G01Y1113462*
G03X2322500Y1113460I140J4038*
X2323560Y1113602J4040*
G01Y1063700*
G03X2327600Y1059660I4040*
X2331640Y1063700J4040*
X2327600Y1067740I4040*
X2323560Y1063700J4040*
G01Y1113602*
G03X2326540Y1117500I1060J3898*
X2322500Y1121540I4040*
X2318460Y1117500J4040*
G01Y1157458*
G03X2318860Y1157031I3140J2542*
G01Y1135000*
G03X2322900Y1130960I4040*
X2326940Y1135000J4040*
X2322900Y1139040I4040*
X2318860Y1135000J4040*
G01Y1157031*
G03X2321600Y1155960I2740J2969*
X2325640Y1160000J4040*
X2321600Y1164040I4040*
X2317560Y1160000J4040*
G01Y1166176*
G03X2320640Y1170100I960J3924*
X2316600Y1174140I4040*
X2312560Y1170100J4040*
G01Y1187500*
X2333360*
Y1022900*
G03X2337400Y1018860I4040*
X2341440Y1022900J4040*
X2337400Y1026940I4040*
X2333360Y1022900J4040*
G01Y1187500*
X2333460*
Y1063700*
G03X2337500Y1059660I4040*
X2341540Y1063700J4040*
X2337500Y1067740I4040*
X2333460Y1063700J4040*
G01Y1187500*
X2333560*
Y1075500*
G03X2337600Y1071460I4040*
X2341640Y1075500J4040*
X2337600Y1079540I4040*
X2333560Y1075500J4040*
G01Y1187500*
X2339000*
Y1177500*
G03X2342500Y1174000I3500*
X2344060Y1174367J3500*
G01Y1022900*
G03X2348100Y1018860I4040*
X2352140Y1022900J4040*
X2348100Y1026940I4040*
X2344060Y1022900J4040*
G01Y1174367*
G03X2344160Y1174419I1560J3133*
G01Y1063700*
G03X2348200Y1059660I4040*
X2352240Y1063700J4040*
X2348200Y1067740I4040*
X2344160Y1063700J4040*
G01Y1174419*
G03X2346000Y1177500I1660J3081*
X2342500Y1181000I3500*
X2339000Y1177500J3500*
G01Y1187500*
X2349000*
Y1165000*
G03X2352500Y1161500I3500*
X2355860Y1164020J3500*
G01Y1120800*
G03X2359900Y1116760I4040*
X2363940Y1120800J4040*
X2359900Y1124840I4040*
X2355860Y1120800J4040*
G01Y1164020*
G03X2356000Y1165000I3360J980*
X2352500Y1168500I3500*
X2349000Y1165000J3500*
G01Y1187500*
X2349761*
G02X2350245Y1187324J750*
G03X2352500Y1186500I2255J2676*
X2354755Y1187324J3500*
G02X2355239Y1187500I484J574*
G01X2361500*
Y1165000*
G03X2363760Y1161727I3500*
G01Y1146400*
G03X2364560Y1143987I4040*
G01Y1125800*
G03X2368600Y1121760I4040*
X2372640Y1125800J4040*
X2368600Y1129840I4040*
X2364560Y1125800J4040*
G01Y1143987*
G03X2367800Y1142360I3240J2413*
X2371840Y1146400J4040*
X2367800Y1150440I4040*
X2363760Y1146400J4040*
G01Y1161727*
G03X2365000Y1161500I1240J3273*
X2368500Y1165000J3500*
X2365000Y1168500I3500*
X2361500Y1165000J3500*
G01Y1187500*
X2362261*
G02X2362745Y1187324J750*
G03X2365000Y1186500I2255J2676*
X2367255Y1187324J3500*
G02X2367739Y1187500I484J574*
G01X2376500*
Y1165000*
G03X2378460Y1161857I3500*
G01Y1046000*
G03X2382500Y1041960I4040*
X2386540Y1046000J4040*
X2382500Y1050040I4040*
X2378460Y1046000J4040*
G01Y1161857*
G03X2378760Y1161727I1540J3143*
G01Y1144100*
G03X2382800Y1140060I4040*
X2386840Y1144100J4040*
X2382800Y1148140I4040*
X2378760Y1144100J4040*
G01Y1161727*
G03X2380000Y1161500I1240J3273*
X2383500Y1165000J3500*
X2380000Y1168500I3500*
X2376500Y1165000J3500*
G01Y1187500*
X2377261*
G02X2377745Y1187324J750*
G03X2380000Y1186500I2255J2676*
X2382255Y1187324J3500*
G02X2382739Y1187500I484J574*
G01X2385018*
G02X2385548Y1187280J750*
G01X2390460Y1182368*
G02X2390680Y1181838I530J530*
G01Y1180987*
G02X2389930Y1180237I750*
X2389501Y1180371J750*
G03X2387500Y1181000I2001J2871*
X2384000Y1177500J3500*
X2387500Y1174000I3500*
X2389501Y1174629J3500*
G02X2389930Y1174763I429J616*
X2389960J750*
G01Y1044600*
G03X2394000Y1040560I4040*
X2398040Y1044600J4040*
X2394000Y1048640I4040*
X2389960Y1044600J4040*
G01Y1174763*
G02X2390680Y1174013I30J750*
G01Y1138220*
G03X2391237Y1136877I1900*
G01X2393035Y1135078*
G02X2393255Y1134548I530J530*
X2393240Y1134399I751*
G03X2393160Y1133600I3960J799*
X2397200Y1129560I4040*
X2401240Y1133600J4040*
X2397200Y1137640I4040*
X2396401Y1137560J4040*
G02X2396252Y1137545I149J735*
X2395722Y1137765J750*
G01X2394700Y1138787*
G02X2394480Y1139318I530J531*
G01Y1149742*
G02X2395230Y1150492I750*
X2395695Y1150330J750*
G03X2398200Y1149460I2505J3170*
X2401260Y1150862J4040*
G01Y1127200*
G03X2405300Y1123160I4040*
X2409340Y1127200J4040*
X2405300Y1131240I4040*
X2401260Y1127200J4040*
G01Y1150862*
G03X2402240Y1153500I3060J2638*
X2398200Y1157540I4040*
X2395695Y1156670J4040*
G02X2395230Y1156508I465J588*
X2394480Y1157258J750*
G01Y1182935*
G03X2393923Y1184279I1900*
G01X2391983Y1186220*
G02X2391763Y1186750I530J530*
X2392513Y1187500I750*
G01X2403878*
G02X2404628Y1186750J750*
X2404492Y1186319I750*
G03X2403760Y1184000I3308J2319*
X2403762Y1183883I4040*
G02Y1183867I762J22*
G01X2403960Y1175246*
G02X2403961Y1175231I749J28*
G03X2406760Y1171455I4039J69*
G01Y1153900*
G03X2410800Y1149860I4040*
X2414840Y1153900J4040*
X2410800Y1157940I4040*
X2406760Y1153900J4040*
G01Y1171455*
G03X2408000Y1171260I1240J3845*
X2412040Y1175300J4040*
X2412038Y1175417I4040*
G02Y1175433I762J22*
G01X2411840Y1184054*
G02X2411839Y1184069I749J28*
G03X2411108Y1186319I4039J69*
G02X2410972Y1186750I614J431*
X2411722Y1187500I750*
G01X2418460*
Y1137500*
G03X2422500Y1133460I4040*
X2426540Y1137500J4040*
X2422500Y1141540I4040*
X2418460Y1137500J4040*
G01Y1187500*
X2435160*
Y1144800*
G03X2439200Y1140760I4040*
X2443240Y1144800J4040*
X2439200Y1148840I4040*
X2435160Y1144800J4040*
G01Y1187500*
X2437050*
G02X2437800Y1186750J750*
X2437778Y1186570I750*
G03X2437660Y1185600I3922J970*
X2441700Y1181560I4040*
X2445740Y1185600J4040*
X2445622Y1186570I4040*
G02X2445600Y1186750I728J180*
X2446350Y1187500I750*
G01X2449250*
G02X2450000Y1186750J750*
G01Y1013250*
G02X2449250Y1012500I750*
G01X2239450*
G02X2238700Y1013250J750*
G01Y1013276*
G02X2239254Y1014000I750*
G03X2242240Y1017900I1054J3900*
X2238200Y1021940I4040*
X2234160Y1017900J4040*
X2237146Y1014000I4040*
G02X2237700Y1013276I196J724*
G01Y1013250*
G02X2236950Y1012500I750*
G01X2204933*
G02X2204183Y1013250J750*
X2204403Y1013780I750*
G01X2222553Y1031930*
G03X2223109Y1033274I1344J1344*
G01Y1082239*
G03X2222549Y1083586I1900*
G01X2221454Y1084680*
G02X2221235Y1085211I531J531*
X2221971Y1085961I750*
G03X2225940Y1090000I71J4039*
X2221900Y1094040I4040*
X2217860Y1090000J4040*
X2218014Y1088895I4040*
G02X2218043Y1088690I721J205*
X2217293Y1087940I750*
G01X2211840*
G03X2210497Y1087383J1900*
G01X2206278Y1083165*
G02X2205748Y1082945I530J530*
X2205599Y1082960J750*
G03X2204800Y1083040I799J3960*
X2200760Y1079000J4040*
X2204800Y1074960I4040*
X2205960Y1075130J4040*
G01Y1068600*
G03X2210000Y1064560I4040*
X2214040Y1068600J4040*
X2210000Y1072640I4040*
X2205960Y1068600J4040*
G01Y1075130*
G03X2208840Y1079000I1160J3870*
X2208760Y1079799I4040*
G02X2208745Y1079948I736J149*
X2208965Y1080478I750*
G01X2209929Y1081442*
G02X2210460Y1081662I531J530*
X2211202Y1081020J750*
G03X2215200Y1077560I3998J580*
X2216733Y1077862J4040*
G02X2217017Y1077918I284J694*
X2217767Y1077168J750*
G01Y1035010*
G02X2217548Y1034480I750*
G01X2185788Y1002720*
G02X2185257Y1002500I531J530*
G01X2143250*
G02X2142500Y1003250J750*
G01Y1170068*
G02X2143007Y1170777I750*
G03X2145740Y1174600I1307J3823*
X2143007Y1178423I4040*
G02X2142500Y1179132I243J709*
G01Y1182705*
X2452500Y1209250D02*
G02X2453250Y1210000I750D01*
G01X2455582*
G02X2456332Y1209250J750*
X2456273Y1208960I750*
G03X2455960Y1207400I3727J1560*
X2460000Y1203360I4040*
X2464040Y1207400J4040*
X2463727Y1208960I4040*
G02X2463668Y1209250I691J290*
X2464418Y1210000I750*
G01X2472190*
Y1155000*
G03X2477160Y1149701I5310*
G01Y1064300*
G03X2481200Y1060260I4040*
X2485240Y1064300J4040*
X2481200Y1068340I4040*
X2477160Y1064300J4040*
G01Y1111700*
G03X2481200Y1107660I4040*
X2485240Y1111700J4040*
X2481200Y1115740I4040*
X2477160Y1111700J4040*
G01Y1149701*
G03X2477500Y1149690I340J5299*
X2482810Y1155000J5310*
X2477500Y1160310I5310*
X2472190Y1155000J5310*
G01Y1210000*
X2495260*
Y1111700*
G03X2499300Y1107660I4040*
X2503340Y1111700J4040*
X2499300Y1115740I4040*
X2495260Y1111700J4040*
G01Y1210000*
X2497560*
Y1201900*
G03X2501600Y1197860I4040*
X2505640Y1201900J4040*
X2501600Y1205940I4040*
X2497560Y1201900J4040*
G01Y1210000*
X2513760*
Y1110600*
G03X2514672Y1108044I4040*
G02X2514681Y1108032I581J475*
G01X2516560Y1105706*
Y1074400*
Y1074372*
G02Y1074361I750*
G01Y1066039*
G02Y1066028I750J11*
G01Y1066000*
G03X2520600Y1061960I4040*
X2524640Y1066000J4040*
G01Y1066028*
G02Y1066039I750*
G01Y1074361*
G02Y1074372I750J11*
G01Y1074400*
G03X2520600Y1078440I4040*
X2516560Y1074400J4040*
G01Y1105706*
X2517980Y1103948*
G02X2518141Y1103561I584J471*
G01X2518881Y1096988*
G02X2518883Y1096972I744J95*
G03X2519260Y1095647I4017J428*
G01Y1087500*
G03X2523300Y1083460I4040*
X2527340Y1087500J4040*
X2523300Y1091540I4040*
X2519260Y1087500J4040*
G01Y1095647*
G03X2522900Y1093360I3640J1753*
X2526940Y1097400J4040*
X2526912Y1097875I4040*
G02X2526910Y1097890I745J88*
G01X2526019Y1105812*
G02X2526017Y1105828I744J95*
G03X2525128Y1107956I4017J428*
G02X2525119Y1107968I581J475*
G01X2520967Y1113109*
G02X2520958Y1113120I577J479*
G03X2517800Y1114640I3158J2520*
X2513760Y1110600J4040*
G01Y1210000*
X2515360*
Y1120800*
G03X2519400Y1116760I4040*
X2523440Y1120800J4040*
X2519400Y1124840I4040*
X2515360Y1120800J4040*
G01Y1210000*
X2518760*
Y1136900*
G03X2522800Y1132860I4040*
X2526840Y1136900J4040*
X2522800Y1140940I4040*
X2518760Y1136900J4040*
G01Y1210000*
X2519260*
Y1149500*
G03X2523300Y1145460I4040*
X2527340Y1149500J4040*
X2523300Y1153540I4040*
X2519260Y1149500J4040*
G01Y1162500*
G03X2523300Y1158460I4040*
X2527340Y1162500J4040*
X2523300Y1166540I4040*
X2519260Y1162500J4040*
G01Y1210000*
X2526386*
Y1169800*
G03X2530426Y1165760I4040*
X2530960Y1165795J4040*
G01Y1037400*
G03X2535000Y1033360I4040*
X2539040Y1037400J4040*
X2535000Y1041440I4040*
X2530960Y1037400J4040*
G01Y1165795*
G03X2533560Y1167251I534J4005*
G01Y1066000*
G03X2537600Y1061960I4040*
X2541640Y1066000J4040*
X2537600Y1070040I4040*
X2533560Y1066000J4040*
G01Y1167251*
G03X2534466Y1169800I3134J2549*
X2530426Y1173840I4040*
X2526386Y1169800J4040*
G01Y1210000*
X2538760*
Y1175200*
G03X2542800Y1171160I4040*
X2543960Y1171330J4040*
G01Y1073800*
G03X2548000Y1069760I4040*
X2552040Y1073800J4040*
X2548000Y1077840I4040*
X2543960Y1073800J4040*
G01Y1171330*
G03X2546560Y1173722I1160J3870*
G01Y1146600*
G03X2550600Y1142560I4040*
X2551360Y1142632J4040*
G01Y1087200*
G03X2551396Y1086659I4040*
G02X2551398Y1086644I743J101*
G01X2552489Y1078219*
G02X2552491Y1078204I743J107*
G03X2556500Y1074660I4009J496*
X2560540Y1078700J4040*
X2560504Y1079241I4040*
G02X2560502Y1079256I743J101*
G01X2559411Y1087681*
G02X2559409Y1087696I743J107*
G03X2555400Y1091240I4009J496*
X2551360Y1087200J4040*
G01Y1142632*
G03X2554640Y1146600I760J3968*
X2550600Y1150640I4040*
X2546560Y1146600J4040*
G01Y1159600*
G03X2550600Y1155560I4040*
X2554640Y1159600J4040*
X2550600Y1163640I4040*
X2546560Y1159600J4040*
G01Y1173722*
G03X2546840Y1175200I3760J1478*
X2542800Y1179240I4040*
X2538760Y1175200J4040*
G01Y1210000*
X2545260*
Y1202800*
G03X2549300Y1198760I4040*
X2553340Y1202800J4040*
X2549300Y1206840I4040*
X2545260Y1202800J4040*
G01Y1210000*
X2556960*
Y1203800*
G03X2558260Y1200831I4040*
G01Y1167700*
G03X2562160Y1163662I4040*
G01Y1076400*
G03X2563360Y1073527I4040*
G02X2563371Y1073516I527J534*
G01X2564760Y1072127*
Y1037400*
G03X2568800Y1033360I4040*
X2572840Y1037400J4040*
X2568800Y1041440I4040*
X2564760Y1037400J4040*
G01Y1072127*
X2567744Y1069143*
G02X2567925Y1068850I531J530*
G01X2570155Y1062160*
G02X2570160Y1062145I708J248*
G03X2572745Y1059560I3840J1255*
G02X2572760Y1059555I233J713*
G01X2580485Y1056980*
G02X2580500Y1056975I226J715*
G03X2581800Y1056760I1300J3825*
X2585840Y1060800J4040*
X2583055Y1064640I4040*
G02X2583040Y1064645I233J713*
G01X2577550Y1066475*
G02X2577075Y1066950I237J712*
G01X2575245Y1072440*
G02X2575240Y1072455I708J248*
G03X2574240Y1074073I3840J1255*
G02X2574229Y1074084I527J534*
G01X2569084Y1079229*
G02X2569073Y1079240I523J538*
G03X2566200Y1080440I2873J2840*
X2562160Y1076400J4040*
G01Y1163662*
G03X2562300Y1163660I140J4038*
X2563160Y1163753J4040*
G01Y1086700*
G03X2567200Y1082660I4040*
X2571240Y1086700J4040*
X2567200Y1090740I4040*
X2563160Y1086700J4040*
G01Y1163753*
G03X2563411Y1163816I860J3947*
G02X2563426Y1163820I206J721*
G01X2570149Y1165698*
G02X2570164Y1165703I213J719*
G03X2570953Y1166010I1064J3897*
G02X2570968Y1166017I344J666*
G01X2576796Y1168981*
G02X2576810Y1168988I350J664*
G03X2579040Y1172600I1810J3612*
X2575000Y1176640I4040*
X2573147Y1176190J4040*
G02X2573132Y1176183I344J666*
G01X2567693Y1173417*
G02X2567555Y1173363I340J668*
G01X2561251Y1171602*
G02X2561236Y1171597I213J719*
G03X2558260Y1167700I1064J3897*
G01Y1200831*
G03X2561000Y1199760I2740J2969*
X2565040Y1203800J4040*
X2561000Y1207840I4040*
X2556960Y1203800J4040*
G01Y1210000*
X2580360*
Y1076000*
G03X2584400Y1071960I4040*
X2584631Y1071967J4040*
G02X2584647I43J749*
G01X2592370Y1072363*
G02X2592384Y1072364I48J748*
G03X2596240Y1076400I184J4036*
X2592200Y1080440I4040*
X2591969Y1080433J4040*
G02X2591953I43J749*
G01X2584230Y1080037*
G02X2584216Y1080036I48J748*
G03X2580360Y1076000I184J4036*
G01Y1210000*
X2584860*
Y1171500*
G03X2587825Y1167606I4040*
G01Y1112500*
G03X2592500Y1107825I4675*
X2596960Y1111099J4675*
G01Y1050000*
G03X2601000Y1045960I4040*
X2605040Y1050000J4040*
X2601000Y1054040I4040*
X2596960Y1050000J4040*
G01Y1111099*
G03X2597175Y1112500I4460J1401*
X2592500Y1117175I4675*
X2587825Y1112500J4675*
G01Y1137500*
G03X2592500Y1132825I4675*
X2597175Y1137500J4675*
X2592500Y1142175I4675*
X2587825Y1137500J4675*
G01Y1167606*
G03X2588900Y1167460I1075J3894*
X2592940Y1171500J4040*
X2588900Y1175540I4040*
X2584860Y1171500J4040*
G01Y1210000*
X2598360*
Y1077400*
G03X2602400Y1073360I4040*
X2606440Y1077400J4040*
X2602400Y1081440I4040*
X2598360Y1077400J4040*
G01Y1210000*
X2604560*
Y1170300*
G03X2608600Y1166260I4040*
X2608658J4040*
G02X2608669Y1166261I11J749*
X2608673Y1166260J750*
G01X2610325Y1166275*
Y1112500*
G03X2611560Y1109334I4675*
G01Y1029600*
G03X2615600Y1025560I4040*
X2619640Y1029600J4040*
X2615600Y1033640I4040*
X2611560Y1029600J4040*
G01Y1109334*
G03X2615000Y1107825I3440J3166*
X2619360Y1110813J4675*
G01Y1076400*
G03X2620972Y1073171I4040*
G02X2620984Y1073162I451J599*
G01X2627621Y1068109*
G02X2627634Y1068100I445J603*
G03X2630100Y1067260I2466J3200*
X2632360Y1067951J4040*
G01Y1037600*
G03X2636400Y1033560I4040*
X2637655Y1033760J4040*
G02X2637670Y1033765I233J713*
G01X2645396Y1036241*
G02X2645411Y1036246I239J711*
G03X2648240Y1040100I1211J3854*
X2644200Y1044140I4040*
X2642945Y1043940J4040*
G02X2642930Y1043935I233J713*
G01X2635204Y1041459*
G02X2635189Y1041454I239J711*
G03X2632360Y1037600I1211J3854*
G01Y1067951*
G03X2634140Y1071300I2260J3349*
X2632528Y1074529I4040*
G02X2632516Y1074538I451J599*
G01X2625879Y1079591*
G02X2625866Y1079600I445J603*
G03X2623400Y1080440I2466J3200*
X2619360Y1076400J4040*
G01Y1110813*
G03X2619675Y1112500I4360J1687*
X2615000Y1117175I4675*
X2610325Y1112500J4675*
G01Y1137500*
G03X2615000Y1132825I4675*
X2619675Y1137500J4675*
X2615000Y1142175I4675*
X2610325Y1137500J4675*
G01Y1166275*
X2619997Y1166360*
G02X2620013I18J750*
G03X2624040Y1170400I13J4040*
X2622265Y1173745I4040*
G02X2622253Y1173754I421J621*
G01X2615317Y1178510*
G02X2615304Y1178519I415J625*
G03X2613000Y1179240I2304J3319*
X2609979Y1177882J4040*
G02X2609968Y1177871I561J498*
G01X2605620Y1173028*
G02X2605610Y1173017I565J493*
G03X2604560Y1170300I2990J2717*
G01Y1210000*
X2606942*
G02X2607692Y1209250J750*
X2607687Y1209164I750*
G03X2607660Y1208700I4013J464*
X2611700Y1204660I4040*
X2615740Y1208700J4040*
X2615713Y1209164I4040*
G02X2615708Y1209250I745J86*
X2616458Y1210000I750*
G01X2640160*
Y1076400*
G03X2644200Y1072360I4040*
X2648240Y1076400J4040*
X2644200Y1080440I4040*
X2640160Y1076400J4040*
G01Y1210000*
X2643460*
Y1203600*
G03X2647500Y1199560I4040*
X2647960Y1199586J4040*
G01Y1112800*
G03X2650960Y1108896I4040*
G01Y1076700*
G03X2655000Y1072660I4040*
X2659040Y1076700J4040*
X2655000Y1080740I4040*
X2650960Y1076700J4040*
G01Y1108896*
G03X2652000Y1108760I1040J3904*
X2656040Y1112800J4040*
X2652000Y1116840I4040*
X2647960Y1112800J4040*
G01Y1199586*
G03X2650560Y1200962I460J4014*
G01Y1157500*
G03X2654600Y1153460I4040*
X2658640Y1157500J4040*
X2654600Y1161540I4040*
X2650560Y1157500J4040*
G01Y1200962*
G03X2651540Y1203600I3060J2638*
X2647500Y1207640I4040*
X2643460Y1203600J4040*
G01Y1210000*
X2659360*
Y1023200*
G03X2663400Y1019160I4040*
X2667440Y1023200J4040*
X2663400Y1027240I4040*
X2659360Y1023200J4040*
G01Y1210000*
X2671750*
G02X2672500Y1209250J750*
G01Y1013250*
G02X2671750Y1012500I750*
G01X2614432*
G02X2613902Y1012720J750*
G01X2599774Y1026847*
G03X2599223Y1027231I1343J1343*
G02X2598785Y1027912I312J681*
X2599201Y1028584I750*
G03X2601440Y1032200I1801J3616*
X2597400Y1036240I4040*
X2593360Y1032200J4040*
X2595238Y1028787I4040*
G02X2595587Y1028154I401J633*
X2594837Y1027404I750*
G01X2515015*
G03X2513672Y1026847J1900*
G01X2499544Y1012720*
G02X2499014Y1012500I530J530*
G01X2453250*
G02X2452500Y1013250J750*
G01Y1209250*
G37*
G54D10*
X39500Y678030D02*
X39540Y678090D01*
Y678160*
X39520Y678230*
X39470Y678280*
X39410Y678320*
X39330Y678350*
X39260Y678340*
X39200Y678300*
X38060Y677050*
X38030Y677000*
Y676980*
X37590Y675550*
X37570Y675510*
X37560Y675480*
Y674120*
X37570Y674050*
X37990Y673030*
X38000Y673000*
X38030Y672970*
X38560Y672220*
X38570*
X38600Y672190*
X38610Y672170*
X38630Y672160*
X39450Y671490*
Y671480*
X39470Y671470*
X39500Y671460*
X39550Y671430*
X40460Y671230*
X40530*
X40550*
X41230Y671260*
X41270Y671270*
X41300Y671290*
X42370Y671620*
X42400*
X42450Y671650*
X43360Y672220*
X43370*
X43400Y672250*
X43420Y672270*
X43770Y672890*
X43790Y672930*
Y672950*
X43800*
X44060Y673970*
Y674060*
Y674120*
X44220Y673550*
X44230Y673490*
X44260Y673450*
X45030Y672460*
X45040Y672440*
X45060Y672430*
Y672420*
X46070Y671690*
X46120Y671670*
X46150Y671660*
X47290Y671250*
X47330Y671230*
X47370*
X47420Y671250*
X47460Y671290*
X47500Y671320*
X47540Y671350*
X47550Y671390*
X47560Y671430*
Y678180*
X47540Y678250*
X47500Y678300*
X47430Y678340*
X47350Y678350*
X47280Y678340*
X47210Y678300*
X47170Y678250*
X47150Y678180*
Y671730*
X46310Y672020*
X45330Y672720*
X44600Y673670*
X44060Y675490*
X44040Y675550*
X43990Y675600*
X43960Y675620*
X43890Y675650*
X43810*
X43730Y675620*
X43670Y675560*
X43650Y675480*
Y674060*
X43390Y673070*
X43070Y672530*
X42230Y671990*
X41190Y671670*
X40530Y671630*
X39670Y671830*
X38890Y672460*
X38370Y673200*
X37970Y674170*
Y675460*
X38380Y676800*
X39500Y678030*
X743600Y598000D02*
Y585410D01*
X719790Y561600*
X715000*
X928000Y589200D02*
X924613Y585813D01*
X920813*
X902500Y567500*
X962000Y1198600D02*
X906274D01*
X902484Y1194810*
X897140*
X891660Y1200290*
X876040*
X872460Y1196710*
X854112*
X853402Y1196000*
X847600*
X980000Y873600D02*
X984990Y878590D01*
X1034710*
X1040000Y873300*
X986200Y620800D02*
X990990D01*
X997990Y613800*
Y506590*
X972400Y481000*
X1047800Y1040000D02*
X1042600Y1034800D01*
X1066126Y1040000D02*
X1064700Y1038574D01*
Y1028747*
X1060763Y1024810*
X1032816*
X1030010Y1027616*
Y1030290*
X1025000Y1035300*
X1094500Y1116000D02*
X1090500Y1112000D01*
Y1058343*
X1088157Y1056000*
X1063800*
X1047800Y1040000*
X1094500Y1124000D02*
X1098500Y1128000D01*
Y1132950*
X1101550Y1136000*
X1103450*
X1106500Y1139050*
Y1228950*
X1109550Y1232000*
X1269175*
X1277365Y1240190*
X1282500*
X1102500Y1108000D02*
X1098500Y1104000D01*
Y1058343*
X1089356Y1049199*
X1075325*
X1066126Y1040000*
X1110500Y1108000D02*
Y1112000D01*
X1112157*
X1122500Y1122343*
Y1133657*
X1124843Y1136000*
X1128157*
X1130500Y1138343*
Y1173657*
X1132943Y1176100*
X1264057*
X1266555Y1173602*
Y1170671*
X1269826Y1167400*
X1270774*
X1279200Y1158974*
Y1155426*
X1282500Y1152126*
X1115400Y1380600D02*
X1142426D01*
X1149816Y1387990*
X1249260*
X1266250Y1371000*
X1309322*
X1342200Y1338122*
Y1327200*
X1118500Y1108000D02*
Y1113657D01*
X1124843Y1120000*
X1136157*
X1142500Y1126343*
Y1161657*
X1148843Y1168000*
X1256157*
X1258500Y1165657*
Y1162343*
X1260843Y1160000*
X1264526*
X1272016Y1152510*
X1276576*
X1282500Y1146586*
X1122500Y1040000D02*
Y1032750D01*
X1143750Y1011500*
Y1008476*
X1164036Y988190*
X1199784*
X1201864Y986110*
X1254355*
X1255135Y986890*
X1261084*
X1273764Y974210*
X1300860*
X1306940Y980290*
X1382336*
X1401536Y961090*
X1417664*
X1458064Y1001490*
X1512910*
X1517500Y996900*
X1126500Y1084000D02*
X1122500Y1080000D01*
Y1040000*
X1126500Y1092000D02*
X1130500Y1088000D01*
X1137583*
X1143500Y1082083*
Y1058359*
X1161510Y1040349*
Y1040000*
X1126500Y1108000D02*
X1130500Y1112000D01*
X1138500*
X1146500Y1120000*
X1264157*
X1266157Y1118000*
X1282500*
X1134500Y1076000D02*
X1140500Y1070000D01*
Y1057117*
X1157617Y1040000*
X1134500Y1100000D02*
X1138500Y1104000D01*
X1264891*
X1271691Y1097200*
X1282500*
X1134500Y1108000D02*
X1138743D01*
X1142743Y1112000*
X1267391*
X1271791Y1107600*
X1276600*
X1282500Y1101700*
X1136157Y1096000D02*
X1130500D01*
X1126500Y1100000*
X1136157Y1096000D02*
X1138934D01*
X1146500Y1088434*
Y1085657*
X1149300Y867900D02*
X1165290Y851910D01*
X1831584*
X1834390Y854716*
Y881764*
X1907236Y954610*
X1918310*
X1931100Y967400*
X1153374Y1040000D02*
X1144279Y1049095D01*
X1136535*
X1130500Y1055130*
Y1080000*
X1134500Y1084000*
X1157617Y1040000D02*
X1158510Y1039107D01*
Y1031317*
X1185210Y1004617*
Y1001731*
X1192751Y994190*
X1202269*
X1204349Y992110*
X1251869*
X1252649Y992890*
X1263569*
X1269649Y986810*
X1343610*
X1344390Y987590*
X1404916*
X1426814Y1009488*
X1508805*
X1539500Y1040183*
Y1046800*
X1161510Y1040000D02*
Y1032560D01*
X1188210Y1005860*
Y1002973*
X1193993Y997190*
X1203512*
X1205592Y995110*
X1250627*
X1253507Y997990*
X1320336*
X1326616Y991710*
X1399384*
X1420162Y1012488*
X1507562*
X1534150Y1039076*
Y1048224*
X1537516Y1051590*
X1543210*
X1547000Y1047800*
X1164510Y1040000D02*
Y1043740D01*
X1154500Y1053750*
Y1061657*
X1152157Y1064000*
X1148843*
X1146500Y1066343*
Y1085657*
X1166500Y1100000D02*
X1170500Y1096000D01*
X1256157*
X1258500Y1093657*
Y1090343*
X1267633Y1081210*
X1282500*
X1174850Y1040000D02*
Y1041400D01*
X1162500Y1053750*
Y1061657*
X1160157Y1064000*
X1156843*
X1154500Y1066343*
Y1072000*
X1150500Y1076000*
X1182500Y1068000D02*
X1186500Y1064000D01*
Y1040000*
X1183000Y923000D02*
X1188390Y928390D01*
X1208384*
X1221574Y915200*
X1255800*
X1186500Y1040000D02*
Y1037526D01*
X1194016Y1030010*
X1274410*
X1281800Y1037400*
X1222500Y1132000D02*
X1226500Y1128000D01*
X1266826*
X1272016Y1133190*
X1275984*
X1278790Y1130384*
Y1129751*
X1282500Y1126041*
X1222500Y1204095D02*
Y1204000D01*
X1230500Y1204095D02*
Y1204000D01*
X1254500Y1212000D02*
X1258500D01*
Y1213657*
X1260843Y1216000*
X1282500*
X1271500Y1062700D02*
X1282500D01*
X1274000Y1279200D02*
X1282500D01*
X1279200Y1071200D02*
X1282500D01*
Y1042600D02*
X1243826D01*
X1239900Y1046526*
Y1050709*
X1234500Y1056109*
Y1069657*
X1232157Y1072000*
X1162500*
X1158500Y1076000*
X1282500Y1051410D02*
X1249433D01*
X1242500Y1058343*
Y1077657*
X1240157Y1080000*
X1164843*
X1162500Y1082343*
Y1088000*
X1158500Y1092000*
X1282500Y1054410D02*
X1254433D01*
X1250500Y1058343*
Y1085657*
X1248157Y1088000*
X1178500*
X1174500Y1084000*
X1282500Y1062700D02*
X1286616D01*
X1294126Y1055190*
X1299384*
X1306574Y1048000*
X1324700*
X1282500Y1071200D02*
X1285357D01*
X1298007Y1058550*
X1314491*
X1320231Y1052810*
X1383693*
X1390521Y1059638*
X1406178*
X1437231Y1090690*
X1446169*
X1448849Y1088010*
X1502366*
X1507755Y1082620*
X1545198*
X1581609Y1046210*
X1615740*
X1618840Y1043110*
X1635934*
X1645654Y1033390*
X1704284*
X1705629Y1032045*
X1747671*
X1760516Y1019200*
X1905800*
X1282500Y1081210D02*
X1291564D01*
X1294184Y1078590*
X1302936*
X1322716Y1058810*
X1328593*
X1351373Y1081590*
X1355616*
X1363816Y1089790*
X1416551*
X1417131Y1089210*
X1427265*
X1434745Y1096690*
X1448655*
X1451335Y1094010*
X1504851*
X1506861Y1092000*
X1518400*
X1282500Y1084210D02*
X1270290D01*
X1262500Y1092000*
X1282500Y1097200D02*
X1283883D01*
X1289093Y1091990*
X1302684*
X1308487Y1086188*
X1309438*
X1324016Y1071610*
X1332908*
X1350508Y1089210*
X1354751*
X1361331Y1095790*
X1419036*
X1419616Y1095210*
X1424780*
X1432260Y1102690*
X1451140*
X1453820Y1100010*
X1521407*
X1526817Y1094600*
X1539200*
X1282500Y1101700D02*
X1283090Y1101110D01*
X1284216*
X1290316Y1095010*
X1303907*
X1309707Y1089210*
X1340636*
X1356216Y1104790*
X1372310*
X1374290Y1102810*
X1404010*
X1406890Y1105690*
X1452383*
X1455063Y1103010*
X1497810*
X1501090Y1106290*
X1535460*
X1560150Y1081600*
X1570400*
X1282500Y1118000D02*
X1286298D01*
X1295398Y1108900*
X1305839*
X1319529Y1095210*
X1338151*
X1353731Y1110790*
X1367892*
X1372492Y1115390*
X1391627*
X1395007Y1112010*
X1464536*
X1465116Y1112590*
X1469084*
X1472384Y1109290*
X1540410*
X1560200Y1089500*
X1282500Y1126041D02*
X1296311Y1112230D01*
X1306752*
X1311772Y1107210*
X1344041*
X1350621Y1113790*
X1366649*
X1371249Y1118390*
X1392869*
X1396249Y1115010*
X1463293*
X1463873Y1115590*
X1470327*
X1471227Y1114690*
X1540410*
X1560810Y1094290*
X1563060*
X1564940Y1092410*
X1693136*
X1709856Y1109130*
X1737831*
X1738901Y1110200*
X1767100*
X1777910Y1121010*
X1854860*
X1867600Y1133750*
X1881524*
X1912574Y1164800*
X1924000*
X1282500Y1130283D02*
X1281790Y1130993D01*
Y1131627*
X1277227Y1136190*
X1270773*
X1270583Y1136000*
X1220843*
X1218500Y1133657*
Y1130343*
X1216157Y1128000*
X1170500*
X1166500Y1124000*
X1282500Y1137074D02*
X1273384Y1146190D01*
X1267881*
X1265691Y1144000*
X1242500*
X1238500Y1148000*
X1282500Y1141317D02*
X1274627Y1149190D01*
X1271093*
X1268283Y1152000*
X1252843*
X1250500Y1154343*
Y1160000*
X1246500Y1164000*
X1282500Y1146586D02*
X1285476Y1143610D01*
X1303290*
X1313090Y1133810*
X1326710*
X1329100Y1136200*
X1348783*
X1353973Y1141390*
X1360427*
X1362627Y1139190*
X1370374*
X1376354Y1133210*
X1403269*
X1405869Y1135810*
X1413669*
X1440810Y1162951*
Y1166784*
X1446026Y1172000*
X1454900*
X1282500Y1152126D02*
X1288016Y1146610D01*
X1360016*
X1364436Y1142190*
X1371617*
X1377597Y1136210*
X1402027*
X1404627Y1138810*
X1412427*
X1437810Y1164193*
Y1168027*
X1446573Y1176790*
X1456884*
X1464484Y1169190*
X1481484*
X1492964Y1157710*
X1703218*
X1728178Y1182670*
X1789203*
X1792163Y1179710*
X1807988*
X1815078Y1186800*
X1823500*
X1282500Y1168274D02*
X1271674Y1179100D01*
X1127943*
X1122500Y1173657*
Y1138343*
X1120157Y1136000*
X1116843*
X1114500Y1133657*
Y1120000*
X1110500Y1116000*
X1282500Y1180810D02*
X1279816D01*
X1268626Y1192000*
X1250500*
X1246500Y1188000*
X1282500Y1198190D02*
X1273422D01*
X1271232Y1196000*
X1262500*
X1282500Y1203500D02*
X1274489D01*
X1270989Y1200000*
X1250500*
X1246500Y1204000*
X1282500Y1209074D02*
X1281426Y1208000D01*
X1258500*
X1254500Y1204000*
X1282500Y1216000D02*
X1282800D01*
X1298590Y1231790*
X1302784*
X1305590Y1228984*
Y1223898*
X1320898Y1208590*
X1325784*
X1329000Y1205374*
Y1201926*
X1339126Y1191800*
X1347783*
X1361773Y1177810*
X1379036*
X1383816Y1182590*
X1427907*
X1447307Y1201990*
X1527204*
X1538904Y1190290*
X1608465*
X1614245Y1184510*
X1630624*
X1653445Y1207331*
X1682668*
X1689127Y1213790*
X1758010*
X1762390Y1209410*
X1802022*
X1803802Y1211190*
X1816702*
X1821852Y1216340*
X1841175*
X1842705Y1217870*
X1862295*
X1886765Y1193400*
X1964900*
X1282500Y1230716D02*
X1288974Y1237190D01*
X1301627*
X1308590Y1230227*
Y1225141*
X1322141Y1211590*
X1327027*
X1329307Y1209310*
X1335164*
X1349400Y1195074*
Y1194426*
X1363016Y1180810*
X1377793*
X1382573Y1185590*
X1426665*
X1446065Y1204990*
X1533554*
X1540034Y1198510*
X1607022*
X1609302Y1200790*
X1642661*
X1653061Y1211190*
X1682284*
X1690084Y1218990*
X1769984*
X1774864Y1214110*
X1802022*
X1802102Y1214190*
X1815459*
X1823869Y1222600*
X1836400*
X1282500Y1230716D02*
X1275784Y1224000D01*
X1260843*
X1258500Y1221657*
Y1219050*
X1255110Y1215660*
X1234160*
X1230500Y1212000*
X1282500Y1240190D02*
X1302869D01*
X1311590Y1231469*
Y1226383*
X1323063Y1214910*
X1327949*
X1330549Y1212310*
X1337021*
X1358221Y1191110*
X1427942*
X1444822Y1207990*
X1539904*
X1546384Y1201510*
X1605779*
X1610979Y1206710*
X1643422*
X1650902Y1214190*
X1681042*
X1688842Y1221990*
X1771227*
X1776107Y1217110*
X1800779*
X1800859Y1217190*
X1814217*
X1824417Y1227390*
X1957610*
X1986400Y1198600*
X1282500Y1260590D02*
X1279581D01*
X1266491Y1247500*
X1101050*
X1098500Y1244950*
Y1242343*
X1096157Y1240000*
X1092843*
X1090500Y1237657*
Y1136000*
X1086500Y1132000*
X1282500Y1279200D02*
X1286200D01*
X1295200Y1270200*
X1304150*
X1318700Y1255650*
X1325624*
X1330500Y1250774*
Y1249726*
X1334416Y1245810*
X1339680*
X1343600Y1241890*
Y1237100*
X1286100Y1105900D02*
X1304596D01*
X1318286Y1092210*
X1339393*
X1354973Y1107790*
X1369135*
X1373735Y1112390*
X1390384*
X1394084Y1108690*
X1453625*
X1454515Y1107800*
X1467100*
X1300200Y1123600D02*
X1296813Y1126987D01*
Y1127004*
X1282500Y1141317*
X1302600Y936000D02*
X1254474D01*
X1233484Y956990*
X1227290*
X1226710Y956410*
X1198890*
X1198810Y956490*
X1157940*
X1155960Y954510*
X1108590*
X1104010Y959090*
X1033816*
X951173Y876447*
Y801599*
X886224Y736650*
X823550*
X739910Y653010*
X661816*
X516550Y798276*
Y1004200*
X502010Y1018740*
Y1058784*
X503700Y1060474*
Y1074600*
X1307800Y941200D02*
X1270990D01*
X1255200Y956990*
X1241646*
X1226846Y971790*
X1206616*
X1204836Y970010*
X1163016*
X1160716Y972310*
X1101710*
X1094326Y964926*
X1031688*
X945454Y878693*
Y806169*
X903995Y764710*
X876040*
X872460Y768290*
X833540*
X832960Y767710*
X781840*
X774560Y774990*
X703520*
X701550Y773020*
X683620*
X681310Y770710*
X643540*
X635400Y778850*
X602300*
X596950Y784200*
X564700*
X1318200Y1289600D02*
X1337433D01*
X1360390Y1266643*
Y1229364*
X1360210Y1229184*
Y1225216*
X1363016Y1222410*
X1369355*
X1377155Y1214610*
X1415784*
X1464044Y1262870*
X1573144*
X1598144Y1287870*
X1764120*
X1804400Y1247590*
Y1242800*
X1324400Y1261400D02*
X1330026D01*
X1331816Y1263190*
X1335784*
X1348390Y1250584*
Y1234335*
X1348210Y1234155*
Y1220245*
X1359465Y1208990*
X1365627*
X1372007Y1202610*
X1423461*
X1450261Y1229410*
X1595522*
X1598102Y1231990*
X1639984*
X1642964Y1229010*
X1670336*
X1684026Y1242700*
X1761800*
X1328600Y1279200D02*
X1336000Y1271800D01*
X1337233*
X1354390Y1254643*
Y1231849*
X1354210Y1231669*
Y1222731*
X1361951Y1214990*
X1368112*
X1374492Y1208610*
X1420976*
X1447776Y1235410*
X1593037*
X1595617Y1237990*
X1652682*
X1665182Y1250490*
X1776384*
X1779590Y1247284*
Y1243140*
X1778810Y1242360*
Y1238216*
X1781616Y1235410*
X1785584*
X1786474Y1236300*
X1812800*
X1328800Y1003000D02*
X1332187Y1006387D01*
X1340387*
X1352064Y994710*
X1388784*
X1411450Y1017376*
Y1030824*
X1436376Y1055750*
X1446776*
X1462416Y1071390*
X1475993*
X1476173Y1071210*
X1482627*
X1484807Y1073390*
X1494384*
X1500974Y1066800*
X1546984*
X1580394Y1033390*
X1604310*
X1624990Y1012710*
X1691610*
X1692490Y1013590*
X1719068*
X1722128Y1010530*
X1759772*
X1762132Y1012890*
X1860410*
X1867000Y1006300*
X1331200Y1268800D02*
X1335990D01*
X1351390Y1253400*
Y1233092*
X1351210Y1232912*
Y1221488*
X1360708Y1211990*
X1366869*
X1373249Y1205610*
X1422219*
X1449019Y1232410*
X1594279*
X1596859Y1234990*
X1641227*
X1644207Y1232010*
X1668546*
X1684026Y1247490*
X1763784*
X1769613Y1241661*
Y1240087*
X1773000Y1236700*
X1334100Y1283900D02*
X1338890D01*
X1357390Y1265400*
Y1230607*
X1357210Y1230427*
Y1223973*
X1363193Y1217990*
X1369355*
X1375735Y1211610*
X1417027*
X1443827Y1238410*
X1591794*
X1613254Y1259870*
X1702455*
X1708735Y1253590*
X1777527*
X1783600Y1247517*
Y1240200*
X1341600Y998400D02*
X1337910Y994710D01*
X1327859*
X1321579Y1000990*
X1252264*
X1249384Y998110*
X1206835*
X1203535Y1001410*
X1194016*
X1191210Y1004216*
Y1007103*
X1164510Y1033803*
Y1040000*
X1365500Y1128200D02*
X1356236D01*
X1347826Y1119790*
X1328540*
X1327560Y1118810*
X1298216*
X1285700Y1131326*
Y1133874*
X1282500Y1137074*
X1386900Y1156700D02*
X1379966D01*
X1371776Y1164890*
X1363336*
X1360736Y1167490*
X1348910*
X1327850Y1188550*
X1322650*
X1301610Y1209590*
X1296216*
X1293400Y1206774*
Y1206426*
X1290474Y1203500*
X1282500*
X1439700Y1149900D02*
X1440400Y1149200D01*
X1448200*
X1441700Y1079900D02*
X1404010Y1042210D01*
X1375358*
X1364158Y1031010*
X1301531*
X1289941Y1042600*
X1282500*
X1443000Y938700D02*
X1471490Y910210D01*
X1711360*
X1734300Y933150*
X1836100*
X1862260Y959310*
X1916236*
X1929116Y972190*
X1933084*
X1933661Y971613*
X1962213*
X1965600Y975000*
X1445600Y1164800D02*
Y1158026D01*
X1449226Y1154400*
X1465783*
X1493493Y1126690*
X1546137*
X1557017Y1115810*
X1572384*
X1574574Y1118000*
X1591200*
X1450800Y1159600D02*
X1464826D01*
X1494736Y1129690*
X1547380*
X1556470Y1120600*
X1570400*
X1469000Y1076400D02*
X1459476D01*
X1453576Y1070500*
X1436543*
X1405253Y1039210*
X1376601*
X1364401Y1027010*
X1181416*
X1174850Y1033576*
Y1040000*
X1469000Y1162200D02*
X1498510Y1132690D01*
X1548623*
X1555513Y1125800*
X1580800*
X1475600Y1054100D02*
X1480690Y1049010D01*
X1488310*
X1489750Y1050450*
X1514400*
X1518540Y1054590*
X1546984*
X1565200Y1036374*
Y1014000*
X1479500Y1164400D02*
X1508210Y1135690D01*
X1549865*
X1550455Y1135100*
X1589100*
X1480600Y1243300D02*
X1488790Y1251490D01*
X1579094*
X1612474Y1284870*
X1654088*
X1670958Y1268000*
X1745200*
X1510600Y1141400D02*
X1589574D01*
X1592474Y1138500*
X1628640*
X1534000Y1073800D02*
X1499819D01*
X1497229Y1076390*
X1483564*
X1481384Y1074210*
X1477416*
X1474200Y1077426*
Y1077974*
X1470164Y1082010*
X1446364*
X1443684Y1084690*
X1439716*
X1400236Y1045210*
X1370508*
X1359308Y1034010*
X1302773*
X1285373Y1051410*
X1282500*
X1549600Y1021800D02*
X1534288Y1006488D01*
X1439114*
X1410636Y978010*
X1388859*
X1383059Y983810*
X1268407*
X1262327Y989890*
X1253892*
X1253112Y989110*
X1203107*
X1201027Y991190*
X1191508*
X1182210Y1000488*
Y1003375*
X1155510Y1030075*
Y1037864*
X1153374Y1040000*
X1560000Y1243200D02*
X1564790Y1247990D01*
X1591794*
X1606674Y1262870*
X1706865*
X1708735Y1261000*
X1762800*
X1567800Y1097200D02*
X1564413Y1100587D01*
X1558756*
X1541653Y1117690*
X1472469*
X1471569Y1118590*
X1462631*
X1462051Y1118010*
X1437173*
X1429793Y1125390*
X1417140*
X1412360Y1120610*
X1394892*
X1394112Y1121390*
X1370007*
X1365407Y1116790*
X1344271*
X1337691Y1110210*
X1313014*
X1307414Y1115810*
X1296973*
X1282500Y1130283*
X1575600Y1110200D02*
X1557628D01*
X1544138Y1123690*
X1474955*
X1472845Y1125800*
X1440400*
X1602700Y998600D02*
X1599313Y1001987D01*
Y1002261*
X1587984Y1013590*
X1586410*
X1578200Y1021800*
X1644200Y1169300D02*
X1488094D01*
X1481484Y1175910*
X1462007*
X1458127Y1179790*
X1445331*
X1434810Y1169269*
Y1165436*
X1411184Y1141810*
X1403384*
X1400784Y1139210*
X1381476*
X1367096Y1153590*
X1351190*
X1347210Y1149610*
X1292816*
X1289600Y1152826*
Y1161174*
X1282500Y1168274*
X1708200Y1019200D02*
X1678374D01*
X1675284Y1022290*
X1671290*
X1671210Y1022210*
X1646964*
X1629584Y1039590*
X1616690*
X1613610Y1036510*
X1587066*
X1543956Y1079620*
X1506513*
X1501123Y1085010*
X1447607*
X1444927Y1087690*
X1438473*
X1407421Y1056638*
X1391764*
X1384936Y1049810*
X1339810*
X1333210Y1043210*
X1297816*
X1286616Y1054410*
X1282500*
X1747200Y1115400D02*
X1739858D01*
X1736588Y1112130*
X1708613*
X1704293Y1107810*
X1698790*
X1676810Y1129790*
X1661290*
X1650200Y1118700*
X1616120*
X1602830Y1105410*
X1558175*
X1542895Y1120690*
X1473712*
X1472812Y1121590*
X1461388*
X1460808Y1121010*
X1438416*
X1426836Y1132590*
X1407716*
X1404250Y1129124*
Y1127076*
X1400784Y1123610*
X1396135*
X1394835Y1124910*
X1379464*
X1370374Y1134000*
X1363574*
X1359184Y1138390*
X1355216*
X1347826Y1131000*
X1331200*
X1747700Y1191800D02*
X1714059D01*
X1707149Y1184890*
X1643732*
X1634352Y1175510*
X1610517*
X1604737Y1181290*
X1500610*
X1488910Y1192990*
X1451035*
X1417755Y1159710*
X1401883*
X1391083Y1148910*
X1379271*
X1369291Y1158890*
X1360851*
X1358251Y1161490*
X1323493*
X1304790Y1180193*
Y1184984*
X1301984Y1187790*
X1294390*
X1287410Y1180810*
X1282500*
X1768600Y1192500D02*
X1760874D01*
X1759584Y1191210*
X1755340*
X1749960Y1196590*
X1714607*
X1705907Y1187890*
X1642489*
X1633109Y1178510*
X1611759*
X1605979Y1184290*
X1518486*
X1506786Y1195990*
X1449793*
X1416513Y1162710*
X1400641*
X1389841Y1151910*
X1380514*
X1370534Y1161890*
X1362093*
X1359493Y1164490*
X1324736*
X1312100Y1177126*
Y1188074*
X1301984Y1198190*
X1282500*
X1799200Y1229800D02*
X1787774D01*
X1785584Y1231990*
X1778340*
X1778260Y1231910*
X1686784*
X1678846Y1223972*
X1648707*
X1647144Y1222410*
X1621990*
X1617610Y1226790*
X1597145*
X1595855Y1225500*
X1450594*
X1424704Y1199610*
X1370764*
X1364384Y1205990*
X1358223*
X1345210Y1219003*
Y1227580*
X1338395Y1234395*
Y1238459*
X1335174Y1241680*
X1332820*
X1324600Y1249900*
X1814800Y868400D02*
X1808610Y862210D01*
X1385690*
X1369800Y878100*
X1334500*
X1281906Y930694*
X1245356*
X1224350Y951700*
X1175200*
X1821600Y868400D02*
X1812410Y859210D01*
X1331016*
X1320490Y869736*
Y870927*
X1303238Y888179*
Y892579*
X1270221Y925596*
X1240821*
X1236027Y930390*
X1229060*
X1218150Y941300*
X1177800*
X1829000Y869000D02*
X1816210Y856210D01*
X1329773*
X1317490Y868493*
Y869684*
X1300238Y886937*
Y891337*
X1270281Y921293*
X1240881*
X1234784Y927390*
X1226440*
X1225560Y926510*
X1215374*
X1208384Y933500*
X1170000*
X1860400Y1163300D02*
X1846990Y1176710D01*
X1790921*
X1789831Y1177800*
X1773200*
X1866800Y1206400D02*
X1863413Y1209787D01*
Y1212509*
X1861052Y1214870*
X1843948*
X1839800Y1210722*
Y1203742*
X1831188Y1195130*
X1822728*
X1816658Y1201200*
X1796600*
X1791810Y1205990*
X1758490*
X1752090Y1199590*
X1713364*
X1704984Y1191210*
X1641567*
X1631867Y1181510*
X1613002*
X1607222Y1187290*
X1523836*
X1512136Y1198990*
X1448550*
X1422570Y1173010*
X1376290*
X1374490Y1174810*
X1360531*
X1348310Y1187030*
X1339144*
X1327774Y1198400*
X1322426*
X1312500Y1208326*
Y1209974*
X1302784Y1219690*
X1293116*
X1282500Y1209074*
X1870000Y1163300D02*
X1866613Y1166687D01*
Y1170087*
X1849800Y1186900*
X1879800Y964600D02*
X1897726D01*
X1900016Y962310*
X1914993*
X1927873Y975190*
X1942764*
X1945174Y977600*
X1952600*
X1905800Y1034800D02*
X1897110Y1026110D01*
X1760516*
X1751581Y1035045*
X1706872*
X1705527Y1036390*
X1661460*
X1645160Y1052690*
X1617740*
X1615860Y1050810*
X1581251*
X1546441Y1085620*
X1508998*
X1503609Y1091010*
X1450092*
X1447412Y1093690*
X1435988*
X1404936Y1062638*
X1389278*
X1387851Y1061210*
X1343790*
X1342010Y1062990*
X1337016*
X1329836Y1055810*
X1321473*
X1308333Y1068950*
X1297050*
X1289600Y1076400*
X1960400Y1045200D02*
X1912574D01*
X1906424Y1051350*
X1890150*
X1886110Y1055390*
X1819290*
X1812650Y1048750*
X1765050*
X1762310Y1046010*
X1748340*
X1735850Y1058500*
X1724958*
X1722008Y1061450*
X1574854*
X1547089Y1089215*
X1527959*
X1520164Y1097010*
X1452577*
X1449897Y1099690*
X1433503*
X1426023Y1092210*
X1418373*
X1417793Y1092790*
X1362573*
X1355350Y1085566*
X1351107*
X1334151Y1068610*
X1322773*
X1309033Y1082350*
X1294667*
X1292807Y1084210*
X1282500*
X1978600Y1034800D02*
X1973810Y1030010D01*
X1937890*
X1927900Y1040000*
X1899300*
X1894100Y1045200*
X1856200*
X1850800Y1050600*
X1980900Y1302800D02*
X1880846D01*
X1843837Y1265790*
Y1260562*
X1813824Y1230550*
X1806724*
X1798584Y1222410*
X1778302*
X1773422Y1227290*
X1686646*
X1678846Y1219490*
X1648707*
X1641227Y1212010*
X1608784*
X1603584Y1206810*
X1559084*
X1552604Y1213290*
X1442627*
X1425747Y1196410*
X1360416*
X1342210Y1214616*
Y1217764*
X1335729Y1224245*
X1331881*
X1295536Y1260590*
X1282500*
X2930000Y1337000D02*
X2895000D01*
Y984000*
X2930000*
Y316000*
G02X2905000Y291000I25000*
G01X2792719*
G02X2782812Y299638J10000*
G01X2773000Y371000*
X2761000Y478000*
X2737000Y614000*
X2746000Y622000*
X2739000Y674000*
X2731000Y702000*
X2715000Y751000*
X2697000Y786000*
X2663000Y836000*
X2623000Y881000*
X2610000Y894000*
X2602000Y900000*
X2609000Y924000*
X2615000Y945000*
X2616000Y950000*
Y956000*
X2615000Y969000*
X2614000Y974000*
X2611000Y983000*
X2608000Y989000*
X2601000Y998000*
X2588000Y1007000*
X2583000Y1010000*
X2569000Y1014000*
X2550000*
X2544000Y1012000*
X2528000Y1004000*
X2491000Y964000*
X2441000Y979000*
X2423000Y983000*
X2375000Y989000*
X2354000Y990000*
X2332000*
X2289000Y986000*
X2261000Y981000*
X2233000Y973000*
X2184000Y955000*
X2142000Y932000*
X2112000Y911000*
X2090000Y893000*
X2080000Y884000*
X2066000Y870000*
X2044000Y843000*
X2027000Y822000*
X2007000Y787000*
X1975000Y725000*
X1962000Y692000*
X1955000Y647000*
X1953000Y623000*
Y591000*
X1954000Y571000*
X1955000Y563000*
X1963000Y491000*
X1982000Y329000*
X1987000Y285000*
X1990000Y261000*
X2001575Y185994*
G02X2001663Y184850I7412J1144*
X1996833Y177841I7500*
G01X1934619Y177597*
G03X1909719Y152883I98J25000*
G01X1909282Y114714*
G02X1884284Y90000I24998J286*
G01X1785000*
G03X1760000Y65000J25000*
G01Y25000*
G02X1735000Y0I25000*
G01X1230000*
Y10000*
X345000*
G02X320000Y35000J25000*
G01Y65000*
G03X295000Y90000I25000*
G01X255000*
G02X230000Y115000J25000*
G01Y275000*
G03X205000Y300000I25000*
G01X25000*
G02X0Y325000J25000*
G01Y1475000*
G02X25000Y1500000I25000*
G01X1609000*
Y1490000*
X1784000*
G02X1809000Y1465000J25000*
G01Y1451000*
G03X1840000Y1420000I31000*
X1871000Y1451000J31000*
G01Y1463000*
G02X1881000Y1473000I10000*
G01X2339000*
G02X2349000Y1463000J10000*
G01Y1462000*
G03X2380000Y1431000I31000*
X2411000Y1462000J31000*
G01Y1463000*
G02X2421000Y1473000I10000*
G01X2670000*
X2697500Y1500000*
X2905000*
G02X2930000Y1475000J25000*
G01Y1337000*
G54D11*
X538200Y406751D02*
Y423800D01*
Y406751D02*
X534049Y402600D01*
X494388*
X463888Y372100*
X378451*
X355251Y348900*
X309300*
X762500Y487500D03*
Y497500D03*
Y547500D03*
Y557500D03*
X772500Y487500D03*
Y497500D03*
Y547500D03*
Y557500D03*
X792500Y457500D03*
Y467500D03*
X802500Y457500D03*
Y467500D03*
X892500Y577500D03*
X902500Y567500D03*
Y577500D03*
X1180400Y1427400D02*
X1136200D01*
X1133600Y1424800*
X1229691Y1420860D02*
X1212141D01*
X1205601Y1427400*
X1180400*
X1229691Y1420860D02*
X1236210D01*
X1239990Y1424640*
X1521200Y84700D02*
X1486949D01*
X1451849Y119800*
X876893*
X689856Y306837*
Y319734*
X626130Y383460*
X561491*
X538200Y406751*
X1533060Y1424640D02*
X1552500Y1405200D01*
X1533060Y1424640D02*
X1531044Y1426657D01*
X1242007*
X1239990Y1424640*
X1552500Y1405200D02*
X1718649D01*
X1737100Y1423651*
Y1424200*
X1695200Y959400D02*
X1711760Y975960D01*
X1747034*
X1765124Y994050*
X1962699*
X1985140Y1016491*
Y1028030*
X1992110Y1035000*
X2005000*
X1695200Y959400D02*
X1600449D01*
X1599109Y960740*
X1592540*
X1584700Y952900*
X1442350*
X1439110Y949660*
X1394391*
X1388350Y955701*
Y956599*
X1376409Y968540*
X1271440*
X1271360Y968460*
X1256190*
X1247790Y976860*
X1188440*
X1181860Y983440*
X1158960*
X1146600Y995800*
X1749800Y1105000D02*
X1768618D01*
X1772558Y1108940*
X1788960*
X1792900Y1105000*
X1825400*
X1828728Y1101672*
X1841521*
X1845983Y1106134*
X1897066*
X1903200Y1100000*
X2278700Y1325000D02*
X2222400Y1268700D01*
X2085250*
X2070650Y1254100*
X1895851*
X1888951Y1247200*
X1858700*
X2444000Y1323400D02*
X2439376Y1328024D01*
X2412826*
X2411210Y1329640*
X2385240*
X2373800Y1318200*
X2703300Y1085000D02*
X2710140Y1091840D01*
Y1245060*
X2703300Y1251900*
G54D12*
X80398Y1262421D02*
X80739D01*
X83160Y1260000*
X87600*
X80398Y1264338D02*
X83060Y1267000D01*
X87500*
Y1252000D02*
X91940D01*
X94361Y1249579*
X94702*
X87600Y1245000D02*
X92040D01*
X94702Y1247662*
X95365*
X97642Y1245385*
Y1130571*
X104285Y1123928*
Y1098695*
X166449Y1036531*
X298802*
X453013Y882320*
Y648432*
X470460Y630984*
X94702Y1249579D02*
X96159D01*
X99559Y1246179*
Y1131365*
X106202Y1124722*
Y1099489*
X167243Y1038448*
X299596*
X454930Y883114*
Y649225*
X471816Y632340*
X114200Y1267100D02*
X117971Y1269443D01*
X119012Y1269413*
X121305Y1266984*
X116700Y1486100D02*
X121140D01*
X123482Y1488442*
X116700Y1492700D02*
X121140D01*
X123482Y1490358*
X121305Y1266984D02*
Y1230245D01*
X116718Y1225658*
Y1099829*
X165889Y1050658*
X301495*
X463278Y888875*
Y700563*
X576452Y587389*
X627419*
X656529Y558279*
X690031*
X695463Y552847*
X759389*
X122846Y1266984D02*
Y1229606D01*
X118260Y1225020*
Y1100468*
X166528Y1052200*
X302133*
X464820Y889513*
Y701201*
X577091Y588930*
X628058*
X657168Y559821*
X690669*
X696101Y554389*
X759389*
X123305Y1267779D02*
X119898Y1271388D01*
X119070Y1271412*
X118029Y1271442*
X114400Y1274000*
X123305Y1267779D02*
X122846Y1267320D01*
Y1266984*
X123482Y1488442D02*
X134000D01*
X134799Y1489240*
X166092*
X188067Y1467266*
X264870*
X284844Y1487240*
X440739*
X452285Y1475694*
Y1454360*
X462260Y1444384*
X123482Y1490358D02*
X133207D01*
X134005Y1491157*
X166886*
X188860Y1469182*
X264076*
X284050Y1489157*
X441533*
X454202Y1476488*
Y1455153*
X463616Y1445740*
X145500Y1484600D02*
X145600Y1484700D01*
X151023*
X151492Y1484231*
Y1482775*
X176699Y1457568*
X268691*
X289900Y1478777*
X429623*
X153408Y1484231D02*
Y1483569D01*
X177493Y1459484*
X267897*
X289106Y1480693*
X429623*
X159400Y1484800D02*
X159300Y1484700D01*
X153877*
X153408Y1484231*
X161700Y1256000D02*
X166223D01*
X168240Y1258017*
X161700Y1263700D02*
X163950D01*
X167717Y1259934*
X168240*
X164837Y1280742D02*
X161700Y1277604D01*
Y1277600*
X164837Y1282658D02*
X161700Y1285796D01*
Y1285800*
X168240Y1258017D02*
X170486D01*
X172198Y1256304*
Y1226781*
X194807Y1204172*
X199888*
X168240Y1259934D02*
X171280D01*
X174115Y1257098*
Y1227575*
X195601Y1206088*
X199888*
X199360Y1180001D02*
X191897Y1187464D01*
X169746*
X150611Y1206599*
Y1337371*
X166547Y1353307*
X191680*
X210329Y1371956*
Y1383031*
X199888Y1204172D02*
X205300D01*
Y1202500*
X199888Y1206088D02*
X202800Y1209000D01*
X199892Y1215464D02*
X199727D01*
X199654Y1215390*
X196740*
X193034Y1219097*
Y1253208*
X165500Y1280742*
X164837*
X199892Y1217380D02*
X198933D01*
X198860Y1217307*
X197534*
X194951Y1219890*
Y1254002*
X166294Y1282658*
X164837*
X200451Y1181091D02*
X192536Y1189006D01*
X170384*
X152153Y1207237*
Y1336732*
X167186Y1351765*
X192319*
X211871Y1371317*
Y1383031*
X202500Y1173800D02*
X199360Y1176940D01*
Y1180001*
X203500Y1222200D02*
X200360Y1219060D01*
Y1217849*
X199892Y1217380*
X203900Y1187800D02*
X208340D01*
X208942Y1188402*
X209282*
X205300Y1194300D02*
X209282Y1190318D01*
X207500Y1180000D02*
X201542D01*
X200451Y1181091*
X208000Y1217000D02*
X206464Y1215464D01*
X199892*
X209282Y1188402D02*
X210738D01*
X213056Y1190719*
Y1201550*
X218789Y1207283*
X220999*
X228804Y1215088*
Y1226473*
X210860Y1244417*
Y1325830*
X241341Y1356310*
Y1387145*
X209282Y1190318D02*
X209944D01*
X211139Y1191513*
Y1202344*
X217995Y1209200*
X220205*
X226888Y1215882*
Y1225679*
X208943Y1243623*
Y1326623*
X239424Y1357104*
Y1387145*
X210329Y1383031D02*
Y1383831D01*
X208000Y1386160*
Y1390600*
X211871Y1383031D02*
X214900Y1386060D01*
Y1390500*
X239424Y1387145D02*
X236285Y1390285D01*
X236400Y1390400*
X241341Y1387145D02*
Y1387939D01*
X241260Y1388019*
Y1388860*
X244400Y1392000*
X261492Y1117169D02*
Y1117069D01*
X261023Y1116600*
X257000*
X263100Y1423400D02*
X264090Y1424390D01*
X270340Y1418140*
Y1413777*
X263408Y1117169D02*
X263877Y1116700D01*
X268000*
X265200Y1417000D02*
X268423Y1413777D01*
Y1412726*
X269546Y1411603*
X372944*
X270340Y1413777D02*
Y1413520D01*
X372150*
X389031Y1430401*
X1084021*
X1114118Y1460498*
X1200925*
X1202517Y1458906*
Y1455563*
X372944Y1411603D02*
X389825Y1428484D01*
X1084815*
X1114912Y1458581*
X1200131*
X1200600Y1458112*
Y1455563*
X374400Y993200D02*
X379016Y988584D01*
Y984194*
X472965Y890245*
Y710952*
X547677Y636240*
X775505*
X779603Y632142*
X878603*
X882401Y628343*
X902599*
X910697Y636442*
X1039472*
X1129164Y726133*
X1152004*
X1178914Y753043*
X1309349*
X1323551Y767245*
X1412951*
X1439082Y793377*
X1486392*
X1486860Y792909*
X380933Y988584D02*
Y984988D01*
X474882Y891039*
Y711746*
X548471Y638157*
X776299*
X780397Y634058*
X879397*
X883195Y630260*
X901805*
X909903Y638358*
X1038678*
X1128370Y728050*
X1151210*
X1178120Y754960*
X1308555*
X1322757Y769162*
X1412157*
X1438289Y795294*
X1487186*
X1488216Y794264*
X384100Y993800D02*
X380933Y990633D01*
Y988584*
X429623Y1478777D02*
X436800Y1471600D01*
X429623Y1480693D02*
X432353D01*
X434460Y1482800*
X438900*
X462260Y1444384D02*
Y1440940D01*
X465400Y1437800*
X463616Y1445740D02*
X467060D01*
X470200Y1442600*
X470460Y630984D02*
Y627540D01*
X473600Y624400*
X471816Y632340D02*
X475260D01*
X478400Y629200*
X498923Y467702D02*
X497069D01*
X496600Y467233*
Y460200*
X498923Y469243D02*
X495783Y472383D01*
X496600Y473200*
X527124Y466610D02*
X526032Y467702D01*
X498923*
X528214Y467700D02*
X526671Y469243D01*
X498923*
X556384Y465700D02*
X528034D01*
X527124Y466610*
X557474Y466790D02*
X556564Y467700D01*
X528214*
X581500Y1066500D02*
X589039D01*
X582400Y1302600D02*
X609921D01*
X611761Y1304440*
X616960*
X618040Y1303360*
X678210*
X682790Y1307940*
X696100*
X584900Y747700D02*
X664021D01*
X664661Y747060*
X679710*
X682590Y749940*
X736960*
X738400Y748500*
X806300*
X584900Y988500D02*
X614899D01*
X584900Y1060500D02*
X588040Y1063640D01*
Y1063787*
X589211Y1064958*
X589677*
X590129Y1065410*
X584900Y1276500D02*
X591400Y1270000D01*
X613900*
X584900Y1336500D02*
X614100D01*
X588278Y763101D02*
X585138Y759962D01*
X584900Y760200*
X588278Y764643D02*
X587822D01*
X584683Y767783*
X584600Y767700*
X589039Y1066500D02*
X599076Y1076538D01*
Y1080834*
X613234Y1094992*
X635432*
X661122Y1120682*
X675967*
X689556Y1134270*
X789044*
X796193Y1127121*
X810026*
X816746Y1133842*
X841116*
X848010Y1140736*
X868378*
X878054Y1131060*
X958725*
X969758Y1142094*
Y1146899*
X979101Y1156242*
X1002500*
X590129Y1065410D02*
X600618Y1075899D01*
Y1080195*
X613873Y1093450*
X636071*
X661761Y1119140*
X676606*
X690195Y1132728*
X788405*
X795554Y1125579*
X810664*
X817385Y1132300*
X841754*
X848648Y1139194*
X867740*
X877416Y1129518*
X959363*
X971300Y1141455*
Y1146261*
X979739Y1154700*
X1002500*
X601581Y976500D02*
X584900D01*
X601581D02*
X605721D01*
X606287Y977066*
Y977470*
X606852Y978036*
X608021*
X608587Y977470*
Y975530*
X609152Y974964*
X610321*
X610887Y975530*
Y977470*
X611452Y978036*
X612621*
X613187Y977470*
Y975530*
X613752Y974964*
X614921*
X615487Y975530*
Y977470*
X616052Y978036*
X617221*
X617787Y977470*
Y975530*
X618352Y974964*
X619521*
X620087Y975530*
Y977470*
X620652Y978036*
X621821*
X622387Y977470*
Y975530*
X622952Y974964*
X624121*
X624687Y975530*
Y977470*
X625252Y978036*
X626421*
X626987Y977470*
Y975530*
X627552Y974964*
X628721*
X629287Y975530*
Y977470*
X629852Y978036*
X631021*
X631587Y977470*
Y975530*
X632152Y974964*
X633321*
X633887Y975530*
Y977470*
X634452Y978036*
X635621*
X636187Y977470*
Y975530*
X636752Y974964*
X637921*
X638487Y975530*
Y977470*
X639052Y978036*
X640221*
X640787Y977470*
Y975530*
X641352Y974964*
X642521*
X643087Y975530*
Y977470*
X643652Y978036*
X644821*
X645387Y977470*
Y975530*
X645952Y974964*
X647121*
X647687Y975530*
Y977470*
X648252Y978036*
X649421*
X649987Y977470*
Y975530*
X650552Y974964*
X651721*
X652287Y975530*
Y977470*
X652852Y978036*
X654021*
X654587Y977470*
Y975530*
X655152Y974964*
X656321*
X656887Y975530*
Y977470*
X657452Y978036*
X658621*
X659187Y977470*
Y975530*
X659752Y974964*
X660921*
X661487Y975530*
Y977470*
X662052Y978036*
X663221*
X663787Y977470*
Y975530*
X664352Y974964*
X665521*
X666087Y975530*
Y975934*
X666652Y976500*
X670792*
X613200Y904100D02*
X647352D01*
X660392Y891060*
X679660*
X683950Y895350*
X695400*
X613600Y1276000D02*
X663121D01*
X666621Y1279500*
X677650*
X685150Y1287000*
X700151*
X613800Y796500D02*
X615250D01*
X613800Y820500D02*
X664621D01*
X665061Y820060*
X683260*
X686040Y822840*
X775581*
X776821Y821600*
X813800*
X613800Y832500D02*
X663621D01*
X665061Y831060*
X679910*
X682790Y833940*
X695699*
X613800Y856500D02*
X615250D01*
X613800Y880500D02*
X663621D01*
X671061Y873060*
X701707*
X706107Y877460*
X613800Y1174500D02*
X663621D01*
X665061Y1173060*
X679910*
X682790Y1175940*
X696100*
X613800Y1198500D02*
X663621D01*
X665061Y1197060*
X679910*
X682790Y1199940*
X696100*
X613800Y1234500D02*
X663621D01*
X665771Y1232350*
X677700*
X682990Y1227060*
X696100*
X613800Y1330500D02*
X662621D01*
X664061Y1329060*
X679410*
X682290Y1331940*
X696100*
X613900Y1270000D02*
X618040D01*
X618606Y1269434*
Y1267011*
X619171Y1266446*
X620340*
X620906Y1267011*
Y1272657*
X621471Y1273223*
X622640*
X623206Y1272657*
Y1267011*
X623771Y1266446*
X624940*
X625506Y1267011*
Y1272657*
X626071Y1273223*
X627240*
X627806Y1272657*
Y1267011*
X628371Y1266446*
X629540*
X630106Y1267011*
Y1272657*
X630671Y1273223*
X631840*
X632406Y1272657*
Y1267011*
X632971Y1266446*
X634140*
X634706Y1267011*
Y1272657*
X635271Y1273223*
X636440*
X637006Y1272657*
Y1267011*
X637571Y1266446*
X638740*
X639306Y1267011*
Y1272657*
X639871Y1273223*
X641040*
X641606Y1272657*
Y1267011*
X642171Y1266446*
X643340*
X643906Y1267011*
Y1272657*
X644471Y1273223*
X645640*
X646206Y1272657*
Y1267011*
X646771Y1266446*
X647940*
X648506Y1267011*
Y1272657*
X649071Y1273223*
X650240*
X650806Y1272657*
Y1267011*
X651371Y1266446*
X652540*
X653106Y1267011*
Y1272657*
X653671Y1273223*
X654840*
X655406Y1272657*
Y1267011*
X655971Y1266446*
X657140*
X657706Y1267011*
Y1269434*
X658271Y1270000*
X662411*
X613995Y914478D02*
X617178D01*
X619000Y916300*
X614100Y1336500D02*
X618240D01*
X618806Y1337066*
Y1339587*
X619371Y1340152*
X620540*
X621106Y1339587*
Y1334616*
X621671Y1334051*
X622840*
X623406Y1334616*
Y1339587*
X623971Y1340152*
X625140*
X625706Y1339587*
Y1334616*
X626271Y1334051*
X627440*
X628006Y1334616*
Y1339587*
X628571Y1340152*
X629740*
X630306Y1339587*
Y1334616*
X630871Y1334051*
X632040*
X632606Y1334616*
Y1339587*
X633171Y1340152*
X634340*
X634906Y1339587*
Y1334616*
X635471Y1334051*
X636640*
X637206Y1334616*
Y1339587*
X637771Y1340152*
X638940*
X639506Y1339587*
Y1334616*
X640071Y1334051*
X641240*
X641806Y1334616*
Y1339587*
X642371Y1340152*
X643540*
X644106Y1339587*
Y1334616*
X644671Y1334051*
X645840*
X646406Y1334616*
Y1339587*
X646971Y1340152*
X648140*
X648706Y1339587*
Y1334616*
X649271Y1334051*
X650440*
X651006Y1334616*
Y1339587*
X651571Y1340152*
X652740*
X653306Y1339587*
Y1334616*
X653871Y1334051*
X655040*
X655606Y1334616*
Y1339587*
X656171Y1340152*
X657340*
X657906Y1339587*
Y1337937*
X658471Y1337371*
X659271*
X663411Y1341511*
X614899Y988500D02*
X619039D01*
X619605Y989066*
Y990194*
X620170Y990760*
X621339*
X621905Y990194*
Y987130*
X622470Y986564*
X623639*
X624205Y987130*
Y990194*
X624770Y990760*
X625939*
X626505Y990194*
Y987130*
X627070Y986564*
X628239*
X628805Y987130*
Y990194*
X629370Y990760*
X630539*
X631105Y990194*
Y987130*
X631670Y986564*
X632839*
X633405Y987130*
Y990194*
X633970Y990760*
X635139*
X635705Y990194*
Y987130*
X636270Y986564*
X637439*
X638005Y987130*
Y990194*
X638570Y990760*
X639739*
X640305Y990194*
Y987130*
X640870Y986564*
X642039*
X642605Y987130*
Y990194*
X643170Y990760*
X644339*
X644905Y990194*
Y987130*
X645470Y986564*
X646639*
X647205Y987130*
Y990194*
X647770Y990760*
X648939*
X649505Y990194*
Y987130*
X650070Y986564*
X651239*
X651805Y987130*
Y990194*
X652370Y990760*
X653539*
X654105Y990194*
Y987130*
X654670Y986564*
X655839*
X656405Y987130*
Y990194*
X656970Y990760*
X658139*
X658705Y990194*
Y987130*
X659270Y986564*
X660439*
X661005Y987130*
Y990194*
X661570Y990760*
X662739*
X663305Y990194*
Y987130*
X663870Y986564*
X665039*
X665605Y987130*
Y990194*
X666170Y990760*
X667339*
X667905Y990194*
Y987130*
X668470Y986564*
X669639*
X670205Y987130*
Y990194*
X670770Y990760*
X671939*
X672505Y990194*
Y987130*
X673070Y986564*
X674239*
X674805Y987130*
Y990194*
X675370Y990760*
X676539*
X677105Y990194*
Y987130*
X677670Y986564*
X678839*
X679405Y987130*
Y990194*
X679970Y990760*
X681139*
X681705Y990194*
Y989066*
X682270Y988500*
X686410*
X615250Y796500D02*
X619390D01*
X619956Y797066*
Y798534*
X620521Y799099*
X621690*
X622256Y798534*
Y794466*
X622821Y793901*
X623990*
X624556Y794466*
Y798534*
X625121Y799099*
X626290*
X626856Y798534*
Y794466*
X627421Y793901*
X628590*
X629156Y794466*
Y798534*
X629721Y799099*
X630890*
X631456Y798534*
Y794466*
X632021Y793901*
X633190*
X633756Y794466*
Y798534*
X634321Y799099*
X635490*
X636056Y798534*
Y794466*
X636621Y793901*
X637790*
X638356Y794466*
Y798534*
X638921Y799099*
X640090*
X640656Y798534*
Y794466*
X641221Y793901*
X642390*
X642956Y794466*
Y798534*
X643521Y799099*
X644690*
X645256Y798534*
Y794466*
X645821Y793901*
X646990*
X647556Y794466*
Y798534*
X648121Y799099*
X649290*
X649856Y798534*
Y794466*
X650421Y793901*
X651590*
X652156Y794466*
Y798534*
X652721Y799099*
X653890*
X654456Y798534*
Y794466*
X655021Y793901*
X656190*
X656756Y794466*
Y795934*
X657321Y796500*
X661461*
X615250Y856500D02*
X619390D01*
X619956Y855934*
Y854036*
X620521Y853471*
X621690*
X622256Y854036*
Y858964*
X622821Y859529*
X623990*
X624556Y858964*
Y854036*
X625121Y853471*
X626290*
X626856Y854036*
Y858964*
X627421Y859529*
X628590*
X629156Y858964*
Y854036*
X629721Y853471*
X630890*
X631456Y854036*
Y858964*
X632021Y859529*
X633190*
X633756Y858964*
Y854036*
X634321Y853471*
X635490*
X636056Y854036*
Y858964*
X636621Y859529*
X637790*
X638356Y858964*
Y854036*
X638921Y853471*
X640090*
X640656Y854036*
Y858964*
X641221Y859529*
X642390*
X642956Y858964*
Y854036*
X643521Y853471*
X644690*
X645256Y854036*
Y858964*
X645821Y859529*
X646990*
X647556Y858964*
Y854036*
X648121Y853471*
X649290*
X649856Y854036*
Y858964*
X650421Y859529*
X651590*
X652156Y858964*
Y854036*
X652721Y853471*
X653890*
X654456Y854036*
Y858964*
X655021Y859529*
X656190*
X656756Y858964*
Y854036*
X657321Y853471*
X658490*
X659056Y854036*
Y858964*
X659621Y859529*
X660790*
X661356Y858964*
Y857066*
X661921Y856500*
X663621*
X666061Y854060*
X616200Y1013800D02*
X617650D01*
X616200Y1032200D02*
X649321D01*
X653761Y1036640*
X675610*
X684090Y1028160*
X701160*
X704540Y1031540*
X721939*
X722979Y1030500*
X778200*
X616200Y1042400D02*
X663721D01*
X666271Y1039850*
X675653*
X677543Y1037960*
X698639*
X705879Y1045200*
X707211*
X616200Y1078800D02*
X620040Y1082640D01*
X664210*
X666300Y1080550*
X697929*
X699979Y1078500*
X716451*
X616200Y1149200D02*
X617650D01*
X616200Y1209000D02*
X620640D01*
X622978Y1211338*
X623641*
X616400Y1215700D02*
X620840D01*
X623661Y1212879*
X624279*
X624731Y1212428*
X616500Y994500D02*
X633621D01*
X635061Y993060*
X679560*
X682440Y995940*
X694372*
X616500Y1024500D02*
X654550D01*
X656890Y1026840*
X677510*
X684090Y1020260*
X695400*
X617650Y1013800D02*
X621790D01*
X622356Y1013234*
Y1012605*
X622921Y1012039*
X624090*
X624656Y1012605*
Y1016064*
X625221Y1016630*
X626390*
X626956Y1016064*
Y1012605*
X627521Y1012039*
X628690*
X629256Y1012605*
Y1016064*
X629821Y1016630*
X630990*
X631556Y1016064*
Y1012605*
X632121Y1012039*
X633290*
X633856Y1012605*
Y1016064*
X634421Y1016630*
X635590*
X636156Y1016064*
Y1012605*
X636721Y1012039*
X637890*
X638456Y1012605*
Y1016064*
X639021Y1016630*
X640190*
X640756Y1016064*
Y1012605*
X641321Y1012039*
X642490*
X643056Y1012605*
Y1016064*
X643621Y1016630*
X644790*
X645356Y1016064*
Y1012605*
X645921Y1012039*
X647090*
X647656Y1012605*
Y1014635*
X651796Y1018775*
X617650Y1149200D02*
X621790D01*
X622356Y1148634*
Y1144736*
X622921Y1144170*
X624090*
X624656Y1144736*
Y1152634*
X625221Y1153200*
X626390*
X626956Y1152634*
Y1144736*
X627521Y1144170*
X628690*
X629256Y1144736*
Y1152634*
X629821Y1153200*
X630990*
X631556Y1152634*
Y1144736*
X632121Y1144170*
X633290*
X633856Y1144736*
Y1152634*
X634421Y1153200*
X635590*
X636156Y1152634*
Y1144736*
X636721Y1144170*
X637890*
X638456Y1144736*
Y1152634*
X639021Y1153200*
X640190*
X640756Y1152634*
Y1144736*
X641321Y1144170*
X642490*
X643056Y1144736*
Y1152634*
X643621Y1153200*
X644790*
X645356Y1152634*
Y1144736*
X645921Y1144170*
X647090*
X647656Y1144736*
Y1152634*
X648221Y1153200*
X649390*
X649956Y1152634*
Y1144736*
X650521Y1144170*
X651690*
X652256Y1144736*
Y1152634*
X652821Y1153200*
X653990*
X654556Y1152634*
Y1144736*
X655121Y1144170*
X656290*
X656856Y1144736*
Y1152634*
X657421Y1153200*
X658590*
X659156Y1152634*
Y1144736*
X659721Y1144170*
X660890*
X661456Y1144736*
Y1148634*
X662021Y1149200*
X666161*
X618800Y1006000D02*
X663800D01*
X618900Y923000D02*
X622702Y920706D01*
X635704Y920900*
X636533Y920912*
X639535Y917998*
X618900Y923000D02*
X615717D01*
X613895Y921178*
X619000Y916300D02*
X622731Y918706D01*
X635734Y918900*
X638131Y916574*
X619506Y1162500D02*
X623646D01*
X624212Y1163066*
Y1165328*
X624777Y1165894*
X625946*
X626512Y1165328*
Y1159672*
X627077Y1159106*
X628246*
X628812Y1159672*
Y1165328*
X629377Y1165894*
X630546*
X631112Y1165328*
Y1159672*
X631677Y1159106*
X632846*
X633412Y1159672*
Y1165328*
X633977Y1165894*
X635146*
X635712Y1165328*
Y1159672*
X636277Y1159106*
X637446*
X638012Y1159672*
Y1165328*
X638577Y1165894*
X639746*
X640312Y1165328*
Y1159672*
X640877Y1159106*
X642046*
X642612Y1159672*
Y1165328*
X643177Y1165894*
X644346*
X644912Y1165328*
Y1159672*
X645477Y1159106*
X646646*
X647212Y1159672*
Y1165328*
X647777Y1165894*
X648946*
X649512Y1165328*
Y1159672*
X650077Y1159106*
X651246*
X651812Y1159672*
Y1165328*
X652377Y1165894*
X653546*
X654112Y1165328*
Y1159672*
X654677Y1159106*
X655846*
X656412Y1159672*
Y1165328*
X656977Y1165894*
X658146*
X658712Y1165328*
Y1159672*
X659277Y1159106*
X660446*
X661012Y1159672*
Y1165328*
X661577Y1165894*
X662746*
X663312Y1165328*
Y1159672*
X663877Y1159106*
X665046*
X665612Y1159672*
Y1165328*
X666177Y1165894*
X667346*
X667912Y1165328*
Y1163066*
X668477Y1162500*
X672617*
X619506D02*
X613800D01*
X623641Y1211338D02*
X624160Y1210818D01*
X680458*
X681580Y1211940*
X762640*
X764070Y1210510*
X624731Y1212428D02*
X624799Y1212360D01*
X679820*
X680942Y1213482*
X763278*
X765160Y1211600*
X628859Y1315259D02*
X621400Y1307800D01*
X628859Y1316801D02*
X628221D01*
X627980Y1316560*
X622840*
X619700Y1319700*
X638131Y916574D02*
X648895Y905810D01*
X654453*
X659503Y900760*
X678874*
X684564Y906450*
X724464*
X741614Y923600*
X763175*
X766960Y919814*
Y919640*
X770100Y916500*
X639535Y917998D02*
X649723Y907810D01*
X655282*
X660331Y902760*
X678046*
X683736Y908450*
X723636*
X740786Y925600*
X774800*
X651796Y1018775D02*
X652061Y1019040D01*
X655960*
X659050Y1015950*
X677550*
X682440Y1011060*
X743687*
X745567Y1012940*
X772392*
X772832Y1012500*
X806300*
X660700Y1063500D02*
X670720D01*
X661461Y796500D02*
X663621D01*
X665061Y795060*
X680710*
X685690Y800040*
X737860*
X741400Y796500*
X802500*
X808600Y790400*
X662411Y1270000D02*
X664121D01*
X669621Y1264500*
X693950*
X701890Y1256560*
X786460*
X806400Y1276500*
X663411Y1341511D02*
X665840Y1343940D01*
X734060*
X741500Y1336500*
X806300*
X665000Y1004900D02*
X663800Y1006000D01*
X666061Y854060D02*
X668181Y851940D01*
X681360*
X682340Y850960*
X729384*
X734924Y856500*
X806300*
X666161Y1149200D02*
X692468D01*
X696608Y1145060*
X702192*
X707632Y1150500*
X778200*
X666900Y931800D02*
X741837D01*
X747877Y937840*
X769939*
X666900Y1057500D02*
X671810Y1062410D01*
X666900Y1249500D02*
X694621D01*
X694961Y1249840*
X790960*
X792740Y1248060*
X808139*
X811239Y1251160*
X670720Y1063500D02*
X672291Y1065072D01*
X780525*
X789444Y1056153*
X818215*
X834875Y1072813*
X870899*
X908926Y1110840*
X950719*
X954658Y1114779*
Y1120116*
X960524Y1125982*
X971467*
X992846Y1147360*
X1002500*
X671810Y1062410D02*
X672930Y1063530D01*
X779886*
X788806Y1054611*
X818854*
X835514Y1071271*
X871537*
X909564Y1109298*
X951358*
X956200Y1114141*
Y1119478*
X961162Y1124440*
X972106*
X993484Y1145818*
X1002500*
X686200Y784500D02*
X670279D01*
X668739Y782960*
X665061*
X662821Y785200*
X613600*
X686410Y988500D02*
X691821D01*
X693261Y987060*
X697160*
X702167Y992067*
X755623*
X759190Y988500*
X806300*
X693900Y776900D02*
X686200Y784500D01*
X694372Y995940D02*
X698512D01*
X699078Y996506*
Y997576*
X699643Y998141*
X700812*
X701378Y997576*
Y994933*
X701943Y994367*
X703112*
X703678Y994933*
Y997576*
X704243Y998141*
X705412*
X705978Y997576*
Y994933*
X706543Y994367*
X707712*
X708278Y994933*
Y997576*
X708843Y998141*
X710012*
X710578Y997576*
Y994933*
X711143Y994367*
X712312*
X712878Y994933*
Y997576*
X713443Y998141*
X714612*
X715178Y997576*
Y994933*
X715743Y994367*
X716912*
X717478Y994933*
Y997576*
X718043Y998141*
X719212*
X719778Y997576*
Y994933*
X720343Y994367*
X721512*
X722078Y994933*
Y997576*
X722643Y998141*
X723812*
X724378Y997576*
Y994933*
X724943Y994367*
X726112*
X726678Y994933*
Y997576*
X727243Y998141*
X728412*
X728978Y997576*
Y994933*
X729543Y994367*
X730712*
X731278Y994933*
Y997576*
X731843Y998141*
X733012*
X733578Y997576*
Y994933*
X734143Y994367*
X735312*
X735878Y994933*
Y997576*
X736443Y998141*
X737612*
X738178Y997576*
Y995066*
X738743Y994500*
X742883*
X695100Y937700D02*
X744484D01*
X746924Y940140*
X771852*
X695100Y973500D02*
X717541D01*
X718108Y972933*
X736892*
X739179Y975220*
X750292*
X695400Y895350D02*
X699540D01*
X700106Y894784*
Y891678*
X700671Y891113*
X701840*
X702406Y891678*
Y898784*
X702971Y899350*
X704140*
X704706Y898784*
Y891678*
X705271Y891113*
X706440*
X707006Y891678*
Y898784*
X707571Y899350*
X708740*
X709306Y898784*
Y891678*
X709871Y891113*
X711040*
X711606Y891678*
Y898784*
X712171Y899350*
X713340*
X713906Y898784*
Y891678*
X714471Y891113*
X715640*
X716206Y891678*
Y898784*
X716771Y899350*
X717940*
X718506Y898784*
Y891678*
X719071Y891113*
X720240*
X720806Y891678*
Y898784*
X721371Y899350*
X722540*
X723106Y898784*
Y891678*
X723671Y891113*
X724840*
X725406Y891678*
Y898784*
X725971Y899350*
X727140*
X727706Y898784*
Y895916*
X728271Y895350*
X732050*
X695400Y1020260D02*
X699540D01*
X700106Y1019694*
Y1018275*
X700671Y1017710*
X701840*
X702406Y1018275*
Y1021913*
X702971Y1022479*
X704140*
X704706Y1021913*
Y1018275*
X705271Y1017710*
X706440*
X707006Y1018275*
Y1021913*
X707571Y1022479*
X708740*
X709306Y1021913*
Y1018275*
X709871Y1017710*
X711040*
X711606Y1018275*
Y1021913*
X712171Y1022479*
X713340*
X713906Y1021913*
Y1018275*
X714471Y1017710*
X715640*
X716206Y1018275*
Y1021913*
X716771Y1022479*
X717940*
X718506Y1021913*
Y1018275*
X719071Y1017710*
X720240*
X720806Y1018275*
Y1021913*
X721371Y1022479*
X722540*
X723106Y1021913*
Y1018275*
X723671Y1017710*
X724840*
X725406Y1018275*
Y1021913*
X725971Y1022479*
X727140*
X727706Y1021913*
Y1018275*
X728271Y1017710*
X729440*
X730006Y1018275*
Y1021913*
X730571Y1022479*
X731740*
X732306Y1021913*
Y1018275*
X732871Y1017710*
X734040*
X734606Y1018275*
Y1021913*
X735171Y1022479*
X736340*
X736906Y1021913*
Y1018275*
X737471Y1017710*
X738640*
X739206Y1018275*
Y1019694*
X739771Y1020260*
X743911*
X695699Y833940D02*
X699839D01*
X700405Y834506*
Y837222*
X700970Y837787*
X702139*
X702705Y837222*
Y832272*
X703270Y831706*
X704439*
X705005Y832272*
Y837222*
X705570Y837787*
X706739*
X707305Y837222*
Y832272*
X707870Y831706*
X709039*
X709605Y832272*
Y837222*
X710170Y837787*
X711339*
X711905Y837222*
Y832272*
X712470Y831706*
X713639*
X714205Y832272*
Y837222*
X714770Y837787*
X715939*
X716505Y837222*
Y832272*
X717070Y831706*
X718239*
X718805Y832272*
Y837222*
X719370Y837787*
X720539*
X721105Y837222*
Y832272*
X721670Y831706*
X722839*
X723405Y832272*
Y837222*
X723970Y837787*
X725139*
X725705Y837222*
Y832272*
X726270Y831706*
X727439*
X728005Y832272*
Y837222*
X728570Y837787*
X729739*
X730305Y837222*
Y832272*
X730870Y831706*
X732039*
X732605Y832272*
Y837222*
X733170Y837787*
X734339*
X734905Y837222*
Y832272*
X735470Y831706*
X736639*
X737205Y832272*
Y837222*
X737770Y837787*
X738939*
X739505Y837222*
Y832272*
X740070Y831706*
X741239*
X741805Y832272*
Y837222*
X742370Y837787*
X743539*
X744105Y837222*
Y832272*
X744670Y831706*
X745839*
X746405Y832272*
Y837222*
X746970Y837787*
X748139*
X748705Y837222*
Y832272*
X749270Y831706*
X750439*
X751005Y832272*
Y837222*
X751570Y837787*
X752739*
X753305Y837222*
Y832272*
X753870Y831706*
X755039*
X755605Y832272*
Y837222*
X756170Y837787*
X757339*
X757905Y837222*
Y832272*
X758470Y831706*
X759639*
X760205Y832272*
Y837222*
X760770Y837787*
X761939*
X762505Y837222*
Y832272*
X763070Y831706*
X764239*
X764805Y832272*
Y837222*
X765370Y837787*
X766539*
X767105Y837222*
Y832272*
X767670Y831706*
X768839*
X769405Y832272*
Y837222*
X769970Y837787*
X771139*
X771705Y837222*
Y834506*
X772270Y833940*
X776410*
X695800Y1139700D02*
X734786D01*
X696100Y1175940D02*
X700240D01*
X700806Y1175374*
Y1173732*
X701371Y1173166*
X702540*
X703106Y1173732*
Y1178148*
X703671Y1178714*
X704840*
X705406Y1178148*
Y1173732*
X705971Y1173166*
X707140*
X707706Y1173732*
Y1178148*
X708271Y1178714*
X709440*
X710006Y1178148*
Y1173732*
X710571Y1173166*
X711740*
X712306Y1173732*
Y1178148*
X712871Y1178714*
X714040*
X714606Y1178148*
Y1173732*
X715171Y1173166*
X716340*
X716906Y1173732*
Y1178148*
X717471Y1178714*
X718640*
X719206Y1178148*
Y1173732*
X719771Y1173166*
X720940*
X721506Y1173732*
Y1178148*
X722071Y1178714*
X723240*
X723806Y1178148*
Y1173732*
X724371Y1173166*
X725540*
X726106Y1173732*
Y1178148*
X726671Y1178714*
X727840*
X728406Y1178148*
Y1173732*
X728971Y1173166*
X730140*
X730706Y1173732*
Y1178148*
X731271Y1178714*
X732440*
X733006Y1178148*
Y1173732*
X733571Y1173166*
X734740*
X735306Y1173732*
Y1178148*
X735871Y1178714*
X737040*
X737606Y1178148*
Y1173732*
X738171Y1173166*
X739340*
X739906Y1173732*
Y1178148*
X740471Y1178714*
X741640*
X742206Y1178148*
Y1173732*
X742771Y1173166*
X743940*
X744506Y1173732*
Y1178148*
X745071Y1178714*
X746240*
X746806Y1178148*
Y1173732*
X747371Y1173166*
X748540*
X749106Y1173732*
Y1178148*
X749671Y1178714*
X750840*
X751406Y1178148*
Y1173732*
X751971Y1173166*
X753140*
X753706Y1173732*
Y1178148*
X754271Y1178714*
X755440*
X756006Y1178148*
Y1173732*
X756571Y1173166*
X757740*
X758306Y1173732*
Y1178148*
X758871Y1178714*
X760040*
X760606Y1178148*
Y1176506*
X761171Y1175940*
X765311*
X696100Y1199940D02*
X697639D01*
X700240Y1197339*
Y1193235*
X700806Y1192670*
X701974*
X702540Y1193235*
Y1201719*
X703106Y1202285*
X704274*
X704840Y1201719*
Y1193235*
X705406Y1192670*
X706574*
X707140Y1193235*
Y1201719*
X707706Y1202285*
X708874*
X709440Y1201719*
Y1193235*
X710006Y1192670*
X711174*
X711740Y1193235*
Y1201719*
X712306Y1202285*
X713474*
X714040Y1201719*
Y1193235*
X714606Y1192670*
X715774*
X716340Y1193235*
Y1201719*
X716906Y1202285*
X718074*
X718640Y1201719*
Y1193235*
X719206Y1192670*
X720374*
X720940Y1193235*
Y1201719*
X721506Y1202285*
X722674*
X723240Y1201719*
Y1193235*
X723806Y1192670*
X724974*
X725540Y1193235*
Y1201719*
X726106Y1202285*
X727274*
X727840Y1201719*
Y1193235*
X728406Y1192670*
X729574*
X730140Y1193235*
Y1201719*
X730706Y1202285*
X731874*
X732440Y1201719*
Y1193235*
X733006Y1192670*
X734174*
X734740Y1193235*
Y1201719*
X735306Y1202285*
X736474*
X737040Y1201719*
Y1193235*
X737606Y1192670*
X738774*
X739340Y1193235*
Y1201719*
X739906Y1202285*
X741074*
X741640Y1201719*
Y1193235*
X742206Y1192670*
X743374*
X743940Y1193235*
Y1201719*
X744506Y1202285*
X745674*
X746240Y1201719*
Y1193235*
X746806Y1192670*
X747974*
X748540Y1193235*
Y1201719*
X749106Y1202285*
X750274*
X750840Y1201719*
Y1193235*
X751406Y1192670*
X752574*
X753140Y1193235*
Y1201719*
X753706Y1202285*
X754874*
X755440Y1201719*
Y1193235*
X756006Y1192670*
X757174*
X757740Y1193235*
Y1201719*
X758306Y1202285*
X759474*
X760040Y1201719*
Y1196566*
X760606Y1196000*
X764746*
X696100Y1227060D02*
X700240D01*
X700806Y1227626*
Y1230970*
X701371Y1231536*
X702540*
X703106Y1230970*
Y1224232*
X703671Y1223666*
X704840*
X705406Y1224232*
Y1230970*
X705971Y1231536*
X707140*
X707706Y1230970*
Y1224232*
X708271Y1223666*
X709440*
X710006Y1224232*
Y1230970*
X710571Y1231536*
X711740*
X712306Y1230970*
Y1224232*
X712871Y1223666*
X714040*
X714606Y1224232*
Y1230970*
X715171Y1231536*
X716340*
X716906Y1230970*
Y1224232*
X717471Y1223666*
X718640*
X719206Y1224232*
Y1230970*
X719771Y1231536*
X720940*
X721506Y1230970*
Y1224232*
X722071Y1223666*
X723240*
X723806Y1224232*
Y1230970*
X724371Y1231536*
X725540*
X726106Y1230970*
Y1224232*
X726671Y1223666*
X727840*
X728406Y1224232*
Y1230970*
X728971Y1231536*
X730140*
X730706Y1230970*
Y1224232*
X731271Y1223666*
X732440*
X733006Y1224232*
Y1230970*
X733571Y1231536*
X734740*
X735306Y1230970*
Y1224232*
X735871Y1223666*
X737040*
X737606Y1224232*
Y1230970*
X738171Y1231536*
X739340*
X739906Y1230970*
Y1224232*
X740471Y1223666*
X741640*
X742206Y1224232*
Y1230970*
X742771Y1231536*
X743940*
X744506Y1230970*
Y1224232*
X745071Y1223666*
X746240*
X746806Y1224232*
Y1230970*
X747371Y1231536*
X748540*
X749106Y1230970*
Y1224232*
X749671Y1223666*
X750840*
X751406Y1224232*
Y1230970*
X751971Y1231536*
X753140*
X753706Y1230970*
Y1224232*
X754271Y1223666*
X755440*
X756006Y1224232*
Y1230970*
X756571Y1231536*
X757740*
X758306Y1230970*
Y1227626*
X758871Y1227060*
X763011*
X696100Y1307940D02*
X700240D01*
X700806Y1307374*
Y1302560*
X701371Y1301994*
X702540*
X703106Y1302560*
Y1310679*
X703671Y1311244*
X704840*
X705406Y1310679*
Y1302560*
X705971Y1301994*
X707140*
X707706Y1302560*
Y1310679*
X708271Y1311244*
X709440*
X710006Y1310679*
Y1302560*
X710571Y1301994*
X711740*
X712306Y1302560*
Y1310679*
X712871Y1311244*
X714040*
X714606Y1310679*
Y1302560*
X715171Y1301994*
X716340*
X716906Y1302560*
Y1310679*
X717471Y1311244*
X718640*
X719206Y1310679*
Y1302560*
X719771Y1301994*
X720940*
X721506Y1302560*
Y1310679*
X722071Y1311244*
X723240*
X723806Y1310679*
Y1302560*
X724371Y1301994*
X725540*
X726106Y1302560*
Y1310679*
X726671Y1311244*
X727840*
X728406Y1310679*
Y1302560*
X728971Y1301994*
X730140*
X730706Y1302560*
Y1310679*
X731271Y1311244*
X732440*
X733006Y1310679*
Y1302560*
X733571Y1301994*
X734740*
X735306Y1302560*
Y1310679*
X735871Y1311244*
X737040*
X737606Y1310679*
Y1302560*
X738171Y1301994*
X739340*
X739906Y1302560*
Y1310679*
X740471Y1311244*
X741640*
X742206Y1310679*
Y1302560*
X742771Y1301994*
X743940*
X744506Y1302560*
Y1310679*
X745071Y1311244*
X746240*
X746806Y1310679*
Y1302560*
X747371Y1301994*
X748540*
X749106Y1302560*
Y1310679*
X749671Y1311244*
X750840*
X751406Y1310679*
Y1302560*
X751971Y1301994*
X753140*
X753706Y1302560*
Y1310679*
X754271Y1311244*
X755440*
X756006Y1310679*
Y1302560*
X756571Y1301994*
X757740*
X758306Y1302560*
Y1310679*
X758871Y1311244*
X760040*
X760606Y1310679*
Y1302560*
X761171Y1301994*
X762340*
X762906Y1302560*
Y1307374*
X763471Y1307940*
X765320*
X767611Y1305649*
X696100Y1331940D02*
X697639D01*
X699079Y1330500*
X700240*
X700806Y1329934*
Y1327824*
X701371Y1327258*
X702540*
X703106Y1327824*
Y1333176*
X703671Y1333742*
X704840*
X705406Y1333176*
Y1327824*
X705971Y1327258*
X707140*
X707706Y1327824*
Y1333176*
X708271Y1333742*
X709440*
X710006Y1333176*
Y1327824*
X710571Y1327258*
X711740*
X712306Y1327824*
Y1333176*
X712871Y1333742*
X714040*
X714606Y1333176*
Y1327824*
X715171Y1327258*
X716340*
X716906Y1327824*
Y1333176*
X717471Y1333742*
X718640*
X719206Y1333176*
Y1327824*
X719771Y1327258*
X720940*
X721506Y1327824*
Y1333176*
X722071Y1333742*
X723240*
X723806Y1333176*
Y1327824*
X724371Y1327258*
X725540*
X726106Y1327824*
Y1333176*
X726671Y1333742*
X727840*
X728406Y1333176*
Y1327824*
X728971Y1327258*
X730140*
X730706Y1327824*
Y1333176*
X731271Y1333742*
X732440*
X733006Y1333176*
Y1327824*
X733571Y1327258*
X734740*
X735306Y1327824*
Y1333176*
X735871Y1333742*
X737040*
X737606Y1333176*
Y1327824*
X738171Y1327258*
X739340*
X739906Y1327824*
Y1333176*
X740471Y1333742*
X741640*
X742206Y1333176*
Y1327824*
X742771Y1327258*
X743940*
X744506Y1327824*
Y1333176*
X745071Y1333742*
X746240*
X746806Y1333176*
Y1327824*
X747371Y1327258*
X748540*
X749106Y1327824*
Y1333176*
X749671Y1333742*
X750840*
X751406Y1333176*
Y1327824*
X751971Y1327258*
X753140*
X753706Y1327824*
Y1333176*
X754271Y1333742*
X755440*
X756006Y1333176*
Y1327824*
X756571Y1327258*
X757740*
X758306Y1327824*
Y1333176*
X758871Y1333742*
X760040*
X760606Y1333176*
Y1327824*
X761171Y1327258*
X762340*
X762906Y1327824*
Y1333176*
X763471Y1333742*
X764640*
X765206Y1333176*
Y1327824*
X765771Y1327258*
X766940*
X767506Y1327824*
Y1333176*
X768071Y1333742*
X769240*
X769806Y1333176*
Y1331066*
X770371Y1330500*
X774511*
X697000Y1008100D02*
X682600D01*
X679400Y1004900*
X665000*
X697700Y776900D02*
X693900D01*
X698700Y1006500D02*
X709029D01*
X698700D02*
X697000Y1008100D01*
X699274Y1240695D02*
X700240Y1241661D01*
X700806Y1242227*
X701974*
X702540Y1241661*
Y1238564*
X703106Y1237998*
X704274*
X704840Y1238564*
Y1241661*
X705406Y1242226*
X706574*
X707140Y1241661*
Y1238564*
X707706Y1237998*
X708874*
X709440Y1238564*
Y1241661*
X710006Y1242226*
X711174*
X711740Y1241661*
Y1238564*
X712306Y1237998*
X713474*
X714040Y1238564*
Y1241661*
X714606Y1242226*
X715774*
X716340Y1241661*
Y1238564*
X716906Y1237998*
X718074*
X718640Y1238564*
Y1241661*
X719206Y1242226*
X720374*
X720940Y1241661*
Y1238564*
X721506Y1237998*
X722674*
X723240Y1238564*
Y1241661*
X723806Y1242226*
X724974*
X725540Y1241661*
Y1238564*
X726106Y1237998*
X727274*
X727840Y1238564*
Y1241661*
X728406Y1242226*
X729574*
X730140Y1241661*
Y1238564*
X730706Y1237998*
X731874*
X732440Y1238564*
Y1241661*
X733006Y1242226*
X734174*
X734740Y1241661*
Y1238564*
X735306Y1237998*
X736474*
X737040Y1238564*
Y1241661*
X737606Y1242226*
X738774*
X739340Y1241661*
Y1238564*
X739906Y1237998*
X741074*
X741640Y1238564*
Y1241661*
X742206Y1242226*
X743374*
X743940Y1241661*
Y1238564*
X744506Y1237998*
X745674*
X746240Y1238564*
Y1241661*
X746806Y1242226*
X747974*
X748540Y1241661*
Y1238564*
X749106Y1237998*
X750274*
X750840Y1238564*
Y1241661*
X751406Y1242226*
X752574*
X753140Y1241661*
Y1238564*
X753706Y1237998*
X754874*
X755440Y1238564*
Y1241661*
X756006Y1242226*
X757174*
X757740Y1241661*
Y1238564*
X758306Y1237998*
X759474*
X760040Y1238564*
Y1241661*
X760606Y1242226*
X761774*
X762340Y1241661*
Y1238564*
X762906Y1237998*
X764074*
X764640Y1238564*
Y1241661*
X765206Y1242226*
X766374*
X766940Y1241661*
Y1238564*
X767506Y1237998*
X768674*
X769240Y1238564*
Y1244834*
X769806Y1245400*
X770771*
X699274Y1240695D02*
X682605D01*
X679800Y1243500*
X666621*
X663621Y1246500*
X613800*
X700151Y1287000D02*
X704291D01*
X704856Y1287566*
Y1289498*
X705422Y1290064*
X706591*
X707156Y1289498*
Y1284833*
X707722Y1284268*
X708891*
X709456Y1284833*
Y1289498*
X710022Y1290064*
X711191*
X711756Y1289498*
Y1284833*
X712322Y1284268*
X713491*
X714056Y1284833*
Y1289498*
X714622Y1290064*
X715791*
X716356Y1289498*
Y1284833*
X716922Y1284268*
X718091*
X718656Y1284833*
Y1289498*
X719222Y1290064*
X720391*
X720956Y1289498*
Y1284833*
X721522Y1284268*
X722691*
X723256Y1284833*
Y1289498*
X723822Y1290064*
X724991*
X725556Y1289498*
Y1284833*
X726122Y1284268*
X727291*
X727856Y1284833*
Y1289498*
X728422Y1290064*
X729591*
X730156Y1289498*
Y1284833*
X730722Y1284268*
X731891*
X732456Y1284833*
Y1289498*
X733022Y1290064*
X734191*
X734756Y1289498*
Y1284833*
X735322Y1284268*
X736491*
X737056Y1284833*
Y1289498*
X737622Y1290064*
X738791*
X739356Y1289498*
Y1284833*
X739922Y1284268*
X741091*
X741656Y1284833*
Y1289498*
X742222Y1290064*
X743391*
X743956Y1289498*
Y1284833*
X744522Y1284268*
X745691*
X746256Y1284833*
Y1289498*
X746822Y1290064*
X747991*
X748556Y1289498*
Y1284833*
X749122Y1284268*
X750291*
X750856Y1284833*
Y1289498*
X751422Y1290064*
X752591*
X753156Y1289498*
Y1287566*
X753722Y1287000*
X757862*
X702000Y1274000D02*
Y1267978D01*
X702469Y1267509*
X702400Y818400D02*
X705792Y815008D01*
X706455*
X702469Y1265967D02*
X737329D01*
X743820Y1272458*
X779798*
X788508Y1281168*
X817958*
X821130Y1284340*
X844804*
X859060Y1270084*
X866508*
X871174Y1265418*
X892108*
X893314Y1266624*
X702469Y1267509D02*
X736690D01*
X743182Y1274000*
X779160*
X787869Y1282709*
X817319*
X820492Y1285882*
X845443*
X859699Y1271626*
X867147*
X871813Y1266960*
X891470*
X892224Y1267714*
X704600Y1164800D02*
X710722D01*
X714569Y1168647*
X715906*
X704600Y1261000D02*
X701460Y1264140D01*
Y1264959*
X702469Y1265967*
X705400Y784500D02*
X778479D01*
X781079Y781900*
X806300*
X705400Y784500D02*
X697700Y776900D01*
X705826Y1108900D02*
X697021D01*
X691221Y1114700*
X663600*
X705826Y1108900D02*
X709966D01*
X710531Y1109466*
Y1111477*
X711097Y1112043*
X712266*
X712831Y1111477*
Y1106654*
X713397Y1106088*
X714566*
X715131Y1106654*
Y1111477*
X715697Y1112043*
X716866*
X717431Y1111477*
Y1106654*
X717997Y1106088*
X719166*
X719731Y1106654*
Y1111477*
X720297Y1112043*
X721466*
X722031Y1111477*
Y1106654*
X722597Y1106088*
X723766*
X724331Y1106654*
Y1111477*
X724897Y1112043*
X726066*
X726631Y1111477*
Y1106654*
X727197Y1106088*
X728366*
X728931Y1106654*
Y1111477*
X729497Y1112043*
X730666*
X731231Y1111477*
Y1106654*
X731797Y1106088*
X732966*
X733531Y1106654*
Y1111477*
X734097Y1112043*
X735266*
X735831Y1111477*
Y1106654*
X736397Y1106088*
X737566*
X738131Y1106654*
Y1111477*
X738697Y1112043*
X739866*
X740431Y1111477*
Y1106654*
X740997Y1106088*
X742166*
X742731Y1106654*
Y1111477*
X743297Y1112043*
X744466*
X745031Y1111477*
Y1106654*
X745597Y1106088*
X746766*
X747331Y1106654*
Y1111477*
X747897Y1112043*
X749066*
X749631Y1111477*
Y1109466*
X750197Y1108900*
X754337*
X706107Y877460D02*
X710247Y881600D01*
Y885768*
X710813Y886333*
X711982*
X712547Y885768*
Y880666*
X713113Y880100*
X714282*
X714847Y880666*
Y885768*
X715413Y886333*
X716582*
X717147Y885768*
Y880666*
X717713Y880100*
X718882*
X719447Y880666*
Y885768*
X720013Y886333*
X721182*
X721747Y885768*
Y880666*
X722313Y880100*
X723482*
X724047Y880666*
Y885768*
X724613Y886333*
X725782*
X726347Y885768*
Y880666*
X726913Y880100*
X728082*
X728647Y880666*
Y885768*
X729213Y886333*
X730382*
X730947Y885768*
Y880666*
X731513Y880100*
X732682*
X733247Y880666*
Y885768*
X733813Y886333*
X734982*
X735547Y885768*
Y880666*
X736113Y880100*
X737282*
X737847Y880666*
Y885768*
X738413Y886333*
X739582*
X740147Y885768*
Y880666*
X740713Y880100*
X741882*
X742447Y880666*
Y885768*
X743013Y886333*
X744182*
X744747Y885768*
Y880666*
X745313Y880100*
X746482*
X747047Y880666*
Y885768*
X747613Y886333*
X748782*
X749347Y885768*
Y880666*
X749913Y880100*
X751082*
X751647Y880666*
Y885768*
X752213Y886333*
X753382*
X753947Y885768*
Y880666*
X754513Y880100*
X755682*
X756247Y880666*
Y885768*
X756813Y886333*
X757982*
X758547Y885768*
Y880666*
X759113Y880100*
X760282*
X760847Y880666*
Y885768*
X761413Y886333*
X762582*
X763147Y885768*
Y880666*
X763713Y880100*
X764882*
X765447Y880666*
Y885768*
X766013Y886333*
X767182*
X767747Y885768*
Y880666*
X768313Y880100*
X769482*
X770047Y880666*
Y885768*
X770613Y886333*
X771782*
X772347Y885768*
Y882166*
X772913Y881600*
X777053*
X706455Y815008D02*
X711229Y819782D01*
X775387*
X776525Y818643*
X781455*
X784277Y815821*
X825648*
X829498Y811971*
X848371*
X707000Y1158300D02*
X715900Y1167100D01*
X707000Y1158300D02*
X705900D01*
X699400Y1151800*
X707200Y808600D02*
Y813572D01*
X707545Y813917*
X707211Y1045200D02*
X711351D01*
X711917Y1044634*
Y1042315*
X712482Y1041749*
X713651*
X714217Y1042315*
Y1047074*
X714782Y1047640*
X715951*
X716517Y1047074*
Y1042315*
X717082Y1041749*
X718251*
X718817Y1042315*
Y1047074*
X719382Y1047640*
X720551*
X721117Y1047074*
Y1042315*
X721682Y1041749*
X722851*
X723417Y1042315*
Y1047074*
X723982Y1047640*
X725151*
X725717Y1047074*
Y1042315*
X726282Y1041749*
X727451*
X728017Y1042315*
Y1047074*
X728582Y1047640*
X729751*
X730317Y1047074*
Y1042315*
X730882Y1041749*
X732051*
X732617Y1042315*
Y1047074*
X733182Y1047640*
X734351*
X734917Y1047074*
Y1042315*
X735482Y1041749*
X736651*
X737217Y1042315*
Y1047074*
X737782Y1047640*
X738951*
X739517Y1047074*
Y1042315*
X740082Y1041749*
X741251*
X741817Y1042315*
Y1047074*
X742382Y1047640*
X743551*
X744117Y1047074*
Y1042315*
X744682Y1041749*
X745851*
X746417Y1042315*
Y1047074*
X746982Y1047640*
X748151*
X748717Y1047074*
Y1042315*
X749282Y1041749*
X750451*
X751017Y1042315*
Y1047074*
X751582Y1047640*
X752751*
X753317Y1047074*
Y1042315*
X753882Y1041749*
X755051*
X755617Y1042315*
Y1047074*
X756182Y1047640*
X757351*
X757917Y1047074*
Y1042315*
X758482Y1041749*
X759651*
X760217Y1042315*
Y1047074*
X760782Y1047640*
X761951*
X762517Y1047074*
Y1042315*
X763082Y1041749*
X764251*
X764817Y1042315*
Y1047074*
X765382Y1047640*
X766551*
X767117Y1047074*
Y1042315*
X767682Y1041749*
X768851*
X769417Y1042315*
Y1044634*
X769982Y1045200*
X774122*
X707545Y813917D02*
X711868Y818240D01*
X774748*
X775886Y817101*
X780816*
X783638Y814279*
X825010*
X828860Y810429*
X848371*
X709029Y1006500D02*
X713169D01*
X713735Y1007066*
Y1008194*
X714301Y1008760*
X715469*
X716035Y1008194*
Y1004209*
X716601Y1003644*
X717769*
X718335Y1004209*
Y1008194*
X718901Y1008760*
X720069*
X720635Y1008194*
Y1004209*
X721201Y1003644*
X722369*
X722935Y1004209*
Y1005934*
X723501Y1006500*
X727641*
X715900Y1167100D02*
X715906Y1167106D01*
X766528*
X774816Y1158818*
X779239*
X715906Y1168647D02*
X767167D01*
X775454Y1160360*
X779239*
X716451Y1078500D02*
X720591D01*
X721156Y1079066*
Y1079734*
X721722Y1080300*
X722891*
X723456Y1079734*
Y1077266*
X724022Y1076700*
X725191*
X725756Y1077266*
Y1079734*
X726322Y1080300*
X727491*
X728056Y1079734*
Y1077266*
X728622Y1076700*
X729791*
X730356Y1077266*
Y1079734*
X730922Y1080300*
X732091*
X732656Y1079734*
Y1077266*
X733222Y1076700*
X734391*
X734956Y1077266*
Y1079734*
X735522Y1080300*
X736691*
X737256Y1079734*
Y1077266*
X737822Y1076700*
X738991*
X739556Y1077266*
Y1079734*
X740122Y1080300*
X741291*
X741856Y1079734*
Y1077266*
X742422Y1076700*
X743591*
X744156Y1077266*
Y1079734*
X744722Y1080300*
X745891*
X746456Y1079734*
Y1077266*
X747022Y1076700*
X748191*
X748756Y1077266*
Y1077934*
X749322Y1078500*
X753462*
X722006Y875140D02*
X708347D01*
X701707Y868500*
X613800*
X722006Y875140D02*
X726146D01*
X726711Y875706*
Y877234*
X727277Y877800*
X728446*
X729011Y877234*
Y871100*
X729577Y870534*
X730746*
X731311Y871100*
Y877234*
X731877Y877800*
X733046*
X733611Y877234*
Y871100*
X734177Y870534*
X735346*
X735911Y871100*
Y877234*
X736477Y877800*
X737646*
X738211Y877234*
Y871100*
X738777Y870534*
X739946*
X740511Y871100*
Y877234*
X741077Y877800*
X742246*
X742811Y877234*
Y871100*
X743377Y870534*
X744546*
X745111Y871100*
Y877234*
X745677Y877800*
X746846*
X747411Y877234*
Y871100*
X747977Y870534*
X749146*
X749711Y871100*
Y874574*
X750277Y875140*
X754417*
X727641Y1006500D02*
X742379D01*
X746519Y1010640*
X771439*
X772440Y1009640*
X775060*
X778200Y1006500*
X732050Y895350D02*
X768771D01*
X777921Y904500*
X806300*
X734786Y1139700D02*
X736626D01*
X738926Y1142000*
Y1147384*
X739492Y1147950*
X740660*
X741226Y1147384*
Y1139616*
X741792Y1139050*
X742960*
X743526Y1139616*
Y1147384*
X744092Y1147950*
X745260*
X745826Y1147384*
Y1139616*
X746392Y1139050*
X747560*
X748126Y1139616*
Y1147384*
X748692Y1147950*
X749860*
X750426Y1147384*
Y1139616*
X750992Y1139050*
X752160*
X752726Y1139616*
Y1147384*
X753292Y1147950*
X754460*
X755026Y1147384*
Y1139616*
X755592Y1139050*
X756760*
X757326Y1139616*
Y1147384*
X757892Y1147950*
X759060*
X759626Y1147384*
Y1139616*
X760192Y1139050*
X761360*
X761926Y1139616*
Y1147384*
X762492Y1147950*
X763660*
X764226Y1147384*
Y1139616*
X764792Y1139050*
X765960*
X766526Y1139616*
Y1147384*
X767092Y1147950*
X768260*
X768826Y1147384*
Y1139616*
X769392Y1139050*
X770560*
X771126Y1139616*
Y1143934*
X771692Y1144500*
X775832*
X742883Y994500D02*
X778200D01*
X743911Y1020260D02*
X760360D01*
X764600Y1024500*
X806300*
X750292Y975220D02*
X751257D01*
X751823Y975786*
Y977294*
X752388Y977860*
X753557*
X754123Y977294*
Y956687*
X754688Y956121*
X755857*
X756423Y956687*
Y977294*
X756988Y977860*
X758157*
X758723Y977294*
Y956687*
X759288Y956121*
X760457*
X761023Y956687*
Y977294*
X761588Y977860*
X762757*
X763323Y977294*
Y956687*
X763888Y956121*
X765057*
X765623Y956687*
Y977294*
X766188Y977860*
X767357*
X767923Y977294*
Y956687*
X768488Y956121*
X769657*
X770223Y956687*
Y973097*
X770788Y973663*
X772762*
X750900Y429400D02*
X754040Y432540D01*
Y435348*
X753876Y435511*
Y471764*
X754482Y472370*
Y479482*
X762500Y487500*
X757862Y1287000D02*
X769600D01*
X758937Y493937D02*
X750640Y485640D01*
Y473961*
X747200Y470521*
X745461*
X739918Y464978*
Y449692*
X742529Y447081*
Y421131*
X762279Y401381*
Y382461*
X789033Y355707*
X889699*
X913975Y379983*
Y393730*
X913500Y394205*
X759200Y429000D02*
Y433440D01*
X756176Y436464*
Y470811*
X758465Y473100*
X764323*
X766900Y475677*
Y481900*
X772500Y487500*
X759389Y552847D02*
X764070D01*
X766900Y555677*
X768100*
X771211Y558789*
X772500Y557500*
X759389Y554389D02*
X762500Y557500D01*
X760027Y492847D02*
X752182Y485001D01*
Y473322*
X747839Y468979*
X746100*
X741460Y464339*
Y450330*
X744071Y447719*
Y421769*
X763821Y402019*
Y383100*
X789672Y357249*
X889061*
X912433Y380622*
Y393092*
X912410Y393115*
X762500Y497500D02*
X758937Y493937D01*
X762500Y547500D02*
X767500Y552500D01*
X783723*
X787500Y556277*
Y598723*
X790677Y601900*
X794416*
X795358Y602843*
X763011Y1227060D02*
X770760D01*
X778200Y1234500*
X764070Y1210510D02*
X770780Y1203800D01*
X777400*
X764746Y1196000D02*
X767000D01*
X765160Y1211600D02*
X769600D01*
X765311Y1175940D02*
X766260D01*
X777400Y1164800*
X766813Y1317110D02*
X763983Y1319940D01*
X684254*
X679573Y1315259*
X628859*
X767000Y1159600D02*
X713479D01*
X701239Y1147360*
X697561*
X682421Y1162500*
X672617*
X767611Y1305649D02*
X768820Y1304440D01*
X802360*
X806300Y1300500*
X767879Y765021D02*
X767217D01*
X767097Y764901*
X735682*
X731239Y760458*
X684473*
X681533Y757518*
X622541*
X616958Y763101*
X588278*
X767879Y766562D02*
X766578D01*
X766458Y766442*
X735043*
X730601Y762000*
X683834*
X680894Y759060*
X623180*
X617597Y764643*
X588278*
X767903Y1318200D02*
X764622Y1321482D01*
X683616*
X678935Y1316801*
X628859*
X769600Y1115400D02*
X771050D01*
X769600Y1211600D02*
X772624Y1208576D01*
X773286*
X769600Y1287000D02*
X771050D01*
X769939Y937840D02*
X771439D01*
X774079Y935200*
Y931943*
X774645Y931378*
X775813*
X776379Y931943*
Y934634*
X776945Y935200*
X778113*
X778679Y934634*
Y931943*
X779245Y931378*
X780413*
X780979Y931943*
Y934634*
X781545Y935200*
X782713*
X783279Y934634*
Y931943*
X783845Y931378*
X785013*
X785579Y931943*
Y934634*
X786145Y935200*
X787313*
X787879Y934634*
Y931943*
X788445Y931378*
X789613*
X790179Y931943*
Y934634*
X790745Y935200*
X791913*
X792479Y934634*
Y931943*
X793045Y931378*
X794213*
X794779Y931943*
Y934634*
X795345Y935200*
X796513*
X797079Y934634*
Y931943*
X797645Y931378*
X798813*
X799379Y931943*
Y934634*
X799945Y935200*
X801113*
X801679Y934634*
Y931943*
X802245Y931378*
X803413*
X803979Y931943*
Y934634*
X804545Y935200*
X805713*
X806279Y934634*
Y931943*
X806845Y931378*
X808013*
X808579Y931943*
Y934634*
X809145Y935200*
X810313*
X810879Y934634*
Y931943*
X811445Y931378*
X812613*
X813179Y931943*
Y934634*
X813745Y935200*
X814913*
X815479Y934634*
Y931943*
X816045Y931378*
X817213*
X817779Y931943*
Y934634*
X818345Y935200*
X819513*
X820079Y934634*
Y931943*
X820645Y931378*
X821813*
X822379Y931943*
Y934634*
X822945Y935200*
X824113*
X824679Y934634*
Y931943*
X825245Y931378*
X826413*
X826979Y931943*
Y934634*
X827545Y935200*
X828713*
X829279Y934634*
Y931943*
X829845Y931378*
X831013*
X831579Y931943*
Y934634*
X832145Y935200*
X833313*
X833879Y934634*
Y931943*
X834445Y931378*
X835613*
X836179Y931943*
Y934634*
X836745Y935200*
X837913*
X838479Y934634*
Y931943*
X839045Y931378*
X840213*
X840779Y931943*
Y934634*
X841345Y935200*
X842513*
X843079Y934634*
Y931943*
X843645Y931378*
X844813*
X845379Y931943*
Y934634*
X845945Y935200*
X847113*
X847679Y934634*
Y931943*
X848245Y931378*
X849413*
X849979Y931943*
Y934634*
X850545Y935200*
X851713*
X852279Y934634*
Y932066*
X852845Y931500*
X856985*
X770771Y1245400D02*
X777400D01*
X771050Y1115400D02*
X775190D01*
X775756Y1115966*
Y1118834*
X776321Y1119400*
X777490*
X778056Y1118834*
Y1111766*
X778621Y1111200*
X779790*
X780356Y1111766*
Y1118834*
X780921Y1119400*
X782090*
X782656Y1118834*
Y1111766*
X783221Y1111200*
X784390*
X784956Y1111766*
Y1118834*
X785521Y1119400*
X786690*
X787256Y1118834*
Y1111766*
X787821Y1111200*
X788990*
X789556Y1111766*
Y1118834*
X790121Y1119400*
X791290*
X791856Y1118834*
Y1111766*
X792421Y1111200*
X793590*
X794156Y1111766*
Y1118834*
X794721Y1119400*
X795890*
X796456Y1118834*
Y1111766*
X797021Y1111200*
X798190*
X798756Y1111766*
Y1118834*
X799321Y1119400*
X800490*
X801056Y1118834*
Y1111766*
X801621Y1111200*
X802790*
X803356Y1111766*
Y1114834*
X803921Y1115400*
X808061*
X771050Y1287000D02*
X775190D01*
X775756Y1287566*
Y1293234*
X776321Y1293800*
X777490*
X778056Y1293234*
Y1286366*
X778621Y1285800*
X779790*
X780356Y1286366*
Y1293234*
X780921Y1293800*
X782090*
X782656Y1293234*
Y1286366*
X783221Y1285800*
X784390*
X784956Y1286366*
Y1293234*
X785521Y1293800*
X786690*
X787256Y1293234*
Y1286366*
X787821Y1285800*
X788990*
X789556Y1286366*
Y1293234*
X790121Y1293800*
X791290*
X791856Y1293234*
Y1286366*
X792421Y1285800*
X793590*
X794156Y1286366*
Y1293234*
X794721Y1293800*
X795890*
X796456Y1293234*
Y1287566*
X797021Y1287000*
X798521*
X801161Y1289640*
X771852Y940140D02*
X772392D01*
X775032Y937500*
X775992*
X776558Y938066*
Y940050*
X777123Y940616*
X778292*
X778858Y940050*
Y938066*
X779423Y937500*
X780592*
X781158Y938066*
Y940050*
X781723Y940616*
X782892*
X783458Y940050*
Y938066*
X784023Y937500*
X785192*
X785758Y938066*
Y940050*
X786323Y940616*
X787492*
X788058Y940050*
Y938066*
X788623Y937500*
X789792*
X790358Y938066*
Y940050*
X790923Y940616*
X792092*
X792658Y940050*
Y938066*
X793223Y937500*
X794392*
X794958Y938066*
Y940050*
X795523Y940616*
X796692*
X797258Y940050*
Y938066*
X797823Y937500*
X798992*
X799558Y938066*
Y940050*
X800123Y940616*
X801292*
X801858Y940050*
Y938066*
X802423Y937500*
X803592*
X804158Y938066*
Y940050*
X804723Y940616*
X805892*
X806458Y940050*
Y938066*
X807023Y937500*
X808192*
X808758Y938066*
Y940050*
X809323Y940616*
X810492*
X811058Y940050*
Y938066*
X811623Y937500*
X812792*
X813358Y938066*
Y940050*
X813923Y940616*
X815092*
X815658Y940050*
Y938066*
X816223Y937500*
X817392*
X817958Y938066*
Y940050*
X818523Y940616*
X819692*
X820258Y940050*
Y938066*
X820823Y937500*
X821992*
X822558Y938066*
Y940050*
X823123Y940616*
X824292*
X824858Y940050*
Y938066*
X825423Y937500*
X826592*
X827158Y938066*
Y940050*
X827723Y940616*
X828892*
X829458Y940050*
Y938066*
X830023Y937500*
X831192*
X831758Y938066*
Y940050*
X832323Y940616*
X833492*
X834058Y940050*
Y938066*
X834623Y937500*
X835792*
X836358Y938066*
Y940050*
X836923Y940616*
X838092*
X838658Y940050*
Y938066*
X839223Y937500*
X840392*
X840958Y938066*
Y940050*
X841523Y940616*
X842692*
X843258Y940050*
Y938066*
X843823Y937500*
X844992*
X845558Y938066*
Y940050*
X846123Y940616*
X847292*
X847858Y940050*
Y938066*
X848423Y937500*
X849592*
X850158Y938066*
Y940050*
X850723Y940616*
X851892*
X852458Y940050*
Y938066*
X853023Y937500*
X857163*
X772000Y760900D02*
X767879Y765021D01*
X772200Y770200D02*
X768562Y766562D01*
X767879*
X772500Y497500D02*
X767847Y492847D01*
X760027*
X772500Y547500D02*
X776900Y543100D01*
X794323*
X796900Y545677*
Y602843*
X772600Y1310200D02*
X782411D01*
X772600D02*
X769460Y1313340D01*
Y1314463*
X766813Y1317110*
X772762Y973663D02*
X793931D01*
X803508Y983240*
X820399*
X835679Y967960*
X911201*
X953581Y1010340*
X974808*
X1004468Y1040000*
X773286Y1208576D02*
X774040Y1209330D01*
Y1213870*
X771418Y1216492*
Y1221878*
X777261Y1227721*
X787381*
X795442Y1235782*
X854158*
X857669Y1232271*
X865119*
X883119Y1214271*
X906258*
X911329Y1209200*
X961540*
X967780Y1202960*
X993862*
X1001955Y1211053*
X774122Y1045200D02*
X777400D01*
X774376Y1207486D02*
X775582Y1208692D01*
Y1214508*
X772960Y1217130*
Y1221239*
X777900Y1226179*
X788019*
X796080Y1234240*
X853520*
X857031Y1230729*
X864481*
X882481Y1212729*
X905619*
X910690Y1207658*
X960902*
X967142Y1201418*
X994501*
X1003045Y1209963*
X774511Y1330500D02*
X778200D01*
X774800Y1076400D02*
X762961D01*
X760861Y1078500*
X753462*
X774800Y1102400D02*
Y1095679D01*
X772960Y1093839*
Y1088122*
X778422Y1082660*
X774900Y428800D02*
Y429000D01*
X775100*
X781058Y434958*
X776410Y833940D02*
X788415D01*
X789855Y832500*
X806300*
X777053Y881600D02*
X788906D01*
X790006Y880500*
X806300*
X777400Y1203800D02*
X774376Y1206824D01*
Y1207486*
X777400Y1318200D02*
X767903D01*
X777400D02*
X780540Y1315060D01*
Y1313613*
X782411Y1311742*
X778200Y802500D02*
X802500D01*
X809940Y795060*
X872810*
X877250Y799500*
X888579*
X927356Y838276*
Y874896*
X1037560Y985100*
X1042000*
X778200Y838500D02*
X831750D01*
X834750Y841500*
X871250*
X877250Y847500*
X888579*
X921331Y880252*
Y888163*
X1025608Y992440*
X1039028*
X1039808Y991660*
X1058860*
X1062200Y995000*
X778200Y850500D02*
X831750D01*
X834750Y853500*
X882021*
X886362Y857841*
X778200Y994500D02*
X806139D01*
X778200Y1006500D02*
X806439D01*
X778200Y1330500D02*
X821642D01*
X842382Y1351240*
X871060*
X875750Y1346550*
X890529*
X891579Y1345500*
X922225*
X778422Y1082660D02*
X779388D01*
X779954Y1082094*
Y1080226*
X780519Y1079660*
X781688*
X782254Y1080226*
Y1082094*
X782819Y1082660*
X783988*
X784554Y1082094*
Y1080226*
X785119Y1079660*
X786288*
X786854Y1080226*
Y1082094*
X787419Y1082660*
X788588*
X789154Y1082094*
Y1080226*
X789719Y1079660*
X790888*
X791454Y1080226*
Y1082094*
X792019Y1082660*
X793188*
X793754Y1082094*
Y1080226*
X794319Y1079660*
X795488*
X796054Y1080226*
Y1082094*
X796619Y1082660*
X797788*
X798354Y1082094*
Y1080226*
X798919Y1079660*
X800088*
X800654Y1080226*
Y1082094*
X801219Y1082660*
X802388*
X802954Y1082094*
Y1080226*
X803519Y1079660*
X804688*
X805254Y1080226*
Y1082094*
X805819Y1082660*
X806988*
X807554Y1082094*
Y1080226*
X808119Y1079660*
X809288*
X809854Y1080226*
Y1082094*
X810419Y1082660*
X811588*
X812154Y1082094*
Y1080226*
X812719Y1079660*
X813888*
X814454Y1080226*
Y1082094*
X815019Y1082660*
X816188*
X816754Y1082094*
Y1080226*
X817319Y1079660*
X818488*
X819054Y1080226*
Y1082094*
X819619Y1082660*
X820788*
X821354Y1082094*
Y1080226*
X821919Y1079660*
X823088*
X823654Y1080226*
Y1082094*
X824219Y1082660*
X825388*
X825954Y1082094*
Y1080226*
X826519Y1079660*
X827688*
X828254Y1080226*
Y1082094*
X828819Y1082660*
X829988*
X830554Y1082094*
Y1080226*
X831119Y1079660*
X832288*
X832854Y1080226*
Y1082094*
X833419Y1082660*
X834461*
X834587Y1082534*
X779239Y1158818D02*
X779959D01*
X790956Y1169816*
X779239Y1160360D02*
X790237Y1171358D01*
X790956*
X781058Y434958D02*
Y442016D01*
X792142Y453100*
X782411Y1310200D02*
X815180D01*
X843020Y1338040*
X871746*
X876423Y1333363*
X913429*
X916596Y1336530*
X985817*
X1002892Y1319455*
X782411Y1311742D02*
X814542D01*
X842382Y1339582*
X872384*
X877062Y1334905*
X912791*
X915958Y1338071*
X986456*
X1003982Y1320545*
X782600Y429000D02*
Y434958D01*
Y441377*
X793232Y452010*
X788779Y396281D02*
X786200Y398860D01*
Y403300*
X790321Y396281D02*
X792900Y398860D01*
Y403300*
X790956Y1169816D02*
X846705D01*
X790956Y1171358D02*
X846705D01*
X792142Y453100D02*
Y457500D01*
X792500*
X793232Y452010D02*
X797153Y455930D01*
Y462847*
X792500Y467500*
X795358Y602843D02*
Y603651D01*
X797767Y606060*
X834879*
X839025Y610206*
X901890*
X911668Y619984*
X956860*
X796900Y602843D02*
Y603013D01*
X798406Y604518*
X835518*
X839664Y608664*
X902529*
X912307Y618443*
X956860*
X801161Y1289640D02*
X804461Y1292940D01*
X816860*
X819800Y1290000*
X872750*
X877250Y1285500*
X903047*
X924947Y1263600*
X962000*
X802500Y457500D02*
X805611Y454389D01*
X802500Y467500D02*
X807153Y462847D01*
Y454389*
X805611D02*
Y429798D01*
X802618Y426805*
Y397731*
X825550Y374800*
Y369030*
X826470Y368110*
X806139Y994500D02*
X810279D01*
X810845Y995066*
Y995900*
X811410Y996466*
X812579*
X813145Y995900*
Y991463*
X813710Y990897*
X814879*
X815445Y991463*
Y995900*
X816010Y996466*
X817179*
X817745Y995900*
Y991463*
X818310Y990897*
X819479*
X820045Y991463*
Y995900*
X820610Y996466*
X821779*
X822345Y995900*
Y991463*
X822910Y990897*
X824079*
X824645Y991463*
Y995900*
X825210Y996466*
X826379*
X826945Y995900*
Y991463*
X827510Y990897*
X828679*
X829245Y991463*
Y995900*
X829810Y996466*
X830979*
X831545Y995900*
Y991463*
X832110Y990897*
X833279*
X833845Y991463*
Y995900*
X834410Y996466*
X835579*
X836145Y995900*
Y991463*
X836710Y990897*
X837879*
X838445Y991463*
Y995900*
X839010Y996466*
X840179*
X840745Y995900*
Y991463*
X841310Y990897*
X842479*
X843045Y991463*
Y995900*
X843610Y996466*
X844779*
X845345Y995900*
Y991463*
X845910Y990897*
X847079*
X847645Y991463*
Y995900*
X848210Y996466*
X849379*
X849945Y995900*
Y991463*
X850510Y990897*
X851679*
X852245Y991463*
Y993934*
X852810Y994500*
X856921*
X856950Y994470*
X806300Y869000D02*
X786332D01*
X780192Y875140*
X754417*
X806300Y869000D02*
X842975D01*
X850715Y876740*
X870210*
X873890Y873060*
X890139*
X914150Y897071*
Y901029*
X969363Y956243*
X981122*
X1023279Y998400*
X1042600*
X806300Y976500D02*
X819746Y963054D01*
X806300Y988500D02*
X820399D01*
X825339Y983560*
X893639*
X943819Y1033740*
X954392*
X960072Y1028060*
X975192*
X990322Y1043190*
X806300Y1012500D02*
X817951D01*
X806300Y1024500D02*
X837400Y1055600D01*
X858300*
X806300Y1048500D02*
X780379D01*
X778939Y1049940*
X656390*
X653900Y1047450*
X592450*
X582400Y1037400*
X806300Y1300500D02*
X844921D01*
X858361Y1313940*
X872810*
X875690Y1311060*
X894379*
X916024Y1332705*
X946808*
X991513Y1288000*
X1002500*
X806400Y1276500D02*
X822950Y1259950D01*
X865571*
X886461Y1239060*
X893060*
X897440Y1243440*
X904039*
X924519Y1222960*
X951481*
X962681Y1234160*
X968254*
X806439Y1006500D02*
X810579D01*
X811145Y1005934*
Y1001846*
X811710Y1001281*
X812879*
X813445Y1001846*
Y1006200*
X814010Y1006766*
X815179*
X815745Y1006200*
Y1001846*
X816310Y1001281*
X817479*
X818045Y1001846*
Y1006200*
X818610Y1006766*
X819779*
X820345Y1006200*
Y1001846*
X820910Y1001281*
X822079*
X822645Y1001846*
Y1006200*
X823210Y1006766*
X824379*
X824945Y1006200*
Y1001846*
X825510Y1001281*
X826679*
X827245Y1001846*
Y1006200*
X827810Y1006766*
X828979*
X829545Y1006200*
Y1001846*
X830110Y1001281*
X831279*
X831845Y1001846*
Y1006200*
X832410Y1006766*
X833579*
X834145Y1006200*
Y1001846*
X834710Y1001281*
X835879*
X836445Y1001846*
Y1006200*
X837010Y1006766*
X838179*
X838745Y1006200*
Y1001846*
X839310Y1001281*
X840479*
X841045Y1001846*
Y1006200*
X841610Y1006766*
X842779*
X843345Y1006200*
Y1001846*
X843910Y1001281*
X845079*
X845645Y1001846*
Y1006200*
X846210Y1006766*
X847379*
X847945Y1006200*
Y1001846*
X848510Y1001281*
X849679*
X850245Y1001846*
Y1006200*
X850810Y1006766*
X851979*
X852545Y1006200*
Y1001846*
X853110Y1001281*
X854279*
X854845Y1001846*
Y1005934*
X855410Y1006500*
X856921*
X858361Y1005060*
X859550*
X807153Y454389D02*
Y429160D01*
X804160Y426167*
Y398370*
X827091Y375439*
Y369669*
X827560Y369200*
X808061Y1115400D02*
X817811D01*
X818211Y1115000*
X832400*
X808833Y1225967D02*
X806300Y1228500D01*
X811239Y1251160D02*
X815379Y1255300D01*
Y1256594*
X815945Y1257160*
X817113*
X817679Y1256594*
Y1250216*
X818245Y1249650*
X819413*
X819979Y1250216*
Y1256594*
X820545Y1257160*
X821713*
X822279Y1256594*
Y1250216*
X822845Y1249650*
X824013*
X824579Y1250216*
Y1256594*
X825145Y1257160*
X826313*
X826879Y1256594*
Y1250216*
X827445Y1249650*
X828613*
X829179Y1250216*
Y1256594*
X829745Y1257160*
X830913*
X831479Y1256594*
Y1250216*
X832045Y1249650*
X833213*
X833779Y1250216*
Y1256594*
X834345Y1257160*
X835513*
X836079Y1256594*
Y1250216*
X836645Y1249650*
X837813*
X838379Y1250216*
Y1256594*
X838945Y1257160*
X840113*
X840679Y1256594*
Y1250216*
X841245Y1249650*
X842413*
X842979Y1250216*
Y1256594*
X843545Y1257160*
X844713*
X845279Y1256594*
Y1250216*
X845845Y1249650*
X847013*
X847579Y1250216*
Y1256594*
X848145Y1257160*
X849313*
X849879Y1256594*
Y1250216*
X850445Y1249650*
X851613*
X852179Y1250216*
Y1254734*
X852745Y1255300*
X856885*
X812060Y703777D02*
Y701240D01*
X815200Y698100*
X813416Y705132D02*
X813977Y704571D01*
Y704483*
X815560Y702900*
X820000*
X815000Y1212000D02*
Y1216661D01*
X814434Y1217227*
X809436*
X808870Y1217792*
Y1218961*
X809436Y1219527*
X816394*
X816960Y1220092*
Y1221261*
X816394Y1221827*
X812973*
X808833Y1225967*
X817951Y1012500D02*
X822091D01*
X822656Y1013066*
Y1016309*
X823222Y1016874*
X824391*
X824956Y1016309*
Y1009632*
X825522Y1009066*
X826691*
X827256Y1009632*
Y1016309*
X827822Y1016874*
X828991*
X829556Y1016309*
Y1009632*
X830122Y1009066*
X831291*
X831856Y1009632*
Y1016309*
X832422Y1016874*
X833591*
X834156Y1016309*
Y1009632*
X834722Y1009066*
X835891*
X836456Y1009632*
Y1016309*
X837022Y1016874*
X838191*
X838756Y1016309*
Y1009632*
X839322Y1009066*
X840491*
X841056Y1009632*
Y1011934*
X841622Y1012500*
X845762*
X819746Y963054D02*
X820711Y962089D01*
Y956376*
X821277Y955810*
X822446*
X823011Y956376*
Y962794*
X823577Y963360*
X824746*
X825311Y962794*
Y956376*
X825877Y955810*
X827046*
X827611Y956376*
Y962794*
X828177Y963360*
X829346*
X829911Y962794*
Y956376*
X830477Y955810*
X831646*
X832211Y956376*
Y962794*
X832777Y963360*
X833946*
X834511Y962794*
Y956376*
X835077Y955810*
X836246*
X836811Y956376*
Y962794*
X837377Y963360*
X838546*
X839111Y962794*
Y956376*
X839677Y955810*
X840846*
X841411Y956376*
Y962794*
X841977Y963360*
X843146*
X843711Y962794*
Y956376*
X844277Y955810*
X845446*
X846011Y956376*
Y962794*
X846577Y963360*
X847746*
X848311Y962794*
Y956376*
X848877Y955810*
X850046*
X850611Y956376*
Y962794*
X851177Y963360*
X852346*
X852911Y962794*
Y956376*
X853477Y955810*
X854646*
X855211Y956376*
Y962794*
X855777Y963360*
X856946*
X857511Y962794*
Y956376*
X858077Y955810*
X859246*
X859811Y956376*
Y962794*
X860377Y963360*
X861546*
X862111Y962794*
Y956376*
X862677Y955810*
X863846*
X864411Y956376*
Y962794*
X864977Y963360*
X866146*
X866711Y962794*
Y956376*
X867277Y955810*
X868446*
X869011Y956376*
Y962794*
X869577Y963360*
X870746*
X871311Y962794*
Y956376*
X871877Y955810*
X873046*
X873611Y956376*
Y962794*
X874177Y963360*
X875346*
X875911Y962794*
Y956376*
X876477Y955810*
X877646*
X878211Y956376*
Y962794*
X878777Y963360*
X879946*
X880511Y962794*
Y956376*
X881077Y955810*
X882246*
X882811Y956376*
Y962794*
X883377Y963360*
X884546*
X885111Y962794*
Y956376*
X885677Y955810*
X886846*
X887411Y956376*
Y962794*
X887977Y963360*
X889146*
X889711Y962794*
Y956376*
X890277Y955810*
X891446*
X892011Y956376*
Y962794*
X892577Y963360*
X893746*
X894311Y962794*
Y956376*
X894877Y955810*
X896046*
X896611Y956376*
Y962794*
X897177Y963360*
X898346*
X898911Y962794*
Y956376*
X899477Y955810*
X900646*
X901211Y956376*
Y962794*
X901777Y963360*
X902946*
X903511Y962794*
Y956376*
X904077Y955810*
X905246*
X905811Y956376*
Y962794*
X906377Y963360*
X907546*
X908111Y962794*
Y956376*
X908677Y955810*
X909846*
X910411Y956376*
Y962794*
X910977Y963360*
X912146*
X912711Y962794*
Y962126*
X913277Y961560*
X915099*
X821500Y1205500D02*
X815000Y1212000D01*
X826470Y368110D02*
X829820Y364760D01*
X840760*
X845300Y369300*
X827560Y369200D02*
X832000D01*
X831800Y684800D02*
X834940Y681660D01*
X838384*
X834587Y1082534D02*
X839961Y1077160D01*
X859839*
X873150Y1090471*
Y1090629*
X887371Y1104850*
X890129*
X893640Y1108361*
Y1112039*
X891039Y1114640*
X862600*
X847300Y1099340*
X836600Y689600D02*
X839740Y686460D01*
Y683016*
X838384Y681660D02*
X855901Y664143D01*
X939576*
X945473Y670040*
X1032186*
X1075296Y713150*
X1079429*
X1142535Y776256*
X1207994*
X1224788Y793050*
X1285755*
X1316418Y823713*
X1432673*
X1433142Y823244*
Y822582*
X839740Y683016D02*
X856695Y666060D01*
X938783*
X944679Y671957*
X1031392*
X1074502Y715067*
X1078635*
X1141741Y778173*
X1207200*
X1223994Y794967*
X1284961*
X1315624Y825630*
X1433467*
X1435058Y824038*
Y822582*
X842400Y1115400D02*
X832200Y1105200D01*
Y1091121*
X826039Y1084960*
X802640*
X778700Y1108900*
X754337*
X843660Y700740D02*
X842998D01*
X842360Y700102*
Y693611*
X864411Y671560*
X932216*
X939553Y678896*
X969186*
X1019706Y729417*
Y744290*
X1113773Y838357*
X1250159*
X1256486Y832030*
X1450991*
X1457717Y825304*
Y820483*
X843660Y702656D02*
X842204D01*
X840443Y700896*
Y692817*
X863617Y669643*
X933010*
X940346Y676980*
X969979*
X1021623Y728623*
Y743496*
X1114567Y836440*
X1249365*
X1255692Y830113*
X1450197*
X1455800Y824510*
Y820483*
X846705Y1169816D02*
X851721Y1164800D01*
X858000*
X846705Y1171358D02*
X850200D01*
Y1172600*
X846800Y697600D02*
X843660Y700740D01*
X848371Y810429D02*
X852800Y806000D01*
X848371Y811971D02*
X852800Y816400D01*
X850200Y1172600D02*
X853224Y1169576D01*
X853886*
X851600Y702400D02*
X844710D01*
X844454Y702656*
X843660*
X853886Y1169576D02*
X855452Y1171142D01*
X868726*
X883866Y1186282*
X910784*
X912306Y1184760*
X946607*
X950194Y1188348*
X961843*
X971237Y1197742*
X1002500*
X854976Y1168486D02*
X856091Y1169601D01*
X869365*
X884504Y1184740*
X910146*
X911667Y1183218*
X947245*
X950833Y1186806*
X962482*
X971876Y1196200*
X1002500*
X855700Y865700D02*
X851260D01*
X848839Y868121*
X848177*
X842616Y862560*
X781826*
X780426Y863960*
X775561*
X774014Y865506*
X736538*
X729384Y858352*
X705124*
X703483Y859992*
Y862031*
X703015Y862500*
X697800*
X855800Y872300D02*
X851360D01*
X849181Y870121*
X847348*
X841787Y864560*
X782654*
X781840Y865374*
Y870239*
X779239Y872840*
X775561*
X772960Y870239*
Y867975*
X772491Y867506*
X735710*
X728555Y860352*
X705952*
X705483Y860821*
Y861483*
X709800Y865800*
X856885Y1255300D02*
X860200D01*
X856985Y931500D02*
X860200D01*
X857163Y937500D02*
X888300D01*
X858000Y1164800D02*
X854976Y1167824D01*
Y1168486*
X858300Y1055600D02*
X862440D01*
X863006Y1055034*
Y1051982*
X863571Y1051417*
X864740*
X865306Y1051982*
Y1056094*
X865871Y1056660*
X867040*
X867606Y1056094*
Y1051982*
X868171Y1051417*
X869340*
X869906Y1051982*
Y1056094*
X870471Y1056660*
X871640*
X872206Y1056094*
Y1051982*
X872771Y1051417*
X873940*
X874506Y1051982*
Y1056094*
X875071Y1056660*
X876240*
X876806Y1056094*
Y1051982*
X877371Y1051417*
X878540*
X879106Y1051982*
Y1056094*
X879671Y1056660*
X880840*
X881406Y1056094*
Y1051982*
X881971Y1051417*
X883140*
X883706Y1051982*
Y1055034*
X884271Y1055600*
X888411*
X859550Y1005060D02*
X874210D01*
X879310Y1010160*
X903345*
X933590Y1040405*
Y1082869*
X936761Y1086040*
X954135*
X974690Y1106595*
X991151*
X992556Y1108000*
X1002500*
X860200Y931500D02*
X897421D01*
X860200Y1019400D02*
X885321D01*
X889961Y1014760*
X901439*
X924840Y1038161*
Y1080625*
X934855Y1090640*
X952229*
X973749Y1112160*
X990211*
X997891Y1119840*
X1002500*
X860200Y1255300D02*
X866968D01*
X885508Y1236760*
X889319*
X905919Y1220160*
X907040*
X865684Y694640D02*
X862240D01*
X859100Y691500*
X867040Y693284D02*
Y689840D01*
X863900Y686700*
X886000Y368600D02*
Y364160D01*
X887938Y362222*
X886362Y857841D02*
X889289Y860768D01*
Y861568*
X888462Y862395*
Y863195*
X889289Y864022*
X890089*
X891613Y862497*
X892413*
X893239Y863324*
Y864124*
X891715Y865648*
Y866448*
X892541Y867275*
X893341*
X894866Y865750*
X895666*
X896492Y866577*
Y867376*
X894968Y868901*
Y869701*
X895794Y870527*
X896594*
X898118Y869003*
X898918*
X899745Y869829*
Y870629*
X898220Y872154*
Y872954*
X899047Y873780*
X899847*
X901371Y872256*
X902171*
X902997Y873082*
Y873882*
X901473Y875406*
Y876206*
X902299Y877033*
X903099*
X904624Y875508*
X905424*
X906250Y876335*
Y877135*
X904726Y878659*
Y879459*
X905552Y880285*
X906352*
X907876Y878761*
X908676*
X909503Y879587*
Y880387*
X907978Y881912*
Y882712*
X908805Y883538*
X909605*
X911129Y882014*
X911929*
X912755Y882840*
Y883640*
X911231Y885164*
Y885964*
X912057Y886791*
X912857*
X914382Y885266*
X915182*
X916008Y886093*
Y886893*
X914484Y888417*
Y889217*
X915310Y890043*
X916110*
X917634Y888519*
X918434*
X919261Y889345*
Y890145*
X917736Y891670*
Y892470*
X918563Y893296*
X919363*
X920887Y891772*
X921687*
X922513Y892598*
Y893398*
X920989Y894922*
Y895722*
X921815Y896549*
X922615*
X924140Y895024*
X924940*
X925766Y895851*
Y896651*
X924242Y898175*
Y898975*
X925068Y899801*
X925868*
X927392Y898277*
X928192*
X929019Y899103*
Y899903*
X927494Y901428*
Y902228*
X928321Y903054*
X929121*
X930645Y901530*
X931445*
X932271Y902356*
Y903156*
X930747Y904680*
Y905480*
X931573Y906307*
X932373*
X933898Y904782*
X934698*
X935524Y905609*
Y906409*
X934000Y907933*
Y908733*
X934826Y909559*
X935626*
X936453Y908732*
X937253*
X940181Y911660*
X887938Y362222D02*
Y361559D01*
X887469Y361091*
X827686*
X796764Y392013*
Y393657*
X795272Y395149*
X790789*
X790321Y395618*
Y396281*
X888300Y937500D02*
X889750D01*
X888300Y1147500D02*
X901853D01*
X888300D02*
X859979D01*
X858019Y1145540*
X829208*
X828168Y1144500*
X775832*
X888300Y1279500D02*
X905579D01*
X926700Y1258379*
X971600*
X888300Y1303500D02*
X914505Y1277295D01*
X940200*
X942555Y1279650*
X971600*
X888411Y1055600D02*
X890279D01*
X894400Y1059721*
Y1061879*
X906671Y1074150*
X908500*
X938590Y1104240*
X953453*
X961560Y1112347*
Y1116039*
X965361Y1119840*
X970775*
X971955Y1118660*
X983192*
X1002500Y1137968*
X889480Y362222D02*
Y360921D01*
X888108Y359549*
X827047*
X795222Y391374*
Y393019*
X794633Y393608*
X790151*
X788779Y394979*
Y396281*
X889750Y937500D02*
X893890D01*
X894456Y938066*
Y939720*
X895021Y940285*
X896190*
X896756Y939720*
Y935829*
X897321Y935263*
X898490*
X899056Y935829*
Y939720*
X899621Y940285*
X900790*
X901356Y939720*
Y938066*
X901921Y937500*
X906061*
X891800Y988000D02*
X939840Y1036040D01*
X955345*
X961025Y1030360*
X974239*
X988022Y1044143*
X892224Y1267714D02*
Y1268376D01*
X889200Y1271400*
X892500Y577500D02*
X897528Y582528D01*
X904817*
X892600Y368300D02*
X889460Y365160D01*
Y362880*
X889480Y362861*
Y362222*
X893314Y1266624D02*
X893976D01*
X897000Y1263600*
X895106Y1270596D02*
X894444D01*
X893640Y1271400*
X889200*
X896196Y1269506D02*
Y1268844D01*
X897000Y1268040*
Y1263600*
X897421Y931500D02*
X901561D01*
X902127Y932066*
Y932398*
X902693Y932963*
X903861*
X904427Y932398*
Y932066*
X904993Y931500*
X909133*
X897921Y1161800D02*
X902527D01*
X903092Y1161234*
Y1159066*
X903658Y1158500*
X904827*
X905392Y1159066*
Y1166343*
X905958Y1166908*
X907127*
X907692Y1166343*
Y1159066*
X908258Y1158500*
X909427*
X909992Y1159066*
Y1166343*
X910558Y1166908*
X911727*
X912292Y1166343*
Y1159066*
X912858Y1158500*
X914027*
X914592Y1159066*
Y1166343*
X915158Y1166908*
X916327*
X916892Y1166343*
Y1159066*
X917458Y1158500*
X918627*
X919192Y1159066*
Y1166343*
X919758Y1166908*
X920927*
X921492Y1166343*
Y1159066*
X922058Y1158500*
X923227*
X923792Y1159066*
Y1166343*
X924358Y1166908*
X925527*
X926092Y1166343*
Y1159066*
X926658Y1158500*
X927827*
X928392Y1159066*
Y1166343*
X928958Y1166908*
X930127*
X930692Y1166343*
Y1159066*
X931258Y1158500*
X932427*
X932992Y1159066*
Y1166343*
X933558Y1166908*
X934727*
X935292Y1166343*
Y1159066*
X935858Y1158500*
X937027*
X937592Y1159066*
Y1166343*
X938158Y1166908*
X939327*
X939892Y1166343*
Y1159066*
X940458Y1158500*
X941627*
X942192Y1159066*
Y1166343*
X942758Y1166908*
X943927*
X944492Y1166343*
Y1162366*
X945058Y1161800*
X949198*
X897921D02*
X897332D01*
X891992Y1156460*
X837960*
X831460Y1149960*
X809361*
X808821Y1150500*
X778200*
X898600Y1156200D02*
X940352D01*
X901853Y1147500D02*
X903533D01*
X905993Y1149960*
Y1153334*
X906559Y1153900*
X907727*
X908293Y1153334*
Y1146326*
X908859Y1145760*
X910027*
X910593Y1146326*
Y1153334*
X911159Y1153900*
X912327*
X912893Y1153334*
Y1146326*
X913459Y1145760*
X914627*
X915193Y1146326*
Y1153334*
X915759Y1153900*
X916927*
X917493Y1153334*
Y1146326*
X918059Y1145760*
X919227*
X919793Y1146326*
Y1153334*
X920359Y1153900*
X921527*
X922093Y1153334*
Y1146326*
X922659Y1145760*
X923827*
X924393Y1146326*
Y1153334*
X924959Y1153900*
X926127*
X926693Y1153334*
Y1146326*
X927259Y1145760*
X928427*
X928993Y1146326*
Y1153334*
X929559Y1153900*
X930727*
X931293Y1153334*
Y1146326*
X931859Y1145760*
X933027*
X933593Y1146326*
Y1153334*
X934159Y1153900*
X935327*
X935893Y1153334*
Y1146326*
X936459Y1145760*
X937627*
X938193Y1146326*
Y1153334*
X938759Y1153900*
X939927*
X940493Y1153334*
Y1146326*
X941059Y1145760*
X942227*
X942793Y1146326*
Y1153334*
X943359Y1153900*
X944527*
X945093Y1153334*
Y1146326*
X945659Y1145760*
X946827*
X947393Y1146326*
Y1153334*
X947959Y1153900*
X949127*
X949693Y1153334*
Y1146326*
X950259Y1145760*
X951427*
X951993Y1146326*
Y1153334*
X952559Y1153900*
X953727*
X954293Y1153334*
Y1146326*
X954859Y1145760*
X956027*
X956593Y1146326*
Y1153334*
X957159Y1153900*
X958327*
X958893Y1153334*
Y1150526*
X959459Y1149960*
X963599*
X902500Y577500D02*
X906173Y581173D01*
X904817Y582528D02*
X906900Y584610D01*
Y599323*
X904323Y601900*
X840677*
X833458Y594681*
Y559525*
X805116Y531183*
X739661*
X725505Y545340*
X705245*
X696949Y537043*
X663636*
X620595Y580084*
X546035*
X512858Y613262*
X475749*
X442887Y646124*
Y878992*
X298638Y1023241*
X162376*
X82040Y1103577*
Y1118777*
X77511Y1123306*
Y1262566*
X79282Y1264338*
X80398*
X906061Y937500D02*
X916021D01*
X952861Y974340*
X957121*
X979792Y997010*
X995510*
X1002600Y1004100*
X906173Y581173D02*
X908817Y583817D01*
Y600116*
X905116Y603817*
X839884*
X831542Y595475*
Y560319*
X804323Y533100*
X740455*
X726299Y547257*
X704451*
X696155Y538960*
X664430*
X621389Y582001*
X546829*
X513651Y615178*
X476543*
X444803Y646917*
Y879786*
X299432Y1025158*
X163170*
X83957Y1104371*
Y1119571*
X79428Y1124100*
Y1261772*
X80076Y1262421*
X80398*
X907040Y1220160D02*
X910490D01*
X911056Y1219594*
Y1212726*
X911621Y1212160*
X912790*
X913356Y1212726*
Y1219594*
X913921Y1220160*
X915090*
X915656Y1219594*
Y1212726*
X916221Y1212160*
X917390*
X917956Y1212726*
Y1219594*
X918521Y1220160*
X919690*
X920256Y1219594*
Y1212726*
X920821Y1212160*
X921990*
X922556Y1212726*
Y1219594*
X923121Y1220160*
X924290*
X924856Y1219594*
Y1212726*
X925421Y1212160*
X926590*
X927156Y1212726*
Y1219594*
X927721Y1220160*
X928890*
X929456Y1219594*
Y1212726*
X930021Y1212160*
X931190*
X931756Y1212726*
Y1219594*
X932321Y1220160*
X933490*
X934056Y1219594*
Y1212726*
X934621Y1212160*
X935790*
X936356Y1212726*
Y1219594*
X936921Y1220160*
X938090*
X938656Y1219594*
Y1212726*
X939221Y1212160*
X940390*
X940956Y1212726*
Y1219594*
X941521Y1220160*
X942690*
X943256Y1219594*
Y1212726*
X943821Y1212160*
X944990*
X945556Y1212726*
Y1219594*
X946121Y1220160*
X947290*
X947856Y1219594*
Y1212726*
X948421Y1212160*
X949590*
X950156Y1212726*
Y1219594*
X950721Y1220160*
X951890*
X952456Y1219594*
Y1212726*
X953021Y1212160*
X954190*
X954756Y1212726*
Y1219594*
X955321Y1220160*
X956490*
X957056Y1219594*
Y1212726*
X957621Y1212160*
X958790*
X959356Y1212726*
Y1219594*
X959921Y1220160*
X961090*
X961656Y1219594*
Y1212726*
X962221Y1212160*
X963390*
X963956Y1212726*
Y1219594*
X964521Y1220160*
X968661*
X907351Y1068097D02*
Y1034751D01*
X891800Y1019200*
X907351Y1068097D02*
X910278Y1071024D01*
X911078*
X915935Y1066167*
X916735*
X917562Y1066994*
Y1067794*
X912705Y1072651*
Y1073451*
X915632Y1076378*
X907400Y522600D02*
X910758Y525958D01*
X909133Y931500D02*
X921968D01*
X946908Y956440*
X947519*
X959140Y968061*
Y968672*
X982308Y991840*
X1000390*
X1014290Y1005740*
X1037360*
X1038040Y1005060*
X1057339*
X1059279Y1007000*
X1067000*
X910758Y525958D02*
Y528201D01*
X929419Y546861*
X939059*
X980218Y588020*
Y623278*
X988896Y631956*
X1073335*
X912300Y525958D02*
Y527562D01*
X930057Y545319*
X939698*
X981760Y587382*
Y622639*
X989535Y630414*
X1073335*
X912410Y393115D02*
X911965Y393560D01*
X910840*
X907700Y396700*
X913500Y394205D02*
Y400400D01*
X915099Y961560D02*
X933575D01*
X950955Y978940*
X954019*
X979439Y1004360*
X986510*
X1022150Y1040000*
X915200Y522600D02*
X912300Y525500D01*
Y525958*
X922225Y1345500D02*
X926365D01*
X926931Y1346066*
Y1349287*
X927497Y1349853*
X928665*
X929231Y1349287*
Y1342672*
X929797Y1342106*
X930965*
X931531Y1342672*
Y1349287*
X932097Y1349853*
X933265*
X933831Y1349287*
Y1342672*
X934397Y1342106*
X935565*
X936131Y1342672*
Y1349287*
X936697Y1349853*
X937865*
X938431Y1349287*
Y1342672*
X938997Y1342106*
X940165*
X940731Y1342672*
Y1349287*
X941297Y1349853*
X942465*
X943031Y1349287*
Y1342672*
X943597Y1342106*
X944765*
X945331Y1342672*
Y1344934*
X945897Y1345500*
X950037*
X934400Y1190900D02*
X931260Y1194040D01*
X905464*
X902484Y1191060*
X875690*
X872810Y1193940*
X858361*
X839621Y1175200*
X774800*
X940352Y1156200D02*
X944492D01*
X945058Y1156766*
Y1158934*
X945624Y1159500*
X946792*
X947358Y1158934*
Y1156766*
X947924Y1156200*
X949092*
X949658Y1156766*
Y1158934*
X950224Y1159500*
X951392*
X951958Y1158934*
Y1156766*
X952524Y1156200*
X956111*
X956664Y1156752*
X949198Y1161800D02*
X957851D01*
X960051Y1164000*
X973121*
X990581Y1181460*
X1002500*
X956664Y1156752D02*
X960051Y1160139D01*
X973366*
X983226Y1170000*
X1002500*
X956860Y618443D02*
X957560Y617743D01*
Y613040*
X962800Y607800*
X956860Y619984D02*
X958216D01*
X962000Y616200*
X961900Y1040000D02*
X954960Y1046940D01*
Y1083439*
X975761Y1104240*
X1002500*
X963599Y1149960D02*
X966439D01*
X981279Y1164800*
X1002500*
X968254Y1234160D02*
X971592D01*
X971672Y1234240*
X972394*
X972959Y1233674*
Y1227528*
X973525Y1226962*
X974694*
X975259Y1227528*
Y1234562*
X975825Y1235128*
X976994*
X977559Y1234562*
Y1227528*
X978125Y1226962*
X979294*
X979859Y1227528*
Y1234562*
X980425Y1235128*
X981594*
X982159Y1234562*
Y1227528*
X982725Y1226962*
X983894*
X984459Y1227528*
Y1234562*
X985025Y1235128*
X986194*
X986759Y1234562*
Y1227528*
X987325Y1226962*
X988494*
X989059Y1227528*
Y1234562*
X989625Y1235128*
X990794*
X991359Y1234562*
Y1227528*
X991925Y1226962*
X993094*
X993659Y1227528*
Y1234562*
X994225Y1235128*
X995394*
X995959Y1234562*
Y1227528*
X996525Y1226962*
X997694*
X998259Y1227528*
Y1234562*
X998825Y1235128*
X999994*
X1000559Y1234562*
Y1227528*
X1001125Y1226962*
X1002294*
X1002500Y1227168*
X971600Y1258379D02*
X975740Y1254239D01*
Y1250206*
X976306Y1249640*
X977474*
X978040Y1250206*
Y1258594*
X978606Y1259160*
X979774*
X980340Y1258594*
Y1250206*
X980906Y1249640*
X982074*
X982640Y1250206*
Y1258594*
X983206Y1259160*
X984374*
X984940Y1258594*
Y1250206*
X985506Y1249640*
X986674*
X987240Y1250206*
Y1258594*
X987806Y1259160*
X988974*
X989540Y1258594*
Y1250206*
X990106Y1249640*
X991274*
X991840Y1250206*
Y1258594*
X992406Y1259160*
X993574*
X994140Y1258594*
Y1250206*
X994706Y1249640*
X995874*
X996440Y1250206*
Y1258594*
X997006Y1259160*
X998174*
X998740Y1258594*
Y1251166*
X999306Y1250600*
X1002500*
X971600Y1279650D02*
X975740D01*
X976306Y1279084*
Y1276216*
X976871Y1275650*
X978040*
X978606Y1276216*
Y1284173*
X979171Y1284739*
X980340*
X980906Y1284173*
Y1276216*
X981471Y1275650*
X982640*
X983206Y1276216*
Y1284173*
X983771Y1284739*
X984940*
X985506Y1284173*
Y1276216*
X986071Y1275650*
X987240*
X987806Y1276216*
Y1284173*
X988371Y1284739*
X989540*
X990106Y1284173*
Y1276216*
X990671Y1275650*
X991840*
X992406Y1276216*
Y1284173*
X992971Y1284739*
X994140*
X994706Y1284173*
Y1276216*
X995271Y1275650*
X996440*
X997006Y1276216*
Y1284173*
X997571Y1284739*
X998740*
X999306Y1284173*
Y1276216*
X999871Y1275650*
X1001040*
X1001606Y1276216*
Y1284173*
X1002171Y1284739*
X1002500*
X988240Y1089160D02*
X977600Y1099800D01*
X988240Y1089160D02*
X991690D01*
X992256Y1088594*
Y1084832*
X992821Y1084266*
X993990*
X994556Y1084832*
Y1092594*
X995121Y1093160*
X996290*
X996856Y1092594*
Y1084832*
X997421Y1084266*
X998590*
X999156Y1084832*
Y1088594*
X999721Y1089160*
X1002500*
X991490Y331290D02*
X985829Y325629D01*
X792915*
X785246Y317960*
X706304*
X557474Y466790*
X992580Y330200D02*
X986467Y324087D01*
X793553*
X785884Y316418*
X705666*
X556384Y465700*
X993200Y1003600D02*
X990060Y1000460D01*
X979342*
X955522Y976640*
X951908*
X928708Y953440*
X863861*
X856821Y946400*
X813800*
X993800Y987400D02*
X981121D01*
X962760Y969039*
Y968428*
X948472Y954140*
X947861*
X901221Y907500*
X877250*
X871250Y901500*
X834750*
X831750Y898500*
X778200*
X994372Y1061656D02*
X990322Y1057606D01*
Y1046443*
X988022Y1044143*
X996672Y1060704D02*
X992622Y1056654D01*
Y1045490*
X990322Y1043190*
X996672Y1060704D02*
X1000608Y1064640D01*
X1002500*
X1001100Y340900D02*
X991490Y331290D01*
X1001955Y1211053D02*
X1002500Y1211598D01*
Y1061190D02*
X1000411D01*
X994922Y1055701*
Y1044537*
X976145Y1025760*
X959119*
X953439Y1031440*
X949761*
X899600Y981279*
Y975000*
X1002500Y1064640D02*
X1013978D01*
X1025338Y1076000*
X1030500*
X1002500Y1066940D02*
X999655D01*
X994372Y1061656*
X1002500Y1069240D02*
X998703D01*
X979640Y1050177*
Y1045661*
X975129Y1041150*
X970900*
X965310Y1035560*
X959077*
X956297Y1038340*
X938887*
X893607Y993060*
X858361*
X856950Y994470*
X1002500Y1076379D02*
X995321Y1069200D01*
X971921*
X967200Y1064479*
Y1047800*
X1002500Y1089160D02*
X1003861D01*
X1002500Y1104240D02*
X1031902D01*
X1034500Y1106838*
Y1141162*
X1037338Y1144000*
X1058500*
X1062500Y1148000*
X1002500Y1108000D02*
X1022500D01*
X1002500Y1110960D02*
X992264D01*
X990199Y1108895*
X973737*
X953182Y1088340*
X935808*
X927140Y1079672*
Y1037208*
X902392Y1012460*
X889008*
X887528Y1013940*
X858361*
X856921Y1012500*
X845762*
X1002500Y1119840D02*
X1018660D01*
X1022500Y1116000*
X1002500Y1123960D02*
X998758D01*
X989258Y1114460*
X972539*
X952229Y1094150*
X933404*
X915632Y1076378*
X1002500Y1137968D02*
X1005172Y1140640D01*
X1015839*
X1027919Y1128560*
Y1126581*
X1030500Y1124000*
X1002500Y1141221D02*
X982239Y1120960D01*
X972908*
X971728Y1122140*
X964408*
X959260Y1116992*
Y1113300*
X952500Y1106540*
X927561*
X902000Y1080979*
Y1077721*
X890279Y1066000*
X877500*
X870460Y1058960*
X838740*
X834300Y1063400*
X1002500Y1145818D02*
X1013878D01*
X1017767Y1149707*
Y1156428*
X1019940Y1158602*
X1002500Y1147360D02*
X1013239D01*
X1016225Y1150346*
Y1157067*
X1018850Y1159692*
X1002500Y1154700D02*
X1007159D01*
X1015240Y1162781*
Y1168390*
X1018850Y1172000*
X1002500Y1156242D02*
X1006521D01*
X1013698Y1163419*
Y1169029*
X1017760Y1173090*
X1002500Y1164800D02*
X1008800D01*
X1002500Y1170000D02*
X1009879D01*
X1013240Y1173361*
Y1174646*
X1017816Y1179222*
X1058884*
X1066150Y1186488*
Y1200350*
X1062500Y1204000*
X1002500Y1181460D02*
X1011592D01*
X1011832Y1181700*
X1056200*
X1062500Y1188000*
X1002500Y1183760D02*
X989628D01*
X981728Y1175860*
X938740*
X934860Y1179740*
X912019*
X891039Y1158760*
X850240*
X850160Y1158840*
X783314*
X780935Y1156460*
X770140*
X767000Y1159600*
X1002500Y1196200D02*
X1009592D01*
X1002500Y1197742D02*
X1009592D01*
X1002500Y1211598D02*
X1002952Y1212049D01*
X1002500Y1220160D02*
X968661D01*
X1002500Y1227168D02*
X1002859Y1227528D01*
Y1233674*
X1003425Y1234240*
X1007565*
X1002500Y1239440D02*
X973619D01*
X970639Y1236460*
X961728*
X958728Y1233460*
X918040*
X899060Y1252440*
X893340*
X891960Y1251060*
X882280*
X868740Y1264600*
X852700*
X1002500Y1243229D02*
X990231D01*
X988120Y1245340*
X960880*
X959258Y1243718*
X916222*
X910529Y1249411*
Y1256774*
X897328Y1269975*
X896665*
X896196Y1269506*
X1002500Y1244771D02*
X990869D01*
X988758Y1246882*
X960242*
X958620Y1245260*
X916861*
X912071Y1250050*
Y1257412*
X897966Y1271517*
X896026*
X895106Y1270596*
X1002500Y1250600D02*
X1003446D01*
X1002500Y1263600D02*
X990600D01*
X1002500Y1284739D02*
X1003340D01*
X1003906Y1284173*
Y1276216*
X1004471Y1275650*
X1005640*
X1006206Y1276216*
Y1284173*
X1006771Y1284739*
X1007940*
X1008506Y1284173*
Y1276216*
X1009071Y1275650*
X1010240*
X1010806Y1276216*
Y1284173*
X1011371Y1284739*
X1012540*
X1013106Y1284173*
Y1276216*
X1013671Y1275650*
X1014840*
X1015406Y1276216*
Y1284173*
X1015971Y1284739*
X1017140*
X1017706Y1284173*
Y1280216*
X1018271Y1279650*
X1022411*
X1002500Y1288000D02*
X1023662D01*
X1026500Y1285162*
Y1282838*
X1029338Y1280000*
X1039662*
X1042500Y1277162*
Y1274838*
X1044988Y1272350*
X1045800*
X1046500Y1271650*
Y1268000*
X1002892Y1319455D02*
X1003889Y1318458D01*
X1002952Y1212049D02*
X1004360Y1213458D01*
X1003045Y1209963D02*
X1004042Y1210959D01*
X1003446Y1250600D02*
X1008800D01*
X1003600Y330200D02*
X992580D01*
X1003889Y1318458D02*
X1027511Y1294836D01*
X1003982Y1320545D02*
X1004527Y1320000D01*
X1004042Y1210959D02*
X1005450Y1212368D01*
X1004360Y1213458D02*
Y1218639D01*
X1006961Y1221240*
X1010639*
X1013439Y1218440*
X1017039*
X1019829Y1215650*
X1042850*
X1046500Y1212000*
X1004468Y1040000D02*
X1028118Y1063650D01*
X1029800*
X1030500Y1064350*
Y1068000*
X1004527Y1320000D02*
X1004979Y1319548D01*
X1028601Y1295926*
X1005450Y1212368D02*
X1005870Y1212788D01*
X1006533*
X1010971Y1208350*
X1050850*
X1054500Y1212000*
X1009592Y1196200D02*
X1010621D01*
X1014471Y1192350*
X1042850*
X1046500Y1196000*
X1009592Y1197742D02*
X1013490Y1201640D01*
X1018719*
X1020009Y1200350*
X1034850*
X1038500Y1204000*
X1015662Y1040000D02*
X1010457Y1034795D01*
X1002516*
X975761Y1008040*
X970561*
X928181Y965660*
X834726*
X819446Y980940*
X804461*
X801750Y978229*
Y964271*
X788419Y950940*
X745890*
X739510Y944560*
X705361*
X673421Y976500*
X670792*
X1017000Y1223300D02*
X1011832D01*
X1011592Y1223540*
X1006008*
X1002628Y1220160*
X1002500*
X1017760Y1173090D02*
X1020320Y1175650D01*
X1026850*
X1030500Y1172000*
X1018109Y1243229D02*
X1002500D01*
X1018109Y1244771D02*
X1002500D01*
X1018850Y1159692D02*
Y1165512D01*
X1020988Y1167650*
X1024012*
X1026150Y1165512*
Y1159650*
X1022500Y1156000*
X1018850Y1172000D02*
X1022500D01*
X1019900Y1001300D02*
X1016760Y998160D01*
Y996781*
X979539Y959560*
X965839*
X901779Y895500*
X877250*
X871250Y889500*
X834750*
X831750Y886500*
X778200*
X1019940Y1158602D02*
X1020988Y1159650D01*
X1021800*
X1022500Y1160350*
Y1164000*
X1022150Y1040000D02*
X1038500Y1056350D01*
Y1060000*
X1022500Y1084000D02*
X1019919Y1081419D01*
Y1081240*
X1007919Y1069240*
X1002500*
X1022500Y1100000D02*
X1019919Y1097419D01*
Y1096840*
X1015839Y1092760*
X1014121*
X1010521Y1089160*
X1003861*
X1022500Y1124000D02*
X1013279D01*
X1013239Y1123960*
X1002500*
X1022500Y1236000D02*
X1021879D01*
X1018439Y1239440*
X1002500*
X1027511Y1294836D02*
Y1294173D01*
X1026850Y1293512*
Y1290488*
X1029338Y1288000*
X1042500*
X1046500Y1284000*
X1028601Y1295926D02*
X1028877Y1295650D01*
X1048012*
X1050500Y1293162*
Y1288000*
X1054500Y1284000*
X1029600Y988000D02*
X1024421D01*
X923631Y887210*
Y858552*
X879579Y814500*
X868250*
X855310Y801560*
X806961*
X801761Y806760*
X787905*
X780865Y813800*
X769600*
X1030500Y1092000D02*
Y1088350D01*
X1029800Y1087650*
X1028988*
X1026500Y1085162*
Y1082838*
X1010602Y1066940*
X1002500*
X1030500Y1108000D02*
X1026850Y1111650D01*
X1016159*
X1015469Y1110960*
X1002500*
X1030500Y1260000D02*
X1026850Y1263650D01*
X1020988*
X1020938Y1263600*
X1002500*
X1038500Y1068000D02*
X1034500Y1064000D01*
Y1058838*
X1015662Y1040000*
X1038500Y1084000D02*
X1034500Y1080000D01*
Y1074838*
X1031662Y1072000*
X1029338*
X1026500Y1069162*
Y1066838*
X1020852Y1061190*
X1002500*
X1038500Y1188000D02*
X1034675Y1184175D01*
X1011054*
X1010639Y1183760*
X1002500*
X1040000Y977600D02*
X1036860Y974460D01*
X1034381*
X933888Y873967*
Y809609*
X901339Y777060*
X875690*
X872810Y779940*
X834490*
X832010Y777460*
X804461*
X803421Y778500*
X778200*
X1046500Y1148000D02*
X1042850Y1151650D01*
X1028988*
X1026500Y1149162*
Y1146838*
X1023662Y1144000*
X1015960*
X1015020Y1143060*
X1004339*
X1002500Y1141221*
X1046500Y1252000D02*
X1042500Y1256000D01*
Y1269762*
X1040262Y1272000*
X1029338*
X1026500Y1274838*
Y1277162*
X1024012Y1279650*
X1022411*
X1046500Y1276000D02*
X1050850Y1271650D01*
X1056012*
X1056159Y1271503*
X1058150Y1273493*
Y1314129*
X1052279Y1320000*
X1047179Y1325100*
X1007309*
X986909Y1345500*
X950037*
X1054500Y1244000D02*
X1050850Y1240350D01*
X1020988*
X1018109Y1243229*
X1055600Y998400D02*
X1051160Y993960D01*
X1040761*
X1039981Y994740*
X1023261*
X940181Y911660*
X1062500Y1132000D02*
X1058850Y1135650D01*
X1044988*
X1042500Y1133162*
Y1098838*
X1039662Y1096000*
X1029338*
X1026500Y1093162*
Y1090838*
X1023662Y1088000*
X1014121*
X1002500Y1076379*
X1062500Y1236000D02*
X1058500Y1240000D01*
Y1245162*
X1056012Y1247650*
X1020988*
X1018109Y1244771*
X1073335Y630414D02*
X1074622D01*
X1127650Y683442*
Y692029*
X1073335Y631956D02*
X1125650Y684271D01*
Y692209*
X1126560Y693119*
X1078500Y1228000D02*
X1074528Y1224028D01*
X1025730*
X1020909Y1228850*
X1016250*
X1010860Y1234240*
X1007565*
X1078500Y1236000D02*
X1074837Y1232337D01*
X1019263*
X1016600Y1235000*
X1110500Y1252000D02*
X1106850D01*
X1106150Y1252700*
Y1253512*
X1103662Y1256000*
X1101338*
X1098850Y1258488*
Y1309050*
X1105200Y1315400*
X1118500Y1252000D02*
X1114500Y1256000D01*
X1108664*
X1106632Y1258032*
Y1308032*
X1114000Y1315400*
X1118500Y1268000D02*
X1114472Y1272028D01*
Y1307272*
X1122500Y1315300*
X1126560Y693119D02*
X1166181Y732740D01*
X1127650Y692029D02*
X1167271Y731650D01*
X1134500Y1260000D02*
X1130320Y1264180D01*
Y1300982*
X1141338Y1312000*
X1147300*
X1135200Y1315400D02*
X1122500Y1302700D01*
Y1264000*
X1118500Y1260000*
X1149042Y1342642D02*
X1145000Y1338600D01*
X1150500Y1276000D02*
X1145972Y1280528D01*
Y1301334*
X1149898Y1305260*
X1150092*
X1153237Y1308405*
X1162805*
X1167400Y1313000*
X1150958Y1342642D02*
X1155000Y1338600D01*
X1157000Y1313000D02*
X1152560D01*
X1151740Y1312180*
Y1310161*
X1149139Y1307560*
X1148945*
X1141600Y1300215*
Y1275100*
X1134500Y1268000*
X1165000Y1338600D02*
X1170250D01*
X1173845Y1342195*
X1166181Y732740D02*
X1167091Y733650D01*
X1504434*
X1167271Y731650D02*
X1504614D01*
X1505524Y732560*
X1168795Y1302295D02*
X1166500Y1300000D01*
X1170150Y1300940D02*
Y1295650D01*
X1166500Y1292000*
X1173845Y1342195D02*
X1175742Y1344093D01*
X1201437*
X1205301Y1347957*
X1240233*
X1245830Y1342360*
X1261705*
X1262101Y1342757*
X1302633*
X1312658Y1332731*
Y1325263*
X1323886Y1314035*
X1350194*
X1360154Y1304074*
X1398515*
X1405157Y1297433*
Y1239807*
X1401942Y1236592*
Y1230169*
X1402410Y1229700*
X1175200Y1315400D02*
X1172060Y1312260D01*
Y1311381*
X1166784Y1306105*
X1158303*
X1154260Y1302062*
Y1280240*
X1158500Y1276000*
X1175200Y1336400D02*
Y1340840D01*
X1176536Y1342176*
X1202231*
X1206095Y1346040*
X1239439*
X1245036Y1340443*
X1262499*
X1262895Y1340840*
X1301839*
X1310742Y1331937*
Y1324469*
X1323092Y1312118*
X1349400*
X1359360Y1302158*
X1397721*
X1403240Y1296639*
Y1240600*
X1400025Y1237386*
Y1229375*
X1401055Y1228345*
X1192795Y1303650D02*
X1188988D01*
X1182500Y1297162*
Y1294838*
X1175662Y1288000*
X1170500*
X1166500Y1284000*
X1193449Y1319439D02*
X1185942Y1311931D01*
Y1309663*
X1182042Y1305763*
X1172263*
X1168795Y1302295*
X1194010Y1320000D02*
X1193449Y1319439D01*
X1194150Y1302295D02*
Y1299195D01*
X1190955Y1296000*
X1186500*
X1174500Y1284000*
X1194688Y1320678D02*
X1194010Y1320000D01*
X1194804Y1318083D02*
X1187858Y1311137D01*
Y1308869*
X1182836Y1303847*
X1173057*
X1170150Y1300940*
X1196043Y1319322D02*
X1194804Y1318083D01*
X1200600Y1455563D02*
Y1451200D01*
X1202517Y1455563D02*
X1209000Y1449079D01*
Y1443000*
X1228383Y1319439D02*
X1216008Y1307063D01*
X1205017*
X1203273Y1305320*
X1194465*
X1192795Y1303650*
X1228945Y1320000D02*
X1228383Y1319439D01*
X1229622Y1320678D02*
X1228945Y1320000D01*
X1229739Y1318083D02*
X1216802Y1305147D01*
X1205811*
X1204067Y1303403*
X1195259*
X1194150Y1302295*
X1230978Y1319322D02*
X1229739Y1318083D01*
X1282500Y1172022D02*
X1272772Y1181750D01*
X1123088*
X1114500Y1173162*
Y1138838*
X1111662Y1136000*
X1109338*
X1106500Y1133162*
Y1128000*
X1102500Y1124000*
X1282500Y1248366D02*
X1274134Y1240000D01*
X1102045*
X1098500Y1236455*
Y1136000*
X1094500Y1132000*
X1285750Y1408709D02*
X1280691D01*
X1271400Y1418000*
X1285750Y1410250D02*
X1278000Y1418000D01*
X1307800Y949000D02*
X1308196D01*
X1311137Y951942*
X1307800Y956800D02*
X1311117Y953483D01*
X1311137*
Y951942D02*
X1320986D01*
X1398444Y874484*
X1652713*
X1654499Y872698*
X1657959*
X1659331Y874069*
Y875031*
X1311137Y953483D02*
X1321625D01*
X1399083Y876026*
X1653352*
X1655138Y874239*
X1657321*
X1657789Y874708*
Y875031*
X1380600Y1219400D02*
X1385040Y1223840D01*
Y1229910*
X1382517Y1232434*
X1380600Y1227200D02*
Y1232434D01*
Y1261779*
X1341239Y1301140*
X1318445*
X1317549Y1300243*
X1303267*
X1283470Y1320040*
X1231695*
X1230978Y1319322*
X1382517Y1232434D02*
Y1262573D01*
X1342033Y1303057*
X1317651*
X1316755Y1302160*
X1304061*
X1284264Y1321957*
X1230901*
X1229622Y1320678*
X1387660Y1232830D02*
X1387044Y1233446D01*
Y1261298*
X1342653Y1305689*
X1322696*
X1304128Y1324257*
X1200977*
X1196043Y1319322*
X1388400Y1011400D02*
X1391567Y1008233D01*
Y1006978*
X1390950Y1006360*
X1352181*
X1339160Y1019380*
X1210735*
X1202080Y1010725*
Y1009269*
X1201611Y1008800*
X1199679*
X1196540Y1005660*
X1196000Y1006200*
X1389015Y1234185D02*
X1388960Y1234240D01*
Y1262092*
X1343447Y1307606*
X1323489*
X1304922Y1326173*
X1200184*
X1194688Y1320678*
X1392100Y1231100D02*
X1389015Y1234185D01*
X1392600Y1222200D02*
X1387660Y1227140D01*
Y1232830*
X1398100Y1010800D02*
X1391743Y1004443D01*
X1351387*
X1338366Y1017464*
X1211529*
X1203996Y1009931*
Y1009269*
X1204465Y1008800*
X1211600*
X1401055Y1228345D02*
X1406100Y1223300D01*
X1402410Y1229700D02*
X1408300D01*
X1405800Y815800D02*
Y811131D01*
X1406269Y810662*
X1412733*
X1409200Y806000D02*
X1409594Y805606D01*
X1412733Y808746*
X1420903*
X1421371Y808277*
Y804266*
X1410723Y793618*
Y785044*
X1406219Y780540*
X1320147*
X1309700Y770093*
X1174173*
X1142090Y738011*
X1116310*
X1033869Y655570*
X1029501*
X1028522Y656549*
X845852*
X809760Y692641*
Y703077*
X810929Y704245*
X811592*
X812060Y703777*
X1412733Y810662D02*
X1421697D01*
X1423288Y809071*
Y803472*
X1412640Y792824*
Y784250*
X1407013Y778623*
X1320941*
X1310494Y768177*
X1174966*
X1142884Y736095*
X1117104*
X1034663Y653653*
X1028707*
X1027728Y654633*
X845058*
X807844Y691847*
Y703871*
X810135Y706162*
X812386*
X813416Y705132*
X1415400Y1227400D02*
Y1231840D01*
X1417430Y1233870*
Y1234894*
Y1259500*
X1423640Y1265711*
Y1294639*
X1408919Y1309361*
X1362250*
X1350899Y1320711*
X1339699*
X1331842Y1328569*
Y1331637*
X1312239Y1351240*
X1238195*
X1237799Y1350843*
X1201001*
X1198005Y1353840*
X1174495*
X1169263Y1348608*
X1156262*
X1150958Y1343304*
Y1342642*
X1419346Y1234894D02*
Y1258707D01*
X1425557Y1264917*
Y1295433*
X1409712Y1311277*
X1363044*
X1351693Y1322628*
X1340493*
X1333758Y1329363*
Y1332431*
X1313033Y1353157*
X1237401*
X1237005Y1352760*
X1201795*
X1198799Y1355757*
X1173701*
X1168470Y1350525*
X1155468*
X1149042Y1344098*
Y1342642*
X1422100Y1227700D02*
Y1232140D01*
X1419346Y1234894*
X1433142Y822582D02*
X1430800Y820240D01*
Y815800*
X1435058Y822582D02*
X1437400Y820240D01*
Y815800*
X1455800Y820483D02*
Y815800D01*
X1457717Y820483D02*
X1462400Y815800D01*
X1480239Y1311338D02*
X1478938D01*
X1477566Y1312709*
Y1314374*
X1476752Y1315189*
X1377752*
X1333961Y1358979*
Y1367873*
X1307598Y1394236*
Y1400081*
X1298971Y1408709*
X1285750*
X1480239Y1312879D02*
X1479577D01*
X1479108Y1313348*
Y1315013*
X1477391Y1316730*
X1378391*
X1335503Y1359618*
Y1368512*
X1309140Y1394875*
Y1400719*
X1299609Y1410250*
X1285750*
X1480800Y815800D02*
Y820240D01*
X1483142Y822582*
Y823244*
X1471150Y835237*
X1263713*
X1256199Y842751*
X1109528*
X1095827Y829050*
X1081748*
X955139Y702442*
X876197*
X867040Y693284*
X1485058Y822582D02*
Y824038D01*
X1471944Y837153*
X1264507*
X1256993Y844667*
X1108734*
X1095033Y830967*
X1080954*
X954346Y704358*
X875403*
X865684Y694640*
X1486860Y792909D02*
Y788840D01*
X1490000Y785700*
X1487400Y815800D02*
Y820240D01*
X1485058Y822582*
X1487600Y1315800D02*
X1483160D01*
X1480239Y1312879*
X1487800Y1308900D02*
X1483360D01*
X1480922Y1311338*
X1480239*
X1488216Y794264D02*
X1489240Y793240D01*
X1491860*
X1495000Y790100*
X1504434Y733650D02*
X1544874Y774090D01*
X1505524Y732560D02*
X1545964Y773000D01*
X1544874Y774090D02*
X1545784Y775000D01*
X1788064*
X1841987Y828923*
Y876046*
X1842897Y876956*
X1545964Y773000D02*
X1788892D01*
X1843987Y828095*
Y875866*
X1657789Y875031D02*
Y875371D01*
X1656200Y876960*
Y881400*
X1659331Y875031D02*
X1664300Y880000D01*
X1672200Y1424800D02*
X1675811Y1428411D01*
Y1428478*
X1675633Y1428657*
Y1429451*
Y1429941*
X1671152Y1434422*
X1114966*
X1094457Y1413912*
X395530*
X329180Y1347562*
Y1266717*
X280428Y1217966*
Y1156352*
X280053Y1155977*
Y1140598*
X263596Y1124140*
Y1121289*
X263408Y1121102*
Y1117169*
X1677549Y1429451D02*
Y1430734D01*
X1671945Y1436338*
X1114173*
X1093663Y1415829*
X394736*
X327263Y1348356*
Y1267511*
X278512Y1218760*
Y1157146*
X278137Y1156771*
Y1141392*
X261679Y1124934*
Y1122083*
X261492Y1121895*
Y1117169*
X1682200Y1424800D02*
X1677549Y1429451D01*
X1779525Y732401D02*
Y734875D01*
X1776100Y738300*
X1781441Y732401D02*
X1783100Y734060D01*
Y738500*
X1842897Y876956D02*
X1894741Y928800D01*
X1980675*
X2046153Y994278*
X2180033*
X2219667Y1033912*
Y1081573*
X1843987Y875866D02*
X1895379Y927258D01*
X1981313*
X2046791Y992736*
X2180672*
X2221209Y1033274*
Y1081573*
X1879157Y851945D02*
X1878792Y852309D01*
X1877116*
X1872406Y847600*
X1868205*
X1861389Y840784*
Y790770*
X1799973Y729353*
X1781116*
X1779525Y730945*
Y732401*
X1880512Y853300D02*
X1879586Y854226D01*
X1876322*
X1871612Y849517*
X1867411*
X1859473Y841578*
Y791564*
X1799179Y731270*
X1781910*
X1781441Y731739*
Y732401*
X1882400Y847600D02*
X1879260Y850740D01*
Y851841*
X1879157Y851945*
X1886200Y853300D02*
X1880512D01*
X1886200Y872800D02*
X1886917Y873517D01*
X1890056Y870377*
X1890119*
X1886200Y892300D02*
X1890640D01*
X1893209Y889731*
X1886400Y865900D02*
X1886979Y865321D01*
X1890119Y868461*
X1886400Y885400D02*
X1888850Y887850D01*
X1892379*
X1892415Y887814*
X1893209*
X1889808Y847581D02*
X1889014D01*
X1888996Y847600*
X1882400*
X1889808Y849498D02*
X1889340Y849967D01*
Y850160*
X1886200Y853300*
X1890119Y868461D02*
X1896378D01*
X1900195Y864643*
X1944858*
X1959123Y878909*
X1992151*
X2000897Y870163*
X1890119Y870377D02*
X1897172D01*
X1900989Y866560*
X1944064*
X1958329Y880825*
X1992945*
X2002252Y871518*
X1893209Y887814D02*
X1899740D01*
X1908063Y879491*
X1940840*
X1953789Y892440*
X2002767*
X2003505Y891702*
X1893209Y889731D02*
X1900534D01*
X1908857Y881407*
X1940046*
X1952995Y894357*
X2003561*
X2004860Y893057*
X1894769Y907248D02*
X1893502D01*
X1891155Y904900*
X1886400*
X1896125Y908603D02*
X1895377Y909351D01*
X1886200*
Y911800*
X1992410Y910445D02*
X1990915Y911940D01*
X1963104*
X1953993Y902829*
X1899188*
X1894769Y907248*
X1993651Y847955D02*
X1988911Y843215D01*
X1965548*
X1954665Y854097*
X1900882*
X1896282Y849498*
X1889808*
X1993765Y911800D02*
X1991709Y913857D01*
X1962310*
X1953199Y904745*
X1899982*
X1896125Y908603*
X1995007Y846600D02*
X1989705Y841298D01*
X1964754*
X1953871Y852181*
X1901675*
X1897076Y847581*
X1889808*
X2000897Y870163D02*
X2004960Y866100D01*
X2009400*
X2002252Y871518D02*
X2003392D01*
X2004674Y872800*
X2009300*
X2003505Y891702D02*
X2009400Y885807D01*
Y885600*
X2004860Y893057D02*
X2009300D01*
Y892300*
Y853300D02*
X2004860D01*
X2002989Y851429*
X1997125*
X1993651Y847955*
X2009300Y911800D02*
X1993765D01*
X2009400Y846600D02*
X1995007D01*
X2009400Y905100D02*
X1997755D01*
X1992410Y910445*
X2048420Y881945D02*
X2043427Y886938D01*
Y929980*
X2082003Y968556*
X2049775Y883300D02*
X2045343Y887732D01*
Y929186*
X2082797Y966640*
X2049775Y883300D02*
X2056600D01*
X2052317Y891900D02*
X2050860D01*
X2047643Y895117*
Y928233*
X2080818Y961408*
X2052317Y893817D02*
X2051654D01*
X2049560Y895910*
Y927439*
X2081612Y959491*
X2053200Y877100D02*
X2050060Y880240D01*
Y880304*
X2048420Y881945*
X2056300Y897800D02*
X2052317Y893817D01*
X2059300Y891900D02*
X2052317D01*
X2080818Y961408D02*
X2168209D01*
X2208806Y1002005*
X2501961*
X2520458Y1020503*
X2593601*
X2738095Y876008*
X2081612Y959491D02*
X2169003D01*
X2209600Y1000089*
X2502755*
X2521252Y1018586*
X2592807*
X2737301Y874092*
X2082003Y968556D02*
X2164514D01*
X2203555Y1007597*
X2497108*
X2515015Y1025504*
X2598431*
X2725417Y898517*
X2763577*
X2082797Y966640D02*
X2165308D01*
X2204348Y1005681*
X2497902*
X2515809Y1023587*
X2597637*
X2724623Y896600*
X2763577*
X2219667Y1081573D02*
X2219640Y1081600D01*
X2215200*
X2221209Y1081573D02*
Y1082239D01*
X2217408Y1086040*
X2211840*
X2204800Y1079000*
X2397200Y1133600D02*
X2392580Y1138220D01*
Y1182935*
X2381615Y1193900*
X1982250*
X1971710Y1183360*
X1859890*
X1851910Y1191340*
X1845990*
X1837010Y1182360*
X1831361*
X1828350Y1185371*
Y1188229*
X1825339Y1191240*
X1815419*
X1806539Y1182360*
X1793261*
X1790301Y1185320*
X1711327*
X1708247Y1182240*
X1644830*
X1635450Y1172860*
X1609419*
X1603639Y1178640*
X1545840*
X1545760Y1178560*
X1476040*
X1467160Y1187440*
X1449233*
X1418033Y1156240*
X1402161*
X1392181Y1146260*
X1378173*
X1368193Y1156240*
X1359753*
X1357153Y1158840*
X1295682*
X1282500Y1172022*
X2447700Y1221400D02*
X2380100D01*
X2374950Y1226550*
X2317400*
X2309510Y1234440*
X2103390*
X2098990Y1230040*
X1823319*
X1813119Y1219840*
X1799762*
X1799682Y1219760*
X1777204*
X1772324Y1224640*
X1687744*
X1679944Y1216840*
X1649804*
X1642324Y1209360*
X1609882*
X1604682Y1204160*
X1552734*
X1546254Y1210640*
X1443724*
X1426844Y1193760*
X1359318*
X1338118Y1214960*
X1331647*
X1329047Y1217560*
X1324161*
X1314240Y1227481*
Y1237439*
X1301839Y1249840*
X1283974*
X1282500Y1248366*
X2731300Y1032200D02*
X2735881D01*
X2737484Y1030597*
X2735700Y1037500D02*
X2738840Y1034360D01*
Y1031952*
X2737301Y874092D02*
X2767413D01*
X2737484Y1030597D02*
X2738514Y1029567D01*
X2740765*
X2744553Y1033355*
Y1036220*
X2751583Y1043250*
X2760395*
X2764603Y1039042*
X2769531*
X2738095Y876008D02*
X2767413D01*
X2738840Y1031952D02*
X2739308Y1031483D01*
X2739971*
X2742636Y1034149*
Y1037014*
X2750789Y1045167*
X2761189*
X2765397Y1040958*
X2769531*
X2763577Y896600D02*
X2764260D01*
X2766360Y894500*
X2770800*
X2767413Y874092D02*
X2770304Y871200D01*
X2770800*
X2767413Y876008D02*
X2770304Y878900D01*
X2770800*
X2769531Y1039042D02*
X2770000Y1038573D01*
Y1030000*
X2769531Y1040958D02*
X2770000Y1041427D01*
Y1050000*
X2770600Y901100D02*
X2766160D01*
X2763577Y898517*
G54D13*
X87500Y1252000D03*
Y1267000D03*
X87600Y1245000D03*
Y1260000D03*
X114200Y1267100D03*
X114400Y1274000D03*
X116700Y1486100D03*
Y1492700D03*
X145500Y1484600D03*
X159400Y1484800D03*
X161700Y1256000D03*
Y1263700D03*
Y1277600D03*
Y1285800D03*
X202500Y1173800D03*
X202800Y1209000D03*
X203500Y1222200D03*
X203900Y1187800D03*
X205300Y1194300D03*
Y1202500D03*
X207500Y1180000D03*
X208000Y1217000D03*
Y1390600D03*
X214900Y1390500D03*
X236400Y1390400D03*
X244400Y1392000D03*
X257000Y1116600D03*
X263100Y1423400D03*
X265200Y1417000D03*
X268000Y1116700D03*
X309300Y348900D03*
X374400Y993200D03*
X384100Y993800D03*
X436800Y1471600D03*
X438900Y1482800D03*
X465400Y1437800D03*
X470200Y1442600D03*
X473600Y624400D03*
X478400Y629200D03*
X496600Y460200D03*
Y473200D03*
X503700Y1074600D03*
X538200Y423800D03*
X564700Y784200D03*
X581500Y1066500D03*
X582400Y1037400D03*
Y1302600D03*
X584600Y767700D03*
X584900Y747700D03*
Y760200D03*
Y976500D03*
Y988500D03*
Y1060500D03*
Y1276500D03*
Y1336500D03*
X613200Y904100D03*
X613600Y785200D03*
Y1276000D03*
X613800Y796500D03*
Y820500D03*
Y832500D03*
Y856500D03*
Y868500D03*
Y880500D03*
Y1162500D03*
Y1174500D03*
Y1198500D03*
Y1234500D03*
Y1246500D03*
Y1330500D03*
X613895Y921178D03*
X613995Y914478D03*
X616200Y1013800D03*
Y1032200D03*
Y1042400D03*
Y1078800D03*
Y1149200D03*
Y1209000D03*
X616400Y1215700D03*
X616500Y994500D03*
Y1024500D03*
X618800Y1006000D03*
X619700Y1319700D03*
X621400Y1307800D03*
X660700Y1063500D03*
X663600Y1114700D03*
X666900Y931800D03*
Y1057500D03*
Y1249500D03*
X695100Y937700D03*
Y973500D03*
X695800Y1139700D03*
X697800Y862500D03*
X699400Y1151800D03*
X702000Y1274000D03*
X702400Y818400D03*
X704600Y1164800D03*
Y1261000D03*
X707200Y808600D03*
X709800Y865800D03*
X715000Y561600D03*
X743600Y598000D03*
X750900Y429400D03*
X759200Y429000D03*
X767000Y1159600D03*
Y1196000D03*
X769600Y813800D03*
Y1115400D03*
Y1211600D03*
Y1287000D03*
X770100Y916500D03*
X772000Y760900D03*
X772200Y770200D03*
X772600Y1310200D03*
X774800Y925600D03*
Y1076400D03*
Y1102400D03*
Y1175200D03*
X774900Y428800D03*
X777400Y1045200D03*
Y1164800D03*
Y1203800D03*
Y1245400D03*
Y1318200D03*
X778200Y778500D03*
Y802500D03*
Y838500D03*
Y850500D03*
Y886500D03*
Y898500D03*
Y994500D03*
Y1006500D03*
Y1030500D03*
Y1150500D03*
Y1234500D03*
Y1330500D03*
X782600Y429000D03*
X786200Y403300D03*
X792900D03*
X806300Y748500D03*
Y781900D03*
Y832500D03*
Y856500D03*
Y869000D03*
Y880500D03*
Y904500D03*
Y976500D03*
Y988500D03*
Y1012500D03*
Y1024500D03*
Y1048500D03*
Y1228500D03*
Y1300500D03*
Y1336500D03*
X806400Y1276500D03*
X808600Y790400D03*
X813800Y821600D03*
Y946400D03*
X815200Y698100D03*
X820000Y702900D03*
X821500Y1205500D03*
X831800Y684800D03*
X832000Y369200D03*
X832400Y1115000D03*
X834300Y1063400D03*
X836600Y689600D03*
X842400Y1115400D03*
X845300Y369300D03*
X846800Y697600D03*
X847300Y1099340D03*
X847600Y1196000D03*
X850200Y1172600D03*
X851600Y702400D03*
X852700Y1264600D03*
X852800Y806000D03*
Y816400D03*
X855700Y865700D03*
X855800Y872300D03*
X858000Y1164800D03*
X859100Y691500D03*
X860200Y931500D03*
Y1019400D03*
Y1255300D03*
X863900Y686700D03*
X886000Y368600D03*
X888300Y937500D03*
Y1147500D03*
Y1279500D03*
Y1303500D03*
X889200Y1271400D03*
X891800Y988000D03*
Y1019200D03*
X892600Y368300D03*
X897000Y1263600D03*
X898600Y1156200D03*
X899600Y975000D03*
X907400Y522600D03*
X907700Y396700D03*
X913500Y400400D03*
X915200Y522600D03*
X928000Y589200D03*
X934400Y1190900D03*
X961900Y1040000D03*
X962000Y616200D03*
Y1198600D03*
Y1263600D03*
X962800Y607800D03*
X967200Y1047800D03*
X972400Y481000D03*
X977600Y1099800D03*
X980000Y873600D03*
X986200Y620800D03*
X990600Y1263600D03*
X993200Y1003600D03*
X993800Y987400D03*
X1001100Y340900D03*
X1002600Y1004100D03*
X1003600Y330200D03*
X1008800Y1164800D03*
Y1250600D03*
X1016600Y1235000D03*
X1017000Y1223300D03*
X1019900Y1001300D03*
X1025000Y1035300D03*
X1029600Y988000D03*
X1040000Y873300D03*
Y977600D03*
X1042000Y985100D03*
X1042600Y998400D03*
Y1034800D03*
X1055600Y998400D03*
X1062200Y995000D03*
X1067000Y1007000D03*
X1105200Y1315400D03*
X1114000D03*
X1115400Y1380600D03*
X1122500Y1315300D03*
X1133600Y1424800D03*
X1135200Y1315400D03*
X1145000Y1338600D03*
X1146600Y995800D03*
X1147300Y1312000D03*
X1149300Y867900D03*
X1155000Y1338600D03*
X1157000Y1313000D03*
X1165000Y1338600D03*
X1167400Y1313000D03*
X1170000Y933500D03*
X1175200Y951700D03*
Y1315400D03*
Y1336400D03*
X1177800Y941300D03*
X1180400Y1427400D03*
X1183000Y923000D03*
X1196000Y1006200D03*
X1200600Y1451200D03*
X1209000Y1443000D03*
X1211600Y1008800D03*
X1255800Y915200D03*
X1271400Y1418000D03*
X1271500Y1062700D03*
X1274000Y1279200D03*
X1278000Y1418000D03*
X1279200Y1071200D03*
X1281800Y1037400D03*
X1286100Y1105900D03*
X1289600Y1076400D03*
X1300200Y1123600D03*
X1302600Y936000D03*
X1307800Y941200D03*
Y949000D03*
Y956800D03*
X1318200Y1289600D03*
X1324400Y1261400D03*
X1324600Y1249900D03*
X1324700Y1048000D03*
X1328600Y1279200D03*
X1328800Y1003000D03*
X1331200Y1131000D03*
Y1268800D03*
X1334100Y1283900D03*
X1341600Y998400D03*
X1342200Y1327200D03*
X1343600Y1237100D03*
X1365500Y1128200D03*
X1380600Y1219400D03*
Y1227200D03*
X1386900Y1156700D03*
X1388400Y1011400D03*
X1392100Y1231100D03*
X1392600Y1222200D03*
X1398100Y1010800D03*
X1405800Y815800D03*
X1406100Y1223300D03*
X1408300Y1229700D03*
X1409200Y806000D03*
X1415400Y1227400D03*
X1422100Y1227700D03*
X1430800Y815800D03*
X1437400D03*
X1439700Y1149900D03*
X1440400Y1125800D03*
X1441700Y1079900D03*
X1443000Y938700D03*
X1445600Y1164800D03*
X1448200Y1149200D03*
X1450800Y1159600D03*
X1454900Y1172000D03*
X1455800Y815800D03*
X1462400D03*
X1467100Y1107800D03*
X1469000Y1076400D03*
Y1162200D03*
X1475600Y1054100D03*
X1479500Y1164400D03*
X1480600Y1243300D03*
X1480800Y815800D03*
X1487400D03*
X1487600Y1315800D03*
X1487800Y1308900D03*
X1490000Y785700D03*
X1495000Y790100D03*
X1510600Y1141400D03*
X1517500Y996900D03*
X1518400Y1092000D03*
X1521200Y84700D03*
X1534000Y1073800D03*
X1539200Y1094600D03*
X1539500Y1046800D03*
X1547000Y1047800D03*
X1549600Y1021800D03*
X1552500Y1405200D03*
X1560000Y1243200D03*
X1560200Y1089500D03*
X1565200Y1014000D03*
X1567800Y1097200D03*
X1570400Y1081600D03*
Y1120600D03*
X1575600Y1110200D03*
X1578200Y1021800D03*
X1580800Y1125800D03*
X1589100Y1135100D03*
X1591200Y1118000D03*
X1602700Y998600D03*
X1628640Y1138500D03*
X1644200Y1169300D03*
X1656200Y881400D03*
X1664300Y880000D03*
X1672200Y1424800D03*
X1682200D03*
X1695200Y959400D03*
X1708200Y1019200D03*
X1737100Y1424200D03*
X1745200Y1268000D03*
X1747200Y1115400D03*
X1747700Y1191800D03*
X1749800Y1105000D03*
X1761800Y1242700D03*
X1762800Y1261000D03*
X1768600Y1192500D03*
X1773000Y1236700D03*
X1773200Y1177800D03*
X1776100Y738300D03*
X1783100Y738500D03*
X1783600Y1240200D03*
X1799200Y1229800D03*
X1804400Y1242800D03*
X1812800Y1236300D03*
X1814800Y868400D03*
X1821600D03*
X1823500Y1186800D03*
X1829000Y869000D03*
X1836400Y1222600D03*
X1849800Y1186900D03*
X1850800Y1050600D03*
X1858700Y1247200D03*
X1860400Y1163300D03*
X1866800Y1206400D03*
X1867000Y1006300D03*
X1870000Y1163300D03*
X1879800Y964600D03*
X1882400Y847600D03*
X1886200Y853300D03*
Y872800D03*
Y892300D03*
Y911800D03*
X1886400Y865900D03*
Y885400D03*
Y904900D03*
X1903200Y1100000D03*
X1905800Y1019200D03*
Y1034800D03*
X1924000Y1164800D03*
X1931100Y967400D03*
X1952600Y977600D03*
X1960400Y1045200D03*
X1964900Y1193400D03*
X1965600Y975000D03*
X1978600Y1034800D03*
X1980900Y1302800D03*
X1986400Y1198600D03*
X2009300Y853300D03*
Y872800D03*
Y892300D03*
Y911800D03*
X2009400Y846600D03*
Y866100D03*
Y885600D03*
Y905100D03*
X2053200Y877100D03*
X2056300Y897800D03*
X2056600Y883300D03*
X2059300Y891900D03*
X2170900Y1027500D03*
X2195400Y1023400D03*
X2204800Y1079000D03*
X2215200Y1081600D03*
X2278700Y1325000D03*
X2337500Y1145600D03*
X2347500Y1146000D03*
X2357500Y1146200D03*
X2361400Y1057500D03*
Y1082500D03*
X2373800Y1318200D03*
X2397200Y1133600D03*
X2444000Y1323400D03*
X2447700Y1221400D03*
X2520300Y1051900D03*
X2555800Y1125800D03*
X2558400Y1112000D03*
X2574000Y1079000D03*
X2587000Y1177800D03*
X2605200Y1203800D03*
X2613000Y1076400D03*
X2627500Y1171300D03*
X2652000Y1099800D03*
Y1125800D03*
Y1138800D03*
X2654800Y1185100D03*
X2703300Y1085000D03*
Y1251900D03*
X2731300Y1032200D03*
X2735700Y1037500D03*
X2770600Y901100D03*
X2770800Y871200D03*
Y878900D03*
Y894500D03*
G54D14*
X1022500Y1084000D03*
Y1100000D03*
Y1108000D03*
Y1116000D03*
Y1124000D03*
Y1156000D03*
Y1164000D03*
Y1172000D03*
Y1236000D03*
X1030500Y1068000D03*
Y1076000D03*
Y1092000D03*
Y1108000D03*
Y1124000D03*
Y1172000D03*
Y1260000D03*
X1038500Y1060000D03*
Y1068000D03*
Y1084000D03*
Y1188000D03*
Y1204000D03*
X1046500Y1148000D03*
Y1196000D03*
Y1212000D03*
Y1252000D03*
Y1268000D03*
Y1276000D03*
Y1284000D03*
X1054500Y1212000D03*
Y1244000D03*
Y1284000D03*
X1062500Y1132000D03*
Y1148000D03*
Y1188000D03*
Y1204000D03*
Y1236000D03*
X1078500Y1228000D03*
Y1236000D03*
X1086500Y1132000D03*
X1094500Y1116000D03*
Y1124000D03*
Y1132000D03*
X1102500Y1108000D03*
Y1124000D03*
X1110500Y1108000D03*
Y1116000D03*
Y1252000D03*
X1118500Y1108000D03*
Y1252000D03*
Y1260000D03*
Y1268000D03*
X1126500Y1084000D03*
Y1092000D03*
Y1100000D03*
Y1108000D03*
X1134500Y1076000D03*
Y1084000D03*
Y1100000D03*
Y1108000D03*
Y1260000D03*
Y1268000D03*
X1150500Y1076000D03*
Y1276000D03*
X1158500Y1076000D03*
Y1092000D03*
Y1276000D03*
X1166500Y1100000D03*
Y1124000D03*
Y1284000D03*
Y1292000D03*
Y1300000D03*
X1174500Y1084000D03*
Y1284000D03*
X1182500Y1068000D03*
X1222500Y1132000D03*
Y1204000D03*
X1230500D03*
Y1212000D03*
X1238500Y1148000D03*
X1246500Y1164000D03*
Y1188000D03*
Y1204000D03*
X1254500D03*
Y1212000D03*
X1262500Y1092000D03*
Y1196000D03*
G54D15*
X2770000Y1030000D03*
Y1050000D03*
G54D16*
X2005000Y1035000D03*
G04 LATO COMPONENTI*
M02*
