*
G04 Job   : D:\PD-Master\Mas\Mas100n1 ACB_0001_0\Mas100n1 PPC_PORTABILE R_0.pcb*
G04 User  : SHINA:Administrator*
G04 Layer : 8-Internal7.gbr*
G04 Date  : Thu Feb 04 15:45:05 2021*
G04 RSM MASTER DESIGN srl*
%ICAS*%
%MOMM*%
%FSLAX24Y24*%
%OFA0.0000B0.0000*%
G90*
G74*
%AMVB_RECTANGLE*
21,1,$1,$2,0,0,$3*
%
%ADD13C,0.08000*%
%ADD10C,0.15000*%
%ADD15C,0.35000*%
%ADD11C,0.50000*%
%ADD14C,0.50800*%
%ADD12C,1.00000*%
%ADD16VB_RECTANGLE,1.52400X1.52400X90.00000*%
G01*
G36*
X95000Y806750D02*
G02X95750Y807500I750D01*
G01X122260*
Y725000*
G03X126300Y720960I4040*
X130340Y725000J4040*
X126300Y729040I4040*
X122260Y725000J4040*
G01Y807500*
X138260*
Y770800*
G03X142300Y766760I4040*
X146340Y770800J4040*
X142300Y774840I4040*
X138260Y770800J4040*
G01Y807500*
X149460*
Y725000*
G03X153500Y720960I4040*
X157540Y725000J4040*
X153500Y729040I4040*
X149460Y725000J4040*
G01Y807500*
X157260*
Y769600*
G03X160760Y765596I4040*
G01Y727500*
G03X164800Y723460I4040*
X168840Y727500J4040*
X164800Y731540I4040*
X160760Y727500J4040*
G01Y765596*
G03X161300Y765560I540J4004*
X165340Y769600J4040*
X161300Y773640I4040*
X157260Y769600J4040*
G01Y807500*
X159860*
Y793500*
G03X163900Y789460I4040*
X167940Y793500J4040*
X163900Y797540I4040*
X159860Y793500J4040*
G01Y807500*
X205260*
Y800500*
G03X206260Y797839I4040*
G01Y739200*
G03X210300Y735160I4040*
X214340Y739200J4040*
X210300Y743240I4040*
X206260Y739200J4040*
G01Y797839*
G03X206960Y797207I3040J2661*
G01Y774400*
G03X211000Y770360I4040*
X215040Y774400J4040*
X211000Y778440I4040*
X206960Y774400J4040*
G01Y797207*
G03X209300Y796460I2340J3293*
X213340Y800500J4040*
X209300Y804540I4040*
X205260Y800500J4040*
G01Y807500*
X222500*
Y821076*
G02X223250Y821826I750*
X223775Y821612J750*
G03X226600Y820460I2825J2888*
X228860Y821151J4040*
G01Y752900*
G03X230960Y749356I4040*
G01Y717700*
G03X235000Y713660I4040*
X239040Y717700J4040*
X235000Y721740I4040*
X230960Y717700J4040*
G01Y749356*
G03X232900Y748860I1940J3544*
X236940Y752900J4040*
X232900Y756940I4040*
X228860Y752900J4040*
G01Y821151*
G03X230640Y824500I2260J3349*
X226600Y828540I4040*
X223775Y827388J4040*
G02X223250Y827174I525J536*
X222500Y827924J750*
G01Y893554*
G02X223250Y894304I750*
X223866Y893982J750*
G03X226160Y892287I3634J2518*
G01Y871700*
G03X230200Y867660I4040*
X231660Y867933J4040*
G01Y840000*
G03X234485Y836147I4040*
G02X234498Y836143I226J715*
G01X243126Y833366*
G02X243140Y833361I220J717*
G03X244400Y833160I1260J3839*
X248440Y837200J4040*
X245615Y841053I4040*
G02X245602Y841057I226J715*
G01X236974Y843834*
G02X236960Y843839I220J717*
G03X235700Y844040I1260J3839*
X231660Y840000J4040*
G01Y867933*
G03X231814Y867996I1460J3767*
G02X231828Y868002I299J687*
G01X238054Y870671*
G02X238069Y870677I306J685*
G03X240540Y874400I1569J3723*
X236500Y878440I4040*
X234886Y878104J4040*
G02X234872Y878098I299J687*
G01X228646Y875429*
G02X228631Y875423I306J685*
G03X226160Y871700I1569J3723*
G01Y892287*
G03X227500Y892079I1340J4213*
X231921Y896500J4421*
X227500Y900921I4421*
X223866Y899018J4421*
G02X223250Y898696I616J428*
X222500Y899446J750*
G01Y904054*
G02X223250Y904804I750*
X223866Y904482J750*
G03X227500Y902579I3634J2518*
X231921Y907000J4421*
X227500Y911421I4421*
X223866Y909518J4421*
G02X223250Y909196I616J428*
X222500Y909946J750*
G01Y914554*
G02X223250Y915304I750*
X223866Y914982J750*
G03X227500Y913079I3634J2518*
X231921Y917500J4421*
X227500Y921921I4421*
X223866Y920018J4421*
G02X223250Y919696I616J428*
X222500Y920446J750*
G01Y925054*
G02X223250Y925804I750*
X223866Y925482J750*
G03X227500Y923579I3634J2518*
X231921Y928000J4421*
X227500Y932421I4421*
X223866Y930518J4421*
G02X223250Y930196I616J428*
X222500Y930946J750*
G01Y935554*
G02X223250Y936304I750*
X223866Y935982J750*
G03X227500Y934079I3634J2518*
X231921Y938500J4421*
X227500Y942921I4421*
X223866Y941018J4421*
G02X223250Y940696I616J428*
X222500Y941446J750*
G01Y957981*
G02X222741Y958532I750*
G03X224040Y961500I2741J2968*
X222741Y964468I4040*
G02X222500Y965019I509J551*
G01Y989250*
G02X223250Y990000I750*
G01X227360*
Y964600*
G03X231400Y960560I4040*
X233579Y961198J4040*
G01Y896500*
G03X238000Y892079I4421*
X242421Y896500J4421*
X238000Y900921I4421*
X233579Y896500J4421*
G01Y907000*
G03X238000Y902579I4421*
X242421Y907000J4421*
X238000Y911421I4421*
X233579Y907000J4421*
G01Y917500*
G03X238000Y913079I4421*
X242421Y917500J4421*
X238000Y921921I4421*
X233579Y917500J4421*
G01Y928000*
G03X238000Y923579I4421*
X242421Y928000J4421*
X238000Y932421I4421*
X233579Y928000J4421*
G01Y938500*
G03X238000Y934079I4421*
X242421Y938500J4421*
X238000Y942921I4421*
X233579Y938500J4421*
G01Y961198*
G03X235440Y964600I2179J3402*
X231400Y968640I4040*
X227360Y964600J4040*
G01Y990000*
X244079*
Y896500*
G03X248460Y892079I4421*
G01Y846500*
G03X252500Y842460I4040*
X256540Y846500J4040*
X252500Y850540I4040*
X248460Y846500J4040*
G01Y892079*
G03X248500I40J4421*
X252860Y895768J4421*
G01Y872700*
G03X256900Y868660I4040*
X260940Y872700J4040*
X256900Y876740I4040*
X252860Y872700J4040*
G01Y895768*
G03X252921Y896500I4360J732*
X248500Y900921I4421*
X244079Y896500J4421*
G01Y907000*
G03X248500Y902579I4421*
X252921Y907000J4421*
X248500Y911421I4421*
X244079Y907000J4421*
G01Y917500*
G03X248500Y913079I4421*
X252921Y917500J4421*
X248500Y921921I4421*
X244079Y917500J4421*
G01Y928000*
G03X248500Y923579I4421*
X252921Y928000J4421*
X248500Y932421I4421*
X244079Y928000J4421*
G01Y938500*
G03X248500Y934079I4421*
X252921Y938500J4421*
X248500Y942921I4421*
X244079Y938500J4421*
G01Y990000*
X253260*
Y974700*
G03X257300Y970660I4040*
X261340Y974700J4040*
X257300Y978740I4040*
X253260Y974700J4040*
G01Y990000*
X255191*
G02X255941Y989250J750*
X255537Y988585I750*
G03X253360Y985000I1863J3585*
X257400Y980960I4040*
X260193Y982081J4040*
G02X260204Y982092I519J542*
G01X265749Y987339*
G02X265760Y987350I524J537*
G03X265860Y987447I2760J2950*
G01Y953600*
G03X266560Y951327I4040*
G01Y924300*
Y924272*
G02Y924261I750*
G01Y915039*
G02Y915028I750J11*
G01Y915000*
G03X266562Y914872I4040*
G02Y914857I750J24*
G01X266760Y907232*
G02X266761Y907217I749J30*
G03X268960Y903703I4039J83*
G01Y855300*
G03X271360Y851608I4040*
G01Y832600*
G03X275400Y828560I4040*
X279440Y832600J4040*
X275400Y836640I4040*
X271360Y832600J4040*
G01Y851608*
G03X273000Y851260I1640J3692*
X277040Y855300J4040*
X273000Y859340I4040*
X268960Y855300J4040*
G01Y903703*
G03X270800Y903260I1840J3597*
X274840Y907300J4040*
X274838Y907428I4040*
G02Y907443I750J24*
G01X274640Y915043*
G02Y915062I750J19*
G01Y924261*
G02Y924272I750J11*
G01Y924300*
G03X270600Y928340I4040*
X266560Y924300J4040*
G01Y936500*
G03X270600Y932460I4040*
X274640Y936500J4040*
X270600Y940540I4040*
X266560Y936500J4040*
G01Y951327*
G03X269900Y949560I3340J2273*
X273760Y952408J4040*
G01Y948000*
G03X277800Y943960I4040*
X277823J4040*
G02X277828I5J750*
X277839J750*
G01X283560*
Y782700*
G03X287600Y778660I4040*
X291640Y782700J4040*
X287600Y786740I4040*
X283560Y782700J4040*
G01Y943960*
X285960*
Y860200*
G03X290000Y856160I4040*
X290660Y856214J4040*
G01Y810300*
G03X294700Y806260I4040*
X298740Y810300J4040*
X294700Y814340I4040*
X290660Y810300J4040*
G01Y856214*
G03X294040Y860200I660J3986*
X290000Y864240I4040*
X285960Y860200J4040*
G01Y943960*
X287161*
G02X287172I11J750*
X287177J750*
G03X287200I23J4040*
X290360Y945483J4040*
G01Y877500*
G03X294400Y873460I4040*
X294960Y873499J4040*
G01Y855400*
G03X299000Y851360I4040*
X303040Y855400J4040*
X299000Y859440I4040*
X294960Y855400J4040*
G01Y873499*
G03X298440Y877500I560J4001*
X294400Y881540I4040*
X290360Y877500J4040*
G01Y945483*
G03X290460Y945614I3160J2517*
G01Y927500*
G03X290560Y926607I4040*
G01Y890000*
G03X294600Y885960I4040*
X298640Y890000J4040*
X294600Y894040I4040*
X290560Y890000J4040*
G01Y926607*
G03X294500Y923460I3940J893*
X296760Y924151J4040*
G01Y904800*
G03X300800Y900760I4040*
X304840Y904800J4040*
X300800Y908840I4040*
X296760Y904800J4040*
G01Y924151*
G03X298540Y927500I2260J3349*
X294500Y931540I4040*
X290460Y927500J4040*
G01Y945614*
G03X291240Y948000I3260J2386*
X287200Y952040I4040*
X287177J4040*
G02X287172I5J750*
X287161J750*
G01X277839*
G02X277828I11J750*
X277823J750*
G03X277800I23J4040*
X273760Y948000J4040*
G01Y952408*
G03X273940Y953600I3860J1192*
X269900Y957640I4040*
X265860Y953600J4040*
G01Y987447*
G03X266942Y989414I2860J2853*
G02X267674Y990000I732J164*
G01X305360*
Y847600*
G03X309400Y843560I4040*
X313440Y847600J4040*
X309400Y851640I4040*
X305360Y847600J4040*
G01Y990000*
X313160*
Y951300*
G03X317200Y947260I4040*
X320260Y948662J4040*
G01Y911000*
G03X320275Y910657I4040*
G02X320276Y910643I749J63*
G01X320360Y909582*
Y867500*
G03X324400Y863460I4040*
X328440Y867500J4040*
X324400Y871540I4040*
X320360Y867500J4040*
G01Y909582*
X320970Y901919*
G02X320971Y901903I747J71*
G03X321160Y900945I4029J297*
G01Y880000*
G03X325200Y875960I4040*
X329240Y880000J4040*
X325200Y884040I4040*
X321160Y880000J4040*
G01Y900945*
G03X325000Y898160I3840J1255*
X329040Y902200J4040*
X329025Y902543I4040*
G02X329024Y902557I749J63*
G01X328362Y910885*
G02X328360Y910944I748J59*
X328364Y911021I750*
G01X329015Y917348*
G02X329016Y917363I747J66*
G03X329040Y917800I4016J437*
X325000Y921840I4040*
X320960Y917800J4040*
G01Y917799*
G02X320955Y917709I750*
G01X320287Y911469*
G02X320286Y911453I747J68*
G03X320260Y911000I4014J453*
G01Y948662*
G03X320360Y948783I3060J2638*
G01Y942200*
G03X320660Y940672I4040*
G01Y930000*
G03X324700Y925960I4040*
X328740Y930000J4040*
X324700Y934040I4040*
X320660Y930000J4040*
G01Y940672*
G03X324400Y938160I3740J1528*
X328440Y942200J4040*
X324400Y946240I4040*
X320360Y942200J4040*
G01Y948783*
G03X321240Y951300I3160J2517*
X317200Y955340I4040*
X313160Y951300J4040*
G01Y990000*
X328881*
G02X329412Y989780J750*
G01X342860Y976332*
Y827500*
G03X346900Y823460I4040*
X350940Y827500J4040*
X346900Y831540I4040*
X342860Y827500J4040*
G01Y976332*
X349654Y969538*
G02X349874Y969007I530J531*
X349418Y968317I750*
G03X346976Y964954I1582J3717*
G02X346974Y964939I748J65*
G01X346081Y955415*
G02X346080Y955400I748J59*
G03X346060Y955000I4020J400*
X350100Y950960I4040*
X351492Y951207J4040*
G02X351750Y951253I258J704*
X352500Y950503J750*
G01Y927109*
G02X351750Y926359I750*
X351257Y926544J750*
G03X348600Y927540I2657J3044*
X344560Y923500J4040*
X348600Y919460I4040*
X351257Y920456J4040*
G02X351750Y920641I493J565*
X352500Y919891J750*
G01Y902274*
G02X351750Y901524I750*
X351288Y901683J750*
G03X348800Y902540I2488J3183*
X344760Y898500J4040*
X348800Y894460I4040*
X351288Y895317J4040*
G02X351750Y895476I462J591*
X352500Y894726J750*
G01Y876924*
G02X351750Y876174I750*
X351225Y876388J750*
G03X348400Y877540I2825J2888*
X344360Y873500J4040*
X348400Y869460I4040*
X351225Y870612J4040*
G02X351750Y870826I525J536*
X352500Y870076J750*
G01Y842558*
G02X351750Y841808I750*
X351116Y842157J750*
G03X347700Y844040I3416J2157*
X343660Y840000J4040*
X347700Y835960I4040*
X351116Y837843J4040*
G02X351750Y838192I634J401*
X352500Y837442J750*
G01Y700750*
G02X351750Y700000I750*
G01X95750*
G02X95000Y700750J750*
G01Y740610*
G02X95750Y741360I750*
X95758J750*
G03X95800I42J4040*
X99840Y745400J4040*
X95800Y749440I4040*
X95758J4040*
G02X95750I8J750*
X95000Y750190J750*
G01Y755210*
G02X95750Y755960I750*
X95758J750*
G03X95800I42J4040*
X99840Y760000J4040*
X95800Y764040I4040*
X95758J4040*
G02X95750I8J750*
X95000Y764790J750*
G01Y780850*
G02X95750Y781600I750*
X96096Y781515J750*
G03X97959Y781060I1863J3585*
X101999Y785100J4040*
X97959Y789140I4040*
X96096Y788685J4040*
G02X95750Y788600I346J665*
X95000Y789350J750*
G01Y795310*
G02X95750Y796060I750*
X95758J750*
G03X95800I42J4040*
X99840Y800100J4040*
X95800Y804140I4040*
X95758J4040*
G02X95750I8J750*
X95000Y804890J750*
G01Y806750*
Y861750D02*
G02X95750Y862500I750D01*
G01X118001*
Y839900*
G03X122041Y835860I4040*
X126081Y839900J4040*
X122041Y843940I4040*
X118001Y839900J4040*
G01Y862500*
X120160*
Y854900*
G03X124200Y850860I4040*
X128240Y854900J4040*
X124200Y858940I4040*
X120160Y854900J4040*
G01Y862500*
X128919*
Y837600*
G03X132959Y833560I4040*
X136999Y837600J4040*
X132959Y841640I4040*
X128919Y837600J4040*
G01Y862500*
X153001*
Y837400*
G03X157041Y833360I4040*
X159860Y834506J4040*
G01Y821000*
G03X163900Y816960I4040*
X167940Y821000J4040*
X163900Y825040I4040*
X159860Y821000J4040*
G01Y834506*
G03X161081Y837400I2819J2894*
X157041Y841440I4040*
X153001Y837400J4040*
G01Y862500*
X159860*
Y853500*
G03X163900Y849460I4040*
X167940Y853500J4040*
X163900Y857540I4040*
X159860Y853500J4040*
G01Y862500*
X175860*
Y855300*
G03X179900Y851260I4040*
X183940Y855300J4040*
X179900Y859340I4040*
X175860Y855300J4040*
G01Y862500*
X206360*
Y831800*
G03X210400Y827760I4040*
X214440Y831800J4040*
X210400Y835840I4040*
X206360Y831800J4040*
G01Y862500*
X207500*
Y891634*
G02X207996Y892340I750*
G03X210921Y896500I1496J4160*
X207996Y900660I4421*
G02X207500Y901366I254J706*
G01Y902134*
G02X207996Y902840I750*
G03X210916Y906786I1496J4160*
G02X211665Y907500I749J36*
G01X211835*
G02X212584Y906786J750*
G03X217000Y902579I4416J214*
X218924Y903019J4421*
G02X219250Y903094I326J675*
X220000Y902344J750*
G01Y901156*
G02X219250Y900406I750*
X218924Y900481J750*
G03X217000Y900921I1924J3981*
X212579Y896500J4421*
X217000Y892079I4421*
X218924Y892519J4421*
G02X219250Y892594I326J675*
X220000Y891844J750*
G01Y875605*
G02X219931Y875291I750*
G03X219560Y873600I3669J1691*
X219931Y871909I4040*
G02X220000Y871595I681J314*
G01Y810750*
G02X219250Y810000I750*
G01X102377*
G02X101627Y810750J750*
X101686Y811040I750*
G03X101999Y812600I3727J1560*
X97959Y816640I4040*
X96096Y816185J4040*
G02X95750Y816100I346J665*
X95000Y816850J750*
G01Y822810*
G02X95750Y823560I750*
X95758J750*
G03X95800I42J4040*
X99840Y827600J4040*
X95800Y831640I4040*
X95758J4040*
G02X95750I8J750*
X95000Y832390J750*
G01Y835850*
G02X95750Y836600I750*
X96096Y836515J750*
G03X97959Y836060I1863J3585*
X101999Y840100J4040*
X97959Y844140I4040*
X96096Y843685J4040*
G02X95750Y843600I346J665*
X95000Y844350J750*
G01Y850310*
G02X95750Y851060I750*
X95758J750*
G03X95800I42J4040*
X99840Y855100J4040*
X95800Y859140I4040*
X95758J4040*
G02X95750I8J750*
X95000Y859890J750*
G01Y861750*
Y989250D02*
G02X95750Y990000I750D01*
G01X98460*
Y972500*
G03X102500Y968460I4040*
X106540Y972500J4040*
X102500Y976540I4040*
X98460Y972500J4040*
G01Y990000*
X109160*
Y977900*
G03X113200Y973860I4040*
X115579Y974635J4040*
G01Y957500*
G03X120000Y953079I4421*
X120025J4421*
G02X120029I4J750*
X120040J750*
G01X120160*
Y882400*
G03X124200Y878360I4040*
X128240Y882400J4040*
X124200Y886440I4040*
X120160Y882400J4040*
G01Y953079*
X129960*
G02X129971I11J750*
X129975J750*
G03X130000I25J4421*
X132060Y953588J4421*
G01Y932500*
G03X136100Y928460I4040*
X140118Y932082J4040*
G02X140120Y932098I746J77*
G01X141012Y940221*
G02X141013Y940237I747J70*
G03X141040Y940700I4013J463*
X137000Y944740I4040*
X132982Y941118J4040*
G02X132980Y941102I746J77*
G01X132088Y932979*
G02X132087Y932963I747J70*
G03X132060Y932500I4013J463*
G01Y953588*
G03X134421Y957500I2060J3912*
X130000Y961921I4421*
X129975J4421*
G02X129971I4J750*
X129960J750*
G01X120040*
G02X120029I11J750*
X120025J750*
G03X120000I25J4421*
X115579Y957500J4421*
G01Y974635*
G03X117240Y977900I2379J3265*
X113200Y981940I4040*
X109160Y977900J4040*
G01Y990000*
X144160*
Y969800*
G03X148200Y965760I4040*
X152240Y969800J4040*
X148200Y973840I4040*
X144160Y969800J4040*
G01Y990000*
X157160*
Y899600*
G03X158979Y896225I4040*
G02X158991Y896217I413J626*
G01X159860Y895638*
Y886000*
G03X163900Y881960I4040*
X167940Y886000J4040*
X163900Y890040I4040*
X159860Y886000J4040*
G01Y895638*
X166727Y891060*
G02X166740Y891052I407J630*
G03X169000Y890360I2260J3348*
X173040Y894400J4040*
X171221Y897775I4040*
G02X171209Y897783I413J626*
G01X163473Y902940*
G02X163460Y902948I407J630*
G03X161200Y903640I2260J3348*
X157160Y899600J4040*
G01Y990000*
X168460*
Y942100*
G03X170160Y938807I4040*
G01Y912600*
G03X174200Y908560I4040*
X175534Y908786J4040*
G02X175548Y908791I247J707*
G01X175960Y908933*
Y887300*
G03X177252Y884339I4040*
G02X177263Y884328I510J550*
G01X182108Y879780*
G02X182119Y879770I506J554*
G03X184900Y878660I2781J2930*
X188940Y882700J4040*
X187648Y885661I4040*
G02X187637Y885672I510J550*
G01X182792Y890220*
G02X182781Y890230I506J554*
G03X180000Y891340I2781J2930*
X175960Y887300J4040*
G01Y908933*
X182175Y911066*
G02X182190Y911071I254J705*
G03X184940Y914900I1290J3829*
X180900Y918940I4040*
X179566Y918714J4040*
G02X179552Y918709I247J707*
G01X172925Y916434*
G02X172910Y916429I254J705*
G03X170160Y912600I1290J3829*
G01Y923000*
G03X174200Y918960I4040*
X178240Y923000J4040*
X174200Y927040I4040*
X170160Y923000J4040*
G01Y938807*
G03X172500Y938060I2340J3293*
X176540Y942100J4040*
X172500Y946140I4040*
X168460Y942100J4040*
G01Y990000*
X174660*
Y951200*
G03X178700Y947160I4040*
X180160Y947433J4040*
G01Y925000*
G03X184200Y920960I4040*
X188240Y925000J4040*
X184200Y929040I4040*
X180160Y925000J4040*
G01Y947433*
G03X182740Y951200I1460J3767*
X178700Y955240I4040*
X174660Y951200J4040*
G01Y990000*
X177960*
Y962000*
G03X182000Y957960I4040*
X186040Y962000J4040*
X182000Y966040I4040*
X177960Y962000J4040*
G01Y990000*
X201160*
Y968300*
G03X201490Y966701I4040*
G02X201495Y966688I689J296*
G01X202079Y965312*
Y917500*
G03X206500Y913079I4421*
X210921Y917500J4421*
X206500Y921921I4421*
X202079Y917500J4421*
G01Y928000*
G03X206500Y923579I4421*
X210921Y928000J4421*
X206500Y932421I4421*
X202079Y928000J4421*
G01Y938500*
G03X206500Y934079I4421*
X210921Y938500J4421*
X206500Y942921I4421*
X202079Y938500J4421*
G01Y965312*
X204267Y960156*
G02X204272Y960143I687J302*
G03X208000Y957660I3728J1557*
X212040Y961700J4040*
X211710Y963299I4040*
G02X211705Y963312I689J296*
G01X208933Y969844*
G02X208928Y969857I687J302*
G03X205200Y972340I3728J1557*
X201160Y968300J4040*
G01Y990000*
X219250*
G02X220000Y989250J750*
G01Y966231*
G02X219367Y965490I750*
G03X215960Y961500I633J3990*
X219367Y957510I4040*
G02X220000Y956769I117J741*
G01Y943156*
G02X219250Y942406I750*
X218924Y942481J750*
G03X217000Y942921I1924J3981*
X212579Y938500J4421*
X217000Y934079I4421*
X218924Y934519J4421*
G02X219250Y934594I326J675*
X220000Y933844J750*
G01Y932656*
G02X219250Y931906I750*
X218924Y931981J750*
G03X217000Y932421I1924J3981*
X212579Y928000J4421*
X217000Y923579I4421*
X218924Y924019J4421*
G02X219250Y924094I326J675*
X220000Y923344J750*
G01Y922156*
G02X219250Y921406I750*
X218924Y921481J750*
G03X217000Y921921I1924J3981*
X212579Y917500J4421*
X217000Y913079I4421*
X218924Y913519J4421*
G02X219250Y913594I326J675*
X220000Y912844J750*
G01Y911656*
G02X219250Y910906I750*
X218924Y910981J750*
G03X217000Y911421I1924J3981*
X213956Y910206J4421*
G02X213440Y910000I516J544*
G01X210060*
G02X209544Y910206J750*
G03X206500Y911421I3044J3206*
X202079Y907000J4421*
X204576Y903019I4421*
G02X205000Y902344I326J675*
G01Y901156*
G02X204576Y900481I750*
G03X202079Y896500I1924J3981*
X204576Y892519I4421*
G02X205000Y891844I326J675*
G01Y865750*
G02X204250Y865000I750*
G01X126538*
G02X125788Y865750J750*
X125834Y866008I750*
G03X126081Y867400I3793J1392*
X122041Y871440I4040*
X118001Y867400J4040*
X118248Y866008I4040*
G02X118294Y865750I704J258*
X117544Y865000I750*
G01X102377*
G02X101627Y865750J750*
X101686Y866040I750*
G03X101999Y867600I3727J1560*
X97959Y871640I4040*
X96096Y871185J4040*
G02X95750Y871100I346J665*
X95000Y871850J750*
G01Y877810*
G02X95750Y878560I750*
X95758J750*
G03X95800I42J4040*
X99840Y882600J4040*
X95800Y886640I4040*
X95758J4040*
G02X95750I8J750*
X95000Y887390J750*
G01Y893350*
G02X95750Y894100I750*
X96096Y894015J750*
G03X97959Y893560I1863J3585*
X101999Y897600J4040*
X97959Y901640I4040*
X96096Y901185J4040*
G02X95750Y901100I346J665*
X95000Y901850J750*
G01Y907810*
G02X95750Y908560I750*
X95758J750*
G03X95800I42J4040*
X99840Y912600J4040*
X95800Y916640I4040*
X95758J4040*
G02X95750I8J750*
X95000Y917390J750*
G01Y989250*
X167500Y1214250D02*
G02X168250Y1215000I750D01*
G01X172860*
Y1165100*
G03X176900Y1161060I4040*
X180940Y1165100J4040*
X176900Y1169140I4040*
X172860Y1165100J4040*
G01Y1215000*
X182860*
Y1200000*
G03X183160Y1198472I4040*
G01Y1175200*
G03X187200Y1171160I4040*
X190860Y1173489J4040*
G01Y1157500*
G03X194900Y1153460I4040*
X198940Y1157500J4040*
X194900Y1161540I4040*
X190860Y1157500J4040*
G01Y1173489*
G03X191240Y1175200I3660J1711*
X187200Y1179240I4040*
X183160Y1175200J4040*
G01Y1198472*
G03X186900Y1195960I3740J1528*
X190940Y1200000J4040*
X186900Y1204040I4040*
X182860Y1200000J4040*
G01Y1215000*
X204078*
G02X204721Y1214636J750*
X204828Y1214250I643J386*
X204789Y1214011I750*
G01X204601Y1213433*
G02X203888Y1212915I713J232*
X203718Y1212934J750*
G03X202800Y1213040I918J3934*
X198760Y1209000J4040*
X199038Y1207528I4040*
G02X199043Y1207514I699J273*
G01X201210Y1201880*
G02X201260Y1201611I700J269*
G01Y1194339*
G02Y1194328I750J11*
G01Y1194300*
G02X201237Y1194117I750*
G01X199977Y1188764*
G02X199973Y1188749I733J161*
G03X199878Y1188179I3927J949*
G02X199876Y1188163I747J70*
G01X198484Y1174240*
G02X198482Y1174225I747J63*
G03X198460Y1173800I4018J425*
X202500Y1169760I4040*
X205659Y1171282J4040*
G02X205669Y1171294I587J467*
G01X210621Y1177434*
G02X210630Y1177446I590J462*
G03X211540Y1180000I3130J2554*
X211158Y1181714I4040*
G02X211152Y1181728I680J318*
G01X208238Y1188041*
G02X208169Y1188355I681J314*
X208186Y1188513I750*
G01X209241Y1193412*
G02X209245Y1193427I736J147*
G03X209340Y1194300I3945J873*
G01Y1194328*
G02Y1194339I750*
G01Y1202461*
G02Y1202472I750J11*
G01Y1202500*
G03X209062Y1203972I4040*
G02X209057Y1203986I699J273*
G01X207434Y1208207*
G02X207384Y1208476I700J269*
X207507Y1208887I750*
G01X211288Y1214651*
G02X211306Y1214677I633J403*
G01X211307Y1214679*
G02X211922Y1215000I615J429*
G01X215833*
Y1182500*
G03X220000Y1178333I4167*
X224167Y1182500J4167*
X220000Y1186667I4167*
X215833Y1182500J4167*
G01Y1200000*
G03X220000Y1195833I4167*
X224167Y1200000J4167*
X220000Y1204167I4167*
X215833Y1200000J4167*
G01Y1215000*
X216310*
G02X216873Y1214746J750*
G03X220000Y1213333I3127J2754*
X223127Y1214746J4167*
G02X223690Y1215000I563J496*
G01X225960*
Y1146600*
G03X230000Y1142560I4040*
X234040Y1146600J4040*
X230000Y1150640I4040*
X225960Y1146600J4040*
G01Y1215000*
X233333*
Y1182500*
G03X237500Y1178333I4167*
X241667Y1182500J4167*
X237500Y1186667I4167*
X233333Y1182500J4167*
G01Y1200000*
G03X237500Y1195833I4167*
X241667Y1200000J4167*
X237500Y1204167I4167*
X233333Y1200000J4167*
G01Y1215000*
X233810*
G02X234373Y1214746J750*
G03X237500Y1213333I3127J2754*
X240627Y1214746J4167*
G02X241190Y1215000I563J496*
G01X250833*
Y1182500*
G03X253460Y1178628I4167*
G01Y1149900*
G03X257500Y1145860I4040*
X261540Y1149900J4040*
X257500Y1153940I4040*
X253460Y1149900J4040*
G01Y1178628*
G03X255000Y1178333I1540J3872*
X259167Y1182500J4167*
X255000Y1186667I4167*
X250833Y1182500J4167*
G01Y1200000*
G03X255000Y1195833I4167*
X259167Y1200000J4167*
X255000Y1204167I4167*
X250833Y1200000J4167*
G01Y1215000*
X251310*
G02X251873Y1214746J750*
G03X255000Y1213333I3127J2754*
X258127Y1214746J4167*
G02X258690Y1215000I563J496*
G01X266560*
Y1164500*
G03X270600Y1160460I4040*
X274640Y1164500J4040*
X270600Y1168540I4040*
X266560Y1164500J4040*
G01Y1215000*
X287260*
Y1185000*
G03X289260Y1181513I4040*
G01Y1159700*
G03X293300Y1155660I4040*
X297340Y1159700J4040*
X293300Y1163740I4040*
X289260Y1159700J4040*
G01Y1181513*
G03X291300Y1180960I2040J3487*
X295340Y1185000J4040*
X291300Y1189040I4040*
X287260Y1185000J4040*
G01Y1215000*
X288841*
G02X289591Y1214250J750*
X289539Y1213976I750*
G03X289260Y1212500I3761J1476*
X293300Y1208460I4040*
X297340Y1212500J4040*
X297061Y1213976I4040*
G02X297009Y1214250I698J274*
X297759Y1215000I750*
G01X305660*
Y1204500*
G03X309700Y1200460I4040*
X313740Y1204500J4040*
X309700Y1208540I4040*
X305660Y1204500J4040*
G01Y1215000*
X313586*
G02X314324Y1214383J750*
G03X318300Y1211060I3976J717*
X322276Y1214383J4040*
G02X323014Y1215000I738J133*
G01X330960*
Y1150300*
G03X335000Y1146260I4040*
X339040Y1150300J4040*
X335000Y1154340I4040*
X330960Y1150300J4040*
G01Y1215000*
X349250*
G02X350000Y1214250J750*
G01Y1138250*
G02X349250Y1137500I750*
G01X168250*
G02X167500Y1138250J750*
G01Y1214250*
X1100000Y81750D02*
G02X1100750Y82500I750D01*
G01X1122560*
Y55000*
G03X1122660Y54107I4040*
G01Y40000*
G03X1126700Y35960I4040*
X1130740Y40000J4040*
X1126700Y44040I4040*
X1122660Y40000J4040*
G01Y54107*
G03X1126600Y50960I3940J893*
X1130640Y55000J4040*
X1126600Y59040I4040*
X1122560Y55000J4040*
G01Y82500*
X1146160*
Y47500*
G03X1150200Y43460I4040*
X1154240Y47500J4040*
X1150200Y51540I4040*
X1146160Y47500J4040*
G01Y82500*
X1200860*
Y31300*
G03X1204900Y27260I4040*
X1208940Y31300J4040*
X1204900Y35340I4040*
X1200860Y31300J4040*
G01Y82500*
X1211750*
G02X1212500Y81750J750*
G01Y63519*
G02X1212259Y62968I750*
G03X1210960Y60000I2741J2968*
X1212259Y57032I4040*
G02X1212500Y56481I509J551*
G01Y13250*
G02X1211750Y12500I750*
G01X1100750*
G02X1100000Y13250J750*
G01Y81750*
X2150000Y1071750D02*
G02X2150750Y1072500I750D01*
G01X2206391*
G02X2207141Y1071750J750*
X2206956Y1071257I750*
G03X2205960Y1068600I3044J2657*
X2210000Y1064560I4040*
X2214040Y1068600J4040*
X2213044Y1071257I4040*
G02X2212859Y1071750I565J493*
X2213609Y1072500I750*
G01X2234160*
Y1017900*
G03X2238200Y1013860I4040*
X2242240Y1017900J4040*
X2238200Y1021940I4040*
X2234160Y1017900J4040*
G01Y1072500*
X2270000*
Y1113069*
G02X2270633Y1113810I750*
G03X2274040Y1117800I633J3990*
X2270633Y1121790I4040*
G02X2270000Y1122531I117J741*
G01Y1164569*
G02X2270633Y1165310I750*
G03X2274040Y1169300I633J3990*
X2270633Y1173290I4040*
G02X2270000Y1174031I117J741*
G01Y1231750*
G02X2270750Y1232500I750*
G01X2279960*
Y1091700*
G03X2281160Y1088827I4040*
G01Y1037500*
G03X2285200Y1033460I4040*
X2289240Y1037500J4040*
X2285200Y1041540I4040*
X2281160Y1037500J4040*
G01Y1088827*
G03X2284000Y1087660I2840J2873*
X2288040Y1091700J4040*
X2284000Y1095740I4040*
X2279960Y1091700J4040*
G01Y1232500*
X2288760*
Y1222700*
G03X2292800Y1218660I4040*
X2295960Y1220183J4040*
G01Y1168900*
G03X2296960Y1166239I4040*
G01Y1070700*
G03X2301000Y1066660I4040*
X2305040Y1070700J4040*
X2301000Y1074740I4040*
X2296960Y1070700J4040*
G01Y1166239*
G03X2300000Y1164860I3040J2661*
X2304040Y1168900J4040*
X2300000Y1172940I4040*
X2295960Y1168900J4040*
G01Y1220183*
G03X2296840Y1222700I3160J2517*
X2292800Y1226740I4040*
X2288760Y1222700J4040*
G01Y1232500*
X2312560*
Y1170100*
G03X2316600Y1166060I4040*
X2317560Y1166176J4040*
G01Y1160000*
G03X2318460Y1157458I4040*
G01Y1117500*
G03X2322360Y1113462I4040*
G01Y1022900*
G03X2326400Y1018860I4040*
X2330440Y1022900J4040*
X2326400Y1026940I4040*
X2322360Y1022900J4040*
G01Y1113462*
G03X2322500Y1113460I140J4038*
X2323560Y1113602J4040*
G01Y1063700*
G03X2327600Y1059660I4040*
X2331640Y1063700J4040*
X2327600Y1067740I4040*
X2323560Y1063700J4040*
G01Y1113602*
G03X2326540Y1117500I1060J3898*
X2322500Y1121540I4040*
X2318460Y1117500J4040*
G01Y1157458*
G03X2318860Y1157031I3140J2542*
G01Y1135000*
G03X2322900Y1130960I4040*
X2326940Y1135000J4040*
X2322900Y1139040I4040*
X2318860Y1135000J4040*
G01Y1157031*
G03X2321600Y1155960I2740J2969*
X2325640Y1160000J4040*
X2321600Y1164040I4040*
X2317560Y1160000J4040*
G01Y1166176*
G03X2320640Y1170100I960J3924*
X2316600Y1174140I4040*
X2312560Y1170100J4040*
G01Y1232500*
X2323860*
Y1200300*
G03X2327900Y1196260I4040*
X2331940Y1200300J4040*
X2327900Y1204340I4040*
X2323860Y1200300J4040*
G01Y1232500*
X2336554*
G02X2337304Y1231750J750*
X2337297Y1231648I750*
G03X2337260Y1231100I4003J548*
G02X2337210Y1230830I750*
G01X2333122Y1219733*
G02X2333117Y1219718I707J248*
G03X2332860Y1218300I3783J1418*
X2333360Y1216353I4040*
G01Y1022900*
G03X2337400Y1018860I4040*
X2341440Y1022900J4040*
X2337400Y1026940I4040*
X2333360Y1022900J4040*
G01Y1216353*
G03X2333460Y1216182I3540J1947*
G01Y1063700*
G03X2337500Y1059660I4040*
X2341540Y1063700J4040*
X2337500Y1067740I4040*
X2333460Y1063700J4040*
G01Y1216182*
G03X2333560Y1216027I3440J2118*
G01Y1075500*
G03X2337600Y1071460I4040*
X2341640Y1075500J4040*
X2337600Y1079540I4040*
X2333560Y1075500J4040*
G01Y1216027*
G03X2336900Y1214260I3340J2273*
X2339000Y1214849J4040*
G01Y1177500*
G03X2342500Y1174000I3500*
X2344060Y1174367J3500*
G01Y1022900*
G03X2348100Y1018860I4040*
X2352140Y1022900J4040*
X2348100Y1026940I4040*
X2344060Y1022900J4040*
G01Y1174367*
G03X2344160Y1174419I1560J3133*
G01Y1063700*
G03X2348200Y1059660I4040*
X2352240Y1063700J4040*
X2348200Y1067740I4040*
X2344160Y1063700J4040*
G01Y1174419*
G03X2346000Y1177500I1660J3081*
X2342500Y1181000I3500*
X2339000Y1177500J3500*
G01Y1214849*
G03X2339119Y1214924I2100J3451*
G02X2339132Y1214933I412J627*
G01X2344766Y1218590*
G02X2344780Y1218598I418J623*
G03X2346640Y1222000I2180J3402*
X2346596Y1222595I4040*
G02X2346594Y1222611I742J110*
G01X2345307Y1231621*
G02X2345304Y1231638I740J118*
G01X2345302Y1231649*
G02X2345296Y1231750I744J101*
X2346046Y1232500I750*
G01X2349000*
Y1165000*
G03X2352500Y1161500I3500*
X2355860Y1164020J3500*
G01Y1120800*
G03X2359900Y1116760I4040*
X2363940Y1120800J4040*
X2359900Y1124840I4040*
X2355860Y1120800J4040*
G01Y1164020*
G03X2356000Y1165000I3360J980*
X2352500Y1168500I3500*
X2349000Y1165000J3500*
G01Y1190000*
G03X2352500Y1186500I3500*
X2356000Y1190000J3500*
X2352500Y1193500I3500*
X2349000Y1190000J3500*
G01Y1232500*
X2349650*
G02X2350096Y1232353J750*
G03X2352500Y1231560I2404J3247*
X2354904Y1232353J4040*
G02X2355350Y1232500I446J603*
G01X2361500*
Y1165000*
G03X2363760Y1161727I3500*
G01Y1146400*
G03X2364560Y1143987I4040*
G01Y1125800*
G03X2368600Y1121760I4040*
X2372640Y1125800J4040*
X2368600Y1129840I4040*
X2364560Y1125800J4040*
G01Y1143987*
G03X2367800Y1142360I3240J2413*
X2371840Y1146400J4040*
X2367800Y1150440I4040*
X2363760Y1146400J4040*
G01Y1161727*
G03X2365000Y1161500I1240J3273*
X2368500Y1165000J3500*
X2365000Y1168500I3500*
X2361500Y1165000J3500*
G01Y1190000*
G03X2365000Y1186500I3500*
X2368500Y1190000J3500*
X2365000Y1193500I3500*
X2361500Y1190000J3500*
G01Y1232500*
X2364860*
Y1210900*
G03X2368442Y1206886I4040*
G02X2368457Y1206884I85J745*
G01X2375880Y1205993*
G02X2375895Y1205992I78J745*
G01X2375912Y1205990*
G02X2375925Y1205988I93J745*
G01X2376500Y1205914*
Y1165000*
G03X2378460Y1161857I3500*
G01Y1046000*
G03X2382500Y1041960I4040*
X2386540Y1046000J4040*
X2382500Y1050040I4040*
X2378460Y1046000J4040*
G01Y1161857*
G03X2378760Y1161727I1540J3143*
G01Y1144100*
G03X2382800Y1140060I4040*
X2386840Y1144100J4040*
X2382800Y1148140I4040*
X2378760Y1144100J4040*
G01Y1161727*
G03X2380000Y1161500I1240J3273*
X2383500Y1165000J3500*
X2380000Y1168500I3500*
X2376500Y1165000J3500*
G01Y1190000*
G03X2380000Y1186500I3500*
X2383500Y1190000J3500*
X2380000Y1193500I3500*
X2376500Y1190000J3500*
G01Y1205914*
X2383647Y1204998*
G02X2383663Y1204996I84J745*
G03X2384000Y1204965I537J4004*
G01Y1177500*
G03X2387500Y1174000I3500*
X2389960Y1175010J3500*
G01Y1044600*
G03X2394000Y1040560I4040*
X2398040Y1044600J4040*
X2394000Y1048640I4040*
X2389960Y1044600J4040*
G01Y1175010*
G03X2391000Y1177500I2460J2490*
X2387500Y1181000I3500*
X2384000Y1177500J3500*
G01Y1204965*
G03X2384200Y1204960I200J4035*
X2388240Y1209000J4040*
X2384690Y1213010I4040*
G02X2384675Y1213012I91J745*
G01X2376953Y1214002*
G02X2376937Y1214004I84J745*
G03X2376858Y1214014I537J4004*
G02X2376843Y1214016I85J745*
G01X2369420Y1214907*
G02X2369404Y1214908I78J746*
G03X2368900Y1214940I504J4008*
X2364860Y1210900J4040*
G01Y1232500*
X2387020*
G02X2387486Y1232337J750*
G03X2390000Y1231460I2514J3163*
X2392514Y1232337J4040*
G02X2392980Y1232500I466J587*
G01X2393160*
Y1133600*
G03X2397200Y1129560I4040*
X2401240Y1133600J4040*
X2397200Y1137640I4040*
X2393160Y1133600J4040*
G01Y1209000*
G03X2394160Y1206339I4040*
G01Y1153500*
G03X2398200Y1149460I4040*
X2401260Y1150862J4040*
G01Y1127200*
G03X2405300Y1123160I4040*
X2409340Y1127200J4040*
X2405300Y1131240I4040*
X2401260Y1127200J4040*
G01Y1150862*
G03X2402240Y1153500I3060J2638*
X2398200Y1157540I4040*
X2394160Y1153500J4040*
G01Y1206339*
G03X2397200Y1204960I3040J2661*
X2401240Y1209000J4040*
X2397200Y1213040I4040*
X2393160Y1209000J4040*
G01Y1232500*
X2398084*
G02X2398728Y1232134J750*
G03X2402200Y1230160I3472J2066*
X2402260J4040*
G01Y1205700*
G03X2403560Y1202731I4040*
G01Y1190800*
G03X2403563Y1190658I4040*
G02Y1190642I750J27*
G01X2403761Y1183919*
G02Y1183906I750J33*
G01X2403762Y1183881*
G02Y1183867I750J20*
G01X2403960Y1175246*
G02X2403961Y1175231I749J28*
G03X2406760Y1171455I4039J69*
G01Y1153900*
G03X2410800Y1149860I4040*
X2414840Y1153900J4040*
X2410800Y1157940I4040*
X2406760Y1153900J4040*
G01Y1171455*
G03X2408000Y1171260I1240J3845*
X2412040Y1175300J4040*
X2412038Y1175417I4040*
G02Y1175433I762J22*
G01X2411840Y1184054*
G02X2411839Y1184069I749J28*
G03X2411837Y1184142I4039J69*
G02Y1184158I750J27*
G01X2411683Y1189392*
G02Y1189414I760J22*
X2411809Y1189830I750*
G01X2416140Y1196327*
G02X2416148Y1196340I630J407*
G03X2416840Y1198600I3348J2260*
X2412800Y1202640I4040*
X2409425Y1200821J4040*
G02X2409417Y1200809I626J413*
G01X2404260Y1193073*
G02X2404252Y1193060I630J407*
G03X2403560Y1190800I3348J2260*
G01Y1202731*
G03X2406300Y1201660I2740J2969*
X2410340Y1205700J4040*
X2406300Y1209740I4040*
X2402260Y1205700J4040*
G01Y1230160*
G03X2405672Y1232134I60J4040*
G02X2406316Y1232500I644J384*
G01X2409703*
G02X2410453Y1231750J750*
X2409937Y1231038I750*
G03X2407160Y1227200I1263J3838*
X2411200Y1223160I4040*
X2415240Y1227200J4040*
X2412463Y1231038I4040*
G02X2411947Y1231750I234J712*
X2412697Y1232500I750*
G01X2429350*
G02X2430100Y1231750J750*
X2429796Y1231147I750*
G03X2428160Y1227900I2404J3247*
X2432200Y1223860I4040*
X2436240Y1227900J4040*
X2434604Y1231147I4040*
G02X2434300Y1231750I446J603*
X2435050Y1232500I750*
G01X2437460*
Y1207500*
G03X2437636Y1206322I4040*
G02X2437640Y1206308I718J219*
G01X2440218Y1197680*
G02X2440223Y1197665I715J225*
G03X2444100Y1194760I3877J1135*
X2448140Y1198800J4040*
X2447964Y1199978I4040*
G02X2447960Y1199992I718J219*
G01X2445382Y1208620*
G02X2445377Y1208635I715J225*
G03X2441500Y1211540I3877J1135*
X2437460Y1207500J4040*
G01Y1232500*
X2443660*
Y1221400*
G03X2447700Y1217360I4040*
X2451740Y1221400J4040*
X2447700Y1225440I4040*
X2443660Y1221400J4040*
G01Y1232500*
X2455960*
Y1207400*
G03X2460000Y1203360I4040*
X2464040Y1207400J4040*
X2460000Y1211440I4040*
X2455960Y1207400J4040*
G01Y1232500*
X2497560*
Y1201900*
G03X2501600Y1197860I4040*
X2505640Y1201900J4040*
X2501600Y1205940I4040*
X2497560Y1201900J4040*
G01Y1232500*
X2545260*
Y1202800*
G03X2549300Y1198760I4040*
X2553340Y1202800J4040*
X2549300Y1206840I4040*
X2545260Y1202800J4040*
G01Y1232500*
X2556960*
Y1203800*
G03X2561000Y1199760I4040*
X2565040Y1203800J4040*
X2561000Y1207840I4040*
X2556960Y1203800J4040*
G01Y1232500*
X2579250*
G02X2580000Y1231750J750*
G01Y1183250*
G02X2579250Y1182500I750*
G01X2445874*
G02X2445124Y1183250J750*
X2445220Y1183618I750*
G03X2445740Y1185600I3520J1982*
X2441700Y1189640I4040*
X2437660Y1185600J4040*
X2438180Y1183618I4040*
G02X2438276Y1183250I654J368*
X2437526Y1182500I750*
G01X2420000*
Y1141019*
G02X2419759Y1140468I750*
G03X2418460Y1137500I2741J2968*
X2419759Y1134532I4040*
G02X2420000Y1133981I509J551*
G01Y1005750*
G02X2419250Y1005000I750*
G01X2150750*
G02X2150000Y1005750J750*
G01Y1071750*
X2422500Y1179250D02*
G02X2423250Y1180000I750D01*
G01X2435160*
Y1144800*
G03X2439200Y1140760I4040*
X2443240Y1144800J4040*
X2439200Y1148840I4040*
X2435160Y1144800J4040*
G01Y1180000*
X2472190*
Y1155000*
G03X2477160Y1149701I5310*
G01Y1064300*
G03X2481200Y1060260I4040*
X2485240Y1064300J4040*
X2481200Y1068340I4040*
X2477160Y1064300J4040*
G01Y1111700*
G03X2481200Y1107660I4040*
X2485240Y1111700J4040*
X2481200Y1115740I4040*
X2477160Y1111700J4040*
G01Y1149701*
G03X2477500Y1149690I340J5299*
X2482810Y1155000J5310*
X2477500Y1160310I5310*
X2472190Y1155000J5310*
G01Y1180000*
X2495260*
Y1111700*
G03X2499300Y1107660I4040*
X2503340Y1111700J4040*
X2499300Y1115740I4040*
X2495260Y1111700J4040*
G01Y1180000*
X2513760*
Y1110600*
G03X2514672Y1108044I4040*
G02X2514681Y1108032I581J475*
G01X2516560Y1105706*
Y1074400*
Y1074372*
G02Y1074361I750*
G01Y1066039*
G02Y1066028I750J11*
G01Y1066000*
G03X2520600Y1061960I4040*
X2524640Y1066000J4040*
G01Y1066028*
G02Y1066039I750*
G01Y1074361*
G02Y1074372I750J11*
G01Y1074400*
G03X2520600Y1078440I4040*
X2516560Y1074400J4040*
G01Y1105706*
X2517980Y1103948*
G02X2518141Y1103561I584J471*
G01X2518881Y1096988*
G02X2518883Y1096972I744J95*
G03X2519260Y1095647I4017J428*
G01Y1087500*
G03X2523300Y1083460I4040*
X2527340Y1087500J4040*
X2523300Y1091540I4040*
X2519260Y1087500J4040*
G01Y1095647*
G03X2522900Y1093360I3640J1753*
X2526940Y1097400J4040*
X2526912Y1097875I4040*
G02X2526910Y1097890I745J88*
G01X2526019Y1105812*
G02X2526017Y1105828I744J95*
G03X2525128Y1107956I4017J428*
G02X2525119Y1107968I581J475*
G01X2520967Y1113109*
G02X2520958Y1113120I577J479*
G03X2517800Y1114640I3158J2520*
X2513760Y1110600J4040*
G01Y1180000*
X2515360*
Y1120800*
G03X2519400Y1116760I4040*
X2523440Y1120800J4040*
X2519400Y1124840I4040*
X2515360Y1120800J4040*
G01Y1180000*
X2518760*
Y1136900*
G03X2522800Y1132860I4040*
X2526840Y1136900J4040*
X2522800Y1140940I4040*
X2518760Y1136900J4040*
G01Y1180000*
X2519260*
Y1149500*
G03X2523300Y1145460I4040*
X2527340Y1149500J4040*
X2523300Y1153540I4040*
X2519260Y1149500J4040*
G01Y1162500*
G03X2523300Y1158460I4040*
X2527340Y1162500J4040*
X2523300Y1166540I4040*
X2519260Y1162500J4040*
G01Y1180000*
X2526386*
Y1169800*
G03X2530426Y1165760I4040*
X2530960Y1165795J4040*
G01Y1037400*
G03X2535000Y1033360I4040*
X2539040Y1037400J4040*
X2535000Y1041440I4040*
X2530960Y1037400J4040*
G01Y1165795*
G03X2533560Y1167251I534J4005*
G01Y1066000*
G03X2537600Y1061960I4040*
X2541640Y1066000J4040*
X2537600Y1070040I4040*
X2533560Y1066000J4040*
G01Y1167251*
G03X2534466Y1169800I3134J2549*
X2530426Y1173840I4040*
X2526386Y1169800J4040*
G01Y1180000*
X2540242*
G02X2540992Y1179250J750*
X2540643Y1178616I750*
G03X2538760Y1175200I2157J3416*
X2542800Y1171160I4040*
X2543960Y1171330J4040*
G01Y1073800*
G03X2548000Y1069760I4040*
X2552040Y1073800J4040*
X2548000Y1077840I4040*
X2543960Y1073800J4040*
G01Y1171330*
G03X2546560Y1173722I1160J3870*
G01Y1146600*
G03X2550600Y1142560I4040*
X2551360Y1142632J4040*
G01Y1087200*
G03X2551396Y1086659I4040*
G02X2551398Y1086644I743J101*
G01X2552489Y1078219*
G02X2552491Y1078204I743J107*
G03X2556500Y1074660I4009J496*
X2560540Y1078700J4040*
X2560504Y1079241I4040*
G02X2560502Y1079256I743J101*
G01X2559411Y1087681*
G02X2559409Y1087696I743J107*
G03X2555400Y1091240I4009J496*
X2551360Y1087200J4040*
G01Y1142632*
G03X2554640Y1146600I760J3968*
X2550600Y1150640I4040*
X2546560Y1146600J4040*
G01Y1159600*
G03X2550600Y1155560I4040*
X2554640Y1159600J4040*
X2550600Y1163640I4040*
X2546560Y1159600J4040*
G01Y1173722*
G03X2546840Y1175200I3760J1478*
X2544957Y1178616I4040*
G02X2544608Y1179250I401J634*
X2545358Y1180000I750*
G01X2558260*
Y1167700*
G03X2562160Y1163662I4040*
G01Y1076400*
G03X2563360Y1073527I4040*
G02X2563371Y1073516I527J534*
G01X2564760Y1072127*
Y1037400*
G03X2568800Y1033360I4040*
X2572840Y1037400J4040*
X2568800Y1041440I4040*
X2564760Y1037400J4040*
G01Y1072127*
X2567744Y1069143*
G02X2567925Y1068850I531J530*
G01X2570155Y1062160*
G02X2570160Y1062145I708J248*
G03X2572745Y1059560I3840J1255*
G02X2572760Y1059555I233J713*
G01X2580485Y1056980*
G02X2580500Y1056975I226J715*
G03X2581800Y1056760I1300J3825*
X2585840Y1060800J4040*
X2583055Y1064640I4040*
G02X2583040Y1064645I233J713*
G01X2577550Y1066475*
G02X2577075Y1066950I237J712*
G01X2575245Y1072440*
G02X2575240Y1072455I708J248*
G03X2574240Y1074073I3840J1255*
G02X2574229Y1074084I527J534*
G01X2569084Y1079229*
G02X2569073Y1079240I523J538*
G03X2566200Y1080440I2873J2840*
X2562160Y1076400J4040*
G01Y1163662*
G03X2562300Y1163660I140J4038*
X2563160Y1163753J4040*
G01Y1086700*
G03X2567200Y1082660I4040*
X2571240Y1086700J4040*
X2567200Y1090740I4040*
X2563160Y1086700J4040*
G01Y1163753*
G03X2563411Y1163816I860J3947*
G02X2563426Y1163820I206J721*
G01X2570149Y1165698*
G02X2570164Y1165703I213J719*
G03X2570953Y1166010I1064J3897*
G02X2570968Y1166017I344J666*
G01X2576796Y1168981*
G02X2576810Y1168988I350J664*
G03X2579040Y1172600I1810J3612*
X2575000Y1176640I4040*
X2573147Y1176190J4040*
G02X2573132Y1176183I344J666*
G01X2567693Y1173417*
G02X2567555Y1173363I340J668*
G01X2561251Y1171602*
G02X2561236Y1171597I213J719*
G03X2558260Y1167700I1064J3897*
G01Y1180000*
X2580360*
Y1076000*
G03X2584400Y1071960I4040*
X2584631Y1071967J4040*
G02X2584647I43J749*
G01X2592370Y1072363*
G02X2592384Y1072364I48J748*
G03X2593360Y1072530I184J4036*
G01Y1032200*
G03X2597400Y1028160I4040*
X2601440Y1032200J4040*
X2597400Y1036240I4040*
X2593360Y1032200J4040*
G01Y1072530*
G03X2596240Y1076400I1160J3870*
X2592200Y1080440I4040*
X2591969Y1080433J4040*
G02X2591953I43J749*
G01X2584230Y1080037*
G02X2584216Y1080036I48J748*
G03X2580360Y1076000I184J4036*
G01Y1180000*
X2582500*
Y1222442*
G02X2583250Y1223192I750*
X2583884Y1222843J750*
G03X2584860Y1221780I3416J2157*
G01Y1171500*
G03X2587825Y1167606I4040*
G01Y1112500*
G03X2592500Y1107825I4675*
X2596960Y1111099J4675*
G01Y1050000*
G03X2601000Y1045960I4040*
X2605040Y1050000J4040*
X2601000Y1054040I4040*
X2596960Y1050000J4040*
G01Y1111099*
G03X2597175Y1112500I4460J1401*
X2592500Y1117175I4675*
X2587825Y1112500J4675*
G01Y1137500*
G03X2592500Y1132825I4675*
X2597175Y1137500J4675*
X2592500Y1142175I4675*
X2587825Y1137500J4675*
G01Y1167606*
G03X2588900Y1167460I1075J3894*
X2592940Y1171500J4040*
X2588900Y1175540I4040*
X2584860Y1171500J4040*
G01Y1221780*
G03X2587300Y1220960I2440J3220*
X2591340Y1225000J4040*
X2587300Y1229040I4040*
X2583884Y1227157J4040*
G02X2583250Y1226808I634J401*
X2582500Y1227558J750*
G01Y1231750*
G02X2583250Y1232500I750*
G01X2598360*
Y1077400*
G03X2602400Y1073360I4040*
X2606440Y1077400J4040*
X2602400Y1081440I4040*
X2598360Y1077400J4040*
G01Y1232500*
X2604560*
Y1170300*
G03X2608600Y1166260I4040*
X2608658J4040*
G02X2608669Y1166261I11J749*
X2608673Y1166260J750*
G01X2610325Y1166275*
Y1112500*
G03X2615000Y1107825I4675*
X2619360Y1110813J4675*
G01Y1076400*
G03X2620972Y1073171I4040*
G02X2620984Y1073162I451J599*
G01X2627621Y1068109*
G02X2627634Y1068100I445J603*
G03X2630100Y1067260I2466J3200*
X2632360Y1067951J4040*
G01Y1037600*
G03X2636400Y1033560I4040*
X2637655Y1033760J4040*
G02X2637670Y1033765I233J713*
G01X2645396Y1036241*
G02X2645411Y1036246I239J711*
G03X2648240Y1040100I1211J3854*
X2644200Y1044140I4040*
X2642945Y1043940J4040*
G02X2642930Y1043935I233J713*
G01X2635204Y1041459*
G02X2635189Y1041454I239J711*
G03X2632360Y1037600I1211J3854*
G01Y1067951*
G03X2634140Y1071300I2260J3349*
X2632528Y1074529I4040*
G02X2632516Y1074538I451J599*
G01X2625879Y1079591*
G02X2625866Y1079600I445J603*
G03X2623400Y1080440I2466J3200*
X2619360Y1076400J4040*
G01Y1110813*
G03X2619675Y1112500I4360J1687*
X2615000Y1117175I4675*
X2610325Y1112500J4675*
G01Y1137500*
G03X2615000Y1132825I4675*
X2619675Y1137500J4675*
X2615000Y1142175I4675*
X2610325Y1137500J4675*
G01Y1166275*
X2619997Y1166360*
G02X2620013I18J750*
G03X2624040Y1170400I13J4040*
X2622265Y1173745I4040*
G02X2622253Y1173754I421J621*
G01X2615317Y1178510*
G02X2615304Y1178519I415J625*
G03X2613000Y1179240I2304J3319*
X2609979Y1177882J4040*
G02X2609968Y1177871I561J498*
G01X2605620Y1173028*
G02X2605610Y1173017I565J493*
G03X2604560Y1170300I2990J2717*
G01Y1232500*
X2607660*
Y1208700*
G03X2611700Y1204660I4040*
X2615740Y1208700J4040*
X2611700Y1212740I4040*
X2607660Y1208700J4040*
G01Y1232500*
X2640160*
Y1076400*
G03X2644200Y1072360I4040*
X2648240Y1076400J4040*
X2644200Y1080440I4040*
X2640160Y1076400J4040*
G01Y1232500*
X2643460*
Y1203600*
G03X2647500Y1199560I4040*
X2647960Y1199586J4040*
G01Y1112800*
G03X2650960Y1108896I4040*
G01Y1076700*
G03X2655000Y1072660I4040*
X2659040Y1076700J4040*
X2655000Y1080740I4040*
X2650960Y1076700J4040*
G01Y1108896*
G03X2652000Y1108760I1040J3904*
X2656040Y1112800J4040*
X2652000Y1116840I4040*
X2647960Y1112800J4040*
G01Y1199586*
G03X2650560Y1200962I460J4014*
G01Y1157500*
G03X2654600Y1153460I4040*
X2658640Y1157500J4040*
X2654600Y1161540I4040*
X2650560Y1157500J4040*
G01Y1200962*
G03X2651540Y1203600I3060J2638*
X2647500Y1207640I4040*
X2643460Y1203600J4040*
G01Y1232500*
X2673960*
Y1128400*
G03X2678000Y1124360I4040*
X2682040Y1128400J4040*
X2678000Y1132440I4040*
X2673960Y1128400J4040*
G01Y1232500*
X2684250*
G02X2685000Y1231750J750*
G01Y1226674*
G02X2684250Y1225924I750*
X2684086Y1225942J750*
G03X2683200Y1226040I886J3942*
X2679160Y1222000J4040*
X2683200Y1217960I4040*
X2684086Y1218058J4040*
G02X2684250Y1218077I164J731*
X2685000Y1217327J750*
G01Y1215659*
G02X2684250Y1214909I750*
X2683976Y1214961J750*
G03X2682500Y1215240I1476J3761*
X2678460Y1211200J4040*
X2682500Y1207160I4040*
X2683976Y1207439J4040*
G02X2684250Y1207491I274J698*
X2685000Y1206741J750*
G01Y1199102*
G02X2684250Y1198352I750*
X2683678Y1198616J750*
G03X2680600Y1200040I3078J2616*
X2676560Y1196000J4040*
X2680600Y1191960I4040*
X2683678Y1193384J4040*
G02X2684250Y1193648I572J486*
X2685000Y1192898J750*
G01Y1144209*
G02X2684250Y1143459I750*
X2683757Y1143644J750*
G03X2681100Y1144640I2657J3044*
X2677060Y1140600J4040*
X2681100Y1136560I4040*
X2683757Y1137556J4040*
G02X2684250Y1137741I493J565*
X2685000Y1136991J750*
G01Y1025750*
G02X2684250Y1025000I750*
G01X2667455*
G02X2666820Y1025351J750*
G03X2663400Y1027240I3420J2151*
X2659980Y1025351J4040*
G02X2659345Y1025000I635J399*
G01X2618450*
G02X2617700Y1025750J750*
X2618004Y1026353I750*
G03X2619640Y1029600I2404J3247*
X2615600Y1033640I4040*
X2611560Y1029600J4040*
X2613196Y1026353I4040*
G02X2613500Y1025750I446J603*
X2612750Y1025000I750*
G01X2596865*
G02X2596334Y1025220J750*
G01X2596314Y1025239*
G03X2593486Y1026411I2828J2828*
G01X2444929*
G03X2442101Y1025239J4000*
G01X2442081Y1025220*
G02X2441551Y1025000I530J530*
G01X2423250*
G02X2422500Y1025750J750*
G01Y1132769*
G02X2423133Y1133510I750*
G03X2426540Y1137500I633J3990*
X2423133Y1141490I4040*
G02X2422500Y1142231I117J741*
G01Y1179250*
G37*
G54D10*
X25550Y674540D02*
Y674560D01*
Y675830*
Y675840*
X25410Y676740*
X24760Y677710*
X24020Y678130*
X23000Y678340*
X21970Y678110*
X21230Y677710*
X20570Y676730*
X20470Y675840*
Y675830*
Y674560*
Y674540*
X20570Y673640*
X21230Y672660*
X22000Y672200*
X23000Y672030*
X24000Y672200*
X24810Y672660*
X25410Y673640*
X25550Y674540*
X29560Y673680D02*
X29600Y673730D01*
X29650Y673750*
X29710*
X29780Y673730*
X29850Y673700*
X29890Y673650*
X29920Y673600*
X29930Y673540*
Y673530*
X29920Y673500*
X29900Y673470*
X29200Y672400*
X29160Y672340*
X29150Y672330*
X29130*
X28280Y671840*
X28230Y671820*
X28220Y671810*
X28180*
X27480*
X27430*
X27410Y671820*
Y671830*
X26620Y672130*
X26590*
X26560Y672160*
X26550Y672170*
X26530Y672200*
X25880Y673030*
Y673040*
X25870Y673050*
X25850Y673070*
X25840Y673090*
Y673130*
X25760Y673430*
X25140Y672400*
X25090Y672340*
X25080Y672330*
X25060*
X24210Y671830*
X24180Y671810*
X24130*
X23050Y671610*
X23020*
X22990Y671600*
X22960Y671610*
X21890Y671810*
X21850*
X21830*
Y671830*
X20980Y672330*
X20920Y672370*
X20900Y672400*
X20220Y673470*
X20190Y673510*
Y673540*
X20060Y674470*
Y674490*
Y674530*
Y675870*
Y675890*
X20190Y676830*
X20200Y676860*
X20220Y676910*
X20900Y677970*
X20930Y678000*
X20980Y678010*
X20990Y678030*
X21830Y678490*
X21850*
X21860Y678500*
X21890Y678510*
X22960Y678760*
X23010*
X23050*
X24120Y678530*
X24130Y678510*
X24150*
X24160*
X24180Y678500*
Y678490*
X24190*
X25020Y678030*
X25070Y678000*
X25110Y677970*
X25760Y676960*
X25840Y677260*
X25850Y677290*
X25880Y677330*
X26530Y678170*
X26550Y678190*
X26570Y678210*
X26580Y678230*
X26610Y678240*
X27390Y678540*
X27410Y678550*
X27430Y678560*
X27480*
X28180*
X28200*
X28230Y678550*
X28280Y678530*
X29130Y678010*
X29160Y677990*
X29200Y677930*
X29890Y676930*
X29910Y676900*
X29930Y676830*
X30060Y675890*
Y675870*
Y675840*
Y674530*
Y674510*
Y674470*
X29930Y673540*
Y673530*
X29900Y673470*
X29850Y673430*
X29770Y673410*
X29700*
X29640Y673420*
X29580Y673460*
X29540Y673520*
X29530Y673600*
Y673640*
X29560Y673680*
X29650Y674540D02*
Y675840D01*
X29540Y676760*
X28890Y677670*
X28110Y678160*
X27520*
X26820Y677870*
X26240Y677130*
X25950Y675830*
Y674560*
X26240Y673240*
X26820Y672480*
X27510Y672230*
X28110*
X28880Y672660*
X29540Y673640*
X29650Y674540*
X299000Y1419600D02*
X311850Y1432450D01*
X341550*
X358390Y1449290*
X605347*
X612692Y1441945*
X400000Y358700D02*
Y690324D01*
X433055Y723379*
Y797271*
X369610Y860716*
Y1093112*
X523548Y1247050*
X596900*
X601140Y1251290*
X637060*
X644850Y1243500*
X679800*
X682690Y1240610*
X698784*
X722909Y1264735*
Y1386427*
X759473Y1422990*
X1100036*
X1156236Y1366790*
X1156743*
X1163733Y1359800*
X1170000*
X472400Y497500D02*
X479265Y490635D01*
Y414090*
X547027Y346329*
X655745*
X701110Y300964*
Y298673*
X756573Y243210*
X992034*
X1022837Y274013*
X1365213*
X1368600Y277400*
X472600Y393700D02*
X467610Y398690D01*
Y417513*
X456221Y428902*
Y563721*
X472500Y580000*
X493100Y1071500D02*
Y985866D01*
X564700Y914266*
Y784200*
X495600Y492800D02*
X491810Y489010D01*
Y418516*
X551997Y358329*
X671460*
X728298Y301490*
X739038*
X785318Y255210*
X938177*
X974257Y291290*
X1356710*
X1361400Y286600*
X535600Y473200D02*
X540390D01*
X541210Y472380*
Y464854*
X574639Y431426*
X612200*
X736136Y307490*
X741523*
X787803Y261210*
X930584*
X966664Y297290*
X1421166*
X1489266Y365390*
X1728357*
X1772447Y321300*
X1906400*
X538200Y460200D02*
X569974Y428426D01*
X605605*
X729541Y304490*
X740280*
X786560Y258210*
X931827*
X967907Y294290*
X1433866*
X1501966Y362390*
X1695784*
X587500Y599200D02*
X446449Y740251D01*
Y873127*
X393410Y926166*
Y1108427*
X508693Y1223710*
X597410*
X601390Y1227690*
X634310*
X649990Y1212010*
X680560*
X682050Y1213500*
X696574*
X728909Y1245835*
Y1383942*
X761958Y1416990*
X1096384*
X1149911Y1363463*
Y1357814*
X1154939Y1352787*
X1174413*
X1177800Y1349400*
X617500Y599300D02*
X609026D01*
X456328Y751997*
Y873127*
X396410Y933045*
Y1107184*
X498516Y1209290*
X598010*
X603550Y1203750*
X636600*
X643640Y1196710*
X679560*
X684350Y1201500*
X696574*
X731909Y1236835*
Y1382699*
X760601Y1411390*
X1014960*
X1021940Y1404410*
X1089064*
X1109290Y1384184*
Y1381920*
X1110610Y1380600*
X1115400*
X627300Y486500D02*
X631390Y490590D01*
Y537584*
X629200Y539774*
Y546000*
X651308Y1441945D02*
X644833Y1435471D01*
X619167*
X612692Y1441945*
X651308D02*
X691253Y1481890D01*
X1533284*
X1566974Y1448200*
X1773200*
X694500Y726600D02*
X681000Y740100D01*
Y1117174*
X665574Y1132600*
X584900*
X708100Y494700D02*
X742726D01*
X744216Y496190*
X752638*
X756078Y492750*
X777750*
X782500Y497500*
X713300Y229600D02*
X702550Y240350D01*
X647424*
X596619Y291155*
X573581*
X554526Y272100*
X502000*
X772500Y577500D02*
X777250D01*
X777750Y577000*
Y575532*
X780782Y572500*
X784218*
X787500Y569218*
Y515782*
X790532Y512750*
X812750*
X822250Y522250*
X844468*
X847500Y519218*
Y515782*
X850532Y512750*
X867100*
X867800Y513450*
X877100*
X878040Y512510*
X991362*
X1003859Y525007*
X1043532*
X1069726Y551200*
X1080600*
X1086700Y557300*
X782500Y477500D02*
X787500Y482500D01*
X924150*
X926037Y484387*
X969013*
X972400Y481000*
X850200Y1229800D02*
Y1218374D01*
X847600Y1215774*
Y1196000*
X862300Y426700D02*
X867250Y431650D01*
Y472750*
X862500Y477500*
X874800Y426700D02*
X878187Y430087D01*
Y455095*
X877750Y455532*
Y472750*
X882500Y477500*
X892500Y457500D02*
X887300Y452300D01*
Y426700*
X899800D02*
Y453482D01*
X897500Y455782*
Y462500*
X892500Y467500*
X989900Y269900D02*
X969210Y249210D01*
X773290*
X730560Y291940*
X725634*
X665245Y352329*
X549512*
X485810Y416031*
Y529090*
X472400Y542500*
X1073100Y538100D02*
X1051195Y516195D01*
X1003859*
X996854Y509190*
X910616*
X907530Y506104*
Y505812*
X904468Y502750*
X780532*
X777350Y505932*
Y569368*
X774218Y572500*
X770782*
X767500Y575782*
Y579218*
X764468Y582250*
X763000*
X762500Y582750*
Y587500*
X1092074Y1040000D02*
X1086874Y1034800D01*
X1081600*
X1094500Y1076000D02*
Y1072000D01*
X1092843*
X1090500Y1069657*
Y1058343*
X1088500Y1056343*
Y1043200*
X1094600Y1034800D02*
X1099800Y1040000D01*
X1097500Y1008700D02*
X1109790Y1020990D01*
Y1040000*
X1099800D02*
X1102500Y1042700D01*
Y1060000*
X1102400Y795600D02*
Y863750D01*
X1097610Y868540*
Y961210*
X1122090Y985690*
Y1000310*
X1120210Y1002190*
Y1033919*
X1122500Y1036209*
Y1040000*
X1102500Y1084000D02*
X1098500Y1080000D01*
Y1046426*
X1092074Y1040000*
X1109790D02*
Y1045919D01*
X1106500Y1049209*
Y1096000*
X1110500Y1100000*
X1113913Y1040000D02*
Y1042241D01*
X1114500Y1042828*
Y1101657*
X1112157Y1104000*
X1108843*
X1106500Y1106343*
Y1112000*
X1102500Y1116000*
X1114500Y1392100D02*
X1117887Y1388713D01*
X1119761*
X1146490Y1361984*
Y1356993*
X1155283Y1348200*
X1170174*
X1185190Y1333184*
Y1320000*
X1117300Y992700D02*
X1113913Y996087D01*
Y1040000*
X1122500D02*
Y1072000D01*
X1118500Y1076000*
X1123200Y795600D02*
X1136710Y809110D01*
X1138184*
X1140990Y811916*
Y884016*
X1154810Y897836*
Y898627*
X1173983Y917800*
X1184574*
X1187790Y921016*
Y945884*
X1167099Y966575*
X1162208*
X1157010Y971773*
Y990951*
X1157390Y991331*
Y1040000*
X1131910D02*
Y1048419D01*
X1139619Y1056128*
Y1158069*
X1149550Y1168000*
X1202500*
X1206500Y1172000*
X1141410Y1040000D02*
Y1034173D01*
X1142710Y1032873*
Y1005273*
X1147273Y1000710*
X1148464*
X1151390Y997784*
Y993816*
X1151010Y993436*
Y957073*
X1154490Y953593*
Y932216*
X1154400Y932126*
Y917800*
X1141410Y1040000D02*
Y1040627D01*
X1142158Y1041374*
Y1144607*
X1149050Y1151500*
X1223950*
X1226500Y1148950*
Y1146343*
X1228843Y1144000*
X1258500*
X1262500Y1148000*
X1145026Y1040000D02*
X1144410Y1039384D01*
Y1035416*
X1145710Y1034116*
Y1006516*
X1148516Y1003710*
X1149707*
X1154390Y999027*
Y992573*
X1154010Y992193*
Y958316*
X1183000Y929326*
Y923000*
X1146600Y995800D02*
X1143213Y999187D01*
X1140239*
X1132210Y1007216*
Y1021160*
X1134090Y1023040*
Y1036984*
X1131910Y1039164*
Y1040000*
X1152150Y1320000D02*
Y1334676D01*
X1150000Y1336826*
Y1340374*
X1138964Y1351410*
X1138473*
X1122650Y1367233*
Y1380124*
X1117061Y1385713*
X1114113*
X1106950Y1392876*
Y1401724*
X1094684Y1413990*
X1077016*
X1072226Y1409200*
X1037400*
X1155500Y1359000D02*
Y1363790D01*
X1154993*
X1098793Y1419990*
X760715*
X725909Y1385184*
Y1254835*
X696574Y1225500*
X682850*
X679760Y1222410*
X657540*
X640660Y1239290*
X600590*
X596350Y1235050*
X515791*
X380010Y1099269*
Y1069740*
X383090Y1066660*
Y1002490*
X379310Y998710*
Y881716*
X436055Y824971*
Y722137*
X412500Y698582*
Y358900*
X1157390Y1040000D02*
Y1055453D01*
X1154500Y1058343*
Y1084000*
X1150500*
X1162200Y1320000D02*
Y1324600D01*
X1160000Y1326800*
Y1340374*
X1156074Y1344300*
X1150317*
X1140207Y1354410*
X1139716*
X1129900Y1364226*
Y1371800*
X1164290Y1040000D02*
Y999007D01*
X1162990Y997707*
Y984368*
X1160010Y981388*
Y973016*
X1163450Y969575*
X1168341*
X1190790Y947127*
Y919773*
X1188200Y917183*
Y911026*
X1184124Y906950*
X1167376*
X1157810Y897384*
Y896593*
X1144410Y883193*
Y808010*
X1133500Y797100*
X1164800Y891800D02*
X1170410Y886190D01*
X1171984*
X1174790Y883384*
Y875790*
X1172650Y873650*
Y857600*
X1157410Y842360*
Y793890*
X1179990Y771310*
Y711990*
X1175900Y707900*
X1166500Y1092000D02*
X1162500Y1088000D01*
Y1058343*
X1165000Y1055843*
Y1052843*
X1164290Y1052133*
Y1040000*
X1166500Y1108000D02*
X1163000Y1111500D01*
Y1125450*
X1165050Y1127500*
X1231950*
X1234500Y1124950*
Y1115050*
X1237550Y1112000*
X1267391*
X1271791Y1107600*
X1282500*
X1171100Y703100D02*
Y751900D01*
X1149610Y773390*
Y790860*
X1154390Y795640*
Y861440*
X1164390Y871440*
Y875584*
X1162600Y877374*
Y883000*
X1174090Y1040000D02*
Y1004564D01*
X1165990Y996464*
Y983126*
X1164800Y981936*
Y975000*
X1182500Y1108000D02*
X1186500Y1104000D01*
Y1090343*
X1188843Y1088000*
X1192157*
X1194500Y1085657*
Y1058343*
X1197248Y1055595*
X1202779*
X1205990Y1052384*
Y1043079*
X1209069Y1040000*
X1185190Y1320000D02*
Y1300381D01*
X1178500Y1293691*
Y1274343*
X1188843Y1264000*
X1250500*
X1254500Y1268000*
X1190500Y1100000D02*
X1194500Y1096000D01*
X1208157*
X1218500Y1085657*
Y1055609*
X1219400Y1054709*
Y1046226*
X1225626Y1040000*
X1190500Y1124000D02*
X1186500Y1120000D01*
X1172843*
X1170500Y1117657*
Y1045750*
X1174090Y1042160*
Y1040000*
X1196000Y1034800D02*
Y1040000D01*
Y1040843*
X1178500Y1058343*
Y1112000*
X1174500Y1116000*
X1197500Y923600D02*
X1201290Y927390D01*
X1209384*
X1216790Y919984*
Y865176*
X1201910Y850296*
Y794540*
X1206400Y790050*
Y788000*
X1198500Y1076000D02*
X1202500Y1072000D01*
X1208157*
X1210500Y1069657*
Y1055909*
X1209410Y1054819*
Y1047468*
X1216878Y1040000*
X1198600Y790400D02*
Y851229D01*
X1213790Y866419*
Y874016*
X1204826Y1040000D02*
X1186500Y1058326D01*
Y1080000*
X1182500Y1084000*
X1206700Y797200D02*
Y808900D01*
X1222000Y824200*
X1207400Y922600D02*
X1198310Y913510D01*
Y902490*
X1213790Y887010*
Y874016*
X1209069Y1040000D02*
X1236008Y1013060D01*
Y958732*
X1254551Y940189*
X1266135*
X1301935Y904390*
X1357900*
X1360700Y901590*
Y896800*
X1214500Y1284000D02*
X1210500Y1288000D01*
X1194500*
X1190500Y1284000*
X1216878Y1040000D02*
X1239199Y1017679D01*
Y959784*
X1255794Y943189*
X1268327*
X1304127Y907390*
X1359143*
X1364213Y902320*
Y900387*
X1367600Y897000*
X1219800Y658300D02*
X1178343Y616843D01*
X1127469*
X1060436Y549810*
X953440*
X951000Y552250*
X881532*
X877250Y547968*
Y546632*
X873968Y543350*
X870032*
X867250Y546132*
Y549468*
X864218Y552500*
X797500*
X792500Y557500*
X1222000Y668200D02*
X1173643Y619843D01*
X1092186*
X1032653Y560310*
X948462*
X946222Y562550*
X820732*
X817500Y565782*
Y569218*
X814218Y572500*
X800782*
X797500Y575782*
Y579218*
X794218Y582500*
X770782*
X767500Y585782*
Y589218*
X758718Y598000*
X743600*
X1222500Y1212000D02*
X1226500Y1216000D01*
X1256157*
X1258500Y1218343*
Y1221657*
X1260843Y1224000*
X1264157*
X1276610Y1236453*
Y1272984*
X1282500Y1278874*
X1225626Y1040000D02*
X1228226Y1037400D01*
X1245400*
X1230500Y1204000D02*
X1234500Y1200000D01*
X1256157*
X1258500Y1202343*
Y1205657*
X1260843Y1208000*
X1264157*
X1282500Y1226343*
X1230500Y1236000D02*
X1226500Y1240000D01*
Y1244950*
X1223450Y1248000*
X1181550*
X1162500Y1267050*
Y1301191*
X1152150Y1311541*
Y1320000*
X1232400Y1427400D02*
X1267945D01*
X1268103Y1427559*
X1296215*
X1313050Y1410724*
Y1312950*
X1323400Y1302600*
Y1277626*
X1327026Y1274000*
X1332774*
X1351108Y1255666*
Y1132918*
X1355826Y1128200*
X1365500*
X1238500Y1140000D02*
X1242500Y1136000D01*
X1274817*
X1282500Y1128317*
X1254500Y1132000D02*
X1250500Y1128000D01*
X1236843*
X1234500Y1130343*
Y1133657*
X1232657Y1135500*
X1149050*
X1146500Y1132950*
Y1041474*
X1145026Y1040000*
X1254500Y1172000D02*
Y1176000D01*
X1262500Y1184000*
X1264157*
X1275155Y1194998*
Y1201729*
X1282500Y1209074*
X1262500Y1108000D02*
X1258500Y1104000D01*
Y1085657*
X1266605Y1077552*
Y1060821*
X1277723Y1049703*
X1282500*
X1262500Y1140000D02*
X1266500Y1144000D01*
Y1149657*
X1264157Y1152000*
X1260843*
X1258500Y1154343*
Y1173657*
X1278243Y1193400*
X1282500*
X1262500Y1268000D02*
X1258500Y1264000D01*
Y1258343*
X1256157Y1256000*
X1180843*
X1170500Y1266343*
Y1302391*
X1162200Y1310691*
Y1320000*
X1271500Y1062700D02*
Y1077602D01*
X1266555Y1082547*
Y1095945*
X1262500Y1100000*
X1274000Y1157300D02*
X1282500Y1148800D01*
X1281800Y1271400D02*
X1282500Y1270700D01*
Y1042300D02*
X1232526D01*
X1229500Y1045326*
Y1052509*
X1226500Y1055509*
Y1117657*
X1224157Y1120000*
X1218500*
X1214500Y1124000*
X1282500Y1046703D02*
X1272955D01*
X1265363Y1054295*
X1238548*
X1234500Y1058343*
Y1109657*
X1232157Y1112000*
X1230500*
Y1116000*
X1282500Y1049703D02*
X1291323D01*
X1316076Y1024950*
X1321824*
X1355350Y991424*
Y982476*
X1372026Y965800*
X1376674*
X1384390Y958084*
Y951710*
X1403300Y932800*
X1282500Y1118000D02*
X1262691D01*
X1260691Y1120000*
X1242500*
X1238500Y1124000*
X1282500Y1128317D02*
X1309250Y1101567D01*
Y1046367*
X1393713Y961904*
Y959587*
X1397100Y956200*
X1282500Y1148800D02*
X1286600Y1144700D01*
Y1130426*
X1322226Y1094800*
X1324774*
X1352650Y1066924*
Y1028909*
X1380972Y1000587*
X1394713*
X1398100Y997200*
X1282500Y1165674D02*
X1280774Y1167400D01*
X1267100*
X1262500Y1172000*
X1282500Y1193400D02*
X1289600D01*
X1282500Y1209074D02*
X1286616Y1213190D01*
X1293160*
X1296240Y1210110*
X1302784*
X1308590Y1215916*
Y1236810*
X1300000Y1245400*
X1282500Y1213317D02*
X1266500Y1197317D01*
Y1194343*
X1264157Y1192000*
X1234500*
X1230500Y1196000*
X1282500Y1217559D02*
X1268941Y1204000D01*
X1262500*
X1282500Y1226343D02*
X1287410Y1231253D01*
Y1248627*
X1289590Y1250807*
Y1278780*
X1295210Y1284400*
X1300000*
X1282500Y1249726D02*
X1279610Y1246836D01*
Y1231453*
X1264157Y1216000*
X1260843*
X1258500Y1213657*
Y1210343*
X1256157Y1208000*
X1226500*
X1222500Y1204000*
X1282500Y1270700D02*
X1286590Y1266610D01*
Y1253816*
X1282500Y1249726*
Y1278874D02*
X1292816Y1289190D01*
X1303510*
X1307900Y1284800*
X1286100Y1105900D02*
X1284400Y1107600D01*
X1282500*
X1288600Y1208400D02*
X1293410Y1203590D01*
Y1202816*
X1296216Y1200010*
X1300184*
X1312690Y1212516*
Y1289910*
X1310400Y1292200*
X1298000Y1277000D02*
X1294613Y1273613D01*
Y1251030*
X1292210Y1248627*
Y1242173*
X1296990Y1237393*
Y1230416*
X1285764Y1219190*
X1284131*
X1282500Y1217559*
X1299500Y1263400D02*
Y1251674D01*
X1295210Y1247384*
Y1243416*
X1305590Y1233036*
Y1225016*
X1301524Y1220950*
X1291767*
X1287007Y1216190*
X1285373*
X1282500Y1213317*
X1300000Y1131000D02*
X1289600Y1141400D01*
Y1158574*
X1282500Y1165674*
X1305200Y899600D02*
X1300410D01*
Y901672*
X1264893Y937189*
X1253309*
X1233008Y957490*
Y1011818*
X1204826Y1040000*
X1323100Y1271100D02*
X1319410Y1267410D01*
Y1181590*
X1324200Y1176800*
X1324700Y1048000D02*
Y1037026D01*
X1402039Y959687*
X1406613*
X1410000Y956300*
X1328800Y1003000D02*
X1285097Y1046703D01*
X1282500*
X1348000Y286500D02*
X995250D01*
X960960Y252210*
X783864*
X738284Y297790*
X727756*
X670217Y355329*
X550755*
X488810Y417273*
Y495710*
X495600Y502500*
X1354600Y280800D02*
X1007574D01*
X972984Y246210*
X757816*
X704110Y299916*
Y302207*
X656988Y349329*
X548269*
X482265Y415333*
Y517635*
X472400Y527500*
X1378000Y886300D02*
Y893374D01*
X1360782Y910592*
X1305168*
X1269570Y946189*
X1257036*
X1242610Y960616*
Y1004884*
X1245400Y1007674*
Y1037400*
X1379600Y956100D02*
X1369774D01*
X1346174Y979700*
X1345326*
X1305300Y1019726*
Y1020674*
X1283674Y1042300*
X1282500*
X1400300Y1409700D02*
X1396913Y1413087D01*
X1388113*
X1332500Y1357474*
Y1329900*
X1323400Y1320800*
X1416200Y932700D02*
X1412813Y936087D01*
X1410439*
X1387390Y959136*
Y963984*
X1306114Y1045260*
Y1100460*
X1288574Y1118000*
X1282500*
X1445600Y1021800D02*
X1471990Y995410D01*
Y979610*
X1486790Y964810*
Y939216*
X1485000Y937426*
Y925100*
X1471600Y1045200D02*
X1468213Y1048587D01*
X1464039*
X1441700Y1070926*
Y1079900*
X1474200Y1188200D02*
Y1114900D01*
X1467100Y1107800*
X1485000Y1053800D02*
X1500974D01*
X1511310Y1043464*
Y1042973*
X1523464Y1030819*
Y979867*
X1528390Y974941*
Y956890*
X1527710Y956210*
Y941316*
X1539590Y929436*
Y912990*
X1527710Y901110*
Y882340*
X1532290Y877760*
Y855190*
X1530910Y853810*
Y839316*
X1531400Y838826*
Y806200*
X1489800Y1068600D02*
X1499174D01*
X1504100Y1063674*
Y1055326*
X1514310Y1045116*
Y1044216*
X1526464Y1032062*
Y981110*
X1532500Y975074*
Y943300*
X1497300Y921700D02*
X1502090Y916910D01*
X1524284*
X1527090Y919716*
Y934817*
X1523590Y938317*
Y952910*
X1515150Y961350*
Y981850*
X1510000Y987000*
Y1021700*
X1509900Y921700D02*
Y941780D01*
X1492600Y959080*
Y988674*
X1477210Y1004064*
Y1029810*
X1492700Y1045300*
X1522300Y921700D02*
X1514010Y929990D01*
Y948520*
X1503450Y959080*
Y988674*
X1490000Y1002124*
Y1021300*
X1525000Y1059800D02*
Y1085400D01*
X1518400Y1092000*
X1532400Y1021100D02*
X1547290Y1006210D01*
Y941716*
X1544400Y938826*
Y923000*
X1544300Y1403900D02*
Y1377200D01*
X1551000Y1370500*
X1550000Y1243200D02*
X1515174D01*
X1510384Y1238410*
X1477790*
X1472500Y1243700*
X1570400Y1120600D02*
X1576010Y1114990D01*
X1577584*
X1580390Y1112184*
Y1109751*
X1589290Y1100851*
Y1076673*
X1586000Y1073383*
Y1027000*
X1580800Y1125800D02*
Y1116713D01*
X1592290Y1105223*
Y1075431*
X1590790Y1073931*
Y1006602*
X1587610Y1003422*
Y966210*
X1583400Y962000*
X1591200Y1118000D02*
X1598290Y1110910D01*
Y1072945*
X1597910Y1072565*
Y1064716*
X1601476Y1061150*
X1602824*
X1606390Y1057584*
Y1052690*
X1597910Y1044210*
Y1024740*
X1607490Y1015160*
Y972949*
X1603790Y969249*
Y938190*
X1596400Y930800*
X1593800Y904800D02*
X1590413Y908187D01*
Y938737*
X1578610Y950540*
Y979310*
X1582990Y983690*
Y1004010*
X1579000Y1008000*
Y1013250*
X1573410Y1018840*
Y1065036*
X1586290Y1077916*
Y1099510*
X1575600Y1110200*
X1596400Y969800D02*
X1590610Y975590D01*
Y1002179*
X1594910Y1006479*
Y1073808*
X1595290Y1074188*
Y1107136*
X1585713Y1116713*
Y1131713*
X1589100Y1135100*
X1627600Y1034800D02*
Y972949D01*
X1607610Y952959*
Y892590*
X1616790Y883410*
Y876490*
X1607600Y867300*
Y830800*
X1644200Y1169300D02*
Y1094760D01*
X1628640Y1079200*
X1659000Y1236800D02*
X1513017D01*
X1511627Y1235410*
X1463390*
X1453400Y1245400*
X1708200Y1019200D02*
X1704813Y1022587D01*
X1701539*
X1696013Y1028113*
Y1088513*
X1699400Y1091900*
X1768600Y1192500D02*
Y1187710D01*
X1773720Y1182590*
X1775184*
X1785210Y1172564*
Y1139990*
X1829854Y1095346*
Y1076815*
X1850800Y1055869*
Y1050600*
X1775000Y1005000D02*
X1754440Y984440D01*
Y941340*
X1741010Y927910*
Y861190*
X1756500Y845700*
Y827600*
X1790000Y1161600D02*
Y1233800D01*
X1783600Y1240200*
X1799200Y1229800D02*
Y1189474D01*
X1799900Y1188774*
Y1184826*
X1800000Y1184726*
Y1163300*
X1804400Y1242800D02*
Y1196407D01*
X1804700Y1196107*
Y1186800*
X1809900Y1163300D02*
Y1195150D01*
X1807410Y1197640*
Y1211010*
X1816590Y1220190*
Y1232510*
X1812800Y1236300*
X1814800Y868400D02*
Y949000D01*
X1806350Y957450*
Y991776*
X1795300Y1002826*
Y1035500*
X1775800Y1055000*
X1821600Y868400D02*
X1825790Y864210D01*
X1830984*
X1837248Y870473*
Y895298*
X1894990Y953040*
Y1076110*
X1884950Y1086150*
Y1175450*
X1884350Y1176050*
Y1189924*
X1881284Y1192990*
X1874190*
X1869400Y1188200*
X1833100Y1140400D02*
Y1077811D01*
X1856501Y1054410*
Y1030524*
X1861700Y1025326*
Y1004826*
X1884590Y981936*
Y975440*
X1883510Y974360*
Y970867*
X1883409Y970765*
Y967765*
X1884590Y966584*
Y962616*
X1881784Y959810*
X1872453*
X1829000Y916357*
Y869000*
X1838900Y1134800D02*
Y1153850D01*
X1844790Y1159740*
Y1175260*
X1842630Y1177420*
Y1216370*
X1836400Y1222600*
X1864200Y980200D02*
X1850126D01*
X1825210Y1005116*
Y1015960*
X1832590Y1023340*
Y1046160*
X1788550Y1090200*
Y1096424*
X1757190Y1127784*
Y1152210*
X1744610Y1164790*
Y1182310*
X1739910Y1187010*
Y1262710*
X1745200Y1268000*
X1866800Y1206400D02*
Y1200526D01*
X1855150Y1188876*
Y1106350*
X1843400Y1094600*
X1869400Y975100D02*
Y981774D01*
X1855764Y995410*
X1845816*
X1835610Y1005616*
Y1057464*
X1760190Y1132884*
Y1163784*
X1747610Y1176364*
Y1183553*
X1742910Y1188253*
Y1232610*
X1749990Y1239690*
Y1307360*
X1749800Y1307550*
Y1424800*
X1879300Y1188200D02*
Y1179374D01*
X1865200Y1165274*
Y1156800*
X1860110Y1151710*
Y1043890*
X1868790Y1035210*
Y1030016*
X1867000Y1028226*
Y1006300*
X1879800Y964600D02*
X1874600Y969800D01*
Y980817*
X1857007Y998410*
X1853173*
X1848610Y1002973*
Y1013190*
X1838610Y1023190*
Y1058707*
X1767100Y1130217*
Y1162526*
X1757910Y1171716*
Y1181590*
X1747700Y1191800*
X1879800Y977600D02*
Y982390D01*
X1860780Y1001410*
X1854416*
X1851610Y1004216*
Y1033090*
X1843410Y1041290*
Y1059016*
X1782210Y1120216*
Y1161490*
X1763100Y1180600*
Y1181590*
X1752810Y1191880*
Y1200310*
X1757190Y1204690*
Y1225760*
X1757010Y1225940*
Y1255210*
X1762800Y1261000*
X1905800Y1019200D02*
X1913590Y1026990D01*
Y1163260*
X1899400Y1177450*
Y1188200*
X1905800Y1034800D02*
X1910590Y1039590D01*
Y1154810*
X1903200Y1162200*
X1908410Y316510D02*
X1913200Y321300D01*
X1908410Y316510D02*
X1770088D01*
X1724208Y362390*
X1695784*
X1912200Y1187800D02*
X1917062Y1182938D01*
Y996225*
X1931100Y982187*
Y967400*
X1960400Y1045200D02*
X1952200Y1053400D01*
Y1166400*
X1964900Y1193400D02*
Y1165500D01*
X1969990Y1160410*
Y1042309*
X1965190Y1037509*
Y990190*
X1960400Y985400*
X2395300Y1300800D02*
Y1312326D01*
X2371200Y1336426*
Y1375400*
X2794500Y1484800D02*
X2766476D01*
X2714620Y1432945*
X2617671*
X2572426Y1387700*
X2537000*
X2930000Y1337000D02*
X2895000D01*
Y984000*
X2930000*
Y316000*
G02X2905000Y291000I25000*
G01X2792719*
G02X2782812Y299638J10000*
G01X2773000Y371000*
X2761000Y478000*
X2737000Y614000*
X2746000Y622000*
X2739000Y674000*
X2731000Y702000*
X2715000Y751000*
X2697000Y786000*
X2663000Y836000*
X2623000Y881000*
X2610000Y894000*
X2602000Y900000*
X2609000Y924000*
X2615000Y945000*
X2616000Y950000*
Y956000*
X2615000Y969000*
X2614000Y974000*
X2611000Y983000*
X2608000Y989000*
X2601000Y998000*
X2588000Y1007000*
X2583000Y1010000*
X2569000Y1014000*
X2550000*
X2544000Y1012000*
X2528000Y1004000*
X2491000Y964000*
X2441000Y979000*
X2423000Y983000*
X2375000Y989000*
X2354000Y990000*
X2332000*
X2289000Y986000*
X2261000Y981000*
X2233000Y973000*
X2184000Y955000*
X2142000Y932000*
X2112000Y911000*
X2090000Y893000*
X2080000Y884000*
X2066000Y870000*
X2044000Y843000*
X2027000Y822000*
X2007000Y787000*
X1975000Y725000*
X1962000Y692000*
X1955000Y647000*
X1953000Y623000*
Y591000*
X1954000Y571000*
X1955000Y563000*
X1963000Y491000*
X1982000Y329000*
X1987000Y285000*
X1990000Y261000*
X2001575Y185994*
G02X2001663Y184850I7412J1144*
X1996833Y177841I7500*
G01X1934619Y177597*
G03X1909719Y152883I98J25000*
G01X1909282Y114714*
G02X1884284Y90000I24998J286*
G01X1785000*
G03X1760000Y65000J25000*
G01Y25000*
G02X1735000Y0I25000*
G01X1230000*
Y10000*
X345000*
G02X320000Y35000J25000*
G01Y65000*
G03X295000Y90000I25000*
G01X255000*
G02X230000Y115000J25000*
G01Y275000*
G03X205000Y300000I25000*
G01X25000*
G02X0Y325000J25000*
G01Y1475000*
G02X25000Y1500000I25000*
G01X1609000*
Y1490000*
X1784000*
G02X1809000Y1465000J25000*
G01Y1451000*
G03X1840000Y1420000I31000*
X1871000Y1451000J31000*
G01Y1463000*
G02X1881000Y1473000I10000*
G01X2339000*
G02X2349000Y1463000J10000*
G01Y1462000*
G03X2380000Y1431000I31000*
X2411000Y1462000J31000*
G01Y1463000*
G02X2421000Y1473000I10000*
G01X2670000*
X2697500Y1500000*
X2905000*
G02X2930000Y1475000J25000*
G01Y1337000*
G54D11*
X404700Y1092800D02*
X416550Y1080950D01*
Y994087*
X488078Y922559*
Y794822*
X658900Y624000*
X582400Y1081800D02*
X556265D01*
X544765Y1093300*
X525400*
X625700Y189500D02*
X626247D01*
X685500Y191100D02*
X662140Y167740D01*
X612807*
X592850Y187697*
Y266750*
X574400Y285200*
X762500Y587500D03*
X772500Y577500D03*
X782500Y457500D03*
Y467500D03*
Y477500D03*
Y497500D03*
Y587500D03*
Y597500D03*
X792500Y557500D03*
X802500Y587500D03*
Y597500D03*
X812500Y457500D03*
Y467500D03*
X822500Y457500D03*
Y467500D03*
X842500Y587500D03*
Y597500D03*
X862500Y477500D03*
Y587500D03*
Y597500D03*
X882500Y477500D03*
Y587500D03*
Y597500D03*
X892500Y457500D03*
Y467500D03*
X900500Y1199600D02*
X921818Y1220918D01*
Y1236267*
X929991Y1244440*
X930280*
X932800Y1246960*
Y1253500*
X1357900Y1352500D02*
X1383676Y1378276D01*
X1430423*
X1438499Y1370200*
X1461200*
X1582600Y338800D02*
X1485093D01*
X1381553Y235260*
X738589*
X693049Y280800*
X623300*
X611500Y292600*
X1679800Y64800D02*
Y88996D01*
X1689512Y98708*
X1796367*
X1925716Y228057*
Y324009*
X1916725Y333000*
X1797351*
X1759950Y370401*
Y561950*
X1719500Y602400*
X1749800Y1105000D02*
X1757240Y1097560D01*
Y1040440*
X1750040Y1033240*
Y1021507*
X1737313Y1008780*
X1734660*
X1732500Y1006620*
Y995000*
X1818100Y704500D02*
X1843618Y730018D01*
Y893467*
X1900051Y949900*
X1939349*
X1957909Y968460*
X1968309*
X1985140Y985291*
Y1021909*
X1980049Y1027000*
X1977151*
X1972060Y1032091*
Y1037509*
X1982600Y1048049*
Y1163700*
X1882600Y513900D02*
Y633287D01*
X1851266Y664621*
Y891866*
X1899800Y940400*
X2293200Y1294300D02*
X2314850D01*
X2329550Y1309000*
X2364600*
X2373800Y1318200*
X2394600Y1401400D02*
X2401140Y1394860D01*
Y1357240*
X2401060Y1357160*
Y1336291*
X2402200Y1335151*
Y1323100*
X2703300Y1085000D02*
Y1078460D01*
X2707688Y1074072*
Y1019524*
X2698166Y1010002*
X2605895*
X2593486Y1022411*
X2444929*
X2422680Y1000162*
X2182963*
X2144761Y961960*
X1960909*
X1939349Y940400*
X1899800*
G54D12*
X673400Y231400D02*
X667008Y225008D01*
Y222623*
X633885Y189500*
X626247*
X1144700Y69300D02*
X1100085D01*
X1091845Y77540*
X854040*
X848560Y72060*
X554956*
X461750Y165266*
Y264550*
X387500Y338800*
Y688232*
X360040Y715692*
Y968345*
X294985Y1033400*
X66916*
X48860Y1051456*
Y1298077*
X101483Y1350700*
X183700*
X206400Y1373400*
X248650*
X281550Y1406300*
X321617*
X335175Y1419858*
X668047*
X717080Y1468891*
X1248109*
X1268800Y1448200*
X1307300Y1448500D02*
X1288200D01*
X1287900Y1448200*
X1268800*
G54D13*
X96831Y1197029D02*
X99560Y1194300D01*
X104000*
X96831Y1198571D02*
X99560Y1201300D01*
X104000*
X96831Y1214529D02*
X95529D01*
X81518Y1228540*
Y1291878*
X109594Y1319953*
X255894*
X340878Y1404937*
X673749*
X723120Y1454308*
X1143390*
X1174738Y1422960*
X1237220*
X1238710Y1424450*
X1271570*
X1272490Y1423530*
X96831Y1216071D02*
X96168D01*
X83060Y1229179*
Y1291239*
X110233Y1318412*
X256533*
X341516Y1403395*
X674388*
X723759Y1452766*
X1142751*
X1174099Y1421418*
X1237858*
X1239349Y1422909*
X1270931*
X1271400Y1422440*
X104000Y1211800D02*
X99560D01*
X96831Y1214529*
X104000Y1218800D02*
X99560D01*
X96831Y1216071*
X111169Y1232029D02*
X108440Y1229300D01*
X104000*
X111169Y1233571D02*
X108440Y1236300D01*
X104000*
X241308Y1246652D02*
X239200Y1248760D01*
Y1253200*
X242663Y1248007D02*
Y1249263D01*
X245900Y1252500*
X247000Y1424800D02*
X241677Y1430123D01*
X213122*
X208100Y1435145*
Y1451500*
X254800Y1422200D02*
Y1427476D01*
X249853Y1432423*
X214075*
X212660Y1433837*
Y1445060*
X215800Y1448200*
X258292Y1233897D02*
X258760Y1233429D01*
Y1232740*
X261900Y1229600*
X258292Y1235814D02*
X259086D01*
X259500Y1235400*
X265500*
X309400Y1365000D02*
X312645Y1361755D01*
Y1359022*
Y1357565*
X314809Y1355401*
X548278*
X591771Y1398895*
X701503*
X750763Y1448154*
X1012891*
X1014014Y1447032*
X1016953*
X1018471Y1448550*
X1116876*
X1162980Y1402446*
Y1394866*
X1169426Y1388420*
X1177006*
X1210456Y1354970*
Y1340450*
X1226782Y1324125*
X1263573*
X1268376Y1319322*
X314562Y1359022D02*
Y1358359D01*
X315603Y1357318*
X547484*
X590977Y1400811*
X700709*
X749969Y1450071*
X1013685*
X1014808Y1448948*
X1016159*
X1017677Y1450466*
X1117670*
X1164897Y1403240*
Y1395660*
X1170220Y1390337*
X1177800*
X1212373Y1355764*
Y1341244*
X1227576Y1326042*
X1264367*
X1269731Y1320678*
X316600Y1365500D02*
Y1361060D01*
X314562Y1359022*
X523800Y575000D02*
X528458D01*
X530249Y576791*
X528200Y570000D02*
X531340Y573140D01*
Y575701*
X530249Y576791D02*
X531170Y577711D01*
X533110*
X544383Y566438*
Y533538*
X531340Y575701D02*
X531808Y576170D01*
X532471*
X542841Y565800*
Y533538*
Y532252*
X584642Y490450*
X600829*
X544383Y533538D02*
X585471Y492450D01*
X601009*
X601919Y491540*
X600829Y490450D02*
X633334Y457945D01*
Y424702*
X729448Y328588*
X902435*
X948296Y374449*
X978693*
X1092292Y488048*
Y504929*
X1264158Y676796*
X601919Y491540D02*
X634876Y458584D01*
Y425341*
X730086Y330130*
X901797*
X947658Y375991*
X978054*
X1090750Y488687*
Y505568*
X1262616Y677434*
X752279Y380419D02*
X749600Y377740D01*
Y373300*
X753821Y380419D02*
X756500Y377740D01*
Y373300*
X770100Y916500D02*
X773240Y919640D01*
X773902*
X772000Y760900D02*
X775638Y764538D01*
X776321*
X772200Y770200D02*
X776321Y766079D01*
X773902Y919640D02*
X774630Y918912D01*
X778082*
X818399Y959229*
X862019*
X882219Y979429*
X891689*
X931157Y1018898*
Y1040436*
X971200Y1080479*
X974539*
X991292Y1097232*
Y1109531*
X1001600Y1119840*
X1002500*
X774800Y925600D02*
Y920922D01*
X774992Y920730*
X774800Y1175200D02*
X781840Y1168160D01*
Y1160419*
X770625Y1149204*
Y1124225*
X779240Y1115610*
Y1100340*
X772960Y1094060*
Y1090161*
X774800Y1088321*
Y1076400*
X774992Y920730D02*
X775269Y920454D01*
X777443*
X817760Y960771*
X861381*
X881581Y980971*
X891050*
X929616Y1019537*
Y1041075*
X970561Y1082021*
X973900*
X989750Y1097871*
Y1110170*
X1000962Y1121382*
X1002500*
X776321Y764538D02*
X819118D01*
X822530Y761126*
Y759544*
X824712Y757362*
X869974*
X875982Y751353*
X890613*
X982240Y842981*
X776321Y766079D02*
X819757D01*
X824072Y761764*
Y760182*
X825350Y758904*
X870612*
X876621Y752895*
X889974*
X981150Y844071*
X777847Y454389D02*
Y462847D01*
X782500Y467500*
X777900Y742600D02*
X765260Y755240D01*
Y799092*
X779108Y812940*
X823860*
X835240Y801560*
X855310*
X860510Y806760*
X877272*
X931223Y860711*
Y880044*
X975150Y923971*
Y983900*
X977600Y986350*
Y1009879*
X1004740Y1037019*
Y1040000*
X779389Y454389D02*
X782500Y457500D01*
X786173Y601173D02*
X782500Y597500D01*
X786200Y370200D02*
Y369979D01*
X789229Y366950*
X787528Y599817D02*
Y592528D01*
X782500Y587500*
X787847Y623487D02*
X785200Y620840D01*
Y616400*
X789229Y366950D02*
Y365649D01*
X792560Y362318*
X923705*
X942140Y380753*
X976867*
X1071144Y475031*
Y495924*
X1251798Y676578*
Y713678*
X1362725Y824604*
X1407663*
X1472382Y889322*
Y904584*
X1462260Y914706*
Y954494*
X1464582Y956816*
Y987469*
X1436860Y1015191*
Y1025999*
X1427241Y1035618*
Y1064401*
X1429060Y1066220*
Y1261639*
X1456250Y1288829*
X1481889*
X1497584Y1304524*
Y1328041*
X1496212Y1329412*
X1494911*
X789763Y623487D02*
X792410Y620840D01*
Y616400*
X790771Y366950D02*
Y366287D01*
X793198Y363860*
X923066*
X941501Y382295*
X976228*
X1069603Y475669*
Y496562*
X1250257Y677216*
Y714316*
X1362086Y826145*
X1407024*
X1470840Y889961*
Y903946*
X1460718Y914067*
Y955133*
X1463040Y957454*
Y986831*
X1435318Y1014552*
Y1025361*
X1425699Y1034980*
Y1065040*
X1427518Y1066859*
Y1262278*
X1455611Y1290371*
X1481250*
X1496042Y1305163*
Y1327402*
X1495573Y1327871*
X1494911*
X793800Y370200D02*
Y369979D01*
X790771Y366950*
X797472Y600611D02*
Y592528D01*
X802500Y587500*
X799389Y600611D02*
X802500Y597500D01*
X801500Y616500D02*
Y620940D01*
X803214Y622654*
Y626934*
X794836Y635313*
Y648043*
X719355Y723524*
Y945265*
X713516Y951104*
Y1005395*
X731598Y1023476*
Y1135581*
X742987Y1146970*
Y1364429*
X779671Y1401113*
X898830*
X906848Y1393094*
X1079548*
X1101666Y1370977*
X1108013*
X1128857Y1350133*
Y1320000*
X804570Y628290D02*
X796753Y636106D01*
Y648837*
X721272Y724318*
Y946059*
X715433Y951898*
Y1004601*
X733515Y1022683*
Y1134787*
X744903Y1146176*
Y1363635*
X780465Y1399197*
X898036*
X906055Y1391178*
X1078755*
X1100872Y1369060*
X1107219*
X1126940Y1349339*
Y1320000*
X806300Y748500D02*
X777721D01*
X767560Y758661*
Y798139*
X776361Y806940*
X790810*
X802690Y795060*
X862039*
X871039Y804060*
X877825*
X933523Y859758*
Y873602*
X1007040Y947119*
Y1040000*
X806300Y781900D02*
X871650D01*
X877250Y787500*
X888579*
X900490Y799411*
X808600Y790400D02*
X856821D01*
X859181Y792760*
X868389*
X875129Y799500*
X888579*
X950100Y861021*
Y886926*
X1012760Y949586*
Y1040000*
X808600Y1089400D02*
X804160Y1093840D01*
Y1123781*
X811040Y1130661*
Y1134339*
X804460Y1140919*
Y1174528*
X817060Y1187128*
Y1207610*
X833360Y1223910*
Y1245260*
X852700Y1264600*
X808710Y616500D02*
Y624149D01*
X804570Y628290*
X809832Y375571D02*
X809169D01*
X806840Y377900*
X802400*
X810922Y374481D02*
X807442Y371000D01*
X802500*
X811040Y404239D02*
X807900Y401100D01*
X808600Y400400*
X811074Y1068876D02*
X811435Y1069238D01*
Y1069389*
X811984Y1069937*
X816618Y1074571*
X869650*
X898351Y1103272*
Y1138210*
X943529Y1183389*
Y1196389*
X967322Y1220182*
X985708*
X994819Y1211071*
X1002500*
X812060Y704684D02*
Y701240D01*
X815200Y698100*
X812500Y457500D02*
X813446Y458446D01*
X816557Y455334*
X812500Y467500D02*
X817611Y462389D01*
Y458626*
X818099Y458139*
Y455334*
X812581Y404239D02*
Y404219D01*
X816400Y400400*
X813074Y1068847D02*
X817256Y1073029D01*
X870289*
X899893Y1102633*
Y1137572*
X945071Y1182750*
Y1195750*
X967961Y1218640*
X985070*
X994181Y1209529*
X1002500*
X813074Y1068847D02*
X812977Y1065508D01*
X815269Y1063079*
X815669Y1063067*
X817900Y1064743*
X818300Y1065043*
X813416Y706040D02*
X816860D01*
X820000Y702900*
X813800Y1097200D02*
Y1110200D01*
X806760Y1117240*
Y1123128*
X813340Y1129708*
Y1135292*
X806760Y1141872*
Y1173575*
X837940Y1204755*
Y1231619*
X856671Y1250350*
X861529*
X874250Y1263071*
Y1271729*
X886461Y1283940*
X901547*
X908192Y1277295*
X938976*
X965331Y1303650*
X969518*
X816557Y455334D02*
Y431851D01*
X811040Y426334*
Y404239*
X818099Y455334D02*
Y431213D01*
X812581Y425695*
Y404239*
X818300Y1065043D02*
Y1066000D01*
X819000*
X818500Y1058623D02*
X815611Y1061068D01*
X815211Y1061080*
X814383Y1061104*
X810954Y1064739*
X811074Y1068876*
X819000Y1047800D02*
Y1058123D01*
X818500Y1058623*
X821400Y1218500D02*
X814760Y1211860D01*
Y1188081*
X801860Y1175181*
Y1052940*
X806300Y1048500*
X822500Y457500D02*
X826500Y461500D01*
X826958*
X822500Y467500D02*
X826958Y463042D01*
X824200Y1089400D02*
X821060Y1092540D01*
Y1182740*
X840240Y1201919*
Y1229372*
X853129Y1242260*
X854860*
X858000Y1245400*
X826776Y1139100D02*
Y1143240D01*
X827342Y1143806*
X831334*
X831900Y1144371*
Y1145540*
X831334Y1146106*
X824466*
X823900Y1146671*
Y1147840*
X824466Y1148406*
X831334*
X831900Y1148971*
Y1150140*
X831334Y1150706*
X824466*
X823900Y1151271*
Y1152440*
X824466Y1153006*
X831334*
X831900Y1153571*
Y1154740*
X831334Y1155306*
X824466*
X823900Y1155871*
Y1157040*
X824466Y1157606*
X831334*
X831900Y1158171*
Y1159340*
X831334Y1159906*
X824466*
X823900Y1160471*
Y1161640*
X824466Y1162206*
X831334*
X831900Y1162771*
Y1163940*
X831334Y1164506*
X827342*
X826776Y1165071*
Y1168897*
X853900Y1196021*
Y1205250*
X873800Y1225150*
Y1235279*
X888021Y1249500*
X890700*
X904231Y1263031*
X947510*
X980129Y1295650*
X1002500*
X826958Y461500D02*
X827163D01*
X827667Y460995*
Y447560*
X822037Y441929*
Y395790*
X814408Y388162*
X768201*
X763163Y383123*
X753682*
X752279Y381721*
Y380419*
X826958Y463042D02*
X827801D01*
X829209Y461634*
Y446921*
X823578Y441291*
Y395152*
X815047Y386620*
X768840*
X763801Y381582*
X754320*
X753821Y381082*
Y380419*
X828660Y691384D02*
X828192Y691853D01*
X822736*
X822626Y691743*
X807841*
X752610Y746974*
Y944636*
X769602Y961628*
Y969091*
X776269Y975758*
X777737*
X785774Y983795*
Y1355964*
X803667Y1373857*
X812554*
X821824Y1364587*
X841291*
X850661Y1373957*
X893648*
X898211Y1369394*
X936454*
X960090Y1345758*
X1045097*
X1051815Y1339040*
X830016Y692740D02*
X828986Y693770D01*
X821942*
X821832Y693660*
X808635*
X754527Y747768*
Y943842*
X771518Y960834*
Y968297*
X777063Y973842*
X778531*
X787691Y983001*
Y1355170*
X804461Y1371940*
X811760*
X821030Y1362670*
X842085*
X851455Y1372040*
X892854*
X897417Y1367477*
X935660*
X959296Y1343841*
X1044303*
X1050460Y1337685*
X831800Y684800D02*
X828660Y687940D01*
Y691384*
X832400Y1115000D02*
X826776Y1120624D01*
Y1139100*
X834300Y1063400D02*
X839140Y1058560D01*
Y993883*
X778657Y933400*
X769600*
X836600Y689600D02*
X833460Y692740D01*
X830016*
X839600Y1195000D02*
X844950Y1200350D01*
Y1230829*
X848361Y1234240*
X854610*
X855790Y1233060*
X862039*
X874250Y1245271*
Y1247729*
X895321Y1268800*
X933733*
X962883Y1297950*
X839800Y1125800D02*
Y1168479D01*
X856381Y1185060*
X862039*
X866189Y1189210*
X896389*
X930139Y1222960*
X935239*
X943460Y1231181*
Y1231203*
X960217Y1247960*
X973139*
X976960Y1251781*
Y1269250*
X987360Y1279650*
X1002500*
X842400Y1115400D02*
X835360Y1122440D01*
Y1131760*
X836440Y1132840*
Y1172019*
X859921Y1195500*
X860479*
X874250Y1209271*
Y1211729*
X888021Y1225500*
X888579*
X895250Y1232171*
Y1238329*
X903021Y1246100*
X905550*
X917390Y1257940*
X947510*
X973570Y1284000*
X1002500*
X842500Y587500D02*
X846900Y591900D01*
Y599494*
X847500Y600094*
X842500Y597500D02*
X846636Y601636D01*
X847500*
X846544Y705540D02*
Y707706D01*
X846730Y707892*
Y721584*
X838502Y729812*
X781699*
X761043Y750467*
Y938333*
X778630Y955920*
X793399*
X810740Y973261*
Y1026339*
X797087Y1039992*
Y1336276*
X803667Y1342857*
X831391*
X834003Y1340244*
X871504*
X875436Y1336313*
X945692*
X958461Y1323544*
X1030646*
X1033512Y1320678*
X846800Y697600D02*
Y704490D01*
X846544Y704746*
Y705540*
X847500Y600094D02*
X848871D01*
X854976Y606199*
Y607796*
X857068Y609888*
X847500Y601636D02*
X848233D01*
X853435Y606837*
Y608435*
X855978Y610978*
X847600Y1045200D02*
X853560Y1051160D01*
Y1052239*
X867321Y1066000*
X890279*
X909662Y1085383*
X848460Y705540D02*
Y706912D01*
X848647Y707098*
Y722377*
X839296Y731728*
X782493*
X762960Y751261*
Y937539*
X779424Y954003*
X794193*
X812657Y972467*
Y1027133*
X799003Y1040786*
Y1335482*
X804461Y1340940*
X830597*
X833210Y1338328*
X870710*
X874642Y1334396*
X944898*
X957667Y1321627*
X1029852*
X1032157Y1319322*
X849388Y622076D02*
X848989Y622049D01*
X845000Y624000*
X849388Y622076D02*
X849444Y622132D01*
X850668Y623356*
Y643858*
X874716Y667905*
X935650*
X940253Y672508*
X1168287*
X1255877Y760098*
Y792586*
X1300875Y837584*
X1330529*
X1371253Y878308*
X1408587*
X1425339Y895061*
Y907405*
X1420842Y911903*
Y960103*
X1403692Y977253*
Y1014628*
X1400400Y1017920*
Y1047779*
X1375440Y1072739*
Y1145449*
X1374243Y1146645*
Y1229833*
X1377967Y1233557*
X1383233*
X1387041Y1229749*
Y1227809*
X1387593Y1227256*
X1388256*
X849792Y373808D02*
X841576D01*
X837377Y378007*
X814448*
X810922Y374481*
X849792Y375349D02*
X842214D01*
X838015Y379548*
X813810*
X809832Y375571*
X850799Y618962D02*
X849598Y618883D01*
X849199Y618856*
X845500Y616400*
X850799Y618962D02*
Y620777D01*
X852585Y622562*
Y643064*
X875509Y665989*
X936444*
X941047Y670592*
X1169081*
X1257793Y759304*
Y791792*
X1301669Y835668*
X1331323*
X1372047Y876392*
X1409381*
X1427256Y894267*
Y908199*
X1422758Y912697*
Y960897*
X1405608Y978047*
Y1015422*
X1402317Y1018714*
Y1048573*
X1377357Y1073533*
Y1146243*
X1376160Y1147439*
Y1229039*
X1378761Y1231640*
X1382439*
X1385124Y1228955*
Y1227015*
X1386800Y1225340*
X1388256*
X851600Y702400D02*
X848460Y705540D01*
X855300Y368300D02*
X849792Y373808D01*
X855700Y865700D02*
X860140D01*
X862548Y868108*
X862890*
X855800Y872300D02*
X860240D01*
X862890Y869650*
X855960Y684916D02*
X851405Y680360D01*
X815971*
X750310Y746021*
Y946632*
X764673Y960994*
Y1010480*
X762560Y1012593*
Y1357139*
X781577Y1376157*
X815077*
X824346Y1366887*
X840339*
X849708Y1376257*
X948757*
X971022Y1353992*
X1081787*
X1099340Y1336439*
Y1330068*
X1094142Y1324870*
Y1320721*
X855978Y610978D02*
Y611660D01*
X856800Y612482*
Y616100*
X857068Y609888D02*
X857299Y610118D01*
X857439*
X858342Y611021*
Y611363*
X861240Y614261*
Y617939*
X860000Y619179*
Y625300*
X857229Y810429D02*
X852800Y806000D01*
X857229Y811971D02*
X852800Y816400D01*
X857316Y683560D02*
X852199Y678443D01*
X815178*
X748394Y745227*
Y947425*
X762757Y961788*
Y1009686*
X760643Y1011799*
Y1357933*
X780784Y1378073*
X815871*
X825140Y1368803*
X839545*
X848914Y1378173*
X949551*
X971816Y1355908*
X1082581*
X1101257Y1337233*
Y1329274*
X1096058Y1324076*
Y1320721*
X858000Y1081600D02*
X881560Y1105160D01*
Y1148160*
X911708Y1178308*
Y1189940*
X935528Y1213760*
X939050*
X952660Y1227370*
Y1227392*
X956608Y1231340*
X972025*
X986160Y1245475*
Y1265439*
X988761Y1268040*
X997639*
X1002500Y1263179*
X858397Y351003D02*
X760663D01*
X743618Y368048*
Y391967*
X765567Y413916*
X781678*
X787040Y419279*
Y436807*
X777847Y446000*
Y454389*
X858397Y352545D02*
X761302D01*
X745160Y368686*
Y391329*
X766206Y412375*
X782316*
X788582Y418640*
Y437446*
X779389Y446639*
Y454389*
X859100Y691500D02*
X855960Y688360D01*
Y684916*
X860200Y1093500D02*
X874250Y1107550D01*
X862100Y368600D02*
X857300Y373400D01*
Y373568*
X855519Y375349*
X849792*
X862890Y868108D02*
X871952D01*
X875957Y872113*
Y880436*
X877919Y882398*
X889658*
X939367Y932107*
Y1039246*
X968730Y1068609*
X978236*
X998524Y1088898*
Y1104313*
X999803Y1105591*
X1002500*
X862890Y869650D02*
X871313D01*
X874415Y872752*
Y881074*
X877280Y883940*
X889019*
X937825Y932746*
Y1039884*
X968091Y1070151*
X977597*
X996982Y1089536*
Y1104951*
X999164Y1107133*
X1002500*
X863900Y686700D02*
X860760Y683560D01*
X857316*
X865000Y344400D02*
X858397Y351003D01*
X866173Y601173D02*
X862500Y597500D01*
X867528Y599817D02*
Y592528D01*
X862500Y587500*
X873600Y343200D02*
X864255Y352545D01*
X858397*
X874250Y1107550D02*
Y1111000D01*
X873684Y1111566*
X872935*
X872369Y1112131*
Y1113300*
X872935Y1113866*
X875565*
X876131Y1114431*
Y1115600*
X875565Y1116166*
X872935*
X872369Y1116731*
Y1117900*
X872935Y1118466*
X875565*
X876131Y1119031*
Y1120200*
X875565Y1120766*
X872935*
X872369Y1121331*
Y1122500*
X872935Y1123066*
X875565*
X876131Y1123631*
Y1124800*
X875565Y1125366*
X872935*
X872369Y1125931*
Y1127100*
X872935Y1127666*
X875565*
X876131Y1128231*
Y1129400*
X875565Y1129966*
X872935*
X872369Y1130531*
Y1131700*
X872935Y1132266*
X875565*
X876131Y1132831*
Y1134000*
X875565Y1134566*
X872935*
X872369Y1135131*
Y1136300*
X872935Y1136866*
X875565*
X876131Y1137431*
Y1138600*
X875565Y1139166*
X872935*
X872369Y1139731*
Y1140900*
X872935Y1141466*
X875565*
X876131Y1142031*
Y1143200*
X875565Y1143766*
X872935*
X872369Y1144331*
Y1145500*
X872935Y1146066*
X875565*
X876131Y1146631*
Y1147800*
X875565Y1148366*
X874816*
X874250Y1148931*
Y1153071*
X882500Y587500D02*
X888061Y593061D01*
X904284*
X905891Y594668*
X906554*
X906575Y594648*
X907369*
X882500Y597500D02*
X886900Y601900D01*
X904323*
X906900Y599323*
Y597033*
X907369Y596564*
X883374Y623282D02*
X885343Y625252D01*
X883374Y623282D02*
X882993Y621157D01*
X878600Y618100*
X885343Y625252D02*
X892290Y632198D01*
Y632595*
X896027Y636332*
Y651385*
X904676Y660034*
X986665*
X989570Y657129*
X1164149*
X1262660Y755640*
Y787806*
X1306571Y831717*
X1337721*
X1369264Y863260*
X1401989*
X1434440Y895711*
Y990755*
X1406044Y1019150*
Y1048587*
X1381243Y1073388*
Y1145608*
X1379443Y1147408*
Y1194960*
X1385196Y1200713*
Y1219244*
X886698Y623694D02*
X886143Y620593D01*
X889200Y616200*
X886698Y623694D02*
Y623896D01*
X894206Y631404*
Y631801*
X897943Y635538*
Y650591*
X905470Y658117*
X985872*
X988777Y655212*
X1164943*
X1264577Y754846*
Y787012*
X1307365Y829801*
X1338515*
X1370058Y861343*
X1402783*
X1436357Y894917*
Y991548*
X1407961Y1019944*
Y1049381*
X1383160Y1074182*
Y1146402*
X1381360Y1148202*
Y1194166*
X1387113Y1199919*
Y1219244*
X889200Y1060800D02*
X893640D01*
X894109Y1061269*
Y1061929*
X898510Y1066330*
X907335Y1075155*
X911771*
X920008Y1083392*
Y1123342*
X926374Y1129708*
Y1150633*
X950183Y1174442*
X954221*
X962321Y1182542*
Y1184380*
X973295Y1195355*
X1002500*
X899600Y1060800D02*
Y1065240D01*
X907973Y1073613*
X912410*
X921549Y1082753*
Y1122703*
X927915Y1129069*
Y1149994*
X950821Y1172900*
X954860*
X963862Y1181903*
Y1183742*
X973934Y1193813*
X1002500*
X900490Y799411D02*
X903417Y802338D01*
Y803138*
X902484Y804072*
Y804872*
X903310Y805698*
X904110*
X906278Y803531*
X907078*
X907904Y804357*
Y805157*
X905736Y807325*
Y808125*
X906563Y808951*
X907363*
X909531Y806783*
X910331*
X911157Y807610*
Y808410*
X908989Y810577*
Y811377*
X909815Y812204*
X910615*
X912783Y810036*
X913583*
X914410Y810862*
Y811662*
X912242Y813830*
Y814630*
X913068Y815456*
X913868*
X916036Y813289*
X916836*
X917662Y814115*
Y814915*
X915494Y817083*
Y817883*
X916321Y818709*
X917121*
X919289Y816541*
X920089*
X920915Y817368*
Y818168*
X918747Y820335*
Y821135*
X919573Y821962*
X920373*
X922541Y819794*
X923341*
X924168Y820620*
Y821420*
X922000Y823588*
Y824388*
X922826Y825214*
X923626*
X925794Y823047*
X926594*
X927420Y823873*
Y824673*
X925253Y826841*
Y827641*
X926079Y828467*
X926879*
X929047Y826299*
X929847*
X930673Y827126*
Y827926*
X928505Y830093*
Y830893*
X929332Y831720*
X930132*
X932299Y829552*
X933099*
X933926Y830378*
Y831178*
X931758Y833346*
Y834146*
X932584Y834972*
X933384*
X935552Y832805*
X936352*
X937178Y833631*
Y834431*
X935011Y836599*
Y837399*
X935837Y838225*
X936637*
X938805Y836057*
X939605*
X940431Y836884*
Y837684*
X938263Y839851*
Y840651*
X939090Y841478*
X939890*
X942057Y839310*
X942857*
X943684Y840136*
Y840936*
X941516Y843104*
Y843904*
X942342Y844730*
X943142*
X945310Y842563*
X946110*
X946936Y843389*
Y844189*
X944769Y846357*
Y847157*
X945595Y847983*
X946395*
X948563Y845815*
X949363*
X950189Y846642*
Y847442*
X948021Y849610*
Y850410*
X948848Y851236*
X949648*
X951815Y849068*
X952615*
X953442Y849894*
Y850694*
X951274Y852862*
Y853662*
X952100Y854489*
X952900*
X953834Y853555*
X954634*
X957561Y856482*
X903179Y1033100D02*
X900679Y1030600D01*
X891800*
X903179Y1033100D02*
X903862Y1033783D01*
Y1034583*
X900049Y1038395*
Y1039195*
X900876Y1040021*
X901676*
X905883Y1035814*
X906683*
X907509Y1036641*
Y1037441*
X903302Y1041648*
Y1042448*
X904128Y1043274*
X904928*
X909135Y1039067*
X909935*
X910762Y1039893*
Y1040693*
X906555Y1044900*
Y1045700*
X907381Y1046527*
X908181*
X912388Y1042320*
X913188*
X914014Y1043146*
Y1043946*
X909807Y1048153*
Y1048953*
X910634Y1049779*
X911434*
X915641Y1045572*
X916441*
X917267Y1046399*
Y1047199*
X913060Y1051406*
Y1052206*
X913886Y1053032*
X914686*
X918893Y1048825*
X919693*
X920520Y1049651*
Y1050451*
X916313Y1054658*
Y1055458*
X917139Y1056285*
X917939*
X922146Y1052078*
X922946*
X923772Y1052904*
Y1053704*
X919565Y1057911*
Y1058711*
X920392Y1059537*
X921192*
X925804Y1054925*
X926604*
X927430Y1055751*
Y1056551*
Y1057351*
X927871Y1057792*
X907369Y594648D02*
X920069D01*
X960812Y635390*
X1163321*
X1276012Y748081*
Y782891*
X1310275Y817154*
X1349194*
X1382383Y850343*
X1417111*
X1431897Y865129*
Y866776*
X1440154Y875033*
X1442523*
X1454857Y887367*
Y965449*
X1450764Y969542*
Y992076*
X1418947Y1023894*
Y1095636*
X1415283Y1099299*
Y1111271*
X1417550Y1113537*
Y1133187*
X1420757Y1136394*
Y1215454*
X1411556Y1224655*
X907369Y596564D02*
X919275D01*
X960018Y637307*
X1162527*
X1274095Y748875*
Y783685*
X1309481Y819071*
X1348400*
X1381589Y852260*
X1416317*
X1429980Y865923*
Y867570*
X1439360Y876950*
X1441729*
X1452940Y888161*
Y964655*
X1448848Y968748*
Y991282*
X1417030Y1023100*
Y1094842*
X1413367Y1098505*
Y1112065*
X1415633Y1114331*
Y1133981*
X1418840Y1137188*
Y1214661*
X1410201Y1223300*
X909662Y1085383D02*
Y1089539D01*
X909096Y1090105*
X907838*
X907273Y1090670*
Y1091839*
X907838Y1092405*
X909994*
X910560Y1092970*
Y1094139*
X909994Y1094705*
X907838*
X907273Y1095270*
Y1096439*
X907838Y1097005*
X909994*
X910560Y1097570*
Y1098739*
X909994Y1099305*
X907838*
X907273Y1099870*
Y1101039*
X907838Y1101605*
X909994*
X910560Y1102170*
Y1103339*
X909994Y1103905*
X907838*
X907273Y1104470*
Y1105639*
X907838Y1106205*
X909994*
X910560Y1106770*
Y1107939*
X909994Y1108505*
X907838*
X907273Y1109070*
Y1110239*
X907838Y1110805*
X909994*
X910560Y1111370*
Y1112539*
X909994Y1113105*
X907838*
X907273Y1113670*
Y1114839*
X907838Y1115405*
X909994*
X910560Y1115970*
Y1117139*
X909994Y1117705*
X907838*
X907273Y1118270*
Y1119439*
X907838Y1120005*
X909994*
X910560Y1120570*
Y1121739*
X909994Y1122305*
X907838*
X907273Y1122870*
Y1124039*
X907838Y1124605*
X909096*
X909662Y1125170*
Y1125762*
X913210Y1129310*
X916460Y1132560*
Y1149239*
X956671Y1189450*
X962022*
X971932Y1199360*
X1002500*
X914729Y1175600D02*
Y1165032D01*
X893468Y1143772*
Y1136611*
X893640Y1136439*
Y1104840*
X888300Y1099500*
X914729Y1175600D02*
Y1179740D01*
X915294Y1180306*
X922163*
X922729Y1180871*
Y1182040*
X922163Y1182606*
X915294*
X914729Y1183171*
Y1187311*
X933400Y1227400D02*
X952160Y1246160D01*
X953439*
X962000Y1254721*
Y1263600*
X934400Y1190900D02*
X968100Y1224600D01*
X1002500*
X938600Y1081600D02*
X949868D01*
X1002500Y1134232*
X946626Y1068826D02*
X945450Y1067650D01*
X943071*
X919861Y1044440*
X918561*
X899021Y1024900*
X875600*
X860200Y1009500*
X946626Y1068826D02*
X949553Y1071753D01*
X950353*
X952973Y1069133*
X953773*
X954599Y1069960*
Y1070760*
X950466Y1074893*
Y1075693*
X951293Y1076519*
X952093*
X956226Y1072386*
X957026*
X957852Y1073212*
Y1074012*
X953719Y1078145*
Y1078945*
X954545Y1079772*
X955345*
X959478Y1075639*
X960278*
X961105Y1076465*
Y1077265*
X956972Y1081398*
Y1082198*
X957798Y1083024*
X958598*
X962731Y1078891*
X963531*
X964357Y1079718*
Y1080518*
X960224Y1084651*
Y1085451*
X961051Y1086277*
X961851*
X965984Y1082144*
X966784*
X967610Y1082970*
Y1083770*
X964990Y1086390*
Y1087190*
X967918Y1090118*
X951600Y1167400D02*
X958650Y1160350D01*
X978517*
X957561Y856482D02*
X970000Y868921D01*
Y894779*
X1015060Y939839*
Y1037139*
X1017921Y1040000*
X962883Y1297950D02*
X966333D01*
X966899Y1297384*
Y1293910*
X967465Y1293344*
X968633*
X969199Y1293910*
Y1300784*
X969765Y1301350*
X970933*
X971499Y1300784*
Y1298516*
X972065Y1297950*
X976205*
X967918Y1090118D02*
X977600Y1099800D01*
X969518Y1303650D02*
X972968D01*
X973534Y1304216*
Y1307547*
X974100Y1308112*
X975268*
X975834Y1307547*
Y1300816*
X976400Y1300250*
X977568*
X978134Y1300816*
Y1307547*
X978700Y1308112*
X979868*
X980434Y1307547*
Y1300816*
X981000Y1300250*
X982168*
X982734Y1300816*
Y1307547*
X983300Y1308112*
X984468*
X985034Y1307547*
Y1300816*
X985600Y1300250*
X986768*
X987334Y1300816*
Y1307547*
X987900Y1308112*
X989068*
X989634Y1307547*
Y1300816*
X990200Y1300250*
X991368*
X991934Y1300816*
Y1307547*
X992500Y1308112*
X993668*
X994234Y1307547*
Y1300816*
X994800Y1300250*
X995968*
X996534Y1300816*
Y1307547*
X997100Y1308112*
X998268*
X998834Y1307547*
Y1300816*
X999400Y1300250*
X1000568*
X1001134Y1300816*
Y1307547*
X1001700Y1308112*
X1002500*
X976205Y1297950D02*
X1002500D01*
X978517Y1160350D02*
X982657D01*
X983223Y1160916*
Y1161789*
X983789Y1162355*
X984957*
X985523Y1161789*
Y1160916*
X986089Y1160350*
X990229*
X981150Y844071D02*
Y848418D01*
X982060Y849328*
X1002092Y869360*
X1004077*
X1047708Y912991*
Y1040000*
X982240Y842981D02*
X983150Y843891D01*
Y848238*
X1002731Y867818*
X1004716*
X1049249Y912352*
Y1040000*
X990229Y1160350D02*
X1002500D01*
X990600Y1263600D02*
Y1246663D01*
X972977Y1229040*
X957561*
X954960Y1226439*
Y1226417*
X940003Y1211460*
X936481*
X914729Y1189708*
Y1187311*
X1001955Y1078836D02*
X987329Y1064211D01*
Y1028069*
X960179Y1000919*
Y930219*
X910061Y880101*
Y844982*
X877050Y811971*
X857229*
X1002500Y1105591D02*
X1009829D01*
X1016238Y1112000*
X1002500Y1107133D02*
X1009191D01*
X1015148Y1113090*
X1002500Y1119840D02*
X1013178D01*
X1020988Y1127650*
X1024436*
X1024656Y1127430*
X1027020*
X1027940Y1128350*
X1002500Y1121382D02*
X1012540D01*
X1020350Y1129192*
X1025074*
X1025295Y1128972*
X1026381*
X1026850Y1129440*
X1002500Y1130979D02*
X948761Y1077240D01*
X941761*
X933708Y1069187*
Y1063629*
X927871Y1057792*
X1002500Y1134232D02*
X1011918Y1143650D01*
X1026850*
X1030500Y1140000*
X1002500Y1147360D02*
X992881D01*
X954200Y1108679*
Y1106521*
X898079Y1050400*
X858000*
X1002500Y1160350D02*
X1056012D01*
X1058500Y1162838*
Y1168000*
X1062500Y1172000*
X1002500Y1183760D02*
X999160D01*
X990600Y1175200*
X1002500Y1193813D02*
X1009823D01*
X1012815Y1190821*
X1018863*
X1002500Y1195355D02*
X1010462D01*
X1013453Y1192363*
X1018863*
X1002500Y1199360D02*
X1011210D01*
X1013490Y1201640*
X1018719*
X1020009Y1200350*
X1024012*
X1026500Y1202838*
Y1208000*
X1030500Y1212000*
X1002500Y1209529D02*
X1010281D01*
X1012581Y1207229*
X1019271*
X1002500Y1211071D02*
X1010919D01*
X1013219Y1208771*
X1019271*
X1002500Y1224600D02*
X1010950D01*
X1015500Y1229150*
X1017029*
X1019482Y1231603*
X1023524*
X1026206Y1228921*
Y1228644*
X1026850Y1228000*
X1030500*
X1002500Y1263179D02*
X1019098Y1246581D01*
X1019919*
X1022500Y1244000*
X1002500Y1266432D02*
X998592Y1270340D01*
X987808*
X983860Y1266392*
Y1246428*
X971072Y1233640*
X955655*
X950360Y1228345*
Y1228323*
X938097Y1216060*
X934575*
X909154Y1190639*
Y1180575*
X897779Y1169200*
X888921*
X874250Y1154529*
Y1153071*
X1002500Y1272640D02*
X986855D01*
X981560Y1267345*
Y1247381*
X970119Y1235940*
X954703*
X948060Y1229297*
Y1229275*
X937145Y1218360*
X933623*
X898023Y1182760*
X890481*
X869055Y1161334*
Y1121095*
X847300Y1099340*
X1002500Y1276000D02*
X986963D01*
X979260Y1268297*
Y1250828*
X974092Y1245660*
X961170*
X945760Y1230250*
Y1230228*
X936192Y1220660*
X932670*
X897070Y1185060*
X865292*
X862992Y1182760*
X859181*
X855200Y1178779*
Y1169800*
X848100Y1162700*
Y1123000*
X1002500Y1279650D02*
X1026850D01*
X1030500Y1276000*
X1002500Y1284000D02*
X1022500D01*
X1002500Y1295650D02*
X1024012D01*
X1026150Y1293512*
Y1292700*
X1026850Y1292000*
X1030500*
X1002500Y1297950D02*
X1024965D01*
X1026915Y1296000*
X1034500*
X1038500Y1292000*
X1002500Y1308112D02*
X1002868D01*
X1003434Y1307547*
Y1300816*
X1004000Y1300250*
X1005168*
X1005734Y1300816*
Y1307547*
X1006300Y1308112*
X1007468*
X1008034Y1307547*
Y1300816*
X1008600Y1300250*
X1009768*
X1010334Y1300816*
Y1307547*
X1010900Y1308112*
X1012068*
X1012634Y1307547*
Y1300816*
X1013200Y1300250*
X1014368*
X1014934Y1300816*
Y1307547*
X1015500Y1308112*
X1016668*
X1017234Y1307547*
Y1300816*
X1017800Y1300250*
X1018968*
X1019534Y1300816*
Y1307547*
X1020100Y1308112*
X1021268*
X1021834Y1307547*
Y1300816*
X1022400Y1300250*
X1023568*
X1024134Y1300816*
Y1303084*
X1024700Y1303650*
X1028840*
X1003045Y1077746D02*
X988871Y1063572D01*
Y1027431*
X961721Y1000281*
Y929581*
X911602Y879462*
Y844343*
X877689Y810429*
X857229*
X1007040Y1040000D02*
Y1046715D01*
X1026500Y1066175*
Y1068455*
X1030045Y1072000*
X1030955*
X1034500Y1075545*
Y1076455*
X1038045Y1080000*
X1038955*
X1042500Y1083545*
Y1084455*
X1045195Y1087150*
X1047805*
X1050500Y1084455*
Y1080000*
X1054500Y1076000*
X1008800Y1175200D02*
X1015060Y1181460D01*
X1044415*
X1049650Y1186695*
Y1216850*
X1046500Y1220000*
X1012760Y1040000D02*
Y1046715D01*
X1030045Y1064000*
X1030955*
X1034500Y1067545*
Y1068455*
X1038045Y1072000*
X1038955*
X1042500Y1075545*
Y1076455*
X1045195Y1079150*
X1047805*
X1050500Y1076455*
Y1075545*
X1053195Y1072850*
X1055805*
X1058500Y1075545*
Y1076455*
X1062045Y1080000*
X1062955*
X1065650Y1082695*
Y1088850*
X1062500Y1092000*
X1015148Y1113090D02*
X1015600Y1113542D01*
X1015721*
X1018850Y1116671*
Y1117512*
X1020988Y1119650*
X1048012*
X1050150Y1117512*
Y1111650*
X1046500Y1108000*
X1016238Y1112000D02*
X1042500D01*
X1046500Y1116000*
X1017921Y1040000D02*
X1034500Y1056579D01*
Y1061162*
X1037338Y1064000*
X1039662*
X1042500Y1066838*
Y1069162*
X1044988Y1071650*
X1045800*
X1046500Y1072350*
Y1076000*
X1018863Y1190821D02*
X1020159D01*
X1021338Y1192000*
X1026500*
X1030500Y1196000*
X1018863Y1192363D02*
X1022500Y1196000D01*
X1019271Y1207229D02*
X1022500Y1204000D01*
X1019271Y1208771D02*
X1022500Y1212000D01*
X1019350Y1097711D02*
X1018300Y1096660D01*
Y1095181*
X1001955Y1078836*
X1020440Y1096621D02*
X1019841Y1096022D01*
Y1094543*
X1003045Y1077746*
X1022500Y1140000D02*
X1016479D01*
X1015839Y1140640*
X1012161*
X1002500Y1130979*
X1022500Y1148000D02*
X1013879D01*
X1013239Y1147360*
X1002500*
X1022500Y1260000D02*
X1019250Y1263250D01*
X1005682*
X1002500Y1266432*
X1022500Y1268000D02*
X1017860Y1272640D01*
X1002500*
X1022500Y1276000D02*
X1002500D01*
X1023421Y1040000D02*
X1020560Y1037139D01*
Y1024740*
X1024340Y1020960*
Y911661*
X946229Y833550*
X940350*
X888300Y781500*
X1026850Y1129440D02*
Y1133512D01*
X1029338Y1136000*
X1050500*
X1054500Y1140000*
X1027940Y1128350D02*
X1056012D01*
X1058150Y1130488*
Y1135650*
X1062500Y1140000*
X1032157Y1319322D02*
X1033396Y1318083D01*
X1034800Y1316679*
X1033512Y1320678D02*
X1034190Y1320000D01*
X1034751Y1319439*
X1036155Y1318034*
X1034800Y1316679D02*
Y1310391D01*
X1042500Y1302691*
Y1282838*
X1045338Y1280000*
X1047662*
X1050500Y1277162*
Y1274838*
X1052988Y1272350*
X1088012*
X1090500Y1274838*
Y1277162*
X1093338Y1280000*
X1098500*
X1102500Y1284000*
X1036155Y1318034D02*
X1036750Y1317440D01*
X1041839*
X1050500Y1308779*
Y1282838*
X1052988Y1280350*
X1090850*
X1094500Y1284000*
X1038500Y1100000D02*
X1035350Y1103150D01*
X1021195*
X1019350Y1101305*
Y1097711*
X1038500Y1220000D02*
X1042150Y1216350D01*
Y1186488*
X1039422Y1183760*
X1002500*
X1038500Y1236000D02*
X1034500Y1232000D01*
Y1226838*
X1032012Y1224350*
X1028988*
X1028199Y1225140*
X1024471*
X1024283Y1225328*
X1023805Y1224850*
X1021022*
X1019786Y1226086*
X1017000Y1223300*
X1038500Y1300000D02*
X1034850Y1303650D01*
X1028840*
X1046500Y1100000D02*
X1043350Y1096850D01*
X1020670*
X1020440Y1096621*
X1046500Y1236000D02*
X1042500Y1240000D01*
X1022000*
X1018850Y1243150*
X1016250*
X1008800Y1250600*
X1046500Y1244000D02*
X1042500Y1248000D01*
Y1253162*
X1040012Y1255650*
X1020988*
X1020599Y1255260*
X1017140*
X1014000Y1258400*
X1047708Y1040000D02*
Y1042568D01*
X1057297Y1052158*
Y1057635*
X1049249Y1040000D02*
Y1041930D01*
X1058839Y1051519*
Y1057635*
X1050460Y1337685D02*
Y1332761D01*
X1058221Y1325000*
X1061779*
X1066779Y1320000*
X1051815Y1339040D02*
X1056739D01*
X1060460Y1335319*
Y1332761*
X1073221Y1320000*
X1052957Y1319322D02*
X1045387Y1326892D01*
X962857*
X933809Y1355940*
X838595*
X832046Y1349391*
X800482*
X793043Y1341953*
Y974554*
X758743Y940254*
Y749514*
X791201Y717056*
X802399*
X813416Y706040*
X1053634Y1318645D02*
X1052957Y1319322D01*
X1054312Y1320678D02*
X1046181Y1328808D01*
X963651*
X934603Y1357857*
X837801*
X831252Y1351307*
X799688*
X791127Y1342746*
Y975348*
X756827Y941048*
Y748720*
X790408Y715140*
X801605*
X812060Y704684*
X1054990Y1320000D02*
X1054312Y1320678D01*
X1057297Y1057635D02*
X1054716Y1060216D01*
X1054500Y1060000*
X1058839Y1057635D02*
Y1061501D01*
X1060988Y1063650*
X1061800*
X1062500Y1064350*
Y1068000*
X1062200Y995000D02*
Y1040000D01*
Y1040321*
X1066500Y1044621*
Y1069162*
X1069338Y1072000*
X1071662*
X1074150Y1074488*
Y1085512*
X1071662Y1088000*
X1069338*
X1066500Y1090838*
Y1104000*
X1062500Y1108000*
Y1084000D02*
X1058500Y1088000D01*
X1054045*
X1050500Y1091545*
Y1092455*
X1047805Y1095150*
X1045195*
X1042500Y1092455*
Y1091545*
X1038955Y1088000*
X1038045*
X1034500Y1084455*
Y1083545*
X1030955Y1080000*
X1030045*
X1012145Y1062100*
Y1054365*
X1004740Y1046960*
Y1040000*
X1062500Y1220000D02*
X1058850Y1223650D01*
X1036988*
X1034500Y1221162*
Y1218838*
X1032012Y1216350*
X1020059*
X1017759Y1218650*
X1015371*
X1014081Y1219940*
X1011940*
X1008800Y1216800*
X1066779Y1320000D02*
X1070100Y1316679D01*
Y1309841*
X1074500Y1305441*
Y1298138*
X1079569Y1293069*
X1078500Y1292000*
X1066850Y1294295D02*
X1056792Y1304353D01*
Y1315487*
X1053634Y1318645*
X1067000Y1007000D02*
Y1008450D01*
Y1012590*
X1067566Y1013156*
X1071934*
X1072500Y1013721*
Y1014890*
X1071934Y1015456*
X1065066*
X1064500Y1016021*
Y1017190*
X1065066Y1017756*
X1071934*
X1072500Y1018321*
Y1019490*
X1071934Y1020056*
X1065066*
X1064500Y1020621*
Y1021790*
X1065066Y1022356*
X1071934*
X1072500Y1022921*
Y1024090*
X1071934Y1024656*
X1065066*
X1064500Y1025221*
Y1026390*
X1065066Y1026956*
X1071934*
X1072500Y1027521*
Y1028690*
X1071934Y1029256*
X1065066*
X1064500Y1029821*
Y1030990*
X1065066Y1031556*
X1071934*
X1072500Y1032121*
Y1033290*
X1071934Y1033856*
X1067566*
X1067000Y1034421*
Y1038561*
Y1040000*
Y1040379*
X1074500Y1047879*
Y1069162*
X1082150Y1076812*
Y1085512*
X1079662Y1088000*
X1077338*
X1074500Y1090838*
Y1128000*
X1070500Y1132000*
X1068205Y1295650D02*
X1058708Y1305147D01*
Y1316281*
X1054990Y1320000*
X1070500Y1084000D02*
Y1080350D01*
X1069800Y1079650*
X1068988*
X1066500Y1077162*
Y1074838*
X1063662Y1072000*
X1061338*
X1058500Y1069162*
Y1066838*
X1055662Y1064000*
X1045338*
X1042500Y1061162*
Y1058838*
X1031707Y1048045*
X1031466*
X1023421Y1040000*
X1070500Y1284000D02*
X1066850Y1287650D01*
Y1294295*
X1073221Y1320000D02*
X1073381Y1319840D01*
X1076939*
X1079540Y1317239*
Y1304690*
X1078500Y1303650*
Y1300000*
Y1284000D02*
X1074500Y1288000D01*
Y1293162*
X1072012Y1295650*
X1068205*
X1091405Y1350645D02*
X1084607Y1357442D01*
Y1365872*
X1070006Y1380473*
X847962*
X838592Y1371103*
X826093*
X816823Y1380373*
X779831*
X758343Y1358886*
Y1010846*
X760357Y1008833*
Y993564*
X760457Y993464*
Y962741*
X746094Y948378*
Y727496*
X791008Y682581*
Y671713*
X803963Y658758*
X808831*
X823958Y643631*
Y629228*
X833857Y619330*
Y607867*
X829011Y603022*
X801136*
X799389Y601274*
Y600611*
X1092760Y1352000D02*
X1086524Y1358236D01*
Y1366666*
X1070800Y1382390*
X847168*
X837798Y1373020*
X826887*
X817617Y1382290*
X779037*
X756427Y1359680*
Y1010052*
X758440Y1008039*
Y992770*
X758540Y992670*
Y963535*
X744177Y949172*
Y726702*
X789092Y681787*
Y670919*
X803169Y656842*
X808037*
X822042Y642837*
Y628434*
X831940Y618536*
Y608661*
X828217Y604938*
X800343*
X797472Y602068*
Y600611*
X1093421Y1320000D02*
X1090660Y1317239D01*
Y1311281*
X1098500Y1303441*
Y1296000*
X1102500Y1292000*
X1094142Y1320721D02*
X1093421Y1320000D01*
X1096058Y1320721D02*
X1096779Y1320000D01*
X1100760Y1316019*
Y1305390*
X1102500Y1303650*
Y1300000*
X1097200Y1352000D02*
X1092760D01*
X1107600Y1346800D02*
X1095250D01*
X1091405Y1350645*
X1112205D02*
X1077619Y1385230D01*
X906039*
X896289Y1394980*
X784838*
X751560Y1361702*
Y1140712*
X739160Y1128312*
Y995835*
X741622Y993373*
Y709931*
X809862Y641691*
Y631628*
X822557Y618933*
Y613667*
X818755Y609865*
X797576*
X787528Y599817*
X1113560Y1352000D02*
X1078413Y1387147D01*
X906832*
X897083Y1396897*
X784044*
X749643Y1362496*
Y1141505*
X737243Y1129105*
Y995041*
X739705Y992579*
Y709137*
X807945Y640897*
Y630834*
X820640Y618139*
Y614461*
X817961Y611782*
X796782*
X786173Y601173*
X1118000Y1352000D02*
X1113560D01*
X1118500Y1284000D02*
X1122150Y1280350D01*
X1136012*
X1138150Y1282488*
Y1286295*
X1120600Y1344200D02*
X1117460Y1347340D01*
X1115510*
X1112205Y1350645*
X1125145Y1307736D02*
X1122850Y1305441D01*
Y1295650*
X1126500Y1292000*
Y1284000D02*
X1130150Y1287650D01*
X1136795*
X1126500Y1306381D02*
Y1300000D01*
X1126940Y1320000D02*
Y1309531D01*
X1125145Y1307736*
X1128857Y1320000D02*
Y1308738D01*
X1126500Y1306381*
X1136795Y1287650D02*
X1139640Y1290495D01*
Y1320000*
X1138150Y1286295D02*
X1141557Y1289701D01*
Y1320000*
X1139640D02*
Y1326105D01*
X1134607Y1331138*
Y1347635*
X1106939Y1375303*
X1102408*
X1081313Y1396398*
X908613*
X901597Y1403413*
X759082*
X738009Y1382340*
Y1151589*
X705958Y1119538*
Y965850*
X690660Y950551*
Y741895*
X753818Y678737*
Y651613*
X765484Y639947*
X774759*
X789763Y624943*
Y623487*
X1141557Y1320000D02*
Y1326899D01*
X1136524Y1331932*
Y1348429*
X1107733Y1377219*
X1103202*
X1082107Y1398314*
X909407*
X902391Y1405330*
X758288*
X736093Y1383134*
Y1152383*
X704042Y1120332*
Y966644*
X688743Y951345*
Y741101*
X751902Y677943*
Y650820*
X764691Y638031*
X773965*
X787847Y624149*
Y623487*
X1216757Y1319322D02*
X1148637Y1387442D01*
X1141169*
X1102970Y1425640*
X758375*
X714309Y1381574*
Y1301020*
X698433Y1285143*
X683351*
X678555Y1289940*
X647495*
X639897Y1282342*
X366646*
X327848Y1243543*
X244417*
X241308Y1246652*
X1218002Y1302581D02*
Y1318077D01*
X1216757Y1319322*
X1218112Y1320678D02*
X1149431Y1389358D01*
X1141963*
X1103764Y1427557*
X757581*
X712393Y1382368*
Y1301813*
X697639Y1287060*
X684145*
X679349Y1291857*
X646701*
X639103Y1284258*
X365852*
X327054Y1245460*
X245210*
X242663Y1248007*
X1219919Y1302581D02*
Y1318871D01*
X1218112Y1320678*
X1222500Y1268000D02*
X1226500Y1272000D01*
Y1276950*
X1229550Y1280000*
X1231450*
X1234500Y1283050*
Y1284950*
X1237550Y1288000*
X1239450*
X1242500Y1291050*
Y1300950*
X1243100Y1301550*
Y1302257*
X1242013Y1303344*
Y1309613*
X1245400Y1313000*
X1222500Y1276000D02*
Y1280000D01*
X1223000*
X1223500Y1280500*
X1223950*
X1226500Y1283050*
Y1284950*
X1229550Y1288000*
X1231450*
X1234500Y1291050*
Y1307710*
X1235000Y1308210*
Y1313000*
X1222500Y1292000D02*
X1218002Y1296498D01*
Y1302581*
X1222500Y1300000D02*
X1219919Y1302581D01*
X1224557Y1319322D02*
X1114023Y1429857D01*
X756628*
X706125Y1379353*
Y1316835*
X697831Y1308542*
X684747*
X679349Y1303143*
X648301*
X639205Y1312240*
X610295*
X593447Y1295392*
X367966*
X340316Y1267742*
X237063*
X226960Y1257639*
Y1253961*
X245107Y1235814*
X258292*
X1225912Y1320678D02*
X1114816Y1431773D01*
X755834*
X704208Y1380147*
Y1317629*
X697037Y1310458*
X683953*
X678555Y1305060*
X649095*
X639999Y1314157*
X609501*
X592653Y1297308*
X367172*
X339522Y1269658*
X236269*
X225043Y1258433*
Y1253167*
X244313Y1233897*
X258292*
X1226002Y1302581D02*
Y1317877D01*
X1224557Y1319322*
X1227919Y1302581D02*
Y1318671D01*
X1225912Y1320678*
X1230500Y1292000D02*
X1226002Y1296498D01*
Y1302581*
X1230500Y1300000D02*
X1227919Y1302581D01*
X1262616Y677434D02*
Y708277D01*
X1336500Y782161*
Y790748*
X1263440Y1239650D02*
X1258150D01*
X1254500Y1236000*
X1264158Y676796D02*
Y707639D01*
X1338042Y781522*
Y790109*
X1264795Y1238295D02*
X1262500Y1236000D01*
X1266200Y1305200D02*
X1262813Y1301813D01*
X1261263*
X1255450Y1296000*
X1253550*
X1250500Y1292950*
Y1290343*
X1248157Y1288000*
X1245550*
X1242500Y1284950*
Y1283050*
X1239450Y1280000*
X1237550*
X1235000Y1277450*
Y1277000*
X1234500Y1276500*
Y1276000*
X1230500*
X1268376Y1319322D02*
X1270140Y1317558D01*
Y1298795*
X1266804Y1295459*
Y1243014*
X1263440Y1239650*
X1269731Y1320678D02*
X1272057Y1318352D01*
Y1298001*
X1268720Y1294665*
Y1242220*
X1264795Y1238295*
X1271400Y1422440D02*
Y1418000D01*
X1272490Y1423530D02*
X1272942Y1423079D01*
Y1423058*
X1278000Y1418000*
X1336500Y790748D02*
X1368056Y822304D01*
X1411244*
X1438956Y850015*
X1446295*
X1478101Y881822*
Y928614*
X1474500Y932215*
Y950287*
X1467798Y956989*
Y989782*
X1439160Y1018420*
Y1031981*
X1429541Y1041600*
Y1062800*
X1431818Y1065078*
X1338042Y790109D02*
X1368694Y820762D01*
X1411883*
X1439595Y848474*
X1446933*
X1479643Y881183*
Y929253*
X1476042Y932854*
Y950926*
X1469340Y957627*
Y990421*
X1440702Y1019059*
Y1032619*
X1431083Y1042238*
Y1062162*
X1432908Y1063988*
X1385196Y1219244D02*
X1385040Y1219400D01*
X1380600*
X1387113Y1219244D02*
Y1220687D01*
X1380600Y1227200*
X1388256Y1225340D02*
X1389460D01*
X1392600Y1222200*
X1388256Y1227256D02*
X1392100Y1231100D01*
X1393203Y1016203D02*
X1388400Y1011400D01*
X1394745Y1016203D02*
Y1014155D01*
X1398100Y1010800*
X1410201Y1223300D02*
X1406100D01*
X1411556Y1224655D02*
X1408300Y1227911D01*
Y1229700*
X1415400Y1227400D02*
Y1231840D01*
X1417430Y1233870*
Y1234532*
X1416961Y1235001*
X1407322*
X1400308Y1227987*
Y1186353*
X1394360Y1180405*
Y1110630*
X1413317Y1091673*
Y1021455*
X1442781Y991990*
Y966561*
X1449357Y959986*
Y897136*
X1430908Y878687*
Y871919*
X1413758Y854769*
X1375162*
X1344275Y823882*
X1309047*
X1270263Y785097*
Y752186*
X1166976Y648899*
X982104*
X975114Y641908*
X926664*
X891064Y606309*
X874019*
X867528Y599817*
X1418785Y1235888D02*
X1417755Y1236918D01*
X1406528*
X1398392Y1228781*
Y1187147*
X1392443Y1181199*
Y1109836*
X1411400Y1090879*
Y1020661*
X1440865Y991196*
Y965767*
X1447440Y959192*
Y897930*
X1428992Y879481*
Y872713*
X1412964Y856685*
X1374368*
X1343481Y825798*
X1308253*
X1268346Y785891*
Y752980*
X1166182Y650816*
X981311*
X974320Y643825*
X925870*
X890270Y608225*
X873225*
X866173Y601173*
X1422100Y1227700D02*
Y1232140D01*
X1419346Y1234894*
Y1235326*
X1418785Y1235888*
X1431818Y1065078D02*
Y1160191D01*
Y1238894*
X1443664Y1250740*
Y1256218*
X1432908Y1063988D02*
X1434209Y1065288D01*
Y1159342*
X1433360Y1160191*
Y1238255*
X1445206Y1250101*
Y1256218*
X1443664D02*
Y1262264D01*
X1444574Y1263174*
X1457382Y1275982*
X1479861*
X1502460Y1298581*
Y1335777*
X1496637Y1341600*
X1493358*
X1445206Y1256218D02*
X1445664Y1256676D01*
Y1262084*
X1458020Y1274440*
X1480499*
X1504002Y1297942*
Y1336416*
X1497276Y1343142*
X1493358*
Y1341600D02*
X1487200D01*
X1493358Y1343142D02*
X1487600Y1348900D01*
X1494911Y1327871D02*
X1492140Y1325100D01*
X1487700*
X1494911Y1329412D02*
X1494228D01*
X1491940Y1331700*
X1487500*
X1528800Y1380600D02*
Y1376160D01*
X1531921Y1373039*
Y1372377*
X1531452Y1371908*
X1510182*
X1498608Y1383482*
X1484022*
X1474879Y1374339*
Y1321601*
X1470149Y1316871*
X1439511*
X1428779Y1306139*
Y1294000*
X1406450Y1271671*
X1382811*
X1361618Y1250478*
Y1216492*
X1366840Y1211270*
Y1197630*
X1358618Y1189408*
Y1143842*
X1370096Y1132364*
Y1060064*
X1393203Y1036956*
Y1016203*
X1533462Y1373039D02*
Y1371738D01*
X1532091Y1370366*
X1509544*
X1497970Y1381940*
X1484661*
X1476421Y1373700*
Y1320962*
X1470788Y1315329*
X1440150*
X1430321Y1305500*
Y1293361*
X1407089Y1270129*
X1383450*
X1363160Y1249839*
Y1217130*
X1368382Y1211908*
Y1196992*
X1360160Y1188770*
Y1144480*
X1371637Y1133003*
Y1060703*
X1394745Y1037595*
Y1016203*
X1536100Y1380800D02*
Y1376360D01*
X1533462Y1373722*
Y1373039*
X1657789Y875031D02*
Y875371D01*
X1656200Y876960*
Y881400*
X1659331Y875031D02*
X1664300Y880000D01*
X1682200Y839800D02*
X1687344Y834656D01*
Y829435*
X1701117Y815662*
Y657673*
X1809245Y549546*
Y477983*
X1823366Y463861*
X1831538*
X1689260Y834656D02*
Y830229D01*
X1703034Y816455*
Y658467*
X1811161Y550340*
Y478776*
X1824160Y465778*
X1831538*
X1692400Y840800D02*
X1689260Y837660D01*
Y834656*
X1708200Y839800D02*
X1714341Y833659D01*
Y660233D02*
X1816789Y557785D01*
Y512115*
X1826919Y501985*
X1714341Y833659D02*
Y660233D01*
X1716257Y661027D02*
X1818705Y558579D01*
Y512909*
X1828274Y503340*
X1716257Y833659D02*
Y661027D01*
Y833743D02*
Y833659D01*
X1719900Y840800D02*
X1716257Y837157D01*
Y833743*
X1740568Y836032D02*
X1736800Y839800D01*
X1742484Y836032D02*
Y840331D01*
X1742953Y840800*
X1747400*
X1765400Y839800D02*
X1769120Y836080D01*
Y828163*
X1760465Y819508*
Y786091*
X1759043Y784669*
Y644815*
X1829366Y574492*
X1834408*
X1770475Y826808D02*
X1762382Y818714D01*
Y785297*
X1760960Y783875*
Y645609*
X1830160Y576408*
X1834408*
X1774900Y840800D02*
X1771056D01*
Y827389*
X1770475Y826808*
X1789923Y844560D02*
Y843223D01*
X1785500Y838800*
X1791840Y844560D02*
X1796600Y839800D01*
X1826919Y501985D02*
X1830304Y498600D01*
X1836800*
X1828274Y503340D02*
X1829269D01*
X1831829Y505900*
X1836600*
X1828736Y534619D02*
X1827279D01*
X1825688Y536210*
Y538461*
X1825814Y538587*
Y563222*
X1740795Y648241*
Y759442*
X1737843Y762394*
Y809425*
X1740568Y812149*
Y836032*
X1828736Y536536D02*
X1828073D01*
X1827604Y537004*
Y537667*
X1827731Y537794*
Y564015*
X1742711Y649035*
Y760236*
X1739760Y763188*
Y808631*
X1742484Y811355*
Y836032*
X1831538Y463861D02*
X1833339D01*
X1837300Y459900*
X1831538Y465778D02*
X1832360Y466600D01*
X1837200*
X1834408Y574492D02*
X1837300Y571600D01*
X1834408Y576408D02*
X1837300Y579300D01*
X1835600Y429000D02*
X1840040D01*
X1841578Y427462*
X1844368*
X1835600Y543400D02*
X1828736Y536536D01*
X1835900Y422000D02*
X1840822D01*
X1844368Y425546*
X1837400Y532100D02*
X1832504D01*
X1829985Y534619*
X1828736*
X1844368Y425546D02*
X1845235D01*
X1846826Y427137*
Y630422*
X1808587Y668660*
Y810802*
X1806054Y813335*
Y839335*
X1797781Y847608*
X1791514*
X1789923Y846017*
Y844560*
X1844368Y427462D02*
X1844441D01*
X1844910Y427931*
Y629628*
X1806671Y667867*
Y810008*
X1804138Y812542*
Y838542*
X1796987Y845692*
X1792308*
X1791840Y845223*
Y844560*
X1881700Y377300D02*
Y381740D01*
X1883996Y384036*
Y384699*
X1883528Y385168*
X1881875*
X1859426Y362718*
X1834922*
X1802011Y395630*
Y533349*
X1689901Y645458*
Y807814*
X1656718Y840997*
Y871907*
X1657789Y872978*
Y875031*
X1885538Y384036D02*
Y385338D01*
X1884166Y386709*
X1881236*
X1858787Y364260*
X1835561*
X1803552Y396269*
Y533988*
X1691443Y646097*
Y808453*
X1658260Y841636*
Y871269*
X1659331Y872340*
Y875031*
X1888800Y377700D02*
X1885538Y380962D01*
Y384036*
X2204800Y1079000D02*
X2209293D01*
X2209762Y1078531*
Y1077750*
X2212352Y1075160*
X2217868*
X2256000Y1113292*
Y1259678*
X2272922Y1276600*
X2282800*
X2215200Y1081600D02*
X2214660Y1082140D01*
X2211762Y1079241*
Y1078578*
X2213180Y1077160*
X2217039*
X2254000Y1114121*
Y1260506*
X2273660Y1280167*
Y1282560*
X2276800Y1285700*
X2449200Y1391000D02*
X2455393D01*
X2455862Y1391469*
X2452202Y1414758D02*
X2444723D01*
X2438183Y1408218*
X2415122*
X2409581Y1413760*
X2312800*
X2307120Y1419440*
X2255930*
X2249969Y1413479*
X2214169*
X2211308Y1410618*
X2092042*
X2088220Y1414440*
X1790025*
X1768408Y1436057*
X1173956*
X1149563Y1460450*
X720576*
X671543Y1411417*
X338672*
X255488Y1328233*
X90954*
X60560Y1297839*
Y1205661*
X67950Y1198271*
X87689*
X96099Y1189860*
X105839*
X112301Y1196321*
Y1231561*
X111832Y1232029*
X111169*
X2452202Y1416300D02*
X2444085D01*
X2437545Y1409760*
X2415761*
X2410219Y1415302*
X2313438*
X2307758Y1420982*
X2255292*
X2249331Y1415021*
X2213531*
X2210670Y1412160*
X2092680*
X2088858Y1415982*
X1790664*
X1769047Y1437598*
X1174595*
X1150202Y1461991*
X719938*
X670905Y1412958*
X338033*
X254849Y1329774*
X90315*
X59018Y1298478*
Y1205022*
X67311Y1196729*
X87050*
X95461Y1188318*
X106478*
X113842Y1195683*
Y1232199*
X112471Y1233571*
X111169*
X2455862Y1391469D02*
Y1392131D01*
X2444685Y1403308*
X2414599*
X2412068Y1405840*
X2238630*
X2223108Y1390318*
X1790561*
X1749039Y1431840*
X1172740*
X1147972Y1456608*
X722168*
X672797Y1407237*
X339925*
X256010Y1323322*
X109710*
X79218Y1292830*
Y1215521*
X96168Y1198571*
X96831*
X2457404Y1391469D02*
Y1392770D01*
X2445324Y1404850*
X2415238*
X2412706Y1407382*
X2237992*
X2222470Y1391860*
X1791199*
X1749678Y1433382*
X1173378*
X1148610Y1458150*
X721529*
X672158Y1408779*
X339286*
X255372Y1324864*
X109072*
X77677Y1293469*
Y1214882*
X95529Y1197029*
X96831*
X2462200Y1409200D02*
X2457760D01*
X2452202Y1414758*
X2462500Y1393500D02*
X2459360Y1390360D01*
X2458512*
X2457404Y1391469*
X2465100Y1416300D02*
X2452202D01*
G54D14*
X101400Y938600D03*
X104000Y1194300D03*
Y1201300D03*
Y1211800D03*
Y1218800D03*
Y1229300D03*
Y1236300D03*
X110800Y932400D03*
X122041Y784900D03*
Y812400D03*
Y897400D03*
X124200Y799900D03*
Y827400D03*
Y912400D03*
X126300Y792700D03*
X129700Y985800D03*
X173400Y875900D03*
X180000Y1145100D03*
X182000Y975000D03*
X200000Y873100D03*
X208100Y1451500D03*
X215200Y871700D03*
X215800Y1448200D03*
X223600Y873600D03*
X228900Y975300D03*
X239200Y1253200D03*
X243200Y873700D03*
X245900Y1252500D03*
X247000Y1424800D03*
X247500Y717400D03*
Y751600D03*
X254800Y1422200D03*
X261900Y1229600D03*
X265500Y1235400D03*
X270500Y897700D03*
X272800Y864700D03*
X287900Y1194400D03*
X296500Y915000D03*
X297300Y762300D03*
X299000Y1419600D03*
X309400Y1365000D03*
X316600Y1365500D03*
X321700Y794700D03*
X324400Y892500D03*
X335700Y1192300D03*
X343300Y1197400D03*
Y1209900D03*
X348400Y861000D03*
Y886000D03*
Y911000D03*
Y936000D03*
X400000Y358700D03*
X404700Y1092800D03*
X412500Y358900D03*
X472400Y497500D03*
Y527500D03*
Y542500D03*
X472500Y580000D03*
X472600Y393700D03*
X493100Y1071500D03*
X495600Y492800D03*
Y502500D03*
X502000Y272100D03*
X523800Y575000D03*
X525400Y1093300D03*
X528200Y570000D03*
X535600Y473200D03*
X538200Y460200D03*
X564700Y784200D03*
X574400Y285200D03*
X582400Y1081800D03*
X584900Y1132600D03*
X587500Y599200D03*
X611500Y292600D03*
X617500Y599300D03*
X625700Y189500D03*
X627300Y486500D03*
X629200Y546000D03*
X658900Y624000D03*
X673400Y231400D03*
X685500Y191100D03*
X694500Y726600D03*
X708100Y494700D03*
X713300Y229600D03*
X743600Y598000D03*
X749600Y373300D03*
X756500D03*
X769600Y933400D03*
X770100Y916500D03*
X772000Y760900D03*
X772200Y770200D03*
X774800Y925600D03*
Y1076400D03*
Y1175200D03*
X777900Y742600D03*
X785200Y616400D03*
X786200Y370200D03*
X792410Y616400D03*
X793800Y370200D03*
X801500Y616500D03*
X802400Y377900D03*
X802500Y371000D03*
X806300Y748500D03*
Y781900D03*
Y1048500D03*
X808600Y400400D03*
Y790400D03*
Y1089400D03*
X808710Y616500D03*
X813800Y1097200D03*
X815200Y698100D03*
X816400Y400400D03*
X819000Y1047800D03*
Y1066000D03*
X820000Y702900D03*
X821400Y1218500D03*
X824200Y1089400D03*
X831800Y684800D03*
X832400Y1115000D03*
X834300Y1063400D03*
X836600Y689600D03*
X839600Y1195000D03*
X839800Y1125800D03*
X842400Y1115400D03*
X845000Y624000D03*
X845500Y616400D03*
X846800Y697600D03*
X847300Y1099340D03*
X847600Y1045200D03*
Y1196000D03*
X848100Y1123000D03*
X850200Y1229800D03*
X851600Y702400D03*
X852700Y1264600D03*
X852800Y806000D03*
Y816400D03*
X855300Y368300D03*
X855700Y865700D03*
X855800Y872300D03*
X856800Y616100D03*
X858000Y1050400D03*
Y1081600D03*
Y1245400D03*
X859100Y691500D03*
X860000Y625300D03*
X860200Y1009500D03*
Y1093500D03*
X862100Y368600D03*
X862300Y426700D03*
X863900Y686700D03*
X865000Y344400D03*
X873600Y343200D03*
X874800Y426700D03*
X878600Y618100D03*
X887300Y426700D03*
X888300Y781500D03*
Y1099500D03*
X889200Y616200D03*
Y1060800D03*
X891800Y1030600D03*
X899600Y1060800D03*
X899800Y426700D03*
X900500Y1199600D03*
X932800Y1253500D03*
X933400Y1227400D03*
X934400Y1190900D03*
X938600Y1081600D03*
X951600Y1167400D03*
X962000Y1263600D03*
X972400Y481000D03*
X977600Y1099800D03*
X989900Y269900D03*
X990600Y1175200D03*
Y1263600D03*
X1008800Y1175200D03*
Y1216800D03*
Y1250600D03*
X1014000Y1258400D03*
X1017000Y1223300D03*
X1037400Y1409200D03*
X1062200Y995000D03*
X1067000Y1007000D03*
X1073100Y538100D03*
X1081600Y1034800D03*
X1086700Y557300D03*
X1088500Y1043200D03*
X1094600Y1034800D03*
X1097200Y1352000D03*
X1097500Y1008700D03*
X1102400Y795600D03*
X1107600Y1346800D03*
X1114500Y1392100D03*
X1115400Y1380600D03*
X1117300Y992700D03*
X1118000Y1352000D03*
X1120600Y1344200D03*
X1123200Y795600D03*
X1129900Y1371800D03*
X1133500Y797100D03*
X1144700Y69300D03*
X1146600Y995800D03*
X1154400Y917800D03*
X1155500Y1359000D03*
X1162600Y883000D03*
X1164800Y891800D03*
Y975000D03*
X1170000Y1359800D03*
X1171100Y703100D03*
X1175900Y707900D03*
X1177800Y1349400D03*
X1183000Y923000D03*
X1196000Y1034800D03*
X1197500Y923600D03*
X1198600Y790400D03*
X1199800Y49600D03*
X1206400Y788000D03*
X1206700Y797200D03*
X1207400Y922600D03*
X1219800Y658300D03*
X1222000Y668200D03*
Y824200D03*
X1232400Y1427400D03*
X1235000Y1313000D03*
X1245400Y1037400D03*
Y1313000D03*
X1266200Y1305200D03*
X1268800Y1448200D03*
X1271400Y1418000D03*
X1271500Y1062700D03*
X1274000Y1157300D03*
X1278000Y1418000D03*
X1281800Y1271400D03*
X1286100Y1105900D03*
X1288600Y1208400D03*
X1289600Y1193400D03*
X1298000Y1277000D03*
X1299500Y1263400D03*
X1300000Y1131000D03*
Y1245400D03*
Y1284400D03*
X1305200Y899600D03*
X1307300Y1448500D03*
X1307900Y1284800D03*
X1310400Y1292200D03*
X1323100Y1271100D03*
X1323400Y1320800D03*
X1324200Y1176800D03*
X1324700Y1048000D03*
X1328800Y1003000D03*
X1348000Y286500D03*
X1354600Y280800D03*
X1357900Y1352500D03*
X1360700Y896800D03*
X1361400Y286600D03*
X1365500Y1128200D03*
X1367600Y897000D03*
X1368600Y277400D03*
X1378000Y886300D03*
X1379600Y956100D03*
X1380600Y1219400D03*
Y1227200D03*
X1388400Y1011400D03*
X1392100Y1231100D03*
X1392600Y1222200D03*
X1397100Y956200D03*
X1398100Y997200D03*
Y1010800D03*
X1400300Y1409700D03*
X1403300Y932800D03*
X1406100Y1223300D03*
X1408300Y1229700D03*
X1410000Y956300D03*
X1415400Y1227400D03*
X1416200Y932700D03*
X1422100Y1227700D03*
X1441700Y1079900D03*
X1445600Y1021800D03*
X1453400Y1245400D03*
X1461200Y1370200D03*
X1467100Y1107800D03*
X1471600Y1045200D03*
X1472500Y1243700D03*
X1474200Y1188200D03*
X1485000Y925100D03*
Y1053800D03*
X1487200Y1341600D03*
X1487500Y1331700D03*
X1487600Y1348900D03*
X1487700Y1325100D03*
X1489800Y1068600D03*
X1490000Y1021300D03*
X1492700Y1045300D03*
X1497300Y921700D03*
X1509900D03*
X1510000Y1021700D03*
X1518400Y1092000D03*
X1522300Y921700D03*
X1525000Y1059800D03*
X1528800Y1380600D03*
X1531400Y806200D03*
X1532400Y1021100D03*
X1532500Y943300D03*
X1536100Y1380800D03*
X1544300Y1403900D03*
X1544400Y923000D03*
X1550000Y1243200D03*
X1551000Y1370500D03*
X1570400Y1120600D03*
X1575600Y1110200D03*
X1580800Y1125800D03*
X1582600Y338800D03*
X1583400Y962000D03*
X1586000Y1027000D03*
X1589100Y1135100D03*
X1591200Y1118000D03*
X1593800Y904800D03*
X1596400Y930800D03*
Y969800D03*
X1607600Y830800D03*
X1627600Y1034800D03*
X1628640Y1079200D03*
X1644200Y1169300D03*
X1656200Y881400D03*
X1659000Y1236800D03*
X1664300Y880000D03*
X1679800Y64800D03*
X1682200Y839800D03*
X1692400Y840800D03*
X1699400Y1091900D03*
X1708200Y839800D03*
Y1019200D03*
X1719500Y602400D03*
X1719900Y840800D03*
X1736800Y839800D03*
X1745200Y1268000D03*
X1747400Y840800D03*
X1747700Y1191800D03*
X1749800Y1105000D03*
Y1424800D03*
X1756500Y827600D03*
X1762800Y1261000D03*
X1765400Y839800D03*
X1768600Y1192500D03*
X1773200Y1448200D03*
X1774900Y840800D03*
X1775000Y1005000D03*
X1775800Y1055000D03*
X1783600Y1240200D03*
X1785500Y838800D03*
X1790000Y1161600D03*
X1796600Y839800D03*
X1799200Y1229800D03*
X1800000Y1163300D03*
X1804400Y1242800D03*
X1804700Y1186800D03*
X1809900Y1163300D03*
X1812800Y1236300D03*
X1814800Y868400D03*
X1818100Y704500D03*
X1821600Y868400D03*
X1829000Y869000D03*
X1833100Y1140400D03*
X1835600Y429000D03*
Y543400D03*
X1835900Y422000D03*
X1836400Y1222600D03*
X1836600Y505900D03*
X1836800Y498600D03*
X1837200Y466600D03*
X1837300Y459900D03*
Y571600D03*
Y579300D03*
X1837400Y532100D03*
X1838900Y1134800D03*
X1843400Y1094600D03*
X1850800Y1050600D03*
X1864200Y980200D03*
X1866800Y1206400D03*
X1867000Y1006300D03*
X1869400Y975100D03*
Y1188200D03*
X1879300D03*
X1879800Y964600D03*
Y977600D03*
X1881700Y377300D03*
X1882600Y513900D03*
X1888800Y377700D03*
X1899400Y1188200D03*
X1899800Y940400D03*
X1903200Y1162200D03*
X1905800Y1019200D03*
Y1034800D03*
X1906400Y321300D03*
X1912200Y1187800D03*
X1913200Y321300D03*
X1931100Y967400D03*
X1952200Y1166400D03*
X1960400Y985400D03*
Y1045200D03*
X1964900Y1193400D03*
X1982600Y1163700D03*
X2170900Y1027500D03*
X2195400Y1023400D03*
X2204800Y1079000D03*
X2215200Y1081600D03*
X2276800Y1285700D03*
X2282800Y1276600D03*
X2293200Y1294300D03*
X2337500Y1145600D03*
X2347500Y1146000D03*
X2357500Y1146200D03*
X2361400Y1057500D03*
Y1082500D03*
X2371200Y1375400D03*
X2373800Y1318200D03*
X2394600Y1401400D03*
X2395300Y1300800D03*
X2402200Y1323100D03*
X2449200Y1391000D03*
X2462200Y1409200D03*
X2462500Y1393500D03*
X2465100Y1416300D03*
X2520300Y1051900D03*
X2537000Y1387700D03*
X2546700Y1215800D03*
X2555800Y1125800D03*
X2558400Y1112000D03*
X2564400Y1215800D03*
X2574000Y1079000D03*
X2587000Y1177800D03*
X2605200Y1203800D03*
X2613000Y1076400D03*
X2627500Y1171300D03*
X2652000Y1099800D03*
Y1125800D03*
Y1138800D03*
X2654800Y1185100D03*
X2703300Y1085000D03*
X2794500Y1484800D03*
G54D15*
X1022500Y1140000D03*
Y1148000D03*
Y1196000D03*
Y1204000D03*
Y1212000D03*
Y1244000D03*
Y1260000D03*
Y1268000D03*
Y1276000D03*
Y1284000D03*
X1030500Y1140000D03*
Y1196000D03*
Y1212000D03*
Y1228000D03*
Y1276000D03*
Y1292000D03*
X1038500Y1100000D03*
Y1220000D03*
Y1236000D03*
Y1292000D03*
Y1300000D03*
X1046500Y1076000D03*
Y1100000D03*
Y1108000D03*
Y1116000D03*
Y1220000D03*
Y1236000D03*
Y1244000D03*
X1054500Y1060000D03*
Y1076000D03*
Y1140000D03*
X1062500Y1068000D03*
Y1084000D03*
Y1092000D03*
Y1108000D03*
Y1140000D03*
Y1172000D03*
Y1220000D03*
X1070500Y1084000D03*
Y1132000D03*
Y1284000D03*
X1078500D03*
Y1292000D03*
Y1300000D03*
X1094500Y1076000D03*
Y1284000D03*
X1102500Y1060000D03*
Y1084000D03*
Y1116000D03*
Y1284000D03*
Y1292000D03*
Y1300000D03*
X1110500Y1100000D03*
X1118500Y1076000D03*
Y1284000D03*
X1126500D03*
Y1292000D03*
Y1300000D03*
X1150500Y1084000D03*
X1166500Y1092000D03*
Y1108000D03*
X1174500Y1116000D03*
X1182500Y1084000D03*
Y1108000D03*
X1190500Y1100000D03*
Y1124000D03*
Y1284000D03*
X1198500Y1076000D03*
X1206500Y1172000D03*
X1214500Y1124000D03*
Y1284000D03*
X1222500Y1204000D03*
Y1212000D03*
Y1268000D03*
Y1276000D03*
Y1292000D03*
Y1300000D03*
X1230500Y1116000D03*
Y1196000D03*
Y1204000D03*
Y1236000D03*
Y1276000D03*
Y1292000D03*
Y1300000D03*
X1238500Y1124000D03*
Y1140000D03*
X1254500Y1132000D03*
Y1172000D03*
Y1236000D03*
Y1268000D03*
X1262500Y1100000D03*
Y1108000D03*
Y1140000D03*
Y1148000D03*
Y1172000D03*
Y1204000D03*
Y1236000D03*
Y1268000D03*
G54D16*
X1732500Y995000D03*
G04 LATO COMPONENTI*
M02*
