*
G04 Job   : D:\PD-Master\Mas\Mas100n1 ACB_0001_0\Mas100n1 PPC_PORTABILE R_0.pcb*
G04 User  : SHINA:Administrator*
G04 Layer : I-SoldermaskTop.gbr*
G04 Date  : Thu Feb 04 15:45:01 2021*
G04 RSM MASTER DESIGN srl*
%ICAS*%
%MOMM*%
%FSLAX24Y24*%
%OFA0.0000B0.0000*%
G90*
G74*
%AMVB_RECTANGLE*
21,1,$1,$2,0,0,$3*
%
%AMVB_FINGER0*
$3=$1/2*
$4=$2/2*
$5=0-$4*
1,1,$2,$3-$4,0*
21,1,$1-$4,$2,$5/2,0,0*
%
%AMVB_FINGER90*
$3=$1/2*
$4=$2/2*
$5=0-$4*
1,1,$2,0,$3-$4*
21,1,$2,$1-$4,0,$5/2,0*
%
%AMVB_FINGER180*
$3=$1/2*
$4=$2/2*
1,1,$2,$4-$3,0*
21,1,$1-$4,$2,$4/2,0,0*
%
%AMVB_FINGER270*
$3=$1/2*
$4=$2/2*
1,1,$2,0,$4-$3*
21,1,$2,$1-$4,0,$4/2,0*
%
%AMVB_RCRECTANGLE*
$3=$3X2*
21,1,$1-$3,$2,0,0,0*
21,1,$1,$2-$3,0,0,0*
$1=$1/2*
$2=$2/2*
$3=$3/2*
$1=$1-$3*
$2=$2-$3*
1,1,$3X2,0-$1,0-$2*
1,1,$3X2,0-$1,$2*
1,1,$3X2,$1,$2*
1,1,$3X2,$1,0-$2*
%
%ADD10C,0.15000*%
%ADD59C,0.35000*%
%ADD144C,0.55000*%
%ADD31C,0.66040*%
%ADD25C,0.81280*%
%ADD103C,0.88900*%
%ADD109C,1.14300*%
%ADD57C,1.39700*%
%ADD87C,1.65100*%
%ADD11C,2.03200*%
%ADD126C,2.66700*%
%ADD37C,3.93700*%
%ADD100C,5.58800*%
%ADD111O,0.95000X0.35000*%
%ADD112O,0.35000X0.95000*%
%ADD76O,2.66700X1.90500*%
%ADD104O,2.92100X1.90500*%
%ADD41VB_RECTANGLE,0.67000X0.67000X0.00000*%
%ADD110VB_RECTANGLE,1.14300X1.14300X0.00000*%
%ADD138VB_RECTANGLE,1.35000X1.35000X90.00000*%
%ADD86VB_RECTANGLE,1.65100X1.65100X90.00000*%
%ADD120VB_RECTANGLE,1.90500X1.90500X0.00000*%
%ADD105VB_RECTANGLE,2.10000X2.10000X270.00000*%
%ADD133VB_RECTANGLE,3.30000X3.30000X270.00000*%
%ADD28VB_RECTANGLE,4.10000X4.10000X180.00000*%
%ADD50VB_RECTANGLE,4.19100X4.19100X0.00000*%
%ADD15VB_RECTANGLE,0.55000X0.30000X90.00000*%
%ADD30VB_RECTANGLE,0.65000X0.30000X180.00000*%
%ADD73VB_RECTANGLE,0.65000X0.30000X270.00000*%
%ADD13VB_RECTANGLE,0.73660X0.68580X180.00000*%
%ADD12VB_RECTANGLE,0.73660X0.68580X270.00000*%
%ADD143VB_RECTANGLE,0.75000X0.25000X0.00000*%
%ADD38VB_RECTANGLE,0.80000X0.38000X90.00000*%
%ADD82VB_RECTANGLE,0.81280X0.35560X270.00000*%
%ADD80VB_RECTANGLE,0.88900X0.53340X180.00000*%
%ADD56VB_RECTANGLE,0.88900X0.76200X0.00000*%
%ADD65VB_RECTANGLE,0.88900X0.76200X90.00000*%
%ADD44VB_RECTANGLE,0.88900X1.01600X270.00000*%
%ADD79VB_RECTANGLE,1.10000X0.40000X90.00000*%
%ADD81VB_RECTANGLE,1.10000X1.35000X180.00000*%
%ADD26VB_RECTANGLE,1.10000X1.35000X270.00000*%
%ADD32VB_RECTANGLE,1.14300X0.76200X180.00000*%
%ADD34VB_RECTANGLE,1.14300X0.76200X270.00000*%
%ADD67VB_RECTANGLE,1.14300X1.14300X0.00000*%
%ADD58VB_RECTANGLE,1.14300X1.14300X270.00000*%
%ADD64VB_RECTANGLE,1.20000X0.70000X270.00000*%
%ADD70VB_RECTANGLE,1.27000X0.38100X0.00000*%
%ADD71VB_RECTANGLE,1.27000X0.38100X270.00000*%
%ADD43VB_RECTANGLE,1.27000X1.01600X270.00000*%
%ADD27VB_RECTANGLE,1.27000X1.14300X90.00000*%
%ADD24VB_RECTANGLE,1.32080X0.25400X180.00000*%
%ADD23VB_RECTANGLE,1.32080X0.25400X90.00000*%
%ADD123VB_RECTANGLE,1.32080X0.33020X90.00000*%
%ADD40VB_RECTANGLE,1.50000X0.45000X90.00000*%
%ADD124VB_RECTANGLE,1.50000X0.50000X0.00000*%
%ADD68VB_RECTANGLE,1.57480X0.33020X90.00000*%
%ADD94VB_RECTANGLE,1.60000X0.40000X0.00000*%
%ADD92VB_RECTANGLE,1.60000X0.40000X90.00000*%
%ADD127VB_RECTANGLE,1.65100X0.38100X180.00000*%
%ADD62VB_RECTANGLE,1.65100X0.38100X90.00000*%
%ADD17VB_RECTANGLE,1.65100X0.50800X0.00000*%
%ADD102VB_RECTANGLE,1.65100X0.50800X90.00000*%
%ADD21VB_RECTANGLE,1.65100X0.76200X270.00000*%
%ADD107VB_RECTANGLE,1.65100X0.88900X0.00000*%
%ADD108VB_RECTANGLE,1.65100X0.88900X270.00000*%
%ADD106VB_RECTANGLE,1.65100X1.06680X0.00000*%
%ADD61VB_RECTANGLE,1.65100X1.06680X90.00000*%
%ADD47VB_RECTANGLE,1.65100X1.14300X0.00000*%
%ADD33VB_RECTANGLE,1.65100X1.14300X270.00000*%
%ADD84VB_RECTANGLE,1.80000X0.80000X0.00000*%
%ADD98VB_RECTANGLE,1.80000X0.80000X90.00000*%
%ADD122VB_RECTANGLE,1.80000X0.90000X0.00000*%
%ADD35VB_RECTANGLE,1.90000X0.30000X180.00000*%
%ADD96VB_RECTANGLE,1.90000X0.90000X0.00000*%
%ADD16VB_RECTANGLE,1.90000X1.10000X0.00000*%
%ADD42VB_RECTANGLE,1.90500X0.50800X270.00000*%
%ADD22VB_RECTANGLE,1.90500X0.76200X0.00000*%
%ADD90VB_RECTANGLE,1.90500X0.76200X270.00000*%
%ADD85VB_RECTANGLE,2.00000X1.40000X0.00000*%
%ADD99VB_RECTANGLE,2.00000X1.40000X90.00000*%
%ADD39VB_RECTANGLE,2.05000X1.65000X0.00000*%
%ADD49VB_RECTANGLE,2.10000X0.45000X180.00000*%
%ADD36VB_RECTANGLE,2.10000X0.60000X180.00000*%
%ADD118VB_RECTANGLE,2.10000X1.05000X270.00000*%
%ADD69VB_RECTANGLE,2.15000X0.75000X270.00000*%
%ADD77VB_RECTANGLE,2.15000X1.35000X0.00000*%
%ADD89VB_RECTANGLE,2.15900X0.76200X270.00000*%
%ADD145VB_RECTANGLE,2.15900X0.88900X0.00000*%
%ADD75VB_RECTANGLE,2.15900X1.14300X180.00000*%
%ADD46VB_RECTANGLE,2.15900X1.14300X270.00000*%
%ADD63VB_RECTANGLE,2.20000X1.30000X0.00000*%
%ADD97VB_RECTANGLE,2.40000X2.20000X0.00000*%
%ADD45VB_RECTANGLE,2.41300X1.65100X270.00000*%
%ADD78VB_RECTANGLE,2.50000X1.70000X0.00000*%
%ADD88VB_RECTANGLE,2.66700X1.65100X90.00000*%
%ADD93VB_RECTANGLE,2.90000X1.70000X0.00000*%
%ADD91VB_RECTANGLE,2.90000X1.70000X90.00000*%
%ADD18VB_RECTANGLE,2.92100X1.14300X180.00000*%
%ADD128VB_RECTANGLE,2.92100X1.14300X270.00000*%
%ADD53VB_RECTANGLE,2.92100X1.90500X0.00000*%
%ADD95VB_RECTANGLE,3.17500X2.41300X180.00000*%
%ADD54VB_RECTANGLE,3.17500X2.41300X90.00000*%
%ADD60VB_RECTANGLE,3.35280X2.03200X270.00000*%
%ADD119VB_RECTANGLE,3.45000X1.40000X270.00000*%
%ADD19VB_RECTANGLE,3.55600X1.90500X90.00000*%
%ADD66VB_RECTANGLE,3.68300X1.14300X90.00000*%
%ADD55VB_RECTANGLE,3.68300X1.52400X0.00000*%
%ADD121VB_RECTANGLE,3.68300X1.52400X90.00000*%
%ADD113VB_RECTANGLE,3.70000X1.90000X90.00000*%
%ADD14VB_RECTANGLE,3.80000X3.20000X270.00000*%
%ADD125VB_RECTANGLE,3.93700X2.15900X180.00000*%
%ADD146VB_RECTANGLE,3.93700X2.15900X270.00000*%
%ADD29VB_RECTANGLE,3.93700X2.66700X270.00000*%
%ADD74VB_RECTANGLE,4.30000X0.80000X270.00000*%
%ADD52VB_RECTANGLE,4.31800X2.15900X270.00000*%
%ADD48VB_RECTANGLE,4.70000X3.60000X180.00000*%
%ADD101VB_RECTANGLE,5.10000X3.60000X90.00000*%
%ADD20VB_RECTANGLE,5.20700X2.66700X0.00000*%
%ADD51VB_RECTANGLE,5.30000X1.60000X90.00000*%
%ADD83VB_RECTANGLE,5.70000X2.20000X270.00000*%
%ADD139VB_FINGER0,0.70000X0.35000*%
%ADD140VB_FINGER90,0.70000X0.35000*%
%ADD141VB_FINGER180,0.70000X0.35000*%
%ADD142VB_FINGER270,0.70000X0.35000*%
%ADD130VB_FINGER0,0.70000X0.38000*%
%ADD131VB_FINGER90,0.70000X0.38000*%
%ADD132VB_FINGER180,0.70000X0.38000*%
%ADD129VB_FINGER270,0.70000X0.38000*%
%ADD137VB_FINGER0,0.88900X0.43180*%
%ADD135VB_FINGER90,0.88900X0.43180*%
%ADD134VB_FINGER180,0.88900X0.43180*%
%ADD136VB_FINGER270,0.88900X0.43180*%
%ADD114VB_FINGER0,1.02870X0.41910*%
%ADD116VB_FINGER90,1.02870X0.41910*%
%ADD115VB_FINGER180,1.02870X0.41910*%
%ADD117VB_FINGER270,1.02870X0.41910*%
%ADD72VB_RCRECTANGLE,0.45000X0.45000X0.13000*%
G01*
G36*
X578250Y525750D02*
X611750D01*
Y559250*
X578250*
Y525750*
X746200Y977800D02*
X740200D01*
Y973600*
X714800*
Y977800*
X708800*
Y987200*
X714800*
Y991400*
X740200*
Y987200*
X746200*
Y977800*
X1133500Y1483500D02*
X1117000D01*
Y1474500*
X1107500*
Y1450500*
X1133500*
Y1483500*
X1171500D02*
X1188000D01*
Y1474500*
X1197500*
Y1450500*
X1171500*
Y1483500*
X1368000Y1312500D02*
X1370000Y1310500D01*
Y1312500*
X1368000*
X1375250Y1317750D02*
X1429750D01*
Y1372250*
X1375250*
Y1317750*
X1508250Y1323250D02*
X1541750D01*
Y1356750*
X1508250*
Y1323250*
X1773400Y938800D02*
X1776100D01*
Y944500*
X1773400*
Y938800*
X1778400D02*
X1781100D01*
Y944500*
X1778400*
Y938800*
X1783400D02*
X1786100D01*
Y944500*
X1783400*
Y938800*
X2337500Y1160000D02*
X2392500D01*
Y1195000*
X2337500*
Y1160000*
X2571500Y1091500D02*
X2638500D01*
Y1158500*
X2571500*
Y1091500*
G37*
G54D10*
X44302Y267105D02*
X44326Y267081D01*
X44350Y267057*
X44374Y267045*
X46486Y266073*
X46510Y266061*
X46570*
X48154*
X48190*
X48214*
X48238*
X48250Y266073*
X48274*
X50386Y267045*
X50458Y267105*
X51586Y268101*
X51610Y268125*
X51622Y268149*
X51634Y268173*
X51646Y268197*
Y268233*
X51658Y268245*
Y268269*
Y269997*
X51646Y270045*
X51622Y270105*
X51610Y270153*
X51574Y270213*
X49942Y271437*
X49858Y271461*
X45058Y273093*
X43582Y274245*
Y275745*
X44614Y276945*
X46582Y277569*
X48178*
X50158Y276957*
X51250Y275685*
X51286Y275649*
X51322Y275625*
X51358Y275613*
X51406*
X51490Y275637*
X51562Y275697*
X51622Y275769*
X51658Y275853*
Y275937*
X51610Y276009*
X50482Y277329*
X50434Y277365*
X50374Y277377*
X50362*
Y277401*
X48274Y278025*
X48238Y278049*
X48202Y278061*
X46570*
X46522Y278049*
X46486Y278025*
X44410Y277389*
X44398Y277377*
X44350Y277365*
X44290Y277317*
X43162Y275997*
X43114Y275949*
X43102Y275913*
X43090Y275853*
Y274113*
X43102Y274041*
X43126Y273981*
X43150Y273945*
X43174Y273921*
X43198Y273909*
X44806Y272673*
X44830Y272661*
X44878*
X49666Y271029*
X51178Y269865*
Y268365*
X50182Y267501*
X48130Y266553*
X46630*
X44578Y267501*
X43498Y268461*
X43414Y268497*
X43330*
X43246Y268461*
X43186Y268401*
X43138Y268329*
X43102Y268245*
Y268209*
X43114Y268173*
X43138Y268125*
X43174Y268101*
X44290Y267105*
X44302*
X54922Y268833D02*
Y275289D01*
X55162Y276441*
X55642Y277017*
X56806Y277437*
X57934Y277569*
X59482*
X59506*
X60634Y277437*
X61786Y277017*
X62266Y276441*
X62518Y275289*
Y268833*
X62278Y267705*
X61810Y267273*
X60586Y266673*
X59506Y266553*
X57958*
X57934*
X56842Y266673*
X55630Y267273*
X55162Y267705*
X54922Y268833*
X62038Y266829D02*
X62110Y266889D01*
X62674Y267417*
X62686Y267453*
X62746Y267537*
X62998Y268737*
Y268821*
Y275289*
Y275385*
X62746Y276585*
X62722Y276609*
X62710Y276633*
X62698Y276645*
X62674Y276693*
X62110Y277389*
X62086*
X62074Y277413*
Y277425*
X62038Y277449*
X62002Y277461*
X60754Y277869*
X60718Y277893*
X60682Y277905*
X59554Y278061*
X59542*
X57922*
X57874*
X57862*
X56746Y277905*
X56710Y277893*
X56674Y277869*
X55438Y277461*
X55390Y277437*
X55378Y277425*
X55342Y277389*
X54754Y276693*
X54730Y276657*
X54718*
X54694Y276621*
X54682Y276585*
X54430Y275385*
X54418Y275337*
X54430Y275289*
Y268821*
X54418Y268785*
X54430Y268737*
X54682Y267537*
X54694Y267477*
X54742Y267453*
Y267441*
X54778Y267417*
X55342Y266889*
X55354*
X55426Y266829*
X56674Y266229*
X56698Y266217*
X56722*
X56746*
X57862Y266061*
X57910*
X57922*
X59506*
X59542*
X59554*
X60682Y266217*
X60706*
X60730Y266229*
X60754*
X62038Y266829*
X66262Y277821D02*
X66238Y277905D01*
X66190Y277977*
X66106Y278013*
X66010Y278025*
X65926Y278013*
X65842Y277977*
X65794Y277905*
X65770Y277821*
Y266301*
X65794Y266205*
X65854Y266145*
X65914Y266085*
X66010Y266061*
X74098*
X74194Y266085*
X74254Y266133*
X74290Y266217*
X74302Y266301*
X74290Y266397*
X74254Y266481*
X74194Y266529*
X74098Y266553*
X66262*
Y277821*
X84130Y275457D02*
X84838Y274425D01*
X85186Y272133*
X84838Y269661*
X84118Y268065*
X83122Y267021*
X82150Y266553*
X77602*
Y277569*
X82126*
X83086Y276861*
X84106Y275469*
X84130Y275457*
X85342Y274569D02*
X85330Y274593D01*
X85318Y274617*
X85294Y274653*
Y274665*
X84538Y275709*
X84514Y275745*
X83470Y277185*
X83446Y277209*
X83422Y277221*
Y277245*
X82354Y278013*
X82294Y278037*
X82258Y278049*
X82222Y278061*
X77350*
X77266Y278037*
X77194Y277977*
X77134Y277917*
X77110Y277821*
Y266301*
X77134Y266205*
X77194Y266145*
X77266Y266085*
X77350Y266061*
X82222*
X82306Y266073*
X83350Y266577*
X83422Y266625*
X83434Y266649*
X84502Y267777*
X84526Y267801*
X84550Y267861*
X85318Y269493*
X85330Y269517*
X85342Y269541*
Y269553*
X85690Y272097*
Y272169*
X85342Y274569*
X88690Y278061D02*
X88594Y278037D01*
X88534Y277977*
X88474Y277905*
X88450Y277821*
Y266301*
X88474Y266205*
X88534Y266145*
X88594Y266085*
X88690Y266061*
X96778*
X96874Y266085*
X96934Y266133*
X96970Y266217*
X96982Y266301*
X96970Y266397*
X96934Y266481*
X96874Y266529*
X96778Y266553*
X88942*
Y271821*
X94378*
X94474Y271845*
X94534Y271893*
X94570Y271977*
X94582Y272061*
X94570Y272145*
X94534Y272217*
X94474Y272277*
X94378Y272301*
X88942*
Y277569*
X96778*
X96874Y277593*
X96934Y277641*
X96970Y277725*
X96982Y277809*
X96970Y277905*
X96934Y277989*
X96874Y278037*
X96778Y278061*
X88690*
X100282Y277569D02*
X106030D01*
X107050Y276813*
X107878Y275685*
Y274209*
X107026Y273033*
X106030Y272301*
X100282*
Y277569*
X107434Y277137D02*
X107398Y277161D01*
X107374Y277173*
Y277185*
X106246Y278013*
X106186Y278037*
X106150Y278049*
X106090Y278061*
X100030*
X99934Y278037*
X99874Y277977*
X99814Y277917*
X99790Y277821*
Y266301*
X99814Y266205*
X99862Y266145*
X99946Y266109*
X100030Y266097*
X100126Y266109*
X100210Y266145*
X100258Y266205*
X100282Y266301*
Y271821*
X105922*
X107890Y266229*
X107938Y266145*
X108022Y266097*
X108118Y266085*
X108202Y266109*
X108274Y266157*
X108334Y266217*
X108358Y266289*
X108346Y266385*
X106390Y271953*
X107374Y272673*
X107410Y272709*
X107446Y272781*
X108322Y273969*
Y273993*
X108334Y274005*
X108346Y274017*
Y274053*
X108358Y274077*
Y274113*
Y275769*
X108346Y275817*
Y275841*
X108334Y275865*
X108322Y275877*
Y275901*
X107434Y277137*
X119950Y278061D02*
X119854Y278037D01*
X119794Y277989*
X119758Y277905*
X119746Y277809*
X119758Y277725*
X119794Y277641*
X119854Y277593*
X119950Y277569*
X123754*
Y266301*
X123778Y266217*
X123826Y266145*
X123910Y266109*
X123994Y266097*
X124078Y266109*
X124162Y266145*
X124210Y266217*
X124234Y266301*
Y277569*
X128038*
X128134Y277593*
X128194Y277641*
X128230Y277725*
X128242Y277809*
X128230Y277905*
X128194Y277989*
X128134Y278037*
X128038Y278061*
X119950*
X131542Y268833D02*
Y275289D01*
X131782Y276441*
X132262Y277017*
X133426Y277437*
X134554Y277569*
X136102*
X136126*
X137254Y277437*
X138406Y277017*
X138886Y276441*
X139138Y275289*
Y268833*
X138898Y267705*
X138430Y267273*
X137206Y266673*
X136126Y266553*
X134578*
X134554*
X133462Y266673*
X132250Y267273*
X131782Y267705*
X131542Y268833*
X138658Y266829D02*
X138730Y266889D01*
X139294Y267417*
X139306Y267453*
X139366Y267537*
X139618Y268737*
Y268821*
Y275289*
Y275385*
X139366Y276585*
X139342Y276609*
X139330Y276633*
X139318Y276645*
X139294Y276693*
X138730Y277389*
X138706*
X138694Y277413*
Y277425*
X138658Y277449*
X138622Y277461*
X137374Y277869*
X137338Y277893*
X137302Y277905*
X136174Y278061*
X136162*
X134542*
X134494*
X134482*
X133366Y277905*
X133330Y277893*
X133294Y277869*
X132058Y277461*
X132010Y277437*
X131998Y277425*
X131962Y277389*
X131374Y276693*
X131350Y276657*
X131338*
X131314Y276621*
X131302Y276585*
X131050Y275385*
X131038Y275337*
X131050Y275289*
Y268821*
X131038Y268785*
X131050Y268737*
X131302Y267537*
X131314Y267477*
X131362Y267453*
Y267441*
X131398Y267417*
X131962Y266889*
X131974*
X132046Y266829*
X133294Y266229*
X133318Y266217*
X133342*
X133366*
X134482Y266061*
X134530*
X134542*
X136126*
X136162*
X136174*
X137302Y266217*
X137326*
X137350Y266229*
X137374*
X138658Y266829*
X142882Y277569D02*
X148630D01*
X149650Y276813*
X150478Y275685*
Y274209*
X149626Y273033*
X148630Y272301*
X142882*
Y277569*
X150034Y277137D02*
X149998Y277161D01*
X149974Y277173*
Y277185*
X148846Y278013*
X148786Y278037*
X148750Y278049*
X148690Y278061*
X142630*
X142534Y278037*
X142474Y277977*
X142414Y277917*
X142390Y277821*
Y266301*
X142414Y266217*
X142462Y266145*
X142546Y266109*
X142630Y266097*
X142726Y266109*
X142810Y266145*
X142858Y266217*
X142882Y266301*
Y271821*
X148690*
X148762*
X148798Y271833*
X148846Y271857*
X149974Y272673*
X150010Y272709*
X150046Y272781*
X150922Y273969*
Y273993*
X150934Y274005*
X150946Y274017*
Y274053*
X150958Y274077*
Y274113*
Y275769*
X150946Y275817*
Y275841*
X150934Y275865*
X150922Y275877*
Y275901*
X150034Y277137*
X2930000Y1337000D02*
X2895000D01*
Y984000*
X2930000*
Y316000*
G02X2905000Y291000I25000*
G01X2792719*
G02X2782812Y299638J10000*
G01X2773000Y371000*
X2761000Y478000*
X2737000Y614000*
X2746000Y622000*
X2739000Y674000*
X2731000Y702000*
X2715000Y751000*
X2697000Y786000*
X2663000Y836000*
X2623000Y881000*
X2610000Y894000*
X2602000Y900000*
X2609000Y924000*
X2615000Y945000*
X2616000Y950000*
Y956000*
X2615000Y969000*
X2614000Y974000*
X2611000Y983000*
X2608000Y989000*
X2601000Y998000*
X2588000Y1007000*
X2583000Y1010000*
X2569000Y1014000*
X2550000*
X2544000Y1012000*
X2528000Y1004000*
X2491000Y964000*
X2441000Y979000*
X2423000Y983000*
X2375000Y989000*
X2354000Y990000*
X2332000*
X2289000Y986000*
X2261000Y981000*
X2233000Y973000*
X2184000Y955000*
X2142000Y932000*
X2112000Y911000*
X2090000Y893000*
X2080000Y884000*
X2066000Y870000*
X2044000Y843000*
X2027000Y822000*
X2007000Y787000*
X1975000Y725000*
X1962000Y692000*
X1955000Y647000*
X1953000Y623000*
Y591000*
X1954000Y571000*
X1955000Y563000*
X1963000Y491000*
X1982000Y329000*
X1987000Y285000*
X1990000Y261000*
X2001575Y185994*
G02X2001663Y184850I7412J1144*
X1996833Y177841I7500*
G01X1934619Y177597*
G03X1909719Y152883I98J25000*
G01X1909282Y114714*
G02X1884284Y90000I24998J286*
G01X1785000*
G03X1760000Y65000J25000*
G01Y25000*
G02X1735000Y0I25000*
G01X1230000*
Y10000*
X345000*
G02X320000Y35000J25000*
G01Y65000*
G03X295000Y90000I25000*
G01X255000*
G02X230000Y115000J25000*
G01Y275000*
G03X205000Y300000I25000*
G01X25000*
G02X0Y325000J25000*
G01Y1475000*
G02X25000Y1500000I25000*
G01X1609000*
Y1490000*
X1784000*
G02X1809000Y1465000J25000*
G01Y1451000*
G03X1840000Y1420000I31000*
X1871000Y1451000J31000*
G01Y1463000*
G02X1881000Y1473000I10000*
G01X2339000*
G02X2349000Y1463000J10000*
G01Y1462000*
G03X2380000Y1431000I31000*
X2411000Y1462000J31000*
G01Y1463000*
G02X2421000Y1473000I10000*
G01X2670000*
X2697500Y1500000*
X2905000*
G02X2930000Y1475000J25000*
G01Y1337000*
G54D11*
X32500Y1387500D03*
X75000Y335000D03*
X747500Y612500D03*
X917500Y442500D03*
X1885000Y722500D03*
X2042500Y1215000D03*
X2212500Y1045000D03*
X2712500Y1425000D03*
X2840000Y375000D03*
G54D12*
X307801Y220000D03*
Y235000D03*
Y250000D03*
X317199Y220000D03*
Y235000D03*
Y250000D03*
X544301Y400500D03*
Y415500D03*
Y430500D03*
Y445500D03*
X545301Y520000D03*
Y535000D03*
Y550000D03*
Y565000D03*
X553699Y400500D03*
Y415500D03*
Y430500D03*
Y445500D03*
X554699Y520000D03*
Y535000D03*
Y550000D03*
Y565000D03*
X606801Y303500D03*
X616199D03*
X635301Y480000D03*
Y495000D03*
Y510000D03*
X644699Y480000D03*
Y495000D03*
Y510000D03*
X660301Y495000D03*
Y510000D03*
X669699Y495000D03*
Y510000D03*
X695301Y505000D03*
Y567500D03*
X704699Y505000D03*
Y567500D03*
X727801Y465000D03*
Y477500D03*
Y490000D03*
Y502500D03*
Y527500D03*
Y540000D03*
Y552500D03*
Y565000D03*
Y577500D03*
Y590000D03*
X737199Y465000D03*
Y477500D03*
Y490000D03*
Y502500D03*
Y527500D03*
Y540000D03*
Y552500D03*
Y565000D03*
Y577500D03*
Y590000D03*
X737801Y1015000D03*
X747199D03*
X934631Y463590D03*
Y478590D03*
Y493590D03*
Y508590D03*
Y523590D03*
Y538590D03*
Y553590D03*
Y568590D03*
Y583590D03*
Y598590D03*
X944029Y463590D03*
Y478590D03*
Y493590D03*
Y508590D03*
Y523590D03*
Y538590D03*
Y553590D03*
Y568590D03*
Y583590D03*
Y598590D03*
X952801Y1062500D03*
Y1075000D03*
Y1087500D03*
X962199Y1062500D03*
Y1075000D03*
Y1087500D03*
X964631Y508590D03*
Y543590D03*
X969631Y603590D03*
Y616090D03*
Y628590D03*
X974029Y508590D03*
Y543590D03*
X979029Y603590D03*
Y616090D03*
Y628590D03*
X985301Y1017500D03*
Y1047500D03*
X990301Y1100000D03*
Y1112500D03*
Y1125000D03*
X994699Y1017500D03*
Y1047500D03*
X999699Y1100000D03*
Y1112500D03*
Y1125000D03*
X1135301Y40000D03*
Y55000D03*
X1144699Y40000D03*
Y55000D03*
X1157801Y1000000D03*
X1167199D03*
X1189551Y952250D03*
X1191051Y882750D03*
X1198949Y952250D03*
X1200449Y882750D03*
X1215301Y26000D03*
X1224699D03*
X1230301Y1355000D03*
X1239551Y882250D03*
Y952250D03*
X1239699Y1355000D03*
X1248949Y882250D03*
Y952250D03*
X1252801Y74000D03*
Y1355000D03*
X1262199Y74000D03*
Y1355000D03*
X1275301D03*
X1279551Y952250D03*
X1282801Y1122500D03*
Y1165000D03*
Y1177500D03*
Y1240000D03*
X1284699Y1355000D03*
X1288949Y952250D03*
X1292199Y1122500D03*
Y1165000D03*
Y1177500D03*
Y1240000D03*
X1297801Y1355000D03*
X1307199D03*
X1307801Y1052500D03*
Y1065000D03*
Y1077500D03*
Y1090000D03*
Y1102500D03*
Y1115000D03*
Y1127500D03*
Y1140000D03*
Y1152500D03*
Y1165000D03*
Y1177500D03*
Y1190000D03*
Y1202500D03*
Y1215000D03*
Y1227500D03*
Y1240000D03*
Y1252500D03*
Y1265000D03*
Y1277500D03*
X1317199Y1052500D03*
Y1065000D03*
Y1077500D03*
Y1090000D03*
Y1102500D03*
Y1115000D03*
Y1127500D03*
Y1140000D03*
Y1152500D03*
Y1165000D03*
Y1177500D03*
Y1190000D03*
Y1202500D03*
Y1215000D03*
Y1227500D03*
Y1240000D03*
Y1252500D03*
Y1265000D03*
Y1277500D03*
X1337801Y1320000D03*
Y1352500D03*
X1340301Y1100000D03*
Y1130000D03*
X1342801Y1050000D03*
X1345301Y1245000D03*
X1347199Y1320000D03*
Y1352500D03*
X1349699Y1100000D03*
Y1130000D03*
X1352199Y1050000D03*
X1354699Y1245000D03*
X1370301Y1085000D03*
X1375301Y1245000D03*
X1377801Y1002500D03*
X1379699Y1085000D03*
X1384699Y1245000D03*
X1387199Y1002500D03*
X1400301Y1085000D03*
Y1400000D03*
X1409699Y1085000D03*
Y1400000D03*
X1425301D03*
X1434699D03*
X1470301Y1342500D03*
Y1355000D03*
Y1367500D03*
X1479699Y1342500D03*
Y1355000D03*
Y1367500D03*
X1570301Y1285000D03*
Y1297500D03*
Y1310000D03*
Y1322500D03*
Y1335000D03*
Y1347500D03*
Y1360000D03*
Y1372500D03*
X1579699Y1285000D03*
Y1297500D03*
Y1310000D03*
Y1322500D03*
Y1335000D03*
Y1347500D03*
Y1360000D03*
Y1372500D03*
X1632801Y915000D03*
X1642199D03*
X1740301Y922500D03*
Y937500D03*
X1749699Y922500D03*
Y937500D03*
X1872801Y1322500D03*
Y1335000D03*
X1882199Y1322500D03*
Y1335000D03*
X1942801Y990000D03*
Y1002500D03*
Y1015000D03*
Y1027500D03*
Y1040000D03*
Y1092500D03*
Y1107500D03*
Y1142500D03*
Y1155000D03*
X1952199Y990000D03*
Y1002500D03*
Y1015000D03*
Y1027500D03*
Y1040000D03*
Y1092500D03*
Y1107500D03*
Y1142500D03*
Y1155000D03*
X1995301Y1247500D03*
X2004699D03*
X2150301Y1442500D03*
X2159699D03*
X2185301D03*
X2194699D03*
X2207801D03*
X2217199D03*
X2260301Y1275000D03*
Y1287500D03*
Y1312500D03*
Y1325000D03*
Y1337500D03*
Y1350000D03*
Y1362500D03*
Y1375000D03*
Y1387500D03*
X2269699Y1275000D03*
Y1287500D03*
Y1312500D03*
Y1325000D03*
Y1337500D03*
Y1350000D03*
Y1362500D03*
Y1375000D03*
Y1387500D03*
X2290301Y1347500D03*
Y1415000D03*
Y1427500D03*
X2299699Y1347500D03*
Y1415000D03*
Y1427500D03*
X2405301Y1137500D03*
X2414699D03*
X2422801Y1157500D03*
Y1170000D03*
Y1182500D03*
Y1195000D03*
Y1207500D03*
Y1220000D03*
X2430301Y1137500D03*
X2432199Y1157500D03*
Y1170000D03*
Y1182500D03*
Y1195000D03*
Y1207500D03*
Y1220000D03*
X2439699Y1137500D03*
X2530301Y1087500D03*
Y1100000D03*
Y1112500D03*
Y1125000D03*
Y1137500D03*
Y1150000D03*
Y1162500D03*
X2539699Y1087500D03*
Y1100000D03*
Y1112500D03*
Y1125000D03*
Y1137500D03*
Y1150000D03*
Y1162500D03*
X2660301Y1090000D03*
Y1102500D03*
Y1130000D03*
Y1142500D03*
X2669699Y1090000D03*
Y1102500D03*
Y1130000D03*
Y1142500D03*
X2692801Y1372500D03*
Y1400000D03*
X2702199Y1372500D03*
Y1400000D03*
X2715301Y1005000D03*
X2717801Y1175000D03*
Y1332500D03*
X2724699Y1005000D03*
X2727199Y1175000D03*
Y1332500D03*
X2777801Y817500D03*
Y830000D03*
Y842500D03*
Y855000D03*
Y867500D03*
Y880000D03*
Y892500D03*
Y905000D03*
Y917500D03*
Y930000D03*
Y942500D03*
X2787199Y817500D03*
Y830000D03*
Y842500D03*
Y855000D03*
Y867500D03*
Y880000D03*
Y892500D03*
Y905000D03*
Y917500D03*
Y930000D03*
Y942500D03*
X2791801Y1352000D03*
X2801199D03*
X2806801Y1484500D03*
X2816199D03*
X2847801Y752500D03*
X2857199D03*
X2859301Y1484500D03*
X2868699D03*
X2877801Y1352500D03*
X2887199D03*
G54D13*
X56000Y818301D03*
Y827699D03*
X125000Y1480301D03*
Y1489699D03*
X137500Y1480301D03*
Y1489699D03*
X152500Y1480301D03*
Y1489699D03*
X167500Y1480301D03*
Y1489699D03*
X182500Y1480301D03*
Y1489699D03*
X195000Y1480301D03*
Y1489699D03*
X360000Y287801D03*
Y297199D03*
X362000Y162801D03*
Y172199D03*
X374500Y162801D03*
Y172199D03*
X375000Y287801D03*
Y297199D03*
X387000Y162801D03*
Y172199D03*
X387500Y287801D03*
Y297199D03*
X397000Y162801D03*
Y172199D03*
X400000Y287801D03*
Y297199D03*
X409500Y162801D03*
Y172199D03*
X412500Y287801D03*
Y297199D03*
X422000Y162801D03*
Y172199D03*
X425000Y287801D03*
Y297199D03*
X434500Y162801D03*
Y172199D03*
X437500Y287801D03*
Y297199D03*
X459000Y254301D03*
Y263699D03*
X572500Y492801D03*
Y502199D03*
Y582801D03*
Y592199D03*
X587500Y492801D03*
Y502199D03*
Y582801D03*
Y592199D03*
X602500Y492801D03*
Y502199D03*
Y582801D03*
Y592199D03*
X611500Y271301D03*
Y280699D03*
X617500Y492801D03*
Y502199D03*
Y582801D03*
Y592199D03*
X634000Y146301D03*
Y155699D03*
X645000Y525301D03*
Y534699D03*
X656500Y271301D03*
Y280699D03*
X660000Y525301D03*
Y534699D03*
X669000Y271301D03*
Y280699D03*
X714330Y423891D03*
Y433289D03*
X717500Y940301D03*
Y949699D03*
X726830Y423891D03*
Y433289D03*
X745000Y410301D03*
Y419699D03*
X762500Y410301D03*
Y419699D03*
Y982801D03*
Y992199D03*
X767500Y640301D03*
Y649699D03*
X780000Y380301D03*
Y389699D03*
Y410301D03*
Y419699D03*
X785000Y625301D03*
Y634699D03*
X795000Y380301D03*
Y389699D03*
Y410301D03*
Y419699D03*
X802500Y625301D03*
Y634699D03*
Y657801D03*
Y667199D03*
X810000Y380301D03*
Y389699D03*
Y410301D03*
Y419699D03*
X822500Y625301D03*
Y634699D03*
X832500Y657801D03*
Y667199D03*
X837500Y625301D03*
Y634699D03*
X845000Y380301D03*
Y389699D03*
Y410301D03*
Y419699D03*
X852500Y625301D03*
Y634699D03*
X862500Y410301D03*
Y419699D03*
Y657801D03*
Y667199D03*
X867500Y625301D03*
Y634699D03*
X875000Y410301D03*
Y419699D03*
Y657801D03*
Y667199D03*
X885000Y380301D03*
Y389699D03*
X887500Y410301D03*
Y419699D03*
X897500Y380301D03*
Y389699D03*
Y625301D03*
Y634699D03*
X900000Y410301D03*
Y419699D03*
Y652801D03*
Y662199D03*
X910000Y380301D03*
Y389699D03*
Y1232801D03*
Y1242199D03*
X912500Y625301D03*
Y634699D03*
X915000Y1122801D03*
Y1132199D03*
X922500Y380301D03*
Y389699D03*
X925000Y1232801D03*
Y1242199D03*
X927500Y1122801D03*
Y1132199D03*
X940000Y1122801D03*
Y1132199D03*
Y1232801D03*
Y1242199D03*
Y1257801D03*
Y1267199D03*
X950000Y392801D03*
Y402199D03*
Y415301D03*
Y424699D03*
X952500Y1122801D03*
Y1132199D03*
Y1232801D03*
Y1242199D03*
Y1257801D03*
Y1267199D03*
X1025000Y1017801D03*
Y1027199D03*
X1042500Y1017801D03*
Y1027199D03*
X1087500Y1017801D03*
Y1027199D03*
X1092500Y1407801D03*
Y1417199D03*
X1100000Y1017801D03*
Y1027199D03*
X1107500Y1407801D03*
Y1417199D03*
X1112500Y1017801D03*
Y1027199D03*
X1122500Y1407801D03*
Y1417199D03*
X1125000Y1017801D03*
Y1027199D03*
X1137500Y1017801D03*
Y1027199D03*
Y1407801D03*
Y1417199D03*
X1152500Y1407801D03*
Y1417199D03*
X1167500Y1407801D03*
Y1417199D03*
X1169250Y912551D03*
Y921949D03*
X1182500Y1017801D03*
Y1027199D03*
Y1407801D03*
Y1417199D03*
X1187500Y1320301D03*
Y1329699D03*
X1195000Y1017801D03*
Y1027199D03*
X1197500Y1407801D03*
Y1417199D03*
X1202500Y1320301D03*
Y1329699D03*
X1207500Y1017801D03*
Y1027199D03*
X1212500Y1407801D03*
Y1417199D03*
X1219250Y912551D03*
Y921949D03*
X1220000Y1017801D03*
Y1027199D03*
Y1320301D03*
Y1329699D03*
X1232500Y1017801D03*
Y1027199D03*
X1245000Y1017801D03*
Y1027199D03*
X1257500Y1017801D03*
Y1027199D03*
X1270000Y1017801D03*
Y1027199D03*
X1347500Y1020301D03*
Y1029699D03*
X1377500Y1020301D03*
Y1029699D03*
X1442500Y980301D03*
Y989699D03*
X1455000Y980301D03*
Y989699D03*
Y1292801D03*
Y1302199D03*
Y1330301D03*
Y1339699D03*
Y1352801D03*
Y1362199D03*
X1467500Y980301D03*
Y989699D03*
X1480000Y980301D03*
Y989699D03*
X1487500Y75301D03*
Y84699D03*
X1490000Y1285301D03*
Y1294699D03*
X1492500Y980301D03*
Y989699D03*
X1497500Y1252801D03*
Y1262199D03*
X1500000Y75301D03*
Y84699D03*
X1502500Y1285301D03*
Y1294699D03*
X1505000Y980301D03*
Y989699D03*
X1510000Y1252801D03*
Y1262199D03*
X1512500Y75301D03*
Y84699D03*
X1515000Y1285301D03*
Y1294699D03*
X1517500Y980301D03*
Y989699D03*
X1522500Y1387801D03*
Y1397199D03*
X1527500Y1285301D03*
Y1294699D03*
X1530000Y980301D03*
Y989699D03*
X1535000Y1387801D03*
Y1397199D03*
X1540000Y1285301D03*
Y1294699D03*
X1542500Y980301D03*
Y989699D03*
X1552500Y1285301D03*
Y1294699D03*
Y1387801D03*
Y1397199D03*
X1555000Y980301D03*
Y989699D03*
X1560000Y1252801D03*
Y1262199D03*
X1565000Y1387801D03*
Y1397199D03*
X1572500Y1252801D03*
Y1262199D03*
X1577500Y1387801D03*
Y1397199D03*
X1737500Y955301D03*
Y964699D03*
X1750000Y955301D03*
Y964699D03*
X1762500Y955301D03*
Y964699D03*
X1767500Y882801D03*
Y892199D03*
X1770000Y987801D03*
Y997199D03*
X1775000Y955301D03*
Y964699D03*
X1782500Y882801D03*
Y892199D03*
Y987801D03*
Y997199D03*
X1787500Y955301D03*
Y964699D03*
X1795000Y987801D03*
Y997199D03*
X1797500Y882801D03*
Y892199D03*
X1800000Y955301D03*
Y964699D03*
X1807500Y987801D03*
Y997199D03*
X1812500Y955301D03*
Y964699D03*
X1820000Y987801D03*
Y997199D03*
X1832500Y987801D03*
Y997199D03*
X1845000Y987801D03*
Y997199D03*
X1857500Y987801D03*
Y997199D03*
X1870000Y987801D03*
Y997199D03*
Y1237801D03*
Y1247199D03*
X1875000Y1200301D03*
Y1209699D03*
X1882500Y987801D03*
Y997199D03*
X1890000Y1200301D03*
Y1209699D03*
Y1237801D03*
Y1247199D03*
X1895000Y987801D03*
Y997199D03*
Y1322801D03*
Y1332199D03*
X2015000Y1340301D03*
Y1349699D03*
X2292500Y1277801D03*
Y1287199D03*
X2352500Y1217801D03*
Y1227199D03*
X2360000Y1127801D03*
Y1137199D03*
X2365000Y1217801D03*
Y1227199D03*
X2377500Y1217801D03*
Y1227199D03*
X2390000Y1217801D03*
Y1227199D03*
X2402500Y1217801D03*
Y1227199D03*
X2425000Y1375301D03*
Y1384699D03*
Y1397801D03*
Y1407199D03*
X2440000Y1375301D03*
Y1384699D03*
X2455000Y1375301D03*
Y1384699D03*
X2460000Y1190301D03*
Y1199699D03*
X2510000Y1137801D03*
Y1147199D03*
Y1162801D03*
Y1172199D03*
X2560000Y1185301D03*
Y1194699D03*
X2585000Y1185301D03*
Y1194699D03*
X2592500Y1052801D03*
Y1062199D03*
X2597500Y1185301D03*
Y1194699D03*
X2610000Y1185301D03*
Y1194699D03*
X2622500Y1185301D03*
Y1194699D03*
X2635000Y1185301D03*
Y1194699D03*
X2637500Y1050301D03*
Y1059699D03*
X2647500Y1185301D03*
Y1194699D03*
G54D14*
X2270000Y1142500D03*
Y1222500D03*
G54D15*
X692500Y448000D03*
Y467000D03*
X697500Y448000D03*
Y467000D03*
X702500Y448000D03*
Y467000D03*
X707500Y448000D03*
Y467000D03*
G54D16*
X700000Y457500D03*
G54D17*
X1898500Y816500D03*
Y823000D03*
Y829500D03*
Y836000D03*
Y842500D03*
Y849000D03*
Y855500D03*
Y862000D03*
Y868500D03*
Y875000D03*
Y881500D03*
Y888000D03*
Y894500D03*
Y901000D03*
Y907500D03*
Y914000D03*
Y920500D03*
Y927000D03*
Y933500D03*
X1996500Y816500D03*
Y823000D03*
Y829500D03*
Y836000D03*
Y842500D03*
Y849000D03*
Y855500D03*
Y862000D03*
Y868500D03*
Y875000D03*
Y881500D03*
Y888000D03*
Y894500D03*
Y901000D03*
Y907500D03*
Y914000D03*
Y920500D03*
Y927000D03*
Y933500D03*
G54D18*
X2382500Y1055522D03*
Y1084478D03*
X2490000Y1330522D03*
Y1359478D03*
X2527500Y1330522D03*
Y1359478D03*
X2585000Y1330522D03*
Y1359478D03*
X2620000Y1330522D03*
Y1359478D03*
G54D19*
X1817500Y910000D03*
X1872500D03*
G54D20*
X2552500Y1272500D03*
G54D21*
X2533450Y1245195D03*
Y1299805D03*
X2546150Y1245195D03*
Y1299805D03*
X2558850Y1245195D03*
Y1299805D03*
X2571550Y1245195D03*
Y1299805D03*
G54D22*
X635465Y84450D03*
Y97150D03*
Y109850D03*
Y122550D03*
X640465Y301950D03*
Y314650D03*
Y327350D03*
Y340050D03*
X687535Y84450D03*
Y97150D03*
Y109850D03*
Y122550D03*
X692535Y301950D03*
Y314650D03*
Y327350D03*
Y340050D03*
X1615670Y990550D03*
Y1003250D03*
Y1015950D03*
Y1028650D03*
Y1041350D03*
Y1054050D03*
Y1066750D03*
Y1079450D03*
Y1113050D03*
Y1125750D03*
Y1138450D03*
Y1151150D03*
Y1163850D03*
Y1176550D03*
Y1189250D03*
Y1201950D03*
X1689330Y990550D03*
Y1003250D03*
Y1015950D03*
Y1028650D03*
Y1041350D03*
Y1054050D03*
Y1066750D03*
Y1079450D03*
Y1113050D03*
Y1125750D03*
Y1138450D03*
Y1151150D03*
Y1163850D03*
Y1176550D03*
Y1189250D03*
Y1201950D03*
X2043965Y1253450D03*
Y1266150D03*
Y1278850D03*
Y1291550D03*
X2096035Y1253450D03*
Y1266150D03*
Y1278850D03*
Y1291550D03*
G54D23*
X2144500Y1272000D03*
Y1388000D03*
X2148500Y1272000D03*
Y1388000D03*
X2152500Y1272000D03*
Y1388000D03*
X2156500Y1272000D03*
Y1388000D03*
X2160500Y1272000D03*
Y1388000D03*
X2164500Y1272000D03*
Y1388000D03*
X2168500Y1272000D03*
Y1388000D03*
X2172500Y1272000D03*
Y1388000D03*
X2176500Y1272000D03*
Y1388000D03*
X2180500Y1272000D03*
Y1388000D03*
X2184500Y1272000D03*
Y1388000D03*
X2188500Y1272000D03*
Y1388000D03*
X2192500Y1272000D03*
Y1388000D03*
X2196500Y1272000D03*
Y1388000D03*
X2200500Y1272000D03*
Y1388000D03*
X2204500Y1272000D03*
Y1388000D03*
X2208500Y1272000D03*
Y1388000D03*
X2212500Y1272000D03*
Y1388000D03*
X2216500Y1272000D03*
Y1388000D03*
X2220500Y1272000D03*
Y1388000D03*
G54D24*
X2124500Y1292000D03*
Y1296000D03*
Y1300000D03*
Y1304000D03*
Y1308000D03*
Y1312000D03*
Y1316000D03*
Y1320000D03*
Y1324000D03*
Y1328000D03*
Y1332000D03*
Y1336000D03*
Y1340000D03*
Y1344000D03*
Y1348000D03*
Y1352000D03*
Y1356000D03*
Y1360000D03*
Y1364000D03*
Y1368000D03*
X2240500Y1292000D03*
Y1296000D03*
Y1300000D03*
Y1304000D03*
Y1308000D03*
Y1312000D03*
Y1316000D03*
Y1320000D03*
Y1324000D03*
Y1328000D03*
Y1332000D03*
Y1336000D03*
Y1340000D03*
Y1344000D03*
Y1348000D03*
Y1352000D03*
Y1356000D03*
Y1360000D03*
Y1364000D03*
Y1368000D03*
G54D25*
X95500Y1316500D03*
X387000Y312500D03*
X399500D03*
X473000Y333000D03*
X489000Y219000D03*
X504000Y218000D03*
X516500Y324000D03*
X545000Y507500D03*
X572500Y467500D03*
Y480000D03*
X587500Y467500D03*
Y480000D03*
X602500Y467500D03*
Y480000D03*
X617500Y467500D03*
Y480000D03*
X651500Y156000D03*
X681500Y271000D03*
X712500Y326500D03*
X727500Y450000D03*
X740000D03*
X1265000Y940000D03*
Y950000D03*
X1357500Y1295000D03*
X1370000D03*
X1455000Y1315000D03*
X2112500Y1255000D03*
Y1265000D03*
X2127500Y1405000D03*
Y1417500D03*
X2145000Y1215000D03*
X2160000Y1255000D03*
X2170000D03*
X2180000D03*
X2185000Y1212500D03*
X2190000Y1255000D03*
X2200000D03*
X2210000Y1162500D03*
Y1175000D03*
Y1187500D03*
Y1255000D03*
X2220000D03*
X2455000Y1417500D03*
X2532500Y1075000D03*
X2537500Y1182500D03*
X2547500Y1195000D03*
X2552500Y1172500D03*
X2577500Y1207500D03*
X2605000Y1125000D03*
X2607500Y1220000D03*
Y1230000D03*
X2620000Y1210000D03*
X2635000D03*
G54D26*
X1309000Y1016750D03*
Y1033250D03*
X1331000Y1016750D03*
Y1033250D03*
X1486500Y1386750D03*
Y1403250D03*
X1508500Y1386750D03*
Y1403250D03*
G54D27*
X982500Y1065500D03*
Y1084500D03*
X997500Y1065500D03*
Y1084500D03*
G54D28*
X521500Y104500D03*
Y182500D03*
G54D29*
X1707500Y1322500D03*
X1767500D03*
G54D30*
X1768250Y917950D03*
X1796250D03*
Y935950D03*
X2034000Y880000D03*
Y885000D03*
Y890000D03*
Y895000D03*
Y910000D03*
Y915000D03*
Y920000D03*
Y925000D03*
X2046000Y880000D03*
Y885000D03*
Y890000D03*
Y895000D03*
Y910000D03*
Y915000D03*
Y920000D03*
Y925000D03*
X2331000Y1160000D03*
Y1165000D03*
Y1170000D03*
Y1175000D03*
Y1180000D03*
Y1185000D03*
Y1190000D03*
Y1195000D03*
X2399000Y1160000D03*
Y1165000D03*
Y1170000D03*
Y1175000D03*
Y1180000D03*
Y1185000D03*
Y1190000D03*
Y1195000D03*
G54D31*
X727500Y982500D03*
X1402500Y1345000D03*
X2365000Y1177500D03*
G54D32*
X588500Y92000D03*
Y101500D03*
Y111000D03*
X614500Y92000D03*
Y101500D03*
Y111000D03*
X616500Y144142D03*
Y157858D03*
X629000Y269142D03*
Y282858D03*
X725670Y634552D03*
Y648268D03*
X735000Y938142D03*
Y951858D03*
X745000Y380642D03*
Y394358D03*
X762500Y380642D03*
Y394358D03*
X817500Y655642D03*
Y669358D03*
X827500Y378142D03*
Y391858D03*
Y408142D03*
Y421858D03*
X847500Y655642D03*
Y669358D03*
X915000Y650642D03*
Y664358D03*
X940000Y618142D03*
Y631858D03*
Y650642D03*
Y664358D03*
X1362500Y1018142D03*
Y1031858D03*
X1382500Y973142D03*
Y986858D03*
X1475000Y1315642D03*
Y1329358D03*
X1910000Y985642D03*
Y999358D03*
X2215000Y1408142D03*
Y1421858D03*
X2475000Y1188142D03*
Y1201858D03*
X2490000Y1188142D03*
Y1201858D03*
X2512500Y1288142D03*
Y1301858D03*
X2655000Y1045642D03*
Y1059358D03*
G54D33*
X980475Y1162500D03*
Y1185000D03*
Y1207500D03*
Y1230000D03*
Y1252500D03*
Y1275000D03*
X999525Y1162500D03*
Y1185000D03*
Y1207500D03*
Y1230000D03*
Y1252500D03*
Y1275000D03*
X1335475Y1167500D03*
Y1190000D03*
X1354525Y1167500D03*
Y1190000D03*
X1375475Y1167500D03*
Y1190000D03*
X1394525Y1167500D03*
Y1190000D03*
X1850475Y960000D03*
X1869525D03*
X1997975Y1187500D03*
X2017025D03*
X2430475Y1355000D03*
X2449525D03*
G54D34*
X667142Y151000D03*
X680858D03*
X693142Y485000D03*
Y522500D03*
Y547500D03*
Y587500D03*
X706858Y485000D03*
Y522500D03*
Y547500D03*
Y587500D03*
X710642Y1015000D03*
X724358D03*
X910642Y1262500D03*
X924358D03*
X950642Y1102500D03*
X964358D03*
X983142Y1032500D03*
X988142Y1142500D03*
X996858Y1032500D03*
X1001858Y1142500D03*
X1155642Y985000D03*
X1169358D03*
X1280642Y1140250D03*
X1294358D03*
X1338142Y1085000D03*
Y1115000D03*
X1343142Y1147500D03*
Y1210000D03*
Y1227500D03*
X1351858Y1085000D03*
Y1115000D03*
X1356858Y1147500D03*
Y1210000D03*
Y1227500D03*
X1368142Y1050000D03*
Y1067500D03*
Y1100000D03*
Y1117500D03*
X1373142Y1147500D03*
Y1210000D03*
X1381858Y1050000D03*
Y1067500D03*
Y1100000D03*
Y1117500D03*
X1386858Y1147500D03*
Y1210000D03*
X1398142Y1100000D03*
Y1117500D03*
X1411858Y1100000D03*
Y1117500D03*
X1655642Y915000D03*
X1669358D03*
X1690602Y910435D03*
Y934565D03*
X1693142Y950000D03*
X1700000Y910435D03*
X1706858Y950000D03*
X1709398Y910435D03*
Y934565D03*
X1738142Y885000D03*
Y905000D03*
X1751858Y885000D03*
Y905000D03*
X1873142Y1350000D03*
X1886858D03*
X1940642Y1125000D03*
X1954358D03*
X2288142Y1332500D03*
Y1400000D03*
X2301858Y1332500D03*
Y1400000D03*
X2323142Y1310000D03*
X2330642Y1117500D03*
Y1135000D03*
X2336858Y1310000D03*
X2344358Y1117500D03*
Y1135000D03*
X2353142Y1310000D03*
X2366858D03*
X2393142D03*
X2406858D03*
X2423142D03*
X2433142Y1335000D03*
X2436858Y1310000D03*
X2440642Y1402500D03*
X2446858Y1335000D03*
X2454358Y1402500D03*
X2480475Y1377300D03*
Y1402700D03*
X2490000Y1377300D03*
Y1402700D03*
X2499525Y1377300D03*
Y1402700D03*
X2517975Y1377300D03*
Y1402700D03*
X2527500Y1377300D03*
Y1402700D03*
X2533142Y1225000D03*
X2537025Y1377300D03*
Y1402700D03*
X2546858Y1225000D03*
X2563142D03*
X2575475Y1377300D03*
Y1402700D03*
X2576858Y1225000D03*
X2585000Y1377300D03*
Y1402700D03*
X2594525Y1377300D03*
Y1402700D03*
X2610475Y1377300D03*
Y1402700D03*
X2620000Y1377300D03*
Y1402700D03*
X2629525Y1377300D03*
Y1402700D03*
X2715642Y1142500D03*
X2718142Y1310000D03*
X2729358Y1142500D03*
X2731858Y1310000D03*
X2753142Y1375000D03*
X2766858D03*
X2818142Y1352500D03*
X2830642Y1485000D03*
X2831858Y1352500D03*
X2844358Y1485000D03*
X2848142Y1352500D03*
X2861858D03*
X2903142D03*
X2916858D03*
G54D35*
X1790750Y931050D03*
G54D36*
X1775250Y925150D03*
Y936750D03*
G54D37*
X32000Y331000D03*
Y741000D03*
Y1436000D03*
X355000Y55000D03*
X405000Y735000D03*
X632000Y1470000D03*
X927500Y1305000D03*
X1885000Y680000D03*
X1955000Y206500D03*
X2712000Y1470000D03*
X2885000Y376000D03*
Y671000D03*
G54D38*
X717500Y967500D03*
Y997500D03*
X722500Y967500D03*
Y997500D03*
X727500Y967500D03*
Y997500D03*
X732500Y967500D03*
Y997500D03*
X737500Y967500D03*
Y997500D03*
G54D39*
X1880000Y1285000D03*
G54D40*
X1870250Y1263500D03*
Y1306500D03*
X1876750Y1263500D03*
Y1306500D03*
X1883250Y1263500D03*
Y1306500D03*
X1889750Y1263500D03*
Y1306500D03*
G54D41*
X2057650Y1060150D03*
Y1072850D03*
Y1085550D03*
Y1098250D03*
Y1110950D03*
Y1123650D03*
Y1136350D03*
Y1149050D03*
Y1161750D03*
Y1174450D03*
Y1187150D03*
Y1199850D03*
X2070350Y1060150D03*
Y1072850D03*
Y1085550D03*
Y1098250D03*
Y1110950D03*
Y1123650D03*
Y1136350D03*
Y1149050D03*
Y1161750D03*
Y1174450D03*
Y1187150D03*
Y1199850D03*
X2083050Y1060150D03*
Y1072850D03*
Y1085550D03*
Y1098250D03*
Y1110950D03*
Y1123650D03*
Y1136350D03*
Y1149050D03*
Y1161750D03*
Y1174450D03*
Y1187150D03*
Y1199850D03*
X2095750Y1060150D03*
Y1072850D03*
Y1085550D03*
Y1098250D03*
Y1110950D03*
Y1123650D03*
Y1136350D03*
Y1149050D03*
Y1161750D03*
Y1174450D03*
Y1187150D03*
Y1199850D03*
X2108450Y1060150D03*
Y1072850D03*
Y1085550D03*
Y1098250D03*
Y1110950D03*
Y1123650D03*
Y1136350D03*
Y1149050D03*
Y1161750D03*
Y1174450D03*
Y1187150D03*
Y1199850D03*
X2121150Y1060150D03*
Y1072850D03*
Y1085550D03*
Y1098250D03*
Y1110950D03*
Y1123650D03*
Y1136350D03*
Y1149050D03*
Y1161750D03*
Y1174450D03*
Y1187150D03*
Y1199850D03*
X2133850Y1060150D03*
Y1072850D03*
Y1085550D03*
Y1098250D03*
Y1110950D03*
Y1123650D03*
Y1136350D03*
Y1149050D03*
Y1174450D03*
Y1187150D03*
Y1199850D03*
X2146550Y1060150D03*
Y1072850D03*
Y1085550D03*
Y1098250D03*
Y1110950D03*
Y1123650D03*
Y1136350D03*
Y1149050D03*
Y1199850D03*
X2159250Y1060150D03*
Y1072850D03*
Y1085550D03*
Y1098250D03*
Y1110950D03*
Y1123650D03*
Y1136350D03*
Y1161750D03*
Y1187150D03*
Y1199850D03*
X2171950Y1060150D03*
Y1072850D03*
Y1085550D03*
Y1098250D03*
Y1110950D03*
Y1123650D03*
Y1174450D03*
Y1199850D03*
X2184650Y1060150D03*
Y1072850D03*
Y1085550D03*
Y1098250D03*
Y1110950D03*
Y1123650D03*
Y1149050D03*
Y1161750D03*
Y1174450D03*
Y1187150D03*
Y1199850D03*
X2197350Y1060150D03*
Y1072850D03*
Y1085550D03*
Y1098250D03*
Y1110950D03*
Y1123650D03*
Y1136350D03*
Y1149050D03*
Y1161750D03*
Y1174450D03*
Y1187150D03*
Y1199850D03*
G54D42*
X363737Y200790D03*
Y259210D03*
X370239Y200790D03*
Y259210D03*
X376742Y200790D03*
Y259210D03*
X383244Y200790D03*
Y259210D03*
X389746Y200790D03*
Y259210D03*
X396249Y200790D03*
Y259210D03*
X402751Y200790D03*
Y259210D03*
X409254Y200790D03*
Y259210D03*
X415756Y200790D03*
Y259210D03*
X422258Y200790D03*
Y259210D03*
X428761Y200790D03*
Y259210D03*
X435263Y200790D03*
Y259210D03*
X610737Y175377D03*
Y246624D03*
X617239Y175377D03*
Y246624D03*
X623742Y175377D03*
Y246624D03*
X630244Y175377D03*
Y246624D03*
X636746Y175377D03*
Y246624D03*
X643249Y175377D03*
Y246624D03*
X649751Y175377D03*
Y246624D03*
X656254Y175377D03*
Y246624D03*
X662756Y175377D03*
Y246624D03*
X669258Y175377D03*
Y246624D03*
X675761Y175377D03*
Y246624D03*
X682263Y175377D03*
Y246624D03*
X909750Y1152800D03*
Y1212200D03*
X916250Y1152800D03*
X916251Y1212200D03*
X922750Y1152800D03*
X922751Y1212200D03*
X929250Y1152800D03*
X929251Y1212200D03*
X935749Y1152800D03*
X935750Y1212200D03*
X942249Y1152800D03*
X942250Y1212200D03*
X948749Y1152800D03*
X948750Y1212200D03*
X955249Y1152800D03*
X955250Y1212200D03*
G54D43*
X1786008Y1215095D03*
G54D44*
Y1198000D03*
X1803992D03*
Y1217000D03*
G54D45*
X2812648Y775000D03*
X2857352D03*
G54D46*
X1108022Y992500D03*
X1136978D03*
X1188022D03*
X1216978D03*
X1238022D03*
X1266978D03*
G54D47*
X696830Y384065D03*
Y403115D03*
X721830Y384065D03*
Y403115D03*
X762500Y947975D03*
Y967025D03*
X1235000Y1370475D03*
Y1389525D03*
X1257500Y1370475D03*
Y1389525D03*
X1280000Y1370475D03*
Y1389525D03*
X1302500Y1370475D03*
Y1389525D03*
X2295000Y1362975D03*
Y1382025D03*
G54D48*
X519500Y722000D03*
Y1378000D03*
X720250Y680100D03*
Y1427100D03*
G54D49*
X599000Y736500D03*
Y742500D03*
Y748500D03*
Y754500D03*
Y760500D03*
Y766500D03*
Y772500D03*
Y778500D03*
Y784500D03*
Y790500D03*
Y796500D03*
Y802500D03*
Y808500D03*
Y814500D03*
Y820500D03*
Y826500D03*
Y832500D03*
Y838500D03*
Y844500D03*
Y850500D03*
Y856500D03*
Y862500D03*
Y868500D03*
Y874500D03*
Y880500D03*
Y886500D03*
Y892500D03*
Y898500D03*
Y904500D03*
Y910500D03*
Y916500D03*
Y922500D03*
Y928500D03*
Y934500D03*
Y940500D03*
Y946500D03*
Y976500D03*
Y982500D03*
Y988500D03*
Y994500D03*
Y1000500D03*
Y1006500D03*
Y1012500D03*
Y1018500D03*
Y1024500D03*
Y1030500D03*
Y1036500D03*
Y1042500D03*
Y1048500D03*
Y1054500D03*
Y1060500D03*
Y1066500D03*
Y1072500D03*
Y1078500D03*
Y1084500D03*
Y1090500D03*
Y1096500D03*
Y1102500D03*
Y1108500D03*
Y1114500D03*
Y1120500D03*
Y1126500D03*
Y1132500D03*
Y1138500D03*
Y1144500D03*
Y1150500D03*
Y1156500D03*
Y1162500D03*
Y1168500D03*
Y1174500D03*
Y1180500D03*
Y1186500D03*
Y1192500D03*
Y1198500D03*
Y1204500D03*
Y1210500D03*
Y1216500D03*
Y1222500D03*
Y1228500D03*
Y1234500D03*
Y1240500D03*
Y1246500D03*
Y1252500D03*
Y1258500D03*
Y1264500D03*
Y1270500D03*
Y1276500D03*
Y1282500D03*
Y1288500D03*
Y1294500D03*
Y1300500D03*
Y1306500D03*
Y1312500D03*
Y1318500D03*
Y1324500D03*
Y1330500D03*
Y1336500D03*
Y1342500D03*
Y1348500D03*
Y1354500D03*
Y1360500D03*
Y1366500D03*
X681000Y733500D03*
Y739500D03*
Y745500D03*
Y751500D03*
Y757500D03*
Y763500D03*
Y769500D03*
Y775500D03*
Y781500D03*
Y787500D03*
Y793500D03*
Y799500D03*
Y805500D03*
Y811500D03*
Y817500D03*
Y823500D03*
Y829500D03*
Y835500D03*
Y841500D03*
Y847500D03*
Y853500D03*
Y859500D03*
Y865500D03*
Y871500D03*
Y877500D03*
Y883500D03*
Y889500D03*
Y895500D03*
Y901500D03*
Y907500D03*
Y913500D03*
Y919500D03*
Y925500D03*
Y931500D03*
Y937500D03*
Y943500D03*
Y973500D03*
Y979500D03*
Y985500D03*
Y991500D03*
Y997500D03*
Y1003500D03*
Y1009500D03*
Y1015500D03*
Y1021500D03*
Y1027500D03*
Y1033500D03*
Y1039500D03*
Y1045500D03*
Y1051500D03*
Y1057500D03*
Y1063500D03*
Y1069500D03*
Y1075500D03*
Y1081500D03*
Y1087500D03*
Y1093500D03*
Y1099500D03*
Y1105500D03*
Y1111500D03*
Y1117500D03*
Y1123500D03*
Y1129500D03*
Y1135500D03*
Y1141500D03*
Y1147500D03*
Y1153500D03*
Y1159500D03*
Y1165500D03*
Y1171500D03*
Y1177500D03*
Y1183500D03*
Y1189500D03*
Y1195500D03*
Y1201500D03*
Y1207500D03*
Y1213500D03*
Y1219500D03*
Y1225500D03*
Y1231500D03*
Y1237500D03*
Y1243500D03*
Y1249500D03*
Y1255500D03*
Y1261500D03*
Y1267500D03*
Y1273500D03*
Y1279500D03*
Y1285500D03*
Y1291500D03*
Y1297500D03*
Y1303500D03*
Y1309500D03*
Y1315500D03*
Y1321500D03*
Y1327500D03*
Y1333500D03*
Y1339500D03*
Y1345500D03*
Y1351500D03*
Y1357500D03*
Y1363500D03*
X792250Y736500D03*
Y742500D03*
Y748500D03*
Y754500D03*
Y760500D03*
Y766500D03*
Y772500D03*
Y778500D03*
Y784500D03*
Y790500D03*
Y796500D03*
Y802500D03*
Y808500D03*
Y814500D03*
Y820500D03*
Y826500D03*
Y832500D03*
Y838500D03*
Y844500D03*
Y850500D03*
Y856500D03*
Y862500D03*
Y868500D03*
Y874500D03*
Y880500D03*
Y886500D03*
Y892500D03*
Y898500D03*
Y904500D03*
Y910500D03*
Y916500D03*
Y922500D03*
Y928500D03*
Y934500D03*
Y940500D03*
Y946500D03*
Y976500D03*
Y982500D03*
Y988500D03*
Y994500D03*
Y1000500D03*
Y1006500D03*
Y1012500D03*
Y1018500D03*
Y1024500D03*
Y1030500D03*
Y1036500D03*
Y1042500D03*
Y1048500D03*
Y1054500D03*
Y1060500D03*
Y1066500D03*
Y1072500D03*
Y1078500D03*
Y1084500D03*
Y1090500D03*
Y1096500D03*
Y1102500D03*
Y1108500D03*
Y1114500D03*
Y1120500D03*
Y1126500D03*
Y1132500D03*
Y1138500D03*
Y1144500D03*
Y1150500D03*
Y1156500D03*
Y1162500D03*
Y1168500D03*
Y1174500D03*
Y1180500D03*
Y1186500D03*
Y1192500D03*
Y1198500D03*
Y1204500D03*
Y1210500D03*
Y1216500D03*
Y1222500D03*
Y1228500D03*
Y1234500D03*
Y1240500D03*
Y1246500D03*
Y1252500D03*
Y1258500D03*
Y1264500D03*
Y1270500D03*
Y1276500D03*
Y1282500D03*
Y1288500D03*
Y1294500D03*
Y1300500D03*
Y1306500D03*
Y1312500D03*
Y1318500D03*
Y1324500D03*
Y1330500D03*
Y1336500D03*
Y1342500D03*
Y1348500D03*
Y1354500D03*
Y1360500D03*
Y1366500D03*
X874250Y733500D03*
Y739500D03*
Y745500D03*
Y751500D03*
Y757500D03*
Y763500D03*
Y769500D03*
Y775500D03*
Y781500D03*
Y787500D03*
Y793500D03*
Y799500D03*
Y805500D03*
Y811500D03*
Y817500D03*
Y823500D03*
Y829500D03*
Y835500D03*
Y841500D03*
Y847500D03*
Y853500D03*
Y859500D03*
Y865500D03*
Y871500D03*
Y877500D03*
Y883500D03*
Y889500D03*
Y895500D03*
Y901500D03*
Y907500D03*
Y913500D03*
Y919500D03*
Y925500D03*
Y931500D03*
Y937500D03*
Y943500D03*
Y973500D03*
Y979500D03*
Y985500D03*
Y991500D03*
Y997500D03*
Y1003500D03*
Y1009500D03*
Y1015500D03*
Y1021500D03*
Y1027500D03*
Y1033500D03*
Y1039500D03*
Y1045500D03*
Y1051500D03*
Y1057500D03*
Y1063500D03*
Y1069500D03*
Y1075500D03*
Y1081500D03*
Y1087500D03*
Y1093500D03*
Y1099500D03*
Y1105500D03*
Y1111500D03*
Y1117500D03*
Y1123500D03*
Y1129500D03*
Y1135500D03*
Y1141500D03*
Y1147500D03*
Y1153500D03*
Y1159500D03*
Y1165500D03*
Y1171500D03*
Y1177500D03*
Y1183500D03*
Y1189500D03*
Y1195500D03*
Y1201500D03*
Y1207500D03*
Y1213500D03*
Y1219500D03*
Y1225500D03*
Y1231500D03*
Y1237500D03*
Y1243500D03*
Y1249500D03*
Y1255500D03*
Y1261500D03*
Y1267500D03*
Y1273500D03*
Y1279500D03*
Y1285500D03*
Y1291500D03*
Y1297500D03*
Y1303500D03*
Y1309500D03*
Y1315500D03*
Y1321500D03*
Y1327500D03*
Y1333500D03*
Y1339500D03*
Y1345500D03*
Y1351500D03*
Y1357500D03*
Y1363500D03*
G54D50*
X1525000Y1340000D03*
X1975000Y1410000D03*
G54D51*
X1928000D03*
X2022000D03*
G54D52*
X1870000Y209400D03*
Y285600D03*
G54D53*
X2337500Y1035830D03*
Y1089170D03*
G54D54*
X1616000Y1433500D03*
X1789000D03*
X2238250Y1037500D03*
Y1090000D03*
X2301750Y1037500D03*
Y1090000D03*
X2476500Y1450000D03*
X2538500D03*
X2571500D03*
X2633500D03*
G54D55*
X551000Y226790D03*
Y285210D03*
G54D56*
X1087500Y987642D03*
Y1001358D03*
X1342500Y1368142D03*
Y1381858D03*
X1720000Y38142D03*
Y51858D03*
G54D57*
X974050Y394000D03*
Y414000D03*
Y434000D03*
X2755000Y1035000D03*
Y1060000D03*
Y1080000D03*
Y1105000D03*
Y1215000D03*
Y1240000D03*
Y1260000D03*
Y1285000D03*
X2770000Y1030000D03*
Y1050000D03*
Y1070000D03*
Y1090000D03*
Y1110000D03*
Y1210000D03*
Y1230000D03*
Y1250000D03*
Y1270000D03*
Y1290000D03*
G54D58*
X478840Y316500D03*
X499160Y306975D03*
Y326025D03*
X1205840Y40475D03*
Y59525D03*
X1226160Y50000D03*
X1240840Y40475D03*
Y59525D03*
X1261160Y50000D03*
X1679840Y35475D03*
Y54525D03*
X1700160Y45000D03*
X2537340Y1052500D03*
X2557660Y1042975D03*
Y1062025D03*
G54D59*
X1026500Y1072000D03*
Y1080000D03*
Y1088000D03*
Y1096000D03*
Y1104000D03*
Y1112000D03*
Y1120000D03*
Y1128000D03*
Y1136000D03*
Y1144000D03*
Y1152000D03*
Y1160000D03*
Y1168000D03*
Y1176000D03*
Y1184000D03*
Y1192000D03*
Y1200000D03*
Y1208000D03*
Y1216000D03*
Y1224000D03*
Y1232000D03*
Y1240000D03*
Y1248000D03*
Y1256000D03*
Y1264000D03*
Y1272000D03*
Y1280000D03*
Y1288000D03*
X1034500Y1064000D03*
Y1072000D03*
Y1080000D03*
Y1088000D03*
Y1096000D03*
Y1104000D03*
Y1112000D03*
Y1120000D03*
Y1128000D03*
Y1136000D03*
Y1144000D03*
Y1152000D03*
Y1160000D03*
Y1168000D03*
Y1176000D03*
Y1184000D03*
Y1192000D03*
Y1200000D03*
Y1208000D03*
Y1216000D03*
Y1224000D03*
Y1232000D03*
Y1240000D03*
Y1248000D03*
Y1256000D03*
Y1264000D03*
Y1272000D03*
Y1280000D03*
Y1288000D03*
Y1296000D03*
X1042500Y1064000D03*
Y1072000D03*
Y1080000D03*
Y1088000D03*
Y1096000D03*
Y1104000D03*
Y1112000D03*
Y1120000D03*
Y1128000D03*
Y1136000D03*
Y1144000D03*
Y1152000D03*
Y1160000D03*
Y1168000D03*
Y1176000D03*
Y1184000D03*
Y1192000D03*
Y1200000D03*
Y1208000D03*
Y1216000D03*
Y1224000D03*
Y1232000D03*
Y1240000D03*
Y1248000D03*
Y1256000D03*
Y1264000D03*
Y1272000D03*
Y1280000D03*
Y1288000D03*
Y1296000D03*
X1050500Y1064000D03*
Y1072000D03*
Y1080000D03*
Y1088000D03*
Y1096000D03*
Y1104000D03*
Y1112000D03*
Y1120000D03*
Y1128000D03*
Y1136000D03*
Y1144000D03*
Y1152000D03*
Y1160000D03*
Y1168000D03*
Y1176000D03*
Y1184000D03*
Y1192000D03*
Y1200000D03*
Y1208000D03*
Y1216000D03*
Y1224000D03*
Y1232000D03*
Y1240000D03*
Y1248000D03*
Y1256000D03*
Y1264000D03*
Y1272000D03*
Y1280000D03*
Y1288000D03*
Y1296000D03*
X1058500Y1064000D03*
Y1072000D03*
Y1080000D03*
Y1088000D03*
Y1096000D03*
Y1104000D03*
Y1112000D03*
Y1120000D03*
Y1128000D03*
Y1136000D03*
Y1144000D03*
Y1152000D03*
Y1160000D03*
Y1168000D03*
Y1176000D03*
Y1184000D03*
Y1192000D03*
Y1200000D03*
Y1208000D03*
Y1216000D03*
Y1224000D03*
Y1232000D03*
Y1240000D03*
Y1248000D03*
Y1256000D03*
Y1264000D03*
Y1272000D03*
Y1280000D03*
Y1288000D03*
Y1296000D03*
X1066500Y1064000D03*
Y1072000D03*
Y1080000D03*
Y1088000D03*
Y1096000D03*
Y1104000D03*
Y1112000D03*
Y1120000D03*
Y1128000D03*
Y1136000D03*
Y1144000D03*
Y1152000D03*
Y1160000D03*
Y1168000D03*
Y1176000D03*
Y1184000D03*
Y1192000D03*
Y1200000D03*
Y1208000D03*
Y1216000D03*
Y1224000D03*
Y1232000D03*
Y1240000D03*
Y1248000D03*
Y1256000D03*
Y1264000D03*
Y1272000D03*
Y1280000D03*
Y1288000D03*
Y1296000D03*
X1074500Y1064000D03*
Y1072000D03*
Y1080000D03*
Y1088000D03*
Y1096000D03*
Y1104000D03*
Y1112000D03*
Y1120000D03*
Y1128000D03*
Y1136000D03*
Y1144000D03*
Y1152000D03*
Y1160000D03*
Y1168000D03*
Y1176000D03*
Y1184000D03*
Y1192000D03*
Y1200000D03*
Y1208000D03*
Y1216000D03*
Y1224000D03*
Y1232000D03*
Y1240000D03*
Y1248000D03*
Y1256000D03*
Y1264000D03*
Y1272000D03*
Y1280000D03*
Y1288000D03*
Y1296000D03*
X1082500Y1064000D03*
Y1072000D03*
Y1080000D03*
Y1088000D03*
Y1096000D03*
Y1104000D03*
Y1112000D03*
Y1120000D03*
Y1128000D03*
Y1136000D03*
Y1144000D03*
Y1152000D03*
Y1160000D03*
Y1168000D03*
Y1176000D03*
Y1184000D03*
Y1192000D03*
Y1200000D03*
Y1208000D03*
Y1216000D03*
Y1224000D03*
Y1232000D03*
Y1240000D03*
Y1248000D03*
Y1256000D03*
Y1264000D03*
Y1272000D03*
Y1280000D03*
Y1288000D03*
Y1296000D03*
X1090500Y1064000D03*
Y1072000D03*
Y1080000D03*
Y1088000D03*
Y1096000D03*
Y1104000D03*
Y1112000D03*
Y1120000D03*
Y1128000D03*
Y1136000D03*
Y1144000D03*
Y1152000D03*
Y1160000D03*
Y1168000D03*
Y1176000D03*
Y1184000D03*
Y1192000D03*
Y1200000D03*
Y1208000D03*
Y1216000D03*
Y1224000D03*
Y1232000D03*
Y1240000D03*
Y1248000D03*
Y1256000D03*
Y1264000D03*
Y1272000D03*
Y1280000D03*
Y1288000D03*
Y1296000D03*
X1098500Y1064000D03*
Y1072000D03*
Y1080000D03*
Y1088000D03*
Y1096000D03*
Y1104000D03*
Y1112000D03*
Y1120000D03*
Y1128000D03*
Y1136000D03*
Y1144000D03*
Y1152000D03*
Y1160000D03*
Y1168000D03*
Y1176000D03*
Y1184000D03*
Y1192000D03*
Y1200000D03*
Y1208000D03*
Y1216000D03*
Y1224000D03*
Y1232000D03*
Y1240000D03*
Y1248000D03*
Y1256000D03*
Y1264000D03*
Y1272000D03*
Y1280000D03*
Y1288000D03*
Y1296000D03*
X1106500Y1064000D03*
Y1072000D03*
Y1080000D03*
Y1088000D03*
Y1096000D03*
Y1104000D03*
Y1112000D03*
Y1120000D03*
Y1128000D03*
Y1136000D03*
Y1144000D03*
Y1152000D03*
Y1160000D03*
Y1168000D03*
Y1176000D03*
Y1184000D03*
Y1192000D03*
Y1200000D03*
Y1208000D03*
Y1216000D03*
Y1224000D03*
Y1232000D03*
Y1240000D03*
Y1248000D03*
Y1256000D03*
Y1264000D03*
Y1272000D03*
Y1280000D03*
Y1288000D03*
Y1296000D03*
X1114500Y1064000D03*
Y1072000D03*
Y1080000D03*
Y1088000D03*
Y1096000D03*
Y1104000D03*
Y1112000D03*
Y1120000D03*
Y1128000D03*
Y1136000D03*
Y1144000D03*
Y1152000D03*
Y1160000D03*
Y1168000D03*
Y1176000D03*
Y1184000D03*
Y1192000D03*
Y1200000D03*
Y1208000D03*
Y1216000D03*
Y1224000D03*
Y1232000D03*
Y1240000D03*
Y1248000D03*
Y1256000D03*
Y1264000D03*
Y1272000D03*
Y1280000D03*
Y1288000D03*
Y1296000D03*
X1122500Y1064000D03*
Y1072000D03*
Y1080000D03*
Y1088000D03*
Y1096000D03*
Y1104000D03*
Y1112000D03*
Y1120000D03*
Y1128000D03*
Y1136000D03*
Y1144000D03*
Y1152000D03*
Y1160000D03*
Y1168000D03*
Y1176000D03*
Y1184000D03*
Y1192000D03*
Y1200000D03*
Y1208000D03*
Y1216000D03*
Y1224000D03*
Y1232000D03*
Y1240000D03*
Y1248000D03*
Y1256000D03*
Y1264000D03*
Y1272000D03*
Y1280000D03*
Y1288000D03*
Y1296000D03*
X1130500Y1064000D03*
Y1072000D03*
Y1080000D03*
Y1088000D03*
Y1096000D03*
Y1104000D03*
Y1112000D03*
Y1120000D03*
Y1128000D03*
Y1136000D03*
Y1144000D03*
Y1152000D03*
Y1160000D03*
Y1168000D03*
Y1176000D03*
Y1184000D03*
Y1192000D03*
Y1200000D03*
Y1208000D03*
Y1216000D03*
Y1224000D03*
Y1232000D03*
Y1240000D03*
Y1248000D03*
Y1256000D03*
Y1264000D03*
Y1272000D03*
Y1280000D03*
Y1288000D03*
Y1296000D03*
X1138500Y1064000D03*
Y1072000D03*
Y1080000D03*
Y1088000D03*
Y1096000D03*
Y1104000D03*
Y1112000D03*
Y1120000D03*
Y1128000D03*
Y1136000D03*
Y1144000D03*
Y1152000D03*
Y1160000D03*
Y1168000D03*
Y1176000D03*
Y1184000D03*
Y1192000D03*
Y1200000D03*
Y1208000D03*
Y1216000D03*
Y1224000D03*
Y1232000D03*
Y1240000D03*
Y1248000D03*
Y1256000D03*
Y1264000D03*
Y1272000D03*
Y1280000D03*
Y1288000D03*
Y1296000D03*
X1146500Y1064000D03*
Y1072000D03*
Y1080000D03*
Y1088000D03*
Y1096000D03*
Y1104000D03*
Y1112000D03*
Y1120000D03*
Y1128000D03*
Y1136000D03*
Y1144000D03*
Y1152000D03*
Y1160000D03*
Y1168000D03*
Y1176000D03*
Y1184000D03*
Y1192000D03*
Y1200000D03*
Y1208000D03*
Y1216000D03*
Y1224000D03*
Y1232000D03*
Y1240000D03*
Y1248000D03*
Y1256000D03*
Y1264000D03*
Y1272000D03*
Y1280000D03*
Y1288000D03*
Y1296000D03*
X1154500Y1064000D03*
Y1072000D03*
Y1080000D03*
Y1088000D03*
Y1096000D03*
Y1104000D03*
Y1112000D03*
Y1120000D03*
Y1128000D03*
Y1136000D03*
Y1144000D03*
Y1152000D03*
Y1160000D03*
Y1168000D03*
Y1176000D03*
Y1184000D03*
Y1192000D03*
Y1200000D03*
Y1208000D03*
Y1216000D03*
Y1224000D03*
Y1232000D03*
Y1240000D03*
Y1248000D03*
Y1256000D03*
Y1264000D03*
Y1272000D03*
Y1280000D03*
Y1288000D03*
Y1296000D03*
X1162500Y1064000D03*
Y1072000D03*
Y1080000D03*
Y1088000D03*
Y1096000D03*
Y1104000D03*
Y1112000D03*
Y1120000D03*
Y1128000D03*
Y1136000D03*
Y1144000D03*
Y1152000D03*
Y1160000D03*
Y1168000D03*
Y1176000D03*
Y1184000D03*
Y1192000D03*
Y1200000D03*
Y1208000D03*
Y1216000D03*
Y1224000D03*
Y1232000D03*
Y1240000D03*
Y1248000D03*
Y1256000D03*
Y1264000D03*
Y1272000D03*
Y1280000D03*
Y1288000D03*
Y1296000D03*
X1170500Y1064000D03*
Y1072000D03*
Y1080000D03*
Y1088000D03*
Y1096000D03*
Y1104000D03*
Y1112000D03*
Y1120000D03*
Y1128000D03*
Y1136000D03*
Y1144000D03*
Y1152000D03*
Y1160000D03*
Y1168000D03*
Y1176000D03*
Y1184000D03*
Y1192000D03*
Y1200000D03*
Y1208000D03*
Y1216000D03*
Y1224000D03*
Y1232000D03*
Y1240000D03*
Y1248000D03*
Y1256000D03*
Y1264000D03*
Y1272000D03*
Y1280000D03*
Y1288000D03*
Y1296000D03*
X1178500Y1064000D03*
Y1072000D03*
Y1080000D03*
Y1088000D03*
Y1096000D03*
Y1104000D03*
Y1112000D03*
Y1120000D03*
Y1128000D03*
Y1136000D03*
Y1144000D03*
Y1152000D03*
Y1160000D03*
Y1168000D03*
Y1176000D03*
Y1184000D03*
Y1192000D03*
Y1200000D03*
Y1208000D03*
Y1216000D03*
Y1224000D03*
Y1232000D03*
Y1240000D03*
Y1248000D03*
Y1256000D03*
Y1264000D03*
Y1272000D03*
Y1280000D03*
Y1288000D03*
Y1296000D03*
X1186500Y1064000D03*
Y1072000D03*
Y1080000D03*
Y1088000D03*
Y1096000D03*
Y1104000D03*
Y1112000D03*
Y1120000D03*
Y1128000D03*
Y1136000D03*
Y1144000D03*
Y1152000D03*
Y1160000D03*
Y1168000D03*
Y1176000D03*
Y1184000D03*
Y1192000D03*
Y1200000D03*
Y1208000D03*
Y1216000D03*
Y1224000D03*
Y1232000D03*
Y1240000D03*
Y1248000D03*
Y1256000D03*
Y1264000D03*
Y1272000D03*
Y1280000D03*
Y1288000D03*
Y1296000D03*
X1194500Y1064000D03*
Y1072000D03*
Y1080000D03*
Y1088000D03*
Y1096000D03*
Y1104000D03*
Y1112000D03*
Y1120000D03*
Y1128000D03*
Y1136000D03*
Y1144000D03*
Y1152000D03*
Y1160000D03*
Y1168000D03*
Y1176000D03*
Y1184000D03*
Y1192000D03*
Y1200000D03*
Y1208000D03*
Y1216000D03*
Y1224000D03*
Y1232000D03*
Y1240000D03*
Y1248000D03*
Y1256000D03*
Y1264000D03*
Y1272000D03*
Y1280000D03*
Y1288000D03*
Y1296000D03*
X1202500Y1064000D03*
Y1072000D03*
Y1080000D03*
Y1088000D03*
Y1096000D03*
Y1104000D03*
Y1112000D03*
Y1120000D03*
Y1128000D03*
Y1136000D03*
Y1144000D03*
Y1152000D03*
Y1160000D03*
Y1168000D03*
Y1176000D03*
Y1184000D03*
Y1192000D03*
Y1200000D03*
Y1208000D03*
Y1216000D03*
Y1224000D03*
Y1232000D03*
Y1240000D03*
Y1248000D03*
Y1256000D03*
Y1264000D03*
Y1272000D03*
Y1280000D03*
Y1288000D03*
Y1296000D03*
X1210500Y1064000D03*
Y1072000D03*
Y1080000D03*
Y1088000D03*
Y1096000D03*
Y1104000D03*
Y1112000D03*
Y1120000D03*
Y1128000D03*
Y1136000D03*
Y1144000D03*
Y1152000D03*
Y1160000D03*
Y1168000D03*
Y1176000D03*
Y1184000D03*
Y1192000D03*
Y1200000D03*
Y1208000D03*
Y1216000D03*
Y1224000D03*
Y1232000D03*
Y1240000D03*
Y1248000D03*
Y1256000D03*
Y1264000D03*
Y1272000D03*
Y1280000D03*
Y1288000D03*
Y1296000D03*
X1218500Y1064000D03*
Y1072000D03*
Y1080000D03*
Y1088000D03*
Y1096000D03*
Y1104000D03*
Y1112000D03*
Y1120000D03*
Y1128000D03*
Y1136000D03*
Y1144000D03*
Y1152000D03*
Y1160000D03*
Y1168000D03*
Y1176000D03*
Y1184000D03*
Y1192000D03*
Y1200000D03*
Y1208000D03*
Y1216000D03*
Y1224000D03*
Y1232000D03*
Y1240000D03*
Y1248000D03*
Y1256000D03*
Y1264000D03*
Y1272000D03*
Y1280000D03*
Y1288000D03*
Y1296000D03*
X1226500Y1064000D03*
Y1072000D03*
Y1080000D03*
Y1088000D03*
Y1096000D03*
Y1104000D03*
Y1112000D03*
Y1120000D03*
Y1128000D03*
Y1136000D03*
Y1144000D03*
Y1152000D03*
Y1160000D03*
Y1168000D03*
Y1176000D03*
Y1184000D03*
Y1192000D03*
Y1200000D03*
Y1208000D03*
Y1216000D03*
Y1224000D03*
Y1232000D03*
Y1240000D03*
Y1248000D03*
Y1256000D03*
Y1264000D03*
Y1272000D03*
Y1280000D03*
Y1288000D03*
Y1296000D03*
X1234500Y1064000D03*
Y1072000D03*
Y1080000D03*
Y1088000D03*
Y1096000D03*
Y1104000D03*
Y1112000D03*
Y1120000D03*
Y1128000D03*
Y1136000D03*
Y1144000D03*
Y1152000D03*
Y1160000D03*
Y1168000D03*
Y1176000D03*
Y1184000D03*
Y1192000D03*
Y1200000D03*
Y1208000D03*
Y1216000D03*
Y1224000D03*
Y1232000D03*
Y1240000D03*
Y1248000D03*
Y1256000D03*
Y1264000D03*
Y1272000D03*
Y1280000D03*
Y1288000D03*
Y1296000D03*
X1242500Y1064000D03*
Y1072000D03*
Y1080000D03*
Y1088000D03*
Y1096000D03*
Y1104000D03*
Y1112000D03*
Y1120000D03*
Y1128000D03*
Y1136000D03*
Y1144000D03*
Y1152000D03*
Y1160000D03*
Y1168000D03*
Y1176000D03*
Y1184000D03*
Y1192000D03*
Y1200000D03*
Y1208000D03*
Y1216000D03*
Y1224000D03*
Y1232000D03*
Y1240000D03*
Y1248000D03*
Y1256000D03*
Y1264000D03*
Y1272000D03*
Y1280000D03*
Y1288000D03*
Y1296000D03*
X1250500Y1064000D03*
Y1072000D03*
Y1080000D03*
Y1088000D03*
Y1096000D03*
Y1104000D03*
Y1112000D03*
Y1120000D03*
Y1128000D03*
Y1136000D03*
Y1144000D03*
Y1152000D03*
Y1160000D03*
Y1168000D03*
Y1176000D03*
Y1184000D03*
Y1192000D03*
Y1200000D03*
Y1208000D03*
Y1216000D03*
Y1224000D03*
Y1232000D03*
Y1240000D03*
Y1248000D03*
Y1256000D03*
Y1264000D03*
Y1272000D03*
Y1280000D03*
Y1288000D03*
Y1296000D03*
X1258500Y1072000D03*
Y1080000D03*
Y1088000D03*
Y1096000D03*
Y1104000D03*
Y1112000D03*
Y1120000D03*
Y1128000D03*
Y1136000D03*
Y1144000D03*
Y1152000D03*
Y1160000D03*
Y1168000D03*
Y1176000D03*
Y1184000D03*
Y1192000D03*
Y1200000D03*
Y1208000D03*
Y1216000D03*
Y1224000D03*
Y1232000D03*
Y1240000D03*
Y1248000D03*
Y1256000D03*
Y1264000D03*
Y1272000D03*
Y1280000D03*
Y1288000D03*
G54D60*
X2007500Y1102100D03*
Y1152900D03*
G54D61*
X1600000Y1318577D03*
Y1356423D03*
X1837500Y1293577D03*
Y1331423D03*
G54D62*
X1452500Y879400D03*
Y955600D03*
X1457500Y879400D03*
Y955600D03*
X1462500Y879400D03*
Y955600D03*
X1467500Y879400D03*
Y955600D03*
X1472500Y879400D03*
Y955600D03*
X1477500Y879400D03*
Y955600D03*
X1482500Y879400D03*
Y955600D03*
X1487500Y879400D03*
Y955600D03*
X1492500Y879400D03*
Y955600D03*
X1497500Y879400D03*
Y955600D03*
X1502500Y879400D03*
Y955600D03*
X1507500Y879400D03*
Y955600D03*
X1512500Y879400D03*
Y955600D03*
X1517500Y879400D03*
Y955600D03*
X1522500Y879400D03*
Y955600D03*
X1527500Y879400D03*
Y955600D03*
X1532500Y879400D03*
Y955600D03*
X1537500Y879400D03*
Y955600D03*
X1542500Y879400D03*
Y955600D03*
X1547500Y879400D03*
Y955600D03*
X1552500Y879400D03*
Y955600D03*
X1557500Y879400D03*
Y955600D03*
X1562500Y879400D03*
Y955600D03*
X1567500Y879400D03*
Y955600D03*
X1779985Y1020030D03*
Y1174970D03*
X1784986Y1020030D03*
Y1174970D03*
X1789987Y1020030D03*
Y1174970D03*
X1794989Y1020030D03*
Y1174970D03*
X1799990Y1020030D03*
Y1174970D03*
X1804991Y1020030D03*
Y1174970D03*
X1809992Y1020030D03*
Y1174970D03*
X1814994Y1020030D03*
Y1174970D03*
X1819995Y1020030D03*
Y1174970D03*
X1824996Y1020030D03*
Y1174970D03*
X1829997Y1020030D03*
Y1174970D03*
X1834999Y1020030D03*
Y1174970D03*
X1840000Y1020030D03*
Y1174970D03*
X1845001Y1020030D03*
Y1174970D03*
X1850003Y1020030D03*
Y1174970D03*
X1855004Y1020030D03*
Y1174970D03*
X1860005Y1020030D03*
Y1174970D03*
X1865006Y1020030D03*
Y1174970D03*
X1870008Y1020030D03*
Y1174970D03*
X1875009Y1020030D03*
Y1174970D03*
X1880010Y1020030D03*
Y1174970D03*
X1885011Y1020030D03*
Y1174970D03*
X1890013Y1020030D03*
Y1174970D03*
X1895014Y1020030D03*
Y1174970D03*
X1900015Y1020030D03*
Y1174970D03*
G54D63*
X1932500Y1332500D03*
Y1357500D03*
G54D64*
X1342000Y1260000D03*
X1350000D03*
X1358000D03*
X1372000D03*
X1380000D03*
X1388000D03*
G54D65*
X93642Y1482500D03*
X107358D03*
X964972Y491090D03*
Y526090D03*
X978688Y491090D03*
Y526090D03*
X1288142Y14000D03*
X1301858D03*
X1323142D03*
X1335642Y1335000D03*
X1336858Y14000D03*
X1349358Y1335000D03*
X1358142Y14000D03*
X1371858D03*
X1393142D03*
X1406858D03*
X1428142D03*
X1441858D03*
X1625642Y890000D03*
X1639358D03*
G54D66*
X940000Y896000D03*
Y944000D03*
X960000Y896000D03*
Y944000D03*
X980000Y896000D03*
Y944000D03*
X1000000Y896000D03*
Y944000D03*
X1020000Y896000D03*
Y944000D03*
X1040000Y896000D03*
Y944000D03*
X1060000Y896000D03*
Y944000D03*
X1080000Y896000D03*
Y944000D03*
G54D67*
X352975Y124840D03*
X362500Y145160D03*
X372025Y124840D03*
X387975D03*
X397500Y145160D03*
X407025Y124840D03*
X422975D03*
X432500Y145160D03*
X442025Y124840D03*
X601975Y318340D03*
X611500Y338660D03*
X621025Y318340D03*
X1085475Y1369840D03*
X1095000Y1390160D03*
X1104525Y1369840D03*
X1120475D03*
X1130000Y1390160D03*
X1139525Y1369840D03*
X1155475D03*
X1165000Y1390160D03*
X1174525Y1369840D03*
X1190475D03*
X1200000Y1390160D03*
X1209525Y1369840D03*
X1285475Y54160D03*
X1295000Y33840D03*
X1304525Y54160D03*
X1320475D03*
X1330000Y33840D03*
X1339525Y54160D03*
X1355475D03*
X1365000Y33840D03*
X1374525Y54160D03*
X1390475D03*
X1400000Y33840D03*
X1409525Y54160D03*
X1425475D03*
X1435000Y33840D03*
X1444525Y54160D03*
X1795475Y1282660D03*
Y1317660D03*
Y1352660D03*
X1805000Y1262340D03*
Y1297340D03*
Y1332340D03*
X1814525Y1282660D03*
Y1317660D03*
Y1352660D03*
X2145475Y1407340D03*
X2155000Y1427660D03*
X2164525Y1407340D03*
X2180475D03*
X2190000Y1427660D03*
X2199525Y1407340D03*
G54D68*
X1440000Y1033500D03*
Y1231500D03*
X1445000Y1033500D03*
Y1231500D03*
X1450000Y1033500D03*
Y1231500D03*
X1455000Y1033500D03*
Y1231500D03*
X1460000Y1033500D03*
Y1231500D03*
X1465000Y1033500D03*
Y1231500D03*
X1470000Y1033500D03*
Y1231500D03*
X1475000Y1033500D03*
Y1231500D03*
X1480000Y1033500D03*
Y1231500D03*
X1485000Y1033500D03*
Y1231500D03*
X1490000Y1033500D03*
Y1231500D03*
X1495000Y1033500D03*
Y1231500D03*
X1500000Y1033500D03*
Y1231500D03*
X1505000Y1033500D03*
Y1231500D03*
X1510000Y1033500D03*
Y1231500D03*
X1515000Y1033500D03*
Y1231500D03*
X1520000Y1033500D03*
Y1231500D03*
X1525000Y1033500D03*
Y1231500D03*
X1530000Y1033500D03*
Y1231500D03*
X1535000Y1033500D03*
Y1231500D03*
X1540000Y1033500D03*
Y1231500D03*
X1545000Y1033500D03*
Y1231500D03*
X1550000Y1033500D03*
Y1231500D03*
X1555000Y1033500D03*
Y1231500D03*
X1560000Y1033500D03*
Y1231500D03*
X1565000Y1033500D03*
Y1231500D03*
X1570000Y1033500D03*
Y1231500D03*
X1575000Y1033500D03*
Y1231500D03*
G54D69*
X1245000Y1432500D03*
X1255000D03*
X1265000D03*
X1275000D03*
X1285000D03*
X1295000D03*
X1305000D03*
X1315000D03*
X1325000D03*
X1335000D03*
X1345000D03*
X1355000D03*
X1365000D03*
X1375000D03*
X1385000D03*
X1395000D03*
X1405000D03*
X1415000D03*
X1425000D03*
X1435000D03*
X1445000D03*
X1455000D03*
X1465000D03*
X1475000D03*
X1485000D03*
X1495000D03*
X1505000D03*
X1515000D03*
X1525000D03*
X1535000D03*
G54D70*
X2320500Y1345000D03*
Y1350000D03*
Y1355000D03*
Y1360000D03*
Y1365000D03*
Y1370000D03*
Y1375000D03*
Y1380000D03*
Y1385000D03*
Y1390000D03*
Y1395000D03*
Y1400000D03*
X2404500Y1345000D03*
Y1350000D03*
Y1355000D03*
Y1360000D03*
Y1365000D03*
Y1370000D03*
Y1375000D03*
Y1380000D03*
Y1385000D03*
Y1390000D03*
Y1395000D03*
Y1400000D03*
G54D71*
X2335000Y1330500D03*
Y1414500D03*
X2340000Y1330500D03*
Y1414500D03*
X2345000Y1330500D03*
Y1414500D03*
X2350000Y1330500D03*
Y1414500D03*
X2355000Y1330500D03*
Y1414500D03*
X2360000Y1330500D03*
Y1414500D03*
X2365000Y1330500D03*
Y1414500D03*
X2370000Y1330500D03*
Y1414500D03*
X2375000Y1330500D03*
Y1414500D03*
X2380000Y1330500D03*
Y1414500D03*
X2385000Y1330500D03*
Y1414500D03*
X2390000Y1330500D03*
Y1414500D03*
G54D72*
X748590Y642170D03*
Y649170D03*
X1022500Y1321500D03*
Y1328500D03*
X1035000Y1321500D03*
Y1328500D03*
X1045000Y1321500D03*
Y1328500D03*
X1055000Y1321500D03*
Y1328500D03*
X1065000Y1321500D03*
Y1328500D03*
X1075000Y1321500D03*
Y1328500D03*
X1085000Y1321500D03*
Y1328500D03*
X1095000Y1321500D03*
Y1328500D03*
X1105000Y1321500D03*
Y1328500D03*
X1115000Y1321500D03*
Y1328500D03*
X1125000Y1321500D03*
Y1328500D03*
X1135000Y1321500D03*
Y1328500D03*
X1145000Y1321500D03*
Y1328500D03*
X1155000Y1321500D03*
Y1328500D03*
X1165000Y1321500D03*
Y1328500D03*
X1175000Y1321500D03*
Y1328500D03*
X1232500Y1321500D03*
Y1328500D03*
X1242500Y1321500D03*
Y1328500D03*
X1252500Y1321500D03*
Y1328500D03*
X1262500Y1321500D03*
Y1328500D03*
X1272500Y1321500D03*
Y1328500D03*
X2687200Y1003700D03*
Y1011300D03*
Y1023700D03*
Y1031300D03*
Y1043700D03*
Y1051300D03*
X2689700Y1176200D03*
Y1183800D03*
Y1193700D03*
Y1201300D03*
Y1211200D03*
Y1218800D03*
X2702800Y1003700D03*
Y1011300D03*
Y1023700D03*
Y1031300D03*
Y1043700D03*
Y1051300D03*
X2705300Y1176200D03*
Y1183800D03*
Y1193700D03*
Y1201300D03*
Y1211200D03*
Y1218800D03*
G54D73*
X1774750Y913250D03*
X1779750D03*
X1784750D03*
X1789750D03*
X2337500Y1153500D03*
Y1201500D03*
X2342500Y1153500D03*
Y1201500D03*
X2347500Y1153500D03*
Y1201500D03*
X2352500Y1153500D03*
Y1201500D03*
X2357500Y1153500D03*
Y1201500D03*
X2362500Y1153500D03*
Y1201500D03*
X2367500Y1153500D03*
Y1201500D03*
X2372500Y1153500D03*
Y1201500D03*
X2377500Y1153500D03*
Y1201500D03*
X2382500Y1153500D03*
Y1201500D03*
X2387500Y1153500D03*
Y1201500D03*
X2392500Y1153500D03*
Y1201500D03*
G54D74*
X1235000Y1452500D03*
X1545000D03*
G54D75*
X2382500Y1105522D03*
Y1134478D03*
G54D76*
X2770000Y991500D03*
Y1148500D03*
Y1171500D03*
Y1328500D03*
X2831500Y623000D03*
X2833500Y497000D03*
X2845000Y991500D03*
Y1148500D03*
Y1171500D03*
Y1328500D03*
G54D77*
X1004500Y42000D03*
G54D78*
X1105500Y41500D03*
G54D79*
X1027500Y68500D03*
X1032500D03*
X1037500D03*
X1042500D03*
X1047500D03*
X1052500D03*
X1057500D03*
X1062500D03*
X1067500D03*
X1072500D03*
X1077500D03*
X1082500D03*
G54D80*
X1055500Y1016000D03*
Y1029000D03*
X1074500Y1016000D03*
Y1022500D03*
Y1029000D03*
X1150500Y1016000D03*
Y1029000D03*
X1169500Y1016000D03*
Y1022500D03*
Y1029000D03*
X1585500Y886000D03*
Y899000D03*
Y911000D03*
Y924000D03*
Y936000D03*
Y949000D03*
X1604500Y886000D03*
Y892500D03*
Y899000D03*
Y911000D03*
Y917500D03*
Y924000D03*
Y936000D03*
Y942500D03*
Y949000D03*
G54D81*
X966080Y565090D03*
Y587090D03*
X982580Y565090D03*
Y587090D03*
X1939250Y1056500D03*
Y1078500D03*
X1955750Y1056500D03*
Y1078500D03*
X2606750Y1039000D03*
Y1061000D03*
X2623250Y1039000D03*
Y1061000D03*
G54D82*
X1145000Y1447500D03*
X1150000D03*
X1155000D03*
X1160000D03*
G54D83*
X2082500Y1330000D03*
Y1425000D03*
G54D84*
X288500Y134500D03*
Y144500D03*
Y154500D03*
Y164500D03*
Y174500D03*
Y184500D03*
Y194500D03*
Y204500D03*
Y214500D03*
Y224500D03*
Y234500D03*
Y244500D03*
X1162300Y37975D03*
Y47500D03*
Y57025D03*
X1187700Y37975D03*
Y47500D03*
Y57025D03*
G54D85*
X249800Y121500D03*
Y257500D03*
X1315000Y975500D03*
Y999500D03*
X1355000Y975500D03*
Y999500D03*
G54D86*
X31000Y1115500D03*
X600000Y34000D03*
X682500D03*
X917000Y741500D03*
X1642500Y1347500D03*
X1662500Y945000D03*
X1732500Y995000D03*
X1852500Y1205000D03*
G54D87*
X31000Y785300D03*
Y810700D03*
Y836100D03*
Y861500D03*
Y886900D03*
Y912300D03*
Y937700D03*
Y963100D03*
Y988500D03*
Y1013900D03*
Y1039300D03*
Y1064700D03*
Y1090100D03*
X549200Y34000D03*
X574600D03*
X631700D03*
X657100D03*
X917000Y690700D03*
Y716100D03*
X942400Y690700D03*
Y716100D03*
Y741500D03*
X1637100Y945000D03*
X1650000Y1250000D03*
Y1275000D03*
X1667900Y1347500D03*
X1732500Y1020400D03*
Y1045800D03*
Y1071200D03*
Y1096600D03*
Y1122000D03*
Y1147400D03*
Y1172800D03*
X1827100Y1205000D03*
X2005000Y985000D03*
Y1010000D03*
G54D88*
X2598370Y1272500D03*
X2646630D03*
G54D89*
X1647500Y1410000D03*
X1657500D03*
X1667500D03*
X1677500D03*
X1687500D03*
X1697500D03*
X1707500D03*
X1717500D03*
X1727500D03*
X1737500D03*
X1747500D03*
X1757500D03*
G54D90*
X477450Y232965D03*
Y285035D03*
X490150Y232965D03*
Y285035D03*
X502850Y232965D03*
Y285035D03*
X515550Y232965D03*
Y285035D03*
X1928450Y1256465D03*
Y1308535D03*
X1941150Y1256465D03*
Y1308535D03*
X1953850Y1256465D03*
Y1308535D03*
X1966550Y1256465D03*
Y1308535D03*
X2690950Y1071465D03*
Y1123535D03*
Y1238965D03*
Y1291035D03*
X2703650Y1071465D03*
Y1123535D03*
Y1238965D03*
Y1291035D03*
X2716350Y1071465D03*
Y1123535D03*
Y1238965D03*
Y1291035D03*
X2729050Y1071465D03*
Y1123535D03*
Y1238965D03*
Y1291035D03*
G54D91*
X74150Y1397800D03*
X301850D03*
X751150Y291410D03*
X978850D03*
G54D92*
X95500Y1463000D03*
X98000Y1436500D03*
X100500Y1463000D03*
X103000Y1436500D03*
X105500Y1463000D03*
X108000Y1436500D03*
X110500Y1463000D03*
X113000Y1436500D03*
X115500Y1463000D03*
X118000Y1436500D03*
X120500Y1463000D03*
X123000Y1436500D03*
X125500Y1463000D03*
X128000Y1436500D03*
X130500Y1463000D03*
X133000Y1436500D03*
X135500Y1463000D03*
X138000Y1436500D03*
X140500Y1463000D03*
X143000Y1436500D03*
X145500Y1463000D03*
X148000Y1436500D03*
X150500Y1463000D03*
X153000Y1436500D03*
X155500Y1463000D03*
X158000Y1436500D03*
X160500Y1463000D03*
X163000Y1436500D03*
X165500Y1463000D03*
X168000Y1436500D03*
X170500Y1463000D03*
X173000Y1436500D03*
X175500Y1463000D03*
X178000Y1436500D03*
X180500Y1463000D03*
X183000Y1436500D03*
X185500Y1463000D03*
X188000Y1436500D03*
X190500Y1463000D03*
X193000Y1436500D03*
X195500Y1463000D03*
X198000Y1436500D03*
X200500Y1463000D03*
X203000Y1436500D03*
X205500Y1463000D03*
X208000Y1436500D03*
X210500Y1463000D03*
X213000Y1436500D03*
X215500Y1463000D03*
X218000Y1436500D03*
X220500Y1463000D03*
X223000Y1436500D03*
X225500Y1463000D03*
X228000Y1436500D03*
X230500Y1463000D03*
X233000Y1436500D03*
X235500Y1463000D03*
X238000Y1436500D03*
X240500Y1463000D03*
X243000Y1436500D03*
X245500Y1463000D03*
X248000Y1436500D03*
X250500Y1463000D03*
X253000Y1436500D03*
X255500Y1463000D03*
X258000Y1436500D03*
X260500Y1463000D03*
X263000Y1436500D03*
X265500Y1463000D03*
X268000Y1436500D03*
X270500Y1463000D03*
X273000Y1436500D03*
X275500Y1463000D03*
X278000Y1436500D03*
X280500Y1463000D03*
X772500Y356610D03*
X775000Y330110D03*
X777500Y356610D03*
X780000Y330110D03*
X782500Y356610D03*
X785000Y330110D03*
X787500Y356610D03*
X790000Y330110D03*
X792500Y356610D03*
X795000Y330110D03*
X797500Y356610D03*
X800000Y330110D03*
X802500Y356610D03*
X805000Y330110D03*
X807500Y356610D03*
X810000Y330110D03*
X812500Y356610D03*
X815000Y330110D03*
X817500Y356610D03*
X820000Y330110D03*
X822500Y356610D03*
X825000Y330110D03*
X827500Y356610D03*
X830000Y330110D03*
X832500Y356610D03*
X835000Y330110D03*
X837500Y356610D03*
X840000Y330110D03*
X842500Y356610D03*
X845000Y330110D03*
X847500Y356610D03*
X850000Y330110D03*
X852500Y356610D03*
X855000Y330110D03*
X857500Y356610D03*
X860000Y330110D03*
X862500Y356610D03*
X865000Y330110D03*
X867500Y356610D03*
X870000Y330110D03*
X872500Y356610D03*
X875000Y330110D03*
X877500Y356610D03*
X880000Y330110D03*
X882500Y356610D03*
X885000Y330110D03*
X887500Y356610D03*
X890000Y330110D03*
X892500Y356610D03*
X895000Y330110D03*
X897500Y356610D03*
X900000Y330110D03*
X902500Y356610D03*
X905000Y330110D03*
X907500Y356610D03*
X910000Y330110D03*
X912500Y356610D03*
X915000Y330110D03*
X917500Y356610D03*
X920000Y330110D03*
X922500Y356610D03*
X925000Y330110D03*
X927500Y356610D03*
X930000Y330110D03*
X932500Y356610D03*
X935000Y330110D03*
X937500Y356610D03*
X940000Y330110D03*
X942500Y356610D03*
X945000Y330110D03*
X947500Y356610D03*
X950000Y330110D03*
X952500Y356610D03*
X955000Y330110D03*
X957500Y356610D03*
X1010000Y774000D03*
X1012500Y856000D03*
X1015000Y774000D03*
X1017500Y856000D03*
X1020000Y774000D03*
X1022500Y856000D03*
X1025000Y774000D03*
X1027500Y856000D03*
X1030000Y774000D03*
X1032500Y856000D03*
X1035000Y774000D03*
X1037500Y856000D03*
X1040000Y774000D03*
X1042500Y856000D03*
X1045000Y774000D03*
X1047500Y856000D03*
X1050000Y774000D03*
X1052500Y856000D03*
X1055000Y774000D03*
X1057500Y856000D03*
X1060000Y774000D03*
X1062500Y856000D03*
X1065000Y774000D03*
X1067500Y856000D03*
X1070000Y774000D03*
X1072500Y856000D03*
X1075000Y774000D03*
X1077500Y856000D03*
X1080000Y774000D03*
X1082500Y856000D03*
X1085000Y774000D03*
X1087500Y856000D03*
X1090000Y774000D03*
X1092500Y856000D03*
X1095000Y774000D03*
X1097500Y856000D03*
X1100000Y774000D03*
X1102500Y856000D03*
X1105000Y774000D03*
X1107500Y856000D03*
X1110000Y774000D03*
X1112500Y856000D03*
X1115000Y774000D03*
X1117500Y856000D03*
X1120000Y774000D03*
X1122500Y856000D03*
X1125000Y774000D03*
X1127500Y856000D03*
X1130000Y774000D03*
X1132500Y856000D03*
X1135000Y774000D03*
X1137500Y856000D03*
X1140000Y774000D03*
X1142500Y856000D03*
X1145000Y774000D03*
X1147500Y856000D03*
X1150000Y774000D03*
X1152500Y856000D03*
X1155000Y774000D03*
X1157500Y856000D03*
X1160000Y774000D03*
X1162500Y856000D03*
X1165000Y774000D03*
X1167500Y856000D03*
X1170000Y774000D03*
X1172500Y856000D03*
X1175000Y774000D03*
X1177500Y856000D03*
X1180000Y774000D03*
X1182500Y856000D03*
X1185000Y774000D03*
X1187500Y856000D03*
X1190000Y774000D03*
X1192500Y856000D03*
X1195000Y774000D03*
X1197500Y856000D03*
X1200000Y774000D03*
X1202500Y856000D03*
X1205000Y774000D03*
X1207500Y856000D03*
X1210000Y774000D03*
X1212500Y856000D03*
X1215000Y774000D03*
X1217500Y856000D03*
X1220000Y774000D03*
X1222500Y856000D03*
X1225000Y774000D03*
X1227500Y856000D03*
X1230000Y774000D03*
X1232500Y856000D03*
X1235000Y774000D03*
X1237500Y856000D03*
X1240000Y774000D03*
X1242500Y856000D03*
X1245000Y774000D03*
X1247500Y856000D03*
X1250000Y774000D03*
X1252500Y856000D03*
X1255000Y774000D03*
X1257500Y856000D03*
X1260000Y774000D03*
X1262500Y856000D03*
X1265000Y774000D03*
X1267500Y856000D03*
X1270000Y774000D03*
X1272500Y856000D03*
X1275000Y774000D03*
X1277500Y856000D03*
X1280000Y774000D03*
X1282500Y856000D03*
X1285000Y774000D03*
X1287500Y856000D03*
X1290000Y774000D03*
X1292500Y856000D03*
X1295000Y774000D03*
X1297500Y856000D03*
X1300000Y774000D03*
X1302500Y856000D03*
X1305000Y774000D03*
X1307500Y856000D03*
X1310000Y774000D03*
X1312500Y856000D03*
X1315000Y774000D03*
X1317500Y856000D03*
X1320000Y774000D03*
X1322500Y856000D03*
X1325000Y774000D03*
X1327500Y856000D03*
X1330000Y774000D03*
X1332500Y856000D03*
X1335000Y774000D03*
X1337500Y856000D03*
X1340000Y774000D03*
X1342500Y856000D03*
X1345000Y774000D03*
X1347500Y856000D03*
X1350000Y774000D03*
X1352500Y856000D03*
X1355000Y774000D03*
X1357500Y856000D03*
X1360000Y774000D03*
X1362500Y856000D03*
X1365000Y774000D03*
X1367500Y856000D03*
X1370000Y774000D03*
X1372500Y856000D03*
X1375000Y774000D03*
X1377500Y856000D03*
X1380000Y774000D03*
X1382500Y856000D03*
X1385000Y774000D03*
X1387500Y856000D03*
X1390000Y774000D03*
X1392500Y856000D03*
X1395000Y774000D03*
X1397500Y856000D03*
X1400000Y774000D03*
X1402500Y856000D03*
X1405000Y774000D03*
X1407500Y856000D03*
X1410000Y774000D03*
X1412500Y856000D03*
X1415000Y774000D03*
X1417500Y856000D03*
X1420000Y774000D03*
X1440000D03*
X1442500Y856000D03*
X1445000Y774000D03*
X1447500Y856000D03*
X1450000Y774000D03*
X1452500Y856000D03*
X1455000Y774000D03*
X1457500Y856000D03*
X1460000Y774000D03*
X1462500Y856000D03*
X1465000Y774000D03*
X1467500Y856000D03*
X1470000Y774000D03*
X1472500Y856000D03*
X1475000Y774000D03*
X1477500Y856000D03*
X1480000Y774000D03*
X1482500Y856000D03*
X1485000Y774000D03*
X1487500Y856000D03*
X1490000Y774000D03*
X1492500Y856000D03*
X1495000Y774000D03*
X1497500Y856000D03*
X1500000Y774000D03*
X1502500Y856000D03*
X1505000Y774000D03*
X1507500Y856000D03*
X1510000Y774000D03*
X1512500Y856000D03*
X1515000Y774000D03*
X1517500Y856000D03*
X1520000Y774000D03*
X1522500Y856000D03*
X1525000Y774000D03*
X1527500Y856000D03*
X1530000Y774000D03*
X1532500Y856000D03*
X1535000Y774000D03*
X1537500Y856000D03*
X1540000Y774000D03*
X1542500Y856000D03*
X1545000Y774000D03*
X1547500Y856000D03*
X1550000Y774000D03*
X1552500Y856000D03*
X1555000Y774000D03*
X1557500Y856000D03*
X1560000Y774000D03*
X1562500Y856000D03*
X1565000Y774000D03*
X1567500Y856000D03*
X1570000Y774000D03*
X1572500Y856000D03*
X1575000Y774000D03*
X1577500Y856000D03*
X1580000Y774000D03*
X1582500Y856000D03*
X1585000Y774000D03*
X1587500Y856000D03*
X1590000Y774000D03*
X1592500Y856000D03*
X1595000Y774000D03*
X1597500Y856000D03*
X1600000Y774000D03*
X1602500Y856000D03*
X1605000Y774000D03*
X1607500Y856000D03*
X1610000Y774000D03*
X1612500Y856000D03*
X1615000Y774000D03*
X1617500Y856000D03*
X1620000Y774000D03*
X1622500Y856000D03*
X1625000Y774000D03*
X1627500Y856000D03*
X1630000Y774000D03*
X1632500Y856000D03*
X1635000Y774000D03*
X1637500Y856000D03*
X1640000Y774000D03*
X1642500Y856000D03*
X1645000Y774000D03*
X1647500Y856000D03*
X1650000Y774000D03*
X1652500Y856000D03*
X1655000Y774000D03*
X1657500Y856000D03*
X1660000Y774000D03*
X1662500Y856000D03*
X1665000Y774000D03*
X1667500Y856000D03*
X1670000Y774000D03*
X1672500Y856000D03*
X1675000Y774000D03*
X1677500Y856000D03*
X1680000Y774000D03*
X1682500Y856000D03*
X1685000Y774000D03*
X1687500Y856000D03*
X1690000Y774000D03*
X1692500Y856000D03*
X1695000Y774000D03*
X1697500Y856000D03*
X1700000Y774000D03*
X1702500Y856000D03*
X1705000Y774000D03*
X1707500Y856000D03*
X1710000Y774000D03*
X1712500Y856000D03*
X1715000Y774000D03*
X1717500Y856000D03*
X1720000Y774000D03*
X1722500Y856000D03*
X1725000Y774000D03*
X1727500Y856000D03*
X1730000Y774000D03*
X1732500Y856000D03*
X1735000Y774000D03*
X1737500Y856000D03*
X1740000Y774000D03*
X1742500Y856000D03*
X1745000Y774000D03*
X1747500Y856000D03*
X1750000Y774000D03*
X1752500Y856000D03*
X1755000Y774000D03*
X1757500Y856000D03*
X1760000Y774000D03*
X1762500Y856000D03*
X1765000Y774000D03*
X1767500Y856000D03*
X1770000Y774000D03*
X1772500Y856000D03*
X1775000Y774000D03*
X1777500Y856000D03*
X1780000Y774000D03*
X1782500Y856000D03*
X1785000Y774000D03*
X1787500Y856000D03*
X1790000Y774000D03*
X1792500Y856000D03*
X1795000Y774000D03*
X1797500Y856000D03*
X1800000Y774000D03*
X1802500Y856000D03*
X1805000Y774000D03*
X1807500Y856000D03*
X1810000Y774000D03*
G54D93*
X445300Y373650D03*
Y601350D03*
G54D94*
X484000Y397500D03*
Y402500D03*
Y407500D03*
Y412500D03*
Y417500D03*
Y422500D03*
Y427500D03*
Y432500D03*
Y437500D03*
Y442500D03*
Y447500D03*
Y452500D03*
Y457500D03*
Y462500D03*
Y467500D03*
Y472500D03*
Y477500D03*
Y482500D03*
Y487500D03*
Y492500D03*
Y497500D03*
Y502500D03*
Y507500D03*
Y512500D03*
Y517500D03*
Y522500D03*
Y527500D03*
Y532500D03*
Y537500D03*
Y542500D03*
Y547500D03*
Y552500D03*
Y557500D03*
Y562500D03*
Y567500D03*
Y572500D03*
Y577500D03*
X510500Y395000D03*
Y400000D03*
Y405000D03*
Y410000D03*
Y415000D03*
Y420000D03*
Y425000D03*
Y430000D03*
Y435000D03*
Y440000D03*
Y445000D03*
Y450000D03*
Y455000D03*
Y460000D03*
Y465000D03*
Y470000D03*
Y475000D03*
Y480000D03*
Y485000D03*
Y490000D03*
Y495000D03*
Y500000D03*
Y505000D03*
Y510000D03*
Y515000D03*
Y520000D03*
Y525000D03*
Y530000D03*
Y535000D03*
Y540000D03*
Y545000D03*
Y550000D03*
Y555000D03*
Y560000D03*
Y565000D03*
Y570000D03*
Y575000D03*
Y580000D03*
G54D95*
X337250Y1407250D03*
Y1469250D03*
X2477500Y1230750D03*
Y1294250D03*
G54D96*
X1850000Y356250D03*
Y368750D03*
Y381250D03*
Y393750D03*
Y406250D03*
Y418750D03*
Y431250D03*
Y443750D03*
Y456250D03*
Y468750D03*
Y481250D03*
Y493750D03*
Y506250D03*
Y518750D03*
Y531250D03*
Y543750D03*
Y556250D03*
Y568750D03*
Y581250D03*
Y593750D03*
X1910000Y356250D03*
Y368750D03*
Y381250D03*
Y393750D03*
Y406250D03*
Y418750D03*
Y431250D03*
Y443750D03*
Y456250D03*
Y468750D03*
Y481250D03*
Y493750D03*
Y506250D03*
Y518750D03*
Y531250D03*
Y543750D03*
Y556250D03*
Y568750D03*
Y581250D03*
Y593750D03*
G54D97*
X1880000Y332750D03*
Y617250D03*
G54D98*
X1490000Y55000D03*
X1500000D03*
X1510000D03*
X1520000D03*
X1530000D03*
X1540000D03*
X1550000D03*
X1560000D03*
X1570000D03*
X1580000D03*
X1590000D03*
X1600000D03*
G54D99*
X1477000Y16300D03*
X1613000D03*
G54D100*
X1035000Y166000D03*
X1785000D03*
G54D101*
X970500Y815000D03*
X1849000D03*
G54D102*
X642750Y551350D03*
Y588650D03*
X649250Y551350D03*
Y588650D03*
X655750Y551350D03*
Y588650D03*
X662250Y551350D03*
Y588650D03*
X1110500Y887528D03*
Y947472D03*
X1117000Y887528D03*
Y947472D03*
X1123500Y887528D03*
Y947472D03*
X1130000Y887528D03*
Y947472D03*
X1136500Y887528D03*
Y947472D03*
X1143000Y887528D03*
Y947472D03*
X1149500Y887528D03*
Y947472D03*
X1184500Y898600D03*
Y935900D03*
X1191000Y898600D03*
Y935900D03*
X1197500Y898600D03*
Y935900D03*
X1204000Y898600D03*
Y935900D03*
X1234500Y898600D03*
Y935900D03*
X1241000Y898600D03*
Y935900D03*
X1247500Y898600D03*
Y935900D03*
X1254000Y898600D03*
Y935900D03*
X1274500Y898600D03*
Y935900D03*
X1281000Y898600D03*
Y935900D03*
X1287500Y898600D03*
Y935900D03*
X1294000Y898600D03*
Y935900D03*
X1321500Y884528D03*
Y944472D03*
X1328000Y884528D03*
Y944472D03*
X1334500Y884528D03*
Y944472D03*
X1341000Y884528D03*
Y944472D03*
X1347500Y884528D03*
Y944472D03*
X1354000Y884528D03*
Y944472D03*
X1360500Y884528D03*
Y944472D03*
X1384000Y884528D03*
Y944472D03*
X1390500Y884528D03*
Y944472D03*
X1397000Y884528D03*
Y944472D03*
X1403500Y884528D03*
Y944472D03*
X1410000Y884528D03*
Y944472D03*
X1416500Y884528D03*
Y944472D03*
X1423000Y884528D03*
Y944472D03*
G54D103*
X2812000Y840000D03*
Y850000D03*
Y860000D03*
Y870000D03*
Y880000D03*
Y890000D03*
Y900000D03*
Y910000D03*
Y920000D03*
X2827500Y835000D03*
Y845000D03*
Y855000D03*
Y865000D03*
Y875000D03*
Y885000D03*
Y895000D03*
Y905000D03*
Y915000D03*
Y925000D03*
G54D104*
X2810500Y807500D03*
Y952500D03*
X2892500Y788500D03*
X2903000Y971500D03*
G54D105*
X2815000Y1462500D03*
X2824500Y1374500D03*
X2840000Y1462500D03*
X2875000Y1374500D03*
X2902500D03*
Y1462500D03*
G54D106*
X1661077Y890000D03*
X1698923D03*
X1721077Y1270000D03*
X1758923D03*
G54D107*
X364750Y1432000D03*
Y1444500D03*
G54D108*
X2501250Y1422500D03*
X2513750D03*
X2596250D03*
X2608750D03*
G54D109*
X2333000Y1277500D03*
X2403000D03*
G54D110*
X2352000D03*
X2422000D03*
G54D111*
X1497000Y1320000D03*
Y1325000D03*
Y1330000D03*
Y1335000D03*
Y1340000D03*
Y1345000D03*
Y1350000D03*
Y1355000D03*
Y1360000D03*
X1553000Y1320000D03*
Y1325000D03*
Y1330000D03*
Y1335000D03*
Y1340000D03*
Y1345000D03*
Y1350000D03*
Y1355000D03*
Y1360000D03*
G54D112*
X1505000Y1312000D03*
Y1368000D03*
X1510000Y1312000D03*
Y1368000D03*
X1515000Y1312000D03*
Y1368000D03*
X1520000Y1312000D03*
Y1368000D03*
X1525000Y1312000D03*
Y1368000D03*
X1530000Y1312000D03*
Y1368000D03*
X1535000Y1312000D03*
Y1368000D03*
X1540000Y1312000D03*
Y1368000D03*
X1545000Y1312000D03*
Y1368000D03*
G54D113*
X2417500Y1075000D03*
X2507500D03*
G54D114*
X1367950Y1317500D03*
Y1322500D03*
Y1327500D03*
Y1332500D03*
Y1337500D03*
Y1342500D03*
Y1347500D03*
Y1352500D03*
Y1357500D03*
Y1362500D03*
Y1367500D03*
Y1372500D03*
G54D115*
X1437050Y1317500D03*
Y1322500D03*
Y1327500D03*
Y1332500D03*
Y1337500D03*
Y1342500D03*
Y1347500D03*
Y1352500D03*
Y1357500D03*
Y1362500D03*
Y1367500D03*
Y1372500D03*
G54D116*
X1375000Y1310450D03*
X1380000D03*
X1385000D03*
X1390000D03*
X1395000D03*
X1400000D03*
X1405000D03*
X1410000D03*
X1415000D03*
X1420000D03*
X1425000D03*
X1430000D03*
G54D117*
X1375000Y1379550D03*
X1380000D03*
X1385000D03*
X1390000D03*
X1395000D03*
X1400000D03*
X1405000D03*
X1410000D03*
X1415000D03*
X1420000D03*
X1425000D03*
X1430000D03*
G54D118*
X906750Y1426500D03*
X919250D03*
X931750D03*
X944250D03*
X956750D03*
X969250D03*
X981750D03*
X994250D03*
X1006750D03*
X1019250D03*
X1031750D03*
X1044250D03*
G54D119*
X878000Y1475300D03*
X1073000D03*
G54D120*
X1650000Y1300000D03*
X2005000Y1035000D03*
G54D121*
X2125790Y1027500D03*
X2184210D03*
G54D122*
X696830Y421590D03*
Y435590D03*
G54D123*
X1992500Y1261000D03*
Y1309000D03*
X1997500Y1261000D03*
Y1309000D03*
X2002500Y1261000D03*
Y1309000D03*
X2007500Y1261000D03*
Y1309000D03*
X2012500Y1261000D03*
Y1309000D03*
G54D124*
X1956000Y1335250D03*
Y1341750D03*
Y1348250D03*
Y1354750D03*
X1999000Y1335250D03*
Y1341750D03*
Y1348250D03*
Y1354750D03*
G54D125*
X2900000Y496250D03*
Y623750D03*
G54D126*
X2805500Y568500D03*
G54D127*
X1762530Y1037485D03*
Y1042486D03*
Y1047487D03*
Y1052489D03*
Y1057490D03*
Y1062491D03*
Y1067492D03*
Y1072494D03*
Y1077495D03*
Y1082496D03*
Y1087497D03*
Y1092499D03*
Y1097500D03*
Y1102501D03*
Y1107503D03*
Y1112504D03*
Y1117505D03*
Y1122506D03*
Y1127508D03*
Y1132509D03*
Y1137510D03*
Y1142511D03*
Y1147513D03*
Y1152514D03*
Y1157515D03*
X1917470Y1037485D03*
Y1042486D03*
Y1047487D03*
Y1052489D03*
Y1057490D03*
Y1062491D03*
Y1067492D03*
Y1072494D03*
Y1077495D03*
Y1082496D03*
Y1087497D03*
Y1092499D03*
Y1097500D03*
Y1102501D03*
Y1107503D03*
Y1112504D03*
Y1117505D03*
Y1122506D03*
Y1127508D03*
Y1132509D03*
Y1137510D03*
Y1142511D03*
Y1147513D03*
Y1152514D03*
Y1157515D03*
G54D128*
X2073022Y1027500D03*
X2101978D03*
G54D129*
X577500Y566500D03*
X582500D03*
X587500D03*
X592500D03*
X597500D03*
X602500D03*
X607500D03*
X612500D03*
G54D130*
X571000Y525000D03*
Y530000D03*
Y535000D03*
Y540000D03*
Y545000D03*
Y550000D03*
Y555000D03*
Y560000D03*
G54D131*
X577500Y518500D03*
X582500D03*
X587500D03*
X592500D03*
X597500D03*
X602500D03*
X607500D03*
X612500D03*
G54D132*
X619000Y525000D03*
Y530000D03*
Y535000D03*
Y540000D03*
Y545000D03*
Y550000D03*
Y555000D03*
Y560000D03*
G54D133*
X595000Y542500D03*
G54D134*
X2491375Y1147500D03*
Y1152500D03*
Y1157500D03*
Y1162500D03*
G54D135*
X2470000Y1141125D03*
X2475000D03*
X2480000D03*
X2485000D03*
G54D136*
X2470000Y1168875D03*
X2475000D03*
X2480000D03*
X2485000D03*
G54D137*
X2463625Y1147500D03*
Y1152500D03*
Y1157500D03*
Y1162500D03*
G54D138*
X2477500Y1155000D03*
G54D139*
X2567000Y1093000D03*
Y1097000D03*
Y1101000D03*
Y1105000D03*
Y1109000D03*
Y1113000D03*
Y1117000D03*
Y1121000D03*
Y1125000D03*
Y1129000D03*
Y1133000D03*
Y1137000D03*
Y1141000D03*
Y1145000D03*
Y1149000D03*
Y1153000D03*
Y1157000D03*
G54D140*
X2573000Y1087000D03*
X2577000D03*
X2581000D03*
X2585000D03*
X2589000D03*
X2593000D03*
X2597000D03*
X2601000D03*
X2605000D03*
X2609000D03*
X2613000D03*
X2617000D03*
X2621000D03*
X2625000D03*
X2629000D03*
X2633000D03*
X2637000D03*
G54D141*
X2643000Y1093000D03*
Y1097000D03*
Y1101000D03*
Y1105000D03*
Y1109000D03*
Y1113000D03*
Y1117000D03*
Y1121000D03*
Y1125000D03*
Y1129000D03*
Y1133000D03*
Y1137000D03*
Y1141000D03*
Y1145000D03*
Y1149000D03*
Y1153000D03*
Y1157000D03*
G54D142*
X2573000Y1163000D03*
X2577000D03*
X2581000D03*
X2585000D03*
X2589000D03*
X2593000D03*
X2597000D03*
X2601000D03*
X2605000D03*
X2609000D03*
X2613000D03*
X2617000D03*
X2621000D03*
X2625000D03*
X2629000D03*
X2633000D03*
X2637000D03*
G54D143*
X2716500Y1018000D03*
Y1026000D03*
Y1034000D03*
Y1042000D03*
X2719000Y1188000D03*
Y1196000D03*
Y1204000D03*
Y1212000D03*
X2723500Y1022000D03*
Y1030000D03*
Y1038000D03*
X2726000Y1192000D03*
Y1200000D03*
Y1208000D03*
G54D144*
X767500Y462500D03*
Y472500D03*
Y482500D03*
Y492500D03*
Y502500D03*
Y512500D03*
Y522500D03*
Y532500D03*
Y542500D03*
Y552500D03*
Y562500D03*
Y572500D03*
Y582500D03*
Y592500D03*
X777500Y462500D03*
Y472500D03*
Y482500D03*
Y492500D03*
Y502500D03*
Y512500D03*
Y522500D03*
Y532500D03*
Y542500D03*
Y552500D03*
Y562500D03*
Y572500D03*
Y582500D03*
Y592500D03*
X787500Y462500D03*
Y472500D03*
Y482500D03*
Y492500D03*
Y502500D03*
Y512500D03*
Y522500D03*
Y532500D03*
Y542500D03*
Y552500D03*
Y562500D03*
Y572500D03*
Y582500D03*
Y592500D03*
X797500Y462500D03*
Y472500D03*
Y482500D03*
Y492500D03*
Y502500D03*
Y512500D03*
Y522500D03*
Y532500D03*
Y542500D03*
Y552500D03*
Y562500D03*
Y572500D03*
Y582500D03*
Y592500D03*
X807500Y462500D03*
Y472500D03*
Y482500D03*
Y492500D03*
Y502500D03*
Y512500D03*
Y522500D03*
Y532500D03*
Y542500D03*
Y552500D03*
Y562500D03*
Y572500D03*
Y582500D03*
Y592500D03*
X817500Y462500D03*
Y472500D03*
Y482500D03*
Y492500D03*
Y502500D03*
Y512500D03*
Y522500D03*
Y532500D03*
Y542500D03*
Y552500D03*
Y562500D03*
Y572500D03*
Y582500D03*
Y592500D03*
X827500Y462500D03*
Y472500D03*
Y482500D03*
Y492500D03*
Y502500D03*
Y512500D03*
Y522500D03*
Y532500D03*
Y542500D03*
Y552500D03*
Y562500D03*
Y572500D03*
Y582500D03*
Y592500D03*
X837500Y462500D03*
Y472500D03*
Y482500D03*
Y492500D03*
Y502500D03*
Y512500D03*
Y522500D03*
Y532500D03*
Y542500D03*
Y552500D03*
Y562500D03*
Y572500D03*
Y582500D03*
Y592500D03*
X847500Y462500D03*
Y472500D03*
Y482500D03*
Y492500D03*
Y502500D03*
Y512500D03*
Y522500D03*
Y532500D03*
Y542500D03*
Y552500D03*
Y562500D03*
Y572500D03*
Y582500D03*
Y592500D03*
X857500Y462500D03*
Y472500D03*
Y482500D03*
Y492500D03*
Y502500D03*
Y512500D03*
Y522500D03*
Y532500D03*
Y542500D03*
Y552500D03*
Y562500D03*
Y572500D03*
Y582500D03*
Y592500D03*
X867500Y462500D03*
Y472500D03*
Y482500D03*
Y492500D03*
Y502500D03*
Y512500D03*
Y522500D03*
Y532500D03*
Y542500D03*
Y552500D03*
Y562500D03*
Y572500D03*
Y582500D03*
Y592500D03*
X877500Y462500D03*
Y472500D03*
Y482500D03*
Y492500D03*
Y502500D03*
Y512500D03*
Y522500D03*
Y532500D03*
Y542500D03*
Y552500D03*
Y562500D03*
Y572500D03*
Y582500D03*
Y592500D03*
X887500Y462500D03*
Y472500D03*
Y482500D03*
Y492500D03*
Y502500D03*
Y512500D03*
Y522500D03*
Y532500D03*
Y542500D03*
Y552500D03*
Y562500D03*
Y572500D03*
Y582500D03*
Y592500D03*
X897500Y462500D03*
Y472500D03*
Y482500D03*
Y492500D03*
Y502500D03*
Y512500D03*
Y522500D03*
Y532500D03*
Y542500D03*
Y552500D03*
Y562500D03*
Y572500D03*
Y582500D03*
Y592500D03*
G54D145*
X577250Y397600D03*
Y410300D03*
Y423000D03*
Y435700D03*
Y448400D03*
G54D146*
X640750Y423000D03*
G04 SOLDER TOP*
M02*
