*
G04 Job   : D:\PD-Master\Mas\Mas100n1 ACB_0001_0\Mas100n1 PPC_PORTABILE R_0.pcb*
G04 User  : SHINA:Administrator*
G04 Layer : N-SolderPasteBot.gbr*
G04 Date  : Thu Feb 04 15:45:00 2021*
G04 RSM MASTER DESIGN srl*
%ICAS*%
%MOMM*%
%FSLAX24Y24*%
%OFA0.0000B0.0000*%
G90*
G74*
%AMVB_RECTANGLE*
21,1,$1,$2,0,0,$3*
%
%AMVB_FINGER0*
$3=$1/2*
$4=$2/2*
$5=0-$4*
1,1,$2,$3-$4,0*
21,1,$1-$4,$2,$5/2,0,0*
%
%AMVB_FINGER90*
$3=$1/2*
$4=$2/2*
$5=0-$4*
1,1,$2,0,$3-$4*
21,1,$2,$1-$4,0,$5/2,0*
%
%AMVB_FINGER180*
$3=$1/2*
$4=$2/2*
1,1,$2,$4-$3,0*
21,1,$1-$4,$2,$4/2,0,0*
%
%AMVB_FINGER270*
$3=$1/2*
$4=$2/2*
1,1,$2,0,$4-$3*
21,1,$2,$1-$4,0,$4/2,0*
%
%AMVB_RCRECTANGLE*
$3=$3X2*
21,1,$1-$3,$2,0,0,0*
21,1,$1,$2-$3,0,0,0*
$1=$1/2*
$2=$2/2*
$3=$3/2*
$1=$1-$3*
$2=$2-$3*
1,1,$3X2,0-$1,0-$2*
1,1,$3X2,0-$1,$2*
1,1,$3X2,$1,$2*
1,1,$3X2,$1,0-$2*
%
%ADD10C,0.15000*%
%ADD74C,0.35560*%
%ADD71C,0.40640*%
%ADD61C,0.53340*%
%ADD11C,1.01600*%
%ADD37VB_RECTANGLE,0.32500X0.27000X270.00000*%
%ADD60VB_RECTANGLE,0.40000X0.30000X270.00000*%
%ADD59VB_RECTANGLE,0.50000X0.30000X270.00000*%
%ADD26VB_RECTANGLE,0.60000X0.25000X0.00000*%
%ADD27VB_RECTANGLE,0.60000X0.25000X270.00000*%
%ADD12VB_RECTANGLE,0.63500X0.58420X0.00000*%
%ADD13VB_RECTANGLE,0.63500X0.58420X270.00000*%
%ADD34VB_RECTANGLE,0.66040X0.45720X180.00000*%
%ADD52VB_RECTANGLE,0.70000X0.20000X270.00000*%
%ADD32VB_RECTANGLE,0.70000X0.25000X90.00000*%
%ADD56VB_RECTANGLE,0.76200X0.88900X0.00000*%
%ADD41VB_RECTANGLE,1.00000X0.80000X0.00000*%
%ADD17VB_RECTANGLE,1.01600X0.66040X0.00000*%
%ADD16VB_RECTANGLE,1.01600X0.66040X90.00000*%
%ADD45VB_RECTANGLE,1.01600X1.01600X0.00000*%
%ADD47VB_RECTANGLE,1.01600X1.01600X270.00000*%
%ADD50VB_RECTANGLE,1.19380X0.30480X0.00000*%
%ADD42VB_RECTANGLE,1.20000X0.70000X90.00000*%
%ADD40VB_RECTANGLE,1.20000X1.00000X90.00000*%
%ADD49VB_RECTANGLE,1.27000X1.27000X0.00000*%
%ADD44VB_RECTANGLE,1.52400X0.27940X270.00000*%
%ADD48VB_RECTANGLE,1.52400X0.35560X270.00000*%
%ADD72VB_RECTANGLE,1.52400X1.01600X180.00000*%
%ADD25VB_RECTANGLE,1.52400X1.01600X270.00000*%
%ADD67VB_RECTANGLE,1.60000X0.60000X180.00000*%
%ADD62VB_RECTANGLE,1.60000X0.60000X270.00000*%
%ADD28VB_RECTANGLE,1.70000X0.25000X270.00000*%
%ADD51VB_RECTANGLE,1.70000X0.70000X270.00000*%
%ADD57VB_RECTANGLE,1.77800X0.35560X0.00000*%
%ADD69VB_RECTANGLE,1.77800X0.66040X180.00000*%
%ADD30VB_RECTANGLE,1.77800X0.66040X90.00000*%
%ADD53VB_RECTANGLE,1.90000X0.95000X270.00000*%
%ADD43VB_RECTANGLE,1.90500X1.39700X0.00000*%
%ADD29VB_RECTANGLE,2.00000X0.50000X270.00000*%
%ADD18VB_RECTANGLE,2.03200X1.01600X0.00000*%
%ADD70VB_RECTANGLE,2.03200X1.01600X90.00000*%
%ADD46VB_RECTANGLE,2.03200X1.27000X270.00000*%
%ADD31VB_RECTANGLE,2.40000X1.40000X180.00000*%
%ADD73VB_RECTANGLE,2.79400X1.01600X0.00000*%
%ADD36VB_RECTANGLE,2.79400X1.01600X90.00000*%
%ADD39VB_RECTANGLE,2.80000X1.00000X90.00000*%
%ADD58VB_RECTANGLE,3.00000X2.60000X90.00000*%
%ADD68VB_RECTANGLE,3.04800X1.01600X0.00000*%
%ADD33VB_RECTANGLE,3.04800X2.28600X270.00000*%
%ADD24VB_RECTANGLE,3.30000X2.70000X270.00000*%
%ADD15VB_RECTANGLE,3.42900X1.77800X0.00000*%
%ADD38VB_RECTANGLE,3.55600X1.39700X0.00000*%
%ADD35VB_RECTANGLE,3.55600X1.39700X90.00000*%
%ADD54VB_RECTANGLE,3.70000X2.20000X270.00000*%
%ADD55VB_RECTANGLE,4.19100X2.03200X270.00000*%
%ADD21VB_FINGER0,0.60000X0.25000*%
%ADD23VB_FINGER90,0.60000X0.25000*%
%ADD22VB_FINGER180,0.60000X0.25000*%
%ADD20VB_FINGER270,0.60000X0.25000*%
%ADD75VB_FINGER0,0.80000X0.50000*%
%ADD76VB_FINGER180,0.80000X0.50000*%
%ADD65VB_FINGER0,0.80010X0.22860*%
%ADD63VB_FINGER90,0.80010X0.22860*%
%ADD66VB_FINGER180,0.80010X0.22860*%
%ADD64VB_FINGER270,0.80010X0.22860*%
%ADD14VB_RCRECTANGLE,0.40000X0.40000X0.10000*%
%ADD19VB_RCRECTANGLE,0.45000X0.45000X0.13000*%
G01*
G36*
X38500Y1171000D02*
Y1147000D01*
X54500*
Y1155000*
X62500*
Y1171000*
X38500*
Y1334000D02*
Y1358000D01*
X54500*
Y1350000*
X62500*
Y1334000*
X38500*
X117000Y952500D02*
X133000D01*
Y962500*
X117000*
Y952500*
X202000Y892000D02*
X211000D01*
Y901000*
X202000*
Y892000*
Y902500D02*
X211000D01*
Y911500*
X202000*
Y902500*
Y913000D02*
X211000D01*
Y922000*
X202000*
Y913000*
Y923500D02*
X211000D01*
Y932500*
X202000*
Y923500*
Y934000D02*
X211000D01*
Y943000*
X202000*
Y934000*
X212500Y892000D02*
X221500D01*
Y901000*
X212500*
Y892000*
Y902500D02*
X221500D01*
Y911500*
X212500*
Y902500*
Y913000D02*
X221500D01*
Y922000*
X212500*
Y913000*
Y923500D02*
X221500D01*
Y932500*
X212500*
Y923500*
Y934000D02*
X221500D01*
Y943000*
X212500*
Y934000*
X215000Y1177500D02*
X225000D01*
Y1187500*
X215000*
Y1177500*
Y1195000D02*
X225000D01*
Y1205000*
X215000*
Y1195000*
Y1212500D02*
X225000D01*
Y1222500*
X215000*
Y1212500*
X223000Y892000D02*
X232000D01*
Y901000*
X223000*
Y892000*
Y902500D02*
X232000D01*
Y911500*
X223000*
Y902500*
Y913000D02*
X232000D01*
Y922000*
X223000*
Y913000*
Y923500D02*
X232000D01*
Y932500*
X223000*
Y923500*
Y934000D02*
X232000D01*
Y943000*
X223000*
Y934000*
X232500Y1177500D02*
X242500D01*
Y1187500*
X232500*
Y1177500*
Y1195000D02*
X242500D01*
Y1205000*
X232500*
Y1195000*
Y1212500D02*
X242500D01*
Y1222500*
X232500*
Y1212500*
X233500Y892000D02*
X242500D01*
Y901000*
X233500*
Y892000*
Y902500D02*
X242500D01*
Y911500*
X233500*
Y902500*
Y913000D02*
X242500D01*
Y922000*
X233500*
Y913000*
Y923500D02*
X242500D01*
Y932500*
X233500*
Y923500*
Y934000D02*
X242500D01*
Y943000*
X233500*
Y934000*
X244000Y892000D02*
X253000D01*
Y901000*
X244000*
Y892000*
Y902500D02*
X253000D01*
Y911500*
X244000*
Y902500*
Y913000D02*
X253000D01*
Y922000*
X244000*
Y913000*
Y923500D02*
X253000D01*
Y932500*
X244000*
Y923500*
Y934000D02*
X253000D01*
Y943000*
X244000*
Y934000*
X250000Y1177500D02*
X260000D01*
Y1187500*
X250000*
Y1177500*
Y1195000D02*
X260000D01*
Y1205000*
X250000*
Y1195000*
Y1212500D02*
X260000D01*
Y1222500*
X250000*
Y1212500*
X457500Y1022500D02*
X492500D01*
Y1057500*
X457500*
Y1022500*
X1135500Y176000D02*
Y162000D01*
X1137000Y160500*
X1141000*
Y157000*
X1122500*
Y176000*
X1135500*
X1331400Y554000D02*
X1336900D01*
Y556500*
X1331400*
Y554000*
Y559000D02*
X1336900D01*
Y561500*
X1331400*
Y559000*
Y564000D02*
X1336900D01*
Y566500*
X1331400*
Y564000*
X1431400Y553500D02*
X1436900D01*
Y556000*
X1431400*
Y553500*
Y558500D02*
X1436900D01*
Y561000*
X1431400*
Y558500*
Y563500D02*
X1436900D01*
Y566000*
X1431400*
Y563500*
X1520000Y392500D02*
X1527500D01*
Y402500*
X1520000*
Y392500*
Y407500D02*
X1527500D01*
Y417500*
X1520000*
Y407500*
Y422500D02*
X1527500D01*
Y432500*
X1520000*
Y422500*
X1530000Y392500D02*
X1540000D01*
Y402500*
X1530000*
Y392500*
Y407500D02*
X1540000D01*
Y417500*
X1530000*
Y407500*
Y422500D02*
X1540000D01*
Y432500*
X1530000*
Y422500*
X1534150Y553750D02*
X1539650D01*
Y556250*
X1534150*
Y553750*
Y558750D02*
X1539650D01*
Y561250*
X1534150*
Y558750*
Y563750D02*
X1539650D01*
Y566250*
X1534150*
Y563750*
X1542500Y392500D02*
X1550000D01*
Y402500*
X1542500*
Y392500*
Y407500D02*
X1550000D01*
Y417500*
X1542500*
Y407500*
Y422500D02*
X1550000D01*
Y432500*
X1542500*
Y422500*
X1638650Y553750D02*
X1644150D01*
Y556250*
X1638650*
Y553750*
Y558750D02*
X1644150D01*
Y561250*
X1638650*
Y558750*
Y563750D02*
X1644150D01*
Y566250*
X1638650*
Y563750*
X1763650Y553750D02*
X1769150D01*
Y556250*
X1763650*
Y553750*
Y558750D02*
X1769150D01*
Y561250*
X1763650*
Y558750*
Y563750D02*
X1769150D01*
Y566250*
X1763650*
Y563750*
G37*
G54D10*
X43582Y274394D02*
X49330D01*
X50350Y273638*
X51178Y272510*
Y271034*
X50326Y269858*
X49330Y269126*
X43582*
Y274394*
X50734Y273962D02*
X50698Y273986D01*
X50674Y273998*
Y274010*
X49546Y274838*
X49486Y274862*
X49450Y274874*
X49390Y274886*
X43330*
X43234Y274862*
X43174Y274802*
X43114Y274742*
X43090Y274646*
Y263126*
X43114Y263042*
X43162Y262970*
X43246Y262934*
X43330Y262922*
X43426Y262934*
X43510Y262970*
X43558Y263042*
X43582Y263126*
Y268646*
X49390*
X49462*
X49498Y268658*
X49546Y268682*
X50674Y269498*
X50710Y269534*
X50746Y269606*
X51622Y270794*
Y270818*
X51634Y270830*
X51646Y270842*
Y270878*
X51658Y270902*
Y270938*
Y272594*
X51646Y272642*
Y272666*
X51634Y272690*
X51622Y272702*
Y272726*
X50734Y273962*
X58714Y273914D02*
X61246Y266678D01*
X56158*
X58714Y273914*
X58954Y274718D02*
X58918Y274766D01*
X58870Y274814*
X58810Y274838*
X58726Y274850*
X58654*
X58594Y274826*
X58534Y274790*
X58486Y274718*
X54442Y263222*
X54430Y263126*
X54454Y263042*
X54514Y262982*
X54598Y262946*
X54682Y262922*
X54778Y262934*
X54850Y262982*
X54898Y263066*
X56002Y266186*
X61438*
X62530Y263066*
X62578Y262982*
X62662Y262934*
X62758Y262922*
X62830Y262946*
X62902Y262982*
X62962Y263042*
X62998Y263126*
X62974Y263222*
X58954Y274718*
X62402Y276894D02*
X68150D01*
X69170Y276138*
X69998Y275010*
Y273534*
X69146Y272358*
X68150Y271626*
X62402*
Y276894*
X67006Y263930D02*
X67030Y263906D01*
X67054Y263882*
X67078Y263870*
X69190Y262898*
X69214Y262886*
X69274*
X70858*
X70894*
X70918*
X70942*
X70954Y262898*
X70978*
X73090Y263870*
X73162Y263930*
X74290Y264926*
X74314Y264950*
X74326Y264974*
X74338Y264998*
X74350Y265022*
Y265058*
X74362Y265070*
Y265094*
Y266822*
X74350Y266870*
X74326Y266930*
X74314Y266978*
X74278Y267038*
X72646Y268262*
X72562Y268286*
X67762Y269918*
X66286Y271070*
Y272570*
X67318Y273770*
X69286Y274394*
X70882*
X72862Y273782*
X73954Y272510*
X73990Y272474*
X74026Y272450*
X74062Y272438*
X74110*
X74194Y272462*
X74266Y272522*
X74326Y272594*
X74362Y272678*
Y272762*
X74314Y272834*
X73186Y274154*
X73138Y274190*
X73078Y274202*
X73066*
Y274226*
X70978Y274850*
X70942Y274874*
X70906Y274886*
X69274*
X69226Y274874*
X69190Y274850*
X67114Y274214*
X67102Y274202*
X67054Y274190*
X66994Y274142*
X65866Y272822*
X65818Y272774*
X65806Y272738*
X65794Y272678*
Y270938*
X65806Y270866*
X65830Y270806*
X65854Y270770*
X65878Y270746*
X65902Y270734*
X67510Y269498*
X67534Y269486*
X67582*
X72370Y267854*
X73882Y266690*
Y265190*
X72886Y264326*
X70834Y263378*
X69334*
X67282Y264326*
X66202Y265286*
X66118Y265322*
X66034*
X65950Y265286*
X65890Y265226*
X65842Y265154*
X65806Y265070*
Y265034*
X65818Y264998*
X65842Y264950*
X65878Y264926*
X66994Y263930*
X67006*
X69554Y276462D02*
X69518Y276486D01*
X69494Y276498*
Y276510*
X68366Y277338*
X68306Y277362*
X68270Y277374*
X68210Y277386*
X62150*
X62054Y277362*
X61994Y277302*
X61934Y277242*
X61910Y277146*
Y265626*
X61934Y265542*
X61982Y265470*
X62066Y265434*
X62150Y265422*
X62246Y265434*
X62330Y265470*
X62378Y265542*
X62402Y265626*
Y271146*
X68210*
X68282*
X68318Y271158*
X68366Y271182*
X69494Y271998*
X69530Y272034*
X69566Y272106*
X70442Y273294*
Y273318*
X70454Y273330*
X70466Y273342*
Y273378*
X70478Y273402*
Y273438*
Y275094*
X70466Y275142*
Y275166*
X70454Y275190*
X70442Y275202*
Y275226*
X69554Y276462*
X77374Y274886D02*
X77278Y274862D01*
X77218Y274814*
X77182Y274730*
X77170Y274634*
X77182Y274550*
X77218Y274466*
X77278Y274418*
X77374Y274394*
X81178*
Y263126*
X81202Y263042*
X81250Y262970*
X81334Y262934*
X81418Y262922*
X81502Y262934*
X81586Y262970*
X81634Y263042*
X81658Y263126*
Y274394*
X85462*
X85558Y274418*
X85618Y274466*
X85654Y274550*
X85666Y274634*
X85654Y274730*
X85618Y274814*
X85558Y274862*
X85462Y274886*
X77374*
X77534Y276414D02*
X80066Y269178D01*
X74978*
X77534Y276414*
X77774Y277218D02*
X77738Y277266D01*
X77690Y277314*
X77630Y277338*
X77546Y277350*
X77474*
X77414Y277326*
X77354Y277290*
X77306Y277218*
X73262Y265722*
X73250Y265626*
X73274Y265542*
X73334Y265482*
X73418Y265446*
X73502Y265422*
X73598Y265434*
X73670Y265482*
X73718Y265566*
X74822Y268686*
X80258*
X81350Y265566*
X81398Y265482*
X81482Y265434*
X81578Y265422*
X81650Y265446*
X81722Y265482*
X81782Y265542*
X81818Y265626*
X81794Y265722*
X77774Y277218*
X85826Y266430D02*
X85850Y266406D01*
X85874Y266382*
X85898Y266370*
X88010Y265398*
X88034Y265386*
X88094*
X89678*
X89714*
X89738*
X89762*
X89774Y265398*
X89798*
X91910Y266370*
X91982Y266430*
X93110Y267426*
X93134Y267450*
X93146Y267474*
X93158Y267498*
X93170Y267522*
Y267558*
X93182Y267570*
Y267594*
Y269322*
X93170Y269370*
X93146Y269430*
X93134Y269478*
X93098Y269538*
X91466Y270762*
X91382Y270786*
X86582Y272418*
X85106Y273570*
Y275070*
X86138Y276270*
X88106Y276894*
X89702*
X91682Y276282*
X92774Y275010*
X92810Y274974*
X92846Y274950*
X92882Y274938*
X92930*
X93014Y274962*
X93086Y275022*
X93146Y275094*
X93182Y275178*
Y275262*
X93134Y275334*
X92006Y276654*
X91958Y276690*
X91898Y276702*
X91886*
Y276726*
X89798Y277350*
X89762Y277374*
X89726Y277386*
X88094*
X88046Y277374*
X88010Y277350*
X85934Y276714*
X85922Y276702*
X85874Y276690*
X85814Y276642*
X84686Y275322*
X84638Y275274*
X84626Y275238*
X84614Y275178*
Y273438*
X84626Y273366*
X84650Y273306*
X84674Y273270*
X84698Y273246*
X84722Y273234*
X86330Y271998*
X86354Y271986*
X86402*
X91190Y270354*
X92702Y269190*
Y267690*
X91706Y266826*
X89654Y265878*
X88154*
X86102Y266826*
X85022Y267786*
X84938Y267822*
X84854*
X84770Y267786*
X84710Y267726*
X84662Y267654*
X84626Y267570*
Y267534*
X84638Y267498*
X84662Y267450*
X84698Y267426*
X85814Y266430*
X85826*
X92758Y273914D02*
X95290Y266678D01*
X90202*
X92758Y273914*
X92998Y274718D02*
X92962Y274766D01*
X92914Y274814*
X92854Y274838*
X92770Y274850*
X92698*
X92638Y274826*
X92578Y274790*
X92530Y274718*
X88486Y263222*
X88474Y263126*
X88498Y263042*
X88558Y262982*
X88642Y262946*
X88726Y262922*
X88822Y262934*
X88894Y262982*
X88942Y263066*
X90046Y266186*
X95482*
X96574Y263066*
X96622Y262982*
X96706Y262934*
X96802Y262922*
X96874Y262946*
X96946Y262982*
X97006Y263042*
X97042Y263126*
X97018Y263222*
X92998Y274718*
X96194Y277386D02*
X96098Y277362D01*
X96038Y277314*
X96002Y277230*
X95990Y277134*
X96002Y277050*
X96038Y276966*
X96098Y276918*
X96194Y276894*
X99998*
Y265626*
X100022Y265542*
X100070Y265470*
X100154Y265434*
X100238Y265422*
X100322Y265434*
X100406Y265470*
X100454Y265542*
X100478Y265626*
Y276894*
X104282*
X104378Y276918*
X104438Y276966*
X104474Y277050*
X104486Y277134*
X104474Y277230*
X104438Y277314*
X104378Y277362*
X104282Y277386*
X96194*
X108910Y269606D02*
X114454D01*
X115774Y270290*
X116506Y271730*
Y272594*
X115786Y273626*
X114502Y274394*
X108910*
Y269606*
X111578Y276414D02*
X114110Y269178D01*
X109022*
X111578Y276414*
X111818Y277218D02*
X111782Y277266D01*
X111734Y277314*
X111674Y277338*
X111590Y277350*
X111518*
X111458Y277326*
X111398Y277290*
X111350Y277218*
X107306Y265722*
X107294Y265626*
X107318Y265542*
X107378Y265482*
X107462Y265446*
X107546Y265422*
X107642Y265434*
X107714Y265482*
X107762Y265566*
X108866Y268686*
X114302*
X115394Y265566*
X115442Y265482*
X115526Y265434*
X115622Y265422*
X115694Y265446*
X115766Y265482*
X115826Y265542*
X115862Y265626*
X115838Y265722*
X111818Y277218*
X114394Y269114D02*
X108910D01*
Y263378*
X114574*
X115774Y264134*
X116506Y265646*
Y266762*
X115786Y267890*
X114394Y269114*
X116110Y263774D02*
X114730Y262886D01*
X108658*
X108574Y262910*
X108490Y262958*
X108442Y263042*
X108418Y263126*
Y274646*
X108442Y274730*
X108490Y274802*
X108574Y274862*
X108658Y274886*
X114658*
X116098Y274010*
X116986Y272738*
Y271634*
X116110Y269930*
X114934Y269318*
X116098Y268250*
X116986Y266882*
Y265538*
X116110Y263774*
X120250Y265658D02*
Y272114D01*
X120490Y273266*
X120970Y273842*
X122134Y274262*
X123262Y274394*
X124810*
X124834*
X125962Y274262*
X127114Y273842*
X127594Y273266*
X127846Y272114*
Y265658*
X127606Y264530*
X127138Y264098*
X125914Y263498*
X124834Y263378*
X123286*
X123262*
X122170Y263498*
X120958Y264098*
X120490Y264530*
X120250Y265658*
X127366Y263654D02*
X127438Y263714D01*
X128002Y264242*
X128014Y264278*
X128074Y264362*
X128326Y265562*
Y265646*
Y272114*
Y272210*
X128074Y273410*
X128050Y273434*
X128038Y273458*
X128026Y273470*
X128002Y273518*
X127438Y274214*
X127414*
X127402Y274238*
Y274250*
X127366Y274274*
X127330Y274286*
X126082Y274694*
X126046Y274718*
X126010Y274730*
X124882Y274886*
X124870*
X123250*
X123202*
X123190*
X122074Y274730*
X122038Y274718*
X122002Y274694*
X120766Y274286*
X120718Y274262*
X120706Y274250*
X120670Y274214*
X120082Y273518*
X120058Y273482*
X120046*
X120022Y273446*
X120010Y273410*
X119758Y272210*
X119746Y272162*
X119758Y272114*
Y265646*
X119746Y265610*
X119758Y265562*
X120010Y264362*
X120022Y264302*
X120070Y264278*
Y264266*
X120106Y264242*
X120670Y263714*
X120682*
X120754Y263654*
X122002Y263054*
X122026Y263042*
X122050*
X122074*
X123190Y262886*
X123238*
X123250*
X124834*
X124870*
X124882*
X126010Y263042*
X126034*
X126058Y263054*
X126082*
X127366Y263654*
X127730Y272106D02*
X133274D01*
X134594Y272790*
X135326Y274230*
Y275094*
X134606Y276126*
X133322Y276894*
X127730*
Y272106*
X131338Y274886D02*
X131242Y274862D01*
X131182Y274814*
X131146Y274730*
X131134Y274634*
X131146Y274550*
X131182Y274466*
X131242Y274418*
X131338Y274394*
X135142*
Y263126*
X135166Y263042*
X135214Y262970*
X135298Y262934*
X135382Y262922*
X135466Y262934*
X135550Y262970*
X135598Y263042*
X135622Y263126*
Y274394*
X139426*
X139522Y274418*
X139582Y274466*
X139618Y274550*
X139630Y274634*
X139618Y274730*
X139582Y274814*
X139522Y274862*
X139426Y274886*
X131338*
X133214Y271614D02*
X127730D01*
Y265878*
X133394*
X134594Y266634*
X135326Y268146*
Y269262*
X134606Y270390*
X133214Y271614*
X134930Y266274D02*
X133550Y265386D01*
X127478*
X127394Y265410*
X127310Y265458*
X127262Y265542*
X127238Y265626*
Y277146*
X127262Y277230*
X127310Y277302*
X127394Y277362*
X127478Y277386*
X133478*
X134918Y276510*
X135806Y275238*
Y274134*
X134930Y272430*
X133754Y271818*
X134918Y270750*
X135806Y269382*
Y268038*
X134930Y266274*
X139070Y268158D02*
Y274614D01*
X139310Y275766*
X139790Y276342*
X140954Y276762*
X142082Y276894*
X143630*
X143654*
X144782Y276762*
X145934Y276342*
X146414Y275766*
X146666Y274614*
Y268158*
X146426Y267030*
X145958Y266598*
X144734Y265998*
X143654Y265878*
X142106*
X142082*
X140990Y265998*
X139778Y266598*
X139310Y267030*
X139070Y268158*
X142678Y274886D02*
X142582Y274862D01*
X142522Y274814*
X142486Y274730*
X142474Y274634*
X142486Y274550*
X142522Y274466*
X142582Y274418*
X142678Y274394*
X146482*
Y263126*
X146506Y263042*
X146554Y262970*
X146638Y262934*
X146722Y262922*
X146806Y262934*
X146890Y262970*
X146938Y263042*
X146962Y263126*
Y274394*
X150766*
X150862Y274418*
X150922Y274466*
X150958Y274550*
X150970Y274634*
X150958Y274730*
X150922Y274814*
X150862Y274862*
X150766Y274886*
X142678*
X146186Y266154D02*
X146258Y266214D01*
X146822Y266742*
X146834Y266778*
X146894Y266862*
X147146Y268062*
Y268146*
Y274614*
Y274710*
X146894Y275910*
X146870Y275934*
X146858Y275958*
X146846Y275970*
X146822Y276018*
X146258Y276714*
X146234*
X146222Y276738*
Y276750*
X146186Y276774*
X146150Y276786*
X144902Y277194*
X144866Y277218*
X144830Y277230*
X143702Y277386*
X143690*
X142070*
X142022*
X142010*
X140894Y277230*
X140858Y277218*
X140822Y277194*
X139586Y276786*
X139538Y276762*
X139526Y276750*
X139490Y276714*
X138902Y276018*
X138878Y275982*
X138866*
X138842Y275946*
X138830Y275910*
X138578Y274710*
X138566Y274662*
X138578Y274614*
Y268146*
X138566Y268110*
X138578Y268062*
X138830Y266862*
X138842Y266802*
X138890Y266778*
Y266766*
X138926Y266742*
X139490Y266214*
X139502*
X139574Y266154*
X140822Y265554*
X140846Y265542*
X140870*
X140894*
X142010Y265386*
X142058*
X142070*
X143654*
X143690*
X143702*
X144830Y265542*
X144854*
X144878Y265554*
X144902*
X146186Y266154*
X150158Y277386D02*
X150062Y277362D01*
X150002Y277314*
X149966Y277230*
X149954Y277134*
X149966Y277050*
X150002Y276966*
X150062Y276918*
X150158Y276894*
X153962*
Y265626*
X153986Y265542*
X154034Y265470*
X154118Y265434*
X154202Y265422*
X154286Y265434*
X154370Y265470*
X154418Y265542*
X154442Y265626*
Y276894*
X158246*
X158342Y276918*
X158402Y276966*
X158438Y277050*
X158450Y277134*
X158438Y277230*
X158402Y277314*
X158342Y277362*
X158246Y277386*
X150158*
X154270Y265658D02*
Y272114D01*
X154510Y273266*
X154990Y273842*
X156154Y274262*
X157282Y274394*
X158830*
X158854*
X159982Y274262*
X161134Y273842*
X161614Y273266*
X161866Y272114*
Y265658*
X161626Y264530*
X161158Y264098*
X159934Y263498*
X158854Y263378*
X157306*
X157282*
X156190Y263498*
X154978Y264098*
X154510Y264530*
X154270Y265658*
X161386Y263654D02*
X161458Y263714D01*
X162022Y264242*
X162034Y264278*
X162094Y264362*
X162346Y265562*
Y265646*
Y272114*
Y272210*
X162094Y273410*
X162070Y273434*
X162058Y273458*
X162046Y273470*
X162022Y273518*
X161458Y274214*
X161434*
X161422Y274238*
Y274250*
X161386Y274274*
X161350Y274286*
X160102Y274694*
X160066Y274718*
X160030Y274730*
X158902Y274886*
X158890*
X157270*
X157222*
X157210*
X156094Y274730*
X156058Y274718*
X156022Y274694*
X154786Y274286*
X154738Y274262*
X154726Y274250*
X154690Y274214*
X154102Y273518*
X154078Y273482*
X154066*
X154042Y273446*
X154030Y273410*
X153778Y272210*
X153766Y272162*
X153778Y272114*
Y265646*
X153766Y265610*
X153778Y265562*
X154030Y264362*
X154042Y264302*
X154090Y264278*
Y264266*
X154126Y264242*
X154690Y263714*
X154702*
X154774Y263654*
X156022Y263054*
X156046Y263042*
X156070*
X156094*
X157210Y262886*
X157258*
X157270*
X158854*
X158890*
X158902*
X160030Y263042*
X160054*
X160078Y263054*
X160102*
X161386Y263654*
X165598Y274718D02*
X165562Y274766D01*
X165514Y274814*
X165466Y274826*
X165406Y274838*
X165322Y274850*
X165226Y274826*
X165178Y274790*
X165142Y274754*
X165130Y274706*
X165118Y274646*
Y274622*
Y263126*
X165142Y263042*
X165190Y262970*
X165274Y262934*
X165358Y262922*
X165454Y262934*
X165538Y262970*
X165586Y263042*
X165610Y263126*
Y273314*
X169174Y263882*
X169210Y263822*
X169258Y263774*
X169318Y263750*
X169402*
X169486*
X169546Y263774*
X169606Y263822*
X169642Y263882*
X173206Y273314*
Y263126*
X173230Y263042*
X173278Y262970*
X173362Y262934*
X173446Y262922*
X173530Y262934*
X173614Y262970*
X173662Y263042*
X173686Y263126*
Y274646*
X173650Y274754*
X173590Y274826*
X173494Y274850*
X173374Y274838*
X173326Y274826*
X173290Y274814*
X173254Y274766*
X173218Y274718*
X173206Y274682*
X169402Y264638*
X165610Y274682*
X165598Y274718*
X2930000Y1337000D02*
X2895000D01*
Y984000*
X2930000*
Y316000*
G02X2905000Y291000I25000*
G01X2792719*
G02X2782812Y299638J10000*
G01X2773000Y371000*
X2761000Y478000*
X2737000Y614000*
X2746000Y622000*
X2739000Y674000*
X2731000Y702000*
X2715000Y751000*
X2697000Y786000*
X2663000Y836000*
X2623000Y881000*
X2610000Y894000*
X2602000Y900000*
X2609000Y924000*
X2615000Y945000*
X2616000Y950000*
Y956000*
X2615000Y969000*
X2614000Y974000*
X2611000Y983000*
X2608000Y989000*
X2601000Y998000*
X2588000Y1007000*
X2583000Y1010000*
X2569000Y1014000*
X2550000*
X2544000Y1012000*
X2528000Y1004000*
X2491000Y964000*
X2441000Y979000*
X2423000Y983000*
X2375000Y989000*
X2354000Y990000*
X2332000*
X2289000Y986000*
X2261000Y981000*
X2233000Y973000*
X2184000Y955000*
X2142000Y932000*
X2112000Y911000*
X2090000Y893000*
X2080000Y884000*
X2066000Y870000*
X2044000Y843000*
X2027000Y822000*
X2007000Y787000*
X1975000Y725000*
X1962000Y692000*
X1955000Y647000*
X1953000Y623000*
Y591000*
X1954000Y571000*
X1955000Y563000*
X1963000Y491000*
X1982000Y329000*
X1987000Y285000*
X1990000Y261000*
X2001575Y185994*
G02X2001663Y184850I7412J1144*
X1996833Y177841I7500*
G01X1934619Y177597*
G03X1909719Y152883I98J25000*
G01X1909282Y114714*
G02X1884284Y90000I24998J286*
G01X1785000*
G03X1760000Y65000J25000*
G01Y25000*
G02X1735000Y0I25000*
G01X1230000*
Y10000*
X345000*
G02X320000Y35000J25000*
G01Y65000*
G03X295000Y90000I25000*
G01X255000*
G02X230000Y115000J25000*
G01Y275000*
G03X205000Y300000I25000*
G01X25000*
G02X0Y325000J25000*
G01Y1475000*
G02X25000Y1500000I25000*
G01X1609000*
Y1490000*
X1784000*
G02X1809000Y1465000J25000*
G01Y1451000*
G03X1840000Y1420000I31000*
X1871000Y1451000J31000*
G01Y1463000*
G02X1881000Y1473000I10000*
G01X2339000*
G02X2349000Y1463000J10000*
G01Y1462000*
G03X2380000Y1431000I31000*
X2411000Y1462000J31000*
G01Y1463000*
G02X2421000Y1473000I10000*
G01X2670000*
X2697500Y1500000*
X2905000*
G02X2930000Y1475000J25000*
G01Y1337000*
G54D11*
X32500Y1390000D03*
X77500Y340000D03*
X400000Y55000D03*
X1895000Y1445000D03*
X1927500Y680000D03*
X1955000Y255000D03*
X2757500Y1470000D03*
X2840000Y375000D03*
G54D12*
X100500Y1430301D03*
Y1439699D03*
X122500Y1377801D03*
Y1387199D03*
Y1400301D03*
Y1409699D03*
X125500Y1430301D03*
Y1439699D03*
X130000Y1175301D03*
Y1184699D03*
Y1200301D03*
Y1209699D03*
X137500Y1377801D03*
Y1387199D03*
X138000Y1430301D03*
Y1439699D03*
X147500Y1127801D03*
Y1137199D03*
X152500Y1377801D03*
Y1387199D03*
X167500Y1127801D03*
Y1137199D03*
Y1292801D03*
Y1302199D03*
Y1377801D03*
Y1387199D03*
X180000Y1127801D03*
Y1137199D03*
Y1267801D03*
Y1277199D03*
Y1292801D03*
Y1302199D03*
Y1330301D03*
Y1339699D03*
Y1352801D03*
Y1362199D03*
X185000Y1429801D03*
Y1439199D03*
X187500Y855301D03*
Y864699D03*
X190000Y975301D03*
Y984699D03*
X192500Y1127801D03*
Y1137199D03*
Y1267801D03*
Y1277199D03*
Y1292801D03*
Y1302199D03*
X195000Y1460301D03*
Y1469699D03*
X197500Y1429801D03*
Y1439199D03*
X200000Y855301D03*
Y864699D03*
X205000Y975301D03*
Y984699D03*
Y1097801D03*
Y1107199D03*
Y1127801D03*
Y1137199D03*
Y1292801D03*
Y1302199D03*
X207500Y1397801D03*
Y1407199D03*
X210000Y1460301D03*
Y1469699D03*
X215000Y855301D03*
Y864699D03*
Y1430301D03*
Y1439699D03*
X217500Y1072801D03*
Y1082199D03*
Y1097801D03*
Y1107199D03*
Y1127801D03*
Y1137199D03*
X220000Y975301D03*
Y984699D03*
X222500Y1267801D03*
Y1277199D03*
Y1292801D03*
Y1302199D03*
Y1397801D03*
Y1407199D03*
X227500Y855301D03*
Y864699D03*
Y1430301D03*
Y1439699D03*
X230000Y1072801D03*
Y1082199D03*
Y1097801D03*
Y1107199D03*
Y1127801D03*
Y1137199D03*
X235000Y725301D03*
Y734699D03*
Y760301D03*
Y769699D03*
Y1267801D03*
Y1277199D03*
Y1292801D03*
Y1302199D03*
X237500Y1397801D03*
Y1407199D03*
X240000Y855301D03*
Y864699D03*
Y1430301D03*
Y1439699D03*
Y1452801D03*
Y1462199D03*
X242500Y1072801D03*
Y1082199D03*
Y1097801D03*
Y1107199D03*
Y1127801D03*
Y1137199D03*
X247500Y725301D03*
Y734699D03*
Y760301D03*
Y769699D03*
Y1267801D03*
Y1277199D03*
Y1292801D03*
Y1302199D03*
X250000Y975301D03*
Y984699D03*
X252500Y855301D03*
Y864699D03*
Y1397801D03*
Y1407199D03*
X255000Y1072801D03*
Y1082199D03*
Y1097801D03*
Y1107199D03*
Y1127801D03*
Y1137199D03*
Y1430301D03*
Y1439699D03*
Y1452801D03*
Y1462199D03*
X260000Y1267801D03*
Y1277199D03*
Y1292801D03*
Y1302199D03*
X265000Y832801D03*
Y842199D03*
Y855301D03*
Y864699D03*
Y1340301D03*
Y1349699D03*
X267500Y1072801D03*
Y1082199D03*
Y1097801D03*
Y1107199D03*
Y1127801D03*
Y1137199D03*
X268000Y1452801D03*
Y1462199D03*
X272500Y1292801D03*
Y1302199D03*
X280000Y1097801D03*
Y1107199D03*
Y1127801D03*
Y1137199D03*
X280500Y1430301D03*
Y1439699D03*
Y1452801D03*
Y1462199D03*
X285000Y1267801D03*
Y1277199D03*
Y1292801D03*
Y1302199D03*
X290000Y840301D03*
Y849699D03*
X292500Y1097801D03*
Y1107199D03*
Y1127801D03*
Y1137199D03*
X297500Y1267801D03*
Y1277199D03*
Y1292801D03*
Y1302199D03*
X302500Y810301D03*
Y819699D03*
X305000Y1237801D03*
Y1247199D03*
X310000Y1292801D03*
Y1302199D03*
X325500Y1421301D03*
Y1430699D03*
Y1443801D03*
Y1453199D03*
X362000Y162801D03*
Y172199D03*
X374500Y162801D03*
Y172199D03*
X375000Y287801D03*
Y297199D03*
X387000Y162801D03*
Y172199D03*
X387500Y287801D03*
Y297199D03*
X397000Y162801D03*
Y172199D03*
X400000Y287801D03*
Y297199D03*
X409500Y162801D03*
Y172199D03*
X412500Y287801D03*
Y297199D03*
X422000Y162801D03*
Y172199D03*
X425000Y287801D03*
Y297199D03*
X430000Y970301D03*
Y979699D03*
Y1142801D03*
Y1152199D03*
X434500Y162801D03*
Y172199D03*
X437500Y1100301D03*
Y1109699D03*
X440000Y1012801D03*
Y1022199D03*
Y1060301D03*
Y1069699D03*
X442500Y392801D03*
Y402199D03*
Y430301D03*
Y439699D03*
Y970301D03*
Y979699D03*
X450000Y1100301D03*
Y1109699D03*
X457500Y392801D03*
Y402199D03*
Y430301D03*
Y439699D03*
X477500Y970301D03*
Y979699D03*
X487500Y1100301D03*
Y1109699D03*
X500000Y1100301D03*
Y1109699D03*
X510000Y970301D03*
Y979699D03*
Y992801D03*
Y1002199D03*
X512500Y1100301D03*
Y1109699D03*
X515000Y1035301D03*
Y1044699D03*
X517500Y1130301D03*
Y1139699D03*
X522500Y970301D03*
Y979699D03*
Y992801D03*
Y1002199D03*
X525000Y1100301D03*
Y1109699D03*
X572500Y492801D03*
Y502199D03*
Y582801D03*
Y592199D03*
X587500Y492801D03*
Y502199D03*
Y582801D03*
Y592199D03*
X602500Y492801D03*
Y502199D03*
Y582801D03*
Y592199D03*
Y960301D03*
Y969699D03*
X615000Y960301D03*
Y969699D03*
X617500Y492801D03*
Y502199D03*
Y582801D03*
Y592199D03*
X620000Y520301D03*
Y529699D03*
Y542801D03*
Y552199D03*
X629000Y268801D03*
Y278199D03*
X634000Y146301D03*
Y155699D03*
X642500Y525301D03*
Y534699D03*
X657500Y525301D03*
Y534699D03*
X692500Y517801D03*
Y527199D03*
Y542801D03*
Y552199D03*
Y582801D03*
Y592199D03*
X707500Y517801D03*
Y527199D03*
Y542801D03*
Y552199D03*
Y582801D03*
Y592199D03*
X714330Y423891D03*
Y433289D03*
X726830Y423891D03*
Y433289D03*
X745000Y410301D03*
Y419699D03*
X762500Y982801D03*
Y992199D03*
X775000Y293911D03*
Y303309D03*
X790000Y293911D03*
Y303309D03*
X805000Y293911D03*
Y303309D03*
X820000Y293911D03*
Y303309D03*
X822500Y625301D03*
Y634699D03*
Y652801D03*
Y662199D03*
X835000Y352801D03*
Y362199D03*
X837500Y625301D03*
Y634699D03*
X842500Y293911D03*
Y303309D03*
X845000Y410301D03*
Y419699D03*
X847500Y352801D03*
Y362199D03*
X852500Y625301D03*
Y634699D03*
X860000Y652801D03*
Y662199D03*
X862500Y410301D03*
Y419699D03*
X865000Y351411D03*
Y360809D03*
X867500Y625301D03*
Y634699D03*
X875000Y410301D03*
Y419699D03*
X877500Y351411D03*
Y360809D03*
X887500Y410301D03*
Y419699D03*
X897500Y293911D03*
Y303309D03*
Y652801D03*
Y662199D03*
X900000Y410301D03*
Y419699D03*
X912500Y625301D03*
Y634699D03*
Y1180301D03*
Y1189699D03*
Y1232801D03*
Y1242199D03*
X925000Y1232801D03*
Y1242199D03*
X927500Y1122801D03*
Y1132199D03*
Y1175301D03*
Y1184699D03*
Y1197801D03*
Y1207199D03*
X940000Y940301D03*
Y949699D03*
Y1122801D03*
Y1132199D03*
Y1175301D03*
Y1184699D03*
Y1197801D03*
Y1207199D03*
Y1232801D03*
Y1242199D03*
X952500Y1232801D03*
Y1242199D03*
X960000Y892801D03*
Y902199D03*
Y940301D03*
Y949699D03*
X972500Y940301D03*
Y949699D03*
X980000Y892801D03*
Y902199D03*
X985000Y940301D03*
Y949699D03*
X1002500Y892801D03*
Y902199D03*
X1015000Y537801D03*
Y547199D03*
X1020000Y892801D03*
Y902199D03*
X1025000Y1017801D03*
Y1027199D03*
X1027500Y537801D03*
Y547199D03*
X1037500Y392801D03*
Y402199D03*
X1040000Y537801D03*
Y547199D03*
Y892801D03*
Y902199D03*
X1042500Y1017801D03*
Y1027199D03*
X1050000Y392801D03*
Y402199D03*
X1052500Y537801D03*
Y547199D03*
X1057500Y1017801D03*
Y1027199D03*
X1060000Y892801D03*
Y902199D03*
X1062500Y392801D03*
Y402199D03*
X1072500Y1017801D03*
Y1027199D03*
X1074000Y583301D03*
Y592699D03*
Y610801D03*
Y620199D03*
X1075000Y392801D03*
Y402199D03*
X1085000Y1017801D03*
Y1027199D03*
X1086500Y583301D03*
Y592699D03*
Y610801D03*
Y620199D03*
X1087500Y392801D03*
Y402199D03*
Y987801D03*
Y997199D03*
X1092500Y1407801D03*
Y1417199D03*
X1097500Y1017801D03*
Y1027199D03*
X1100000Y392801D03*
Y402199D03*
X1105000Y805301D03*
Y814699D03*
Y830301D03*
Y839699D03*
X1107500Y1407801D03*
Y1417199D03*
X1117500Y830301D03*
Y839699D03*
X1120000Y392801D03*
Y402199D03*
X1122500Y1407801D03*
Y1417199D03*
X1130000Y830301D03*
Y839699D03*
X1132500Y392801D03*
Y402199D03*
X1142500Y830301D03*
Y839699D03*
X1145000Y392801D03*
Y402199D03*
X1152500Y1017801D03*
Y1027199D03*
X1157500Y392801D03*
Y402199D03*
Y805301D03*
Y814699D03*
Y830301D03*
Y839699D03*
X1167500Y1017801D03*
Y1027199D03*
X1170000Y392801D03*
Y402199D03*
X1172500Y805301D03*
Y814699D03*
Y830301D03*
Y839699D03*
X1182500Y392801D03*
Y402199D03*
Y1017801D03*
Y1027199D03*
X1187500Y805301D03*
Y814699D03*
Y830301D03*
Y839699D03*
X1195000Y1017801D03*
Y1027199D03*
X1195750Y950551D03*
Y959949D03*
X1200000Y392801D03*
Y402199D03*
Y880301D03*
Y889699D03*
X1202500Y805301D03*
Y814699D03*
Y830301D03*
Y839699D03*
X1207500Y1017801D03*
Y1027199D03*
X1208250Y950551D03*
Y959949D03*
X1212500Y392801D03*
Y402199D03*
X1215000Y780301D03*
Y789699D03*
Y805301D03*
Y814699D03*
Y830301D03*
Y839699D03*
X1220000Y1017801D03*
Y1027199D03*
X1225000Y392801D03*
Y402199D03*
X1227500Y780301D03*
Y789699D03*
X1232500Y1017801D03*
Y1027199D03*
X1237500Y392801D03*
Y402199D03*
X1244250Y922551D03*
Y931949D03*
X1245000Y1017801D03*
Y1027199D03*
X1250000Y392801D03*
Y402199D03*
X1252500Y880301D03*
Y889699D03*
X1256750Y922551D03*
Y931949D03*
X1257500Y1017801D03*
Y1027199D03*
X1262500Y425301D03*
Y434699D03*
Y467801D03*
Y477199D03*
X1269250Y922551D03*
Y931949D03*
X1280000Y667801D03*
Y677199D03*
X1281750Y922551D03*
Y931949D03*
X1294250Y922551D03*
Y931949D03*
X1305000Y517801D03*
Y527199D03*
X1307500Y1020301D03*
Y1029699D03*
X1315000Y982801D03*
Y992199D03*
X1316500Y905801D03*
Y915199D03*
X1320000Y517801D03*
Y527199D03*
Y1020301D03*
Y1029699D03*
X1329000Y905801D03*
Y915199D03*
X1332500Y1020301D03*
Y1029699D03*
X1335000Y982801D03*
Y992199D03*
X1341500Y905801D03*
Y915199D03*
X1347500Y1020301D03*
Y1029699D03*
X1354000Y905801D03*
Y915199D03*
X1355000Y982801D03*
Y992199D03*
X1364500Y861801D03*
Y871199D03*
X1366500Y905801D03*
Y915199D03*
X1377500Y1020301D03*
Y1029699D03*
X1379000Y905801D03*
Y915199D03*
X1387500Y665301D03*
Y674699D03*
X1391500Y905801D03*
Y915199D03*
X1402500Y425301D03*
Y434699D03*
Y822801D03*
Y832199D03*
X1404000Y905801D03*
Y915199D03*
X1405000Y517801D03*
Y527199D03*
X1410000Y38801D03*
Y48199D03*
X1415000Y425301D03*
Y434699D03*
Y822801D03*
Y832199D03*
X1416500Y905801D03*
Y915199D03*
X1420000Y517801D03*
Y527199D03*
X1427500Y425301D03*
Y434699D03*
Y822801D03*
Y832199D03*
X1429000Y905801D03*
Y915199D03*
X1440000Y425301D03*
Y434699D03*
Y822801D03*
Y832199D03*
X1447500Y905301D03*
Y914699D03*
Y1252801D03*
Y1262199D03*
X1452500Y425301D03*
Y434699D03*
Y822801D03*
Y832199D03*
X1460000Y905301D03*
Y914699D03*
Y1252801D03*
Y1262199D03*
X1463990Y402401D03*
Y411799D03*
X1465000Y425301D03*
Y434699D03*
Y822801D03*
Y832199D03*
X1472500Y905301D03*
Y914699D03*
Y1252801D03*
Y1262199D03*
X1475000Y695301D03*
Y704699D03*
X1477500Y425301D03*
Y434699D03*
Y822801D03*
Y832199D03*
X1485000Y905301D03*
Y914699D03*
Y1252801D03*
Y1262199D03*
Y1387801D03*
Y1397199D03*
X1490000Y400301D03*
Y409699D03*
Y425301D03*
Y434699D03*
Y665301D03*
Y674699D03*
Y822801D03*
Y832199D03*
Y1285301D03*
Y1294699D03*
X1497500Y905301D03*
Y914699D03*
Y1252801D03*
Y1262199D03*
Y1387801D03*
Y1397199D03*
X1502500Y822801D03*
Y832199D03*
X1507500Y517801D03*
Y527199D03*
X1510000Y905301D03*
Y914699D03*
Y1252801D03*
Y1262199D03*
Y1387801D03*
Y1397199D03*
X1515000Y822801D03*
Y832199D03*
X1522500Y517801D03*
Y527199D03*
Y905301D03*
Y914699D03*
Y1252801D03*
Y1262199D03*
X1535000Y905301D03*
Y914699D03*
Y1252801D03*
Y1262199D03*
X1547500Y905301D03*
Y914699D03*
X1560000Y905301D03*
Y914699D03*
Y1252801D03*
Y1262199D03*
X1570000Y265301D03*
Y274699D03*
X1572500Y905301D03*
Y914699D03*
Y1252801D03*
Y1262199D03*
Y1387801D03*
Y1397199D03*
X1582500Y265301D03*
Y274699D03*
X1592500Y667801D03*
Y677199D03*
X1595000Y265301D03*
Y274699D03*
Y887801D03*
Y897199D03*
Y912801D03*
Y922199D03*
Y937801D03*
Y947199D03*
X1600000Y1317801D03*
Y1327199D03*
X1607500Y265301D03*
Y274699D03*
X1612500Y517801D03*
Y527199D03*
X1620000Y265301D03*
Y274699D03*
Y297801D03*
Y307199D03*
X1627500Y517801D03*
Y527199D03*
X1635000Y297801D03*
Y307199D03*
X1682500Y847801D03*
Y857199D03*
X1695000Y847801D03*
Y857199D03*
X1705000Y1295301D03*
Y1304699D03*
X1710000Y847801D03*
Y857199D03*
X1720000Y40301D03*
Y49699D03*
X1722500Y665301D03*
Y674699D03*
Y847801D03*
Y857199D03*
X1727500Y800301D03*
Y809699D03*
X1737500Y517801D03*
Y527199D03*
Y847801D03*
Y857199D03*
X1740000Y800301D03*
Y809699D03*
X1750000Y847801D03*
Y857199D03*
X1752500Y517801D03*
Y527199D03*
Y800301D03*
Y809699D03*
X1765000Y800301D03*
Y809699D03*
Y847801D03*
Y857199D03*
X1775000Y745301D03*
Y754699D03*
X1777500Y800301D03*
Y809699D03*
Y847801D03*
Y857199D03*
X1782500Y987801D03*
Y997199D03*
Y1040301D03*
Y1049699D03*
X1785000Y1170301D03*
Y1179699D03*
X1787500Y745301D03*
Y754699D03*
X1790000Y800301D03*
Y809699D03*
X1792500Y847801D03*
Y857199D03*
X1795000Y987801D03*
Y997199D03*
Y1040301D03*
Y1049699D03*
X1802500Y745301D03*
Y754699D03*
X1805000Y847801D03*
Y857199D03*
Y1140301D03*
Y1149699D03*
Y1267801D03*
Y1277199D03*
Y1302801D03*
Y1312199D03*
Y1337801D03*
Y1347199D03*
X1807500Y987801D03*
Y997199D03*
X1817500Y745301D03*
Y754699D03*
X1820000Y987801D03*
Y997199D03*
X1825000Y1040301D03*
Y1049699D03*
X1832500Y987801D03*
Y997199D03*
X1840000Y1040301D03*
Y1049699D03*
X1845000Y987801D03*
Y997199D03*
X1857500Y987801D03*
Y997199D03*
X1870000Y987801D03*
Y997199D03*
X1875000Y1200301D03*
Y1209699D03*
X1880000Y1037801D03*
Y1047199D03*
X1882500Y987801D03*
Y997199D03*
X1890000Y1200301D03*
Y1209699D03*
X1895000Y987801D03*
Y997199D03*
Y1037801D03*
Y1047199D03*
X1905000Y545301D03*
Y554699D03*
Y570301D03*
Y579699D03*
X1910000Y987801D03*
Y997199D03*
X1977500Y1342801D03*
Y1352199D03*
X1992500Y1260301D03*
Y1269699D03*
Y1300301D03*
Y1309699D03*
X2007500Y1260301D03*
Y1269699D03*
Y1300301D03*
Y1309699D03*
X2062500Y1255301D03*
Y1264699D03*
Y1280301D03*
Y1289699D03*
X2067500Y1372801D03*
Y1382199D03*
X2077500Y1255301D03*
Y1264699D03*
Y1280301D03*
Y1289699D03*
X2082500Y1372801D03*
Y1382199D03*
X2095000Y1187801D03*
Y1197199D03*
X2107500Y1187801D03*
Y1197199D03*
X2120000Y1187801D03*
Y1197199D03*
X2135000Y1187801D03*
Y1197199D03*
X2157500Y1170301D03*
Y1179699D03*
X2170000Y1290301D03*
Y1299699D03*
X2172500Y1170301D03*
Y1179699D03*
X2180000Y1357801D03*
Y1367199D03*
X2182500Y1290301D03*
Y1299699D03*
X2185000Y1112801D03*
Y1122199D03*
X2192500Y1357801D03*
Y1367199D03*
X2215000Y1125301D03*
Y1134699D03*
X2260000Y1212801D03*
Y1222199D03*
X2272500Y1212801D03*
Y1222199D03*
X2285000Y1212801D03*
Y1222199D03*
X2320000Y1330301D03*
Y1339699D03*
Y1405301D03*
Y1414699D03*
X2332500Y1165301D03*
Y1174699D03*
Y1330301D03*
Y1339699D03*
X2335000Y1405301D03*
Y1414699D03*
X2345000Y1330301D03*
Y1339699D03*
X2350000Y1382801D03*
Y1392199D03*
Y1405301D03*
Y1414699D03*
X2352500Y1217801D03*
Y1227199D03*
X2357500Y1330301D03*
Y1339699D03*
X2365000Y1217801D03*
Y1227199D03*
Y1382801D03*
Y1392199D03*
Y1405301D03*
Y1414699D03*
X2377500Y1217801D03*
Y1227199D03*
X2380000Y1382801D03*
Y1392199D03*
Y1405301D03*
Y1414699D03*
X2390000Y1217801D03*
Y1227199D03*
X2395000Y1382801D03*
Y1392199D03*
X2400000Y1182801D03*
Y1192199D03*
X2402500Y1217801D03*
Y1227199D03*
X2410000Y1382801D03*
Y1392199D03*
X2425000Y1375301D03*
Y1384699D03*
Y1397801D03*
Y1407199D03*
X2487500Y1417801D03*
Y1427199D03*
X2490000Y1340301D03*
Y1349699D03*
X2500000Y1417801D03*
Y1427199D03*
X2527500Y1340301D03*
Y1349699D03*
X2530000Y1417801D03*
Y1427199D03*
X2560000Y1185301D03*
Y1194699D03*
X2572500Y1185301D03*
Y1194699D03*
Y1267801D03*
Y1277199D03*
X2575000Y1090301D03*
Y1099699D03*
X2580000Y1417801D03*
Y1427199D03*
X2585000Y1340301D03*
Y1349699D03*
X2587500Y1090301D03*
Y1099699D03*
X2592500Y1057801D03*
Y1067199D03*
X2595000Y1417801D03*
Y1427199D03*
X2600000Y1090301D03*
Y1099699D03*
X2610000Y1185301D03*
Y1194699D03*
X2612500Y1090301D03*
Y1099699D03*
X2620000Y1340301D03*
Y1349699D03*
X2625000Y1417801D03*
Y1427199D03*
X2637500Y1057801D03*
Y1067199D03*
X2647500Y1185301D03*
Y1194699D03*
G54D13*
X72801Y1482500D03*
X82199D03*
X97801Y1252500D03*
Y1265000D03*
Y1277500D03*
Y1290000D03*
Y1302500D03*
X100301Y1482500D03*
X102801Y745000D03*
Y760000D03*
X105301Y785000D03*
Y812500D03*
Y840000D03*
Y867500D03*
Y897500D03*
X107199Y1252500D03*
Y1265000D03*
Y1277500D03*
Y1290000D03*
Y1302500D03*
X109699Y1482500D03*
X112199Y745000D03*
Y760000D03*
X114699Y785000D03*
Y812500D03*
Y840000D03*
Y867500D03*
Y897500D03*
X117801Y932500D03*
X120301Y977500D03*
X127199Y932500D03*
X129699Y977500D03*
X135301Y725000D03*
X140301Y837500D03*
X144699Y725000D03*
X145301Y932500D03*
Y950000D03*
Y962500D03*
Y1172500D03*
Y1185000D03*
Y1200000D03*
Y1212500D03*
Y1227500D03*
Y1240000D03*
Y1252500D03*
Y1265000D03*
Y1277500D03*
Y1290000D03*
X149699Y837500D03*
X154699Y932500D03*
Y950000D03*
Y962500D03*
Y1172500D03*
Y1185000D03*
Y1200000D03*
Y1212500D03*
Y1227500D03*
Y1240000D03*
Y1252500D03*
Y1265000D03*
Y1277500D03*
Y1290000D03*
X170301Y902500D03*
Y932500D03*
Y1172500D03*
Y1185000D03*
Y1200000D03*
Y1212500D03*
Y1227500D03*
Y1240000D03*
X172801Y727500D03*
Y740000D03*
Y752500D03*
Y765000D03*
X179699Y902500D03*
Y932500D03*
Y1172500D03*
Y1185000D03*
Y1200000D03*
Y1212500D03*
Y1227500D03*
Y1240000D03*
X182199Y727500D03*
Y740000D03*
Y752500D03*
Y765000D03*
X192801Y840000D03*
X202199D03*
X217801D03*
X227199D03*
X277801Y877500D03*
Y890000D03*
Y902500D03*
Y915000D03*
Y927500D03*
Y940000D03*
X287199Y877500D03*
Y890000D03*
Y902500D03*
Y915000D03*
Y927500D03*
Y940000D03*
X300301Y1160000D03*
Y1185000D03*
Y1212500D03*
Y1225000D03*
X305301Y795000D03*
X307801Y855000D03*
Y867500D03*
Y880000D03*
Y892500D03*
Y905000D03*
Y917500D03*
Y930000D03*
Y942500D03*
X309699Y1160000D03*
Y1185000D03*
Y1212500D03*
Y1225000D03*
X314699Y795000D03*
X317199Y855000D03*
Y867500D03*
Y880000D03*
Y892500D03*
Y905000D03*
Y917500D03*
Y930000D03*
Y942500D03*
X322801Y1235000D03*
Y1247500D03*
X325301Y1160000D03*
Y1172500D03*
Y1185000D03*
X330301Y815000D03*
Y827500D03*
Y840000D03*
X332199Y1235000D03*
Y1247500D03*
X332801Y867500D03*
Y880000D03*
Y892500D03*
Y905000D03*
Y917500D03*
Y930000D03*
Y942500D03*
Y955000D03*
Y967500D03*
X334699Y1160000D03*
Y1172500D03*
Y1185000D03*
X338801Y1432000D03*
Y1444500D03*
X339699Y815000D03*
Y827500D03*
Y840000D03*
X342199Y867500D03*
Y880000D03*
Y892500D03*
Y905000D03*
Y917500D03*
Y930000D03*
Y942500D03*
Y955000D03*
Y967500D03*
X348199Y1432000D03*
Y1444500D03*
X350301Y1160000D03*
Y1172500D03*
Y1185000D03*
Y1197500D03*
Y1210000D03*
Y1222500D03*
Y1235000D03*
Y1247500D03*
X359699Y1160000D03*
Y1172500D03*
Y1185000D03*
Y1197500D03*
Y1210000D03*
Y1222500D03*
Y1235000D03*
Y1247500D03*
X360301Y1057500D03*
Y1070000D03*
X369699Y1057500D03*
Y1070000D03*
X385301Y1007500D03*
Y1020000D03*
Y1032500D03*
Y1045000D03*
Y1057500D03*
Y1070000D03*
X394699Y1007500D03*
Y1020000D03*
Y1032500D03*
Y1045000D03*
Y1057500D03*
Y1070000D03*
X407801Y1007500D03*
Y1020000D03*
Y1032500D03*
Y1045000D03*
Y1057500D03*
Y1070000D03*
X417199Y1007500D03*
Y1020000D03*
Y1032500D03*
Y1045000D03*
Y1057500D03*
Y1070000D03*
X452801Y467500D03*
X455301Y980000D03*
X462199Y467500D03*
X464699Y980000D03*
X467801Y1000000D03*
X472801Y1080000D03*
X477199Y1000000D03*
X482199Y1080000D03*
X505301Y460000D03*
Y472500D03*
X514699Y460000D03*
Y472500D03*
X532801Y1022500D03*
Y1035000D03*
Y1047500D03*
Y1060000D03*
X542199Y1022500D03*
Y1035000D03*
Y1047500D03*
Y1060000D03*
X544301Y415500D03*
Y430500D03*
X545301Y520000D03*
Y535000D03*
Y550000D03*
Y565000D03*
X553699Y415500D03*
Y430500D03*
X554699Y520000D03*
Y535000D03*
Y550000D03*
Y565000D03*
X560301Y1022500D03*
Y1035000D03*
Y1047500D03*
Y1060000D03*
X562801Y1090000D03*
Y1107500D03*
Y1132500D03*
X567801Y1350000D03*
Y1362500D03*
Y1375000D03*
X569699Y1022500D03*
Y1035000D03*
Y1047500D03*
Y1060000D03*
X572199Y1090000D03*
Y1107500D03*
Y1132500D03*
X577199Y1350000D03*
Y1362500D03*
Y1375000D03*
X592801Y1030000D03*
Y1072500D03*
X602199Y1030000D03*
Y1072500D03*
X622801Y1127500D03*
X625301Y1052500D03*
Y1087500D03*
X630301Y51500D03*
X632199Y1127500D03*
X634699Y1052500D03*
Y1087500D03*
X635301Y480000D03*
Y495000D03*
Y510000D03*
X639301Y196000D03*
Y226000D03*
X639699Y51500D03*
X644699Y480000D03*
Y495000D03*
Y510000D03*
X646051Y997500D03*
X647801Y577500D03*
X648551Y1087500D03*
Y1107500D03*
X648699Y196000D03*
Y226000D03*
X655449Y997500D03*
X657199Y577500D03*
X657949Y1087500D03*
Y1107500D03*
X666801Y176000D03*
Y196000D03*
Y208500D03*
X669301Y151000D03*
X676199Y176000D03*
Y196000D03*
Y208500D03*
X678551Y737500D03*
Y1017500D03*
Y1032500D03*
Y1052500D03*
Y1070000D03*
Y1122500D03*
Y1350000D03*
Y1365000D03*
X678699Y151000D03*
X685301Y957500D03*
X687949Y737500D03*
Y1017500D03*
Y1032500D03*
Y1052500D03*
Y1070000D03*
Y1122500D03*
Y1350000D03*
Y1365000D03*
X692131Y388590D03*
Y401090D03*
Y421090D03*
X694699Y957500D03*
X695301Y467500D03*
Y485000D03*
Y505000D03*
Y567500D03*
X701529Y388590D03*
Y401090D03*
Y421090D03*
X704699Y467500D03*
Y485000D03*
Y505000D03*
Y567500D03*
X707801Y957500D03*
X717199D03*
X720301Y640000D03*
Y655000D03*
X727801Y465000D03*
Y477500D03*
Y490000D03*
Y502500D03*
Y515000D03*
Y527500D03*
Y540000D03*
Y1015000D03*
Y1027500D03*
X729699Y640000D03*
Y655000D03*
X737199Y465000D03*
Y477500D03*
Y490000D03*
Y502500D03*
Y515000D03*
Y527500D03*
Y540000D03*
Y1015000D03*
Y1027500D03*
X756051Y1347500D03*
Y1360000D03*
X757801Y1055000D03*
Y1090000D03*
Y1127500D03*
X765449Y1347500D03*
Y1360000D03*
X767199Y1055000D03*
Y1090000D03*
Y1127500D03*
X787801Y982500D03*
Y995000D03*
Y1367500D03*
X797199Y982500D03*
Y995000D03*
Y1367500D03*
X815301Y1037500D03*
Y1132500D03*
X817801Y1075000D03*
Y1107500D03*
X822131Y423590D03*
X822801Y377500D03*
Y392500D03*
Y410000D03*
X824699Y1037500D03*
Y1132500D03*
X827199Y1075000D03*
Y1107500D03*
X831529Y423590D03*
X832199Y377500D03*
Y392500D03*
Y410000D03*
X835301Y650000D03*
Y665000D03*
X840301Y1075000D03*
Y1107500D03*
X842801Y273610D03*
X844699Y650000D03*
Y665000D03*
X849699Y1075000D03*
Y1107500D03*
X852199Y273610D03*
X865301D03*
X868551Y727500D03*
X870301Y1015000D03*
Y1350000D03*
Y1362500D03*
X872801Y650000D03*
Y665000D03*
X874699Y273610D03*
X877949Y727500D03*
X879699Y1015000D03*
Y1350000D03*
Y1362500D03*
X882199Y650000D03*
Y665000D03*
X887801Y273610D03*
X895301Y1050000D03*
Y1087500D03*
Y1122500D03*
X897199Y273610D03*
X904699Y1050000D03*
Y1087500D03*
Y1122500D03*
X910301Y650000D03*
Y665000D03*
X919699Y650000D03*
Y665000D03*
X934631Y463590D03*
Y478590D03*
Y493590D03*
Y508590D03*
Y523590D03*
Y553590D03*
Y568590D03*
Y583590D03*
Y598590D03*
Y613590D03*
Y628590D03*
Y646090D03*
Y661090D03*
X944029Y463590D03*
Y478590D03*
Y493590D03*
Y508590D03*
Y523590D03*
Y553590D03*
Y568590D03*
Y583590D03*
Y598590D03*
Y613590D03*
Y628590D03*
Y646090D03*
Y661090D03*
X960301Y1100000D03*
X969631Y563590D03*
Y576090D03*
Y588590D03*
Y603590D03*
Y616090D03*
X969699Y1100000D03*
X979029Y563590D03*
Y576090D03*
Y588590D03*
Y603590D03*
Y616090D03*
X985301Y1017500D03*
Y1047500D03*
Y1062500D03*
Y1075000D03*
Y1087500D03*
Y1100000D03*
Y1185000D03*
Y1252500D03*
Y1275000D03*
X987801Y1230000D03*
X994699Y1017500D03*
Y1047500D03*
Y1062500D03*
Y1075000D03*
Y1087500D03*
Y1100000D03*
Y1185000D03*
Y1252500D03*
Y1275000D03*
X997199Y1230000D03*
X1015301Y520000D03*
X1022801Y1180000D03*
X1024699Y520000D03*
X1032199Y1180000D03*
X1045301D03*
X1054699D03*
X1055301Y497500D03*
X1064699D03*
X1066551Y1180000D03*
X1075949D03*
X1077801Y497500D03*
X1087199D03*
X1087801Y1180000D03*
X1097199D03*
X1097801Y637500D03*
Y677500D03*
X1107199Y637500D03*
Y677500D03*
X1110301Y887500D03*
Y947500D03*
X1117801Y985000D03*
Y1000000D03*
X1119699Y887500D03*
Y947500D03*
X1120301Y637500D03*
Y677500D03*
X1127199Y985000D03*
Y1000000D03*
X1129699Y637500D03*
Y677500D03*
X1135301Y40000D03*
Y55000D03*
Y497500D03*
X1139801Y564000D03*
X1140301Y947500D03*
X1142801Y637500D03*
Y677500D03*
X1143301Y1180250D03*
X1144699Y40000D03*
Y55000D03*
Y497500D03*
X1149199Y564000D03*
X1149699Y947500D03*
X1152199Y637500D03*
Y677500D03*
X1152699Y1180250D03*
X1157801Y985000D03*
Y1000000D03*
X1164301Y1180250D03*
X1165301Y637500D03*
Y677500D03*
X1167199Y985000D03*
Y1000000D03*
X1168551Y960250D03*
X1173699Y1180250D03*
X1174699Y637500D03*
Y677500D03*
X1177801Y880000D03*
Y892500D03*
X1177949Y960250D03*
X1185551Y1180250D03*
X1186301Y579500D03*
Y594500D03*
Y609500D03*
Y624500D03*
X1187199Y880000D03*
Y892500D03*
X1194949Y1180250D03*
X1195699Y579500D03*
Y594500D03*
Y609500D03*
Y624500D03*
X1197801Y992500D03*
X1205301Y497500D03*
X1206801Y1180250D03*
X1207199Y992500D03*
X1214699Y497500D03*
X1216199Y1180250D03*
X1230301Y497500D03*
Y877500D03*
Y890000D03*
Y1355000D03*
X1239551Y952250D03*
X1239699Y497500D03*
Y877500D03*
Y890000D03*
Y1355000D03*
X1247801Y992500D03*
X1248949Y952250D03*
X1252801Y1355000D03*
X1257199Y992500D03*
X1262199Y1355000D03*
X1275301D03*
X1277801Y517500D03*
Y530000D03*
Y542500D03*
Y555000D03*
Y567500D03*
Y580000D03*
X1279551Y952250D03*
X1280301Y317500D03*
Y330000D03*
Y342500D03*
X1284699Y1355000D03*
X1287199Y517500D03*
Y530000D03*
Y542500D03*
Y555000D03*
Y567500D03*
Y580000D03*
X1288949Y952250D03*
X1289699Y317500D03*
Y330000D03*
Y342500D03*
X1290301Y14000D03*
X1297801Y1355000D03*
X1299699Y14000D03*
X1307199Y1355000D03*
X1307801Y1127500D03*
Y1140000D03*
Y1152500D03*
Y1165000D03*
Y1177500D03*
Y1190000D03*
Y1202500D03*
Y1215000D03*
Y1227500D03*
Y1240000D03*
Y1252500D03*
Y1265000D03*
Y1277500D03*
X1317199Y1127500D03*
Y1140000D03*
Y1152500D03*
Y1165000D03*
Y1177500D03*
Y1190000D03*
Y1202500D03*
Y1215000D03*
Y1227500D03*
Y1240000D03*
Y1252500D03*
Y1265000D03*
Y1277500D03*
X1325301Y14000D03*
X1334699D03*
X1337801Y1352500D03*
X1340301Y1085000D03*
Y1100000D03*
Y1115000D03*
Y1130000D03*
X1342801Y410000D03*
Y1050000D03*
X1345301Y1227500D03*
Y1245000D03*
Y1260000D03*
X1347199Y1352500D03*
X1349301Y945500D03*
X1349699Y1085000D03*
Y1100000D03*
Y1115000D03*
Y1130000D03*
X1352199Y410000D03*
Y1050000D03*
X1352801Y547500D03*
Y562500D03*
Y577500D03*
X1354699Y1227500D03*
Y1245000D03*
Y1260000D03*
X1358699Y945500D03*
X1360301Y14000D03*
X1362199Y547500D03*
Y562500D03*
Y577500D03*
X1369699Y14000D03*
X1370301Y1067500D03*
Y1085000D03*
X1375301Y1245000D03*
Y1260000D03*
X1377801Y972500D03*
Y985000D03*
Y1002500D03*
X1379699Y1067500D03*
Y1085000D03*
X1380301Y517500D03*
Y530000D03*
Y542500D03*
Y555000D03*
Y567500D03*
Y580000D03*
X1384699Y1245000D03*
Y1260000D03*
X1387199Y972500D03*
Y985000D03*
Y1002500D03*
X1389699Y517500D03*
Y530000D03*
Y542500D03*
Y555000D03*
Y567500D03*
Y580000D03*
X1395301Y14000D03*
X1400301Y1085000D03*
Y1117500D03*
X1403201Y388990D03*
X1404699Y14000D03*
X1409699Y1085000D03*
Y1117500D03*
X1412599Y388990D03*
X1428201D03*
X1430301Y14000D03*
X1432801Y1352500D03*
Y1365000D03*
Y1377500D03*
X1437599Y388990D03*
X1439699Y14000D03*
X1442199Y1352500D03*
Y1365000D03*
Y1377500D03*
X1452801Y547500D03*
Y562500D03*
Y577500D03*
X1453201Y388990D03*
X1462199Y547500D03*
Y562500D03*
Y577500D03*
X1462599Y388990D03*
X1470301Y880000D03*
X1472801Y955000D03*
X1479699Y880000D03*
X1482199Y955000D03*
X1482801Y517500D03*
Y530000D03*
Y542500D03*
Y555000D03*
Y567500D03*
Y580000D03*
X1492199Y517500D03*
Y530000D03*
Y542500D03*
Y555000D03*
Y567500D03*
Y580000D03*
X1525301Y880000D03*
Y955000D03*
X1534699Y880000D03*
Y955000D03*
X1540301Y347500D03*
X1549699D03*
X1552801Y547500D03*
Y562500D03*
Y577500D03*
X1562199Y547500D03*
Y562500D03*
Y577500D03*
X1570301Y1335000D03*
Y1347500D03*
Y1360000D03*
Y1372500D03*
X1579699Y1335000D03*
Y1347500D03*
Y1360000D03*
Y1372500D03*
X1585301Y517500D03*
Y530000D03*
Y542500D03*
Y555000D03*
Y567500D03*
Y580000D03*
X1594699Y517500D03*
Y530000D03*
Y542500D03*
Y555000D03*
Y567500D03*
Y580000D03*
X1627801Y890000D03*
X1637199D03*
X1657801Y547500D03*
Y562500D03*
Y577500D03*
X1667199Y547500D03*
Y562500D03*
Y577500D03*
X1680301Y992500D03*
Y1005000D03*
Y1017500D03*
Y1030000D03*
Y1042500D03*
Y1055000D03*
Y1067500D03*
Y1080000D03*
Y1112500D03*
Y1125000D03*
Y1137500D03*
Y1150000D03*
Y1162500D03*
Y1175000D03*
Y1187500D03*
Y1200000D03*
X1689699Y992500D03*
Y1005000D03*
Y1017500D03*
Y1030000D03*
Y1042500D03*
Y1055000D03*
Y1067500D03*
Y1080000D03*
Y1112500D03*
Y1125000D03*
Y1137500D03*
Y1150000D03*
Y1162500D03*
Y1175000D03*
Y1187500D03*
Y1200000D03*
X1697301Y1410500D03*
X1697801Y1460000D03*
X1702801Y517500D03*
Y530000D03*
Y542500D03*
Y555000D03*
Y567500D03*
Y580000D03*
X1706699Y1410500D03*
X1707199Y1460000D03*
X1712199Y517500D03*
Y530000D03*
Y542500D03*
Y555000D03*
Y567500D03*
Y580000D03*
X1727801Y1460000D03*
X1737199D03*
X1757801Y1042500D03*
Y1055000D03*
Y1067500D03*
Y1080000D03*
Y1092500D03*
X1760301Y1127500D03*
X1767199Y1042500D03*
Y1055000D03*
Y1067500D03*
Y1080000D03*
Y1092500D03*
X1769699Y1127500D03*
X1782801Y547500D03*
Y562500D03*
Y577500D03*
Y1085000D03*
Y1097500D03*
Y1127500D03*
Y1140000D03*
Y1152500D03*
X1790301Y1195000D03*
Y1207500D03*
Y1220000D03*
X1792199Y547500D03*
Y562500D03*
Y577500D03*
Y1085000D03*
Y1097500D03*
Y1127500D03*
Y1140000D03*
Y1152500D03*
X1799699Y1195000D03*
Y1207500D03*
Y1220000D03*
X1852801Y355000D03*
Y370000D03*
Y385000D03*
X1855301Y1060000D03*
Y1072500D03*
Y1085000D03*
Y1097500D03*
Y1110000D03*
Y1125000D03*
Y1152500D03*
X1862199Y355000D03*
Y370000D03*
Y385000D03*
X1864699Y1060000D03*
Y1072500D03*
Y1085000D03*
Y1097500D03*
Y1110000D03*
Y1125000D03*
Y1152500D03*
X1875301Y370000D03*
Y385000D03*
X1882801Y1060000D03*
Y1072500D03*
Y1085000D03*
Y1115000D03*
Y1127500D03*
Y1140000D03*
Y1152500D03*
X1884699Y370000D03*
Y385000D03*
X1892199Y1060000D03*
Y1072500D03*
Y1085000D03*
Y1115000D03*
Y1127500D03*
Y1140000D03*
Y1152500D03*
X1902801Y340000D03*
Y355000D03*
Y370000D03*
Y385000D03*
Y400000D03*
Y415000D03*
Y430000D03*
X1912199Y340000D03*
Y355000D03*
Y370000D03*
Y385000D03*
Y400000D03*
Y415000D03*
Y430000D03*
X1920301Y812500D03*
Y827500D03*
Y842500D03*
Y902500D03*
Y932500D03*
X1929699Y812500D03*
Y827500D03*
Y842500D03*
Y902500D03*
Y932500D03*
X1930301Y1307500D03*
X1939699D03*
X1942801Y990000D03*
Y1002500D03*
Y1015000D03*
Y1060000D03*
Y1075000D03*
Y1107500D03*
Y1125000D03*
Y1155000D03*
X1952199Y990000D03*
Y1002500D03*
Y1015000D03*
Y1060000D03*
Y1075000D03*
Y1107500D03*
Y1125000D03*
Y1155000D03*
X1960301Y842500D03*
X1962801Y922500D03*
Y935000D03*
X1969699Y842500D03*
X1972199Y922500D03*
Y935000D03*
X1995301Y1285000D03*
X2004699D03*
X2035301Y1065000D03*
Y1077500D03*
X2044699Y1065000D03*
Y1077500D03*
X2077801Y1332500D03*
X2087199D03*
X2142801Y1305000D03*
Y1320000D03*
Y1335000D03*
Y1357500D03*
Y1370000D03*
X2150301Y1407500D03*
Y1425000D03*
X2152199Y1305000D03*
Y1320000D03*
Y1335000D03*
Y1357500D03*
Y1370000D03*
X2159699Y1407500D03*
Y1425000D03*
X2160301Y1200000D03*
X2169699D03*
X2175301Y1137500D03*
X2177801Y1322500D03*
X2184699Y1137500D03*
X2185301Y1407500D03*
Y1442500D03*
X2187199Y1322500D03*
X2194699Y1407500D03*
Y1442500D03*
X2207801D03*
X2210301Y1292500D03*
Y1322500D03*
Y1337500D03*
Y1352500D03*
Y1367500D03*
X2217199Y1442500D03*
X2219699Y1292500D03*
Y1322500D03*
Y1337500D03*
Y1352500D03*
Y1367500D03*
X2260301Y1275000D03*
Y1287500D03*
Y1312500D03*
Y1325000D03*
Y1387500D03*
X2269699Y1275000D03*
Y1287500D03*
Y1312500D03*
Y1325000D03*
Y1387500D03*
X2290301Y1332500D03*
Y1347500D03*
Y1360000D03*
X2297801Y1212500D03*
X2299699Y1332500D03*
Y1347500D03*
Y1360000D03*
X2307199Y1212500D03*
X2320301Y1370000D03*
Y1382500D03*
X2325301Y1265000D03*
Y1310000D03*
X2329699Y1370000D03*
Y1382500D03*
X2332801Y1157500D03*
X2334699Y1265000D03*
Y1310000D03*
X2337801Y1290000D03*
X2342199Y1157500D03*
X2347199Y1290000D03*
X2347801Y1265000D03*
X2355301Y1157500D03*
Y1310000D03*
X2357199Y1265000D03*
X2362801Y1355000D03*
Y1367500D03*
X2364699Y1157500D03*
Y1310000D03*
X2370301Y1332500D03*
X2372199Y1355000D03*
Y1367500D03*
X2379699Y1332500D03*
X2392801D03*
X2395301Y1265000D03*
Y1310000D03*
X2402199Y1332500D03*
X2404699Y1265000D03*
Y1310000D03*
X2405301Y1137500D03*
X2407801Y1290000D03*
X2414699Y1137500D03*
X2417199Y1290000D03*
X2417801Y1265000D03*
X2422801Y1207500D03*
X2425301Y1310000D03*
X2427199Y1265000D03*
X2430301Y1137500D03*
X2432199Y1207500D03*
X2434699Y1310000D03*
X2435301Y1355000D03*
X2439699Y1137500D03*
X2444699Y1355000D03*
X2485301Y1377500D03*
Y1402500D03*
X2494699Y1377500D03*
Y1402500D03*
X2522801Y1377500D03*
Y1402500D03*
X2530301Y1075000D03*
Y1087500D03*
Y1100000D03*
Y1112500D03*
Y1150000D03*
Y1162500D03*
X2532199Y1377500D03*
Y1402500D03*
X2539699Y1075000D03*
Y1087500D03*
Y1100000D03*
Y1112500D03*
Y1150000D03*
Y1162500D03*
X2545301Y1045000D03*
Y1060000D03*
X2554699Y1045000D03*
Y1060000D03*
X2580301Y1377500D03*
Y1402500D03*
X2589699Y1377500D03*
Y1402500D03*
X2610301Y1042500D03*
Y1055000D03*
Y1067500D03*
X2615301Y1377500D03*
Y1402500D03*
X2619699Y1042500D03*
Y1055000D03*
Y1067500D03*
X2624699Y1377500D03*
Y1402500D03*
X2635301Y1087500D03*
Y1100000D03*
Y1112500D03*
Y1125000D03*
Y1147500D03*
X2644699Y1087500D03*
Y1100000D03*
Y1112500D03*
Y1125000D03*
Y1147500D03*
X2692801Y1070000D03*
Y1237500D03*
X2702199Y1070000D03*
Y1237500D03*
X2717801Y1070000D03*
Y1237500D03*
X2727199Y1070000D03*
Y1237500D03*
X2777801Y917500D03*
Y930000D03*
Y942500D03*
X2787199Y917500D03*
Y930000D03*
Y942500D03*
X2791301Y1352000D03*
X2800699D03*
X2806801Y1484500D03*
X2816199D03*
X2820301Y1352500D03*
X2829699D03*
X2850301D03*
X2859699D03*
X2877801D03*
X2887199D03*
X2905301D03*
X2914699D03*
G54D14*
X105000Y1461500D03*
Y1468500D03*
X114500Y1461500D03*
Y1468500D03*
X150000Y1436500D03*
Y1443500D03*
X157500Y1436500D03*
Y1443500D03*
X170000Y1436500D03*
Y1443500D03*
X194000Y1478000D03*
X201000D03*
X221500Y1483000D03*
X228500D03*
X778330Y513590D03*
Y523590D03*
X785330Y513590D03*
Y523590D03*
X785410Y603330D03*
Y610330D03*
X792410Y603330D03*
Y610330D03*
X796830Y565090D03*
Y572090D03*
X798330Y508590D03*
Y518590D03*
Y543590D03*
X799090Y536170D03*
X805330Y508590D03*
Y518590D03*
Y543590D03*
X806090Y536170D03*
X806410Y603330D03*
Y610330D03*
X806830Y565090D03*
Y572090D03*
X813410Y603330D03*
Y610330D03*
X816830Y565090D03*
Y572090D03*
X818330Y483590D03*
X825330D03*
X835420Y497760D03*
Y504760D03*
X836090Y482170D03*
Y489170D03*
X836830Y565090D03*
Y572090D03*
X845410Y603330D03*
Y610330D03*
X845830Y555090D03*
Y562090D03*
X850670Y524410D03*
X852410Y603330D03*
Y610330D03*
X856830Y495090D03*
Y502090D03*
Y565090D03*
Y572090D03*
X857670Y524410D03*
X865410Y603330D03*
Y610330D03*
X868330Y503590D03*
Y523590D03*
Y543590D03*
Y552590D03*
X872410Y603330D03*
Y610330D03*
X875330Y503590D03*
Y523590D03*
Y543590D03*
Y552590D03*
X1027000Y1200000D03*
Y1215800D03*
Y1248000D03*
Y1263800D03*
Y1296000D03*
X1027100Y1232000D03*
X1034000Y1200000D03*
Y1215800D03*
Y1248000D03*
Y1263800D03*
Y1296000D03*
X1034100Y1232000D03*
X1074500Y1272500D03*
Y1279500D03*
X1082500Y1232500D03*
Y1239500D03*
Y1272500D03*
Y1279500D03*
X1083000Y1192000D03*
Y1208000D03*
X1090000Y1192000D03*
Y1208000D03*
X1090500Y1224500D03*
Y1231500D03*
X1098500Y1120500D03*
Y1127500D03*
Y1136250D03*
Y1143250D03*
Y1152500D03*
Y1159500D03*
Y1192250D03*
Y1199250D03*
Y1208250D03*
Y1215250D03*
Y1224500D03*
Y1231500D03*
Y1272500D03*
Y1279500D03*
X1106500Y1120500D03*
Y1127500D03*
Y1136250D03*
Y1143250D03*
Y1152500D03*
Y1159500D03*
Y1168500D03*
Y1175500D03*
Y1192500D03*
Y1199500D03*
Y1208250D03*
Y1215250D03*
Y1224500D03*
Y1231500D03*
X1114500Y1120500D03*
Y1127500D03*
Y1136500D03*
Y1143500D03*
Y1152500D03*
Y1159500D03*
Y1168500D03*
Y1175500D03*
Y1192500D03*
Y1199500D03*
Y1208500D03*
Y1215500D03*
Y1224500D03*
Y1231500D03*
X1122500Y1120500D03*
Y1127500D03*
Y1136500D03*
Y1143500D03*
Y1152500D03*
Y1159500D03*
Y1168500D03*
Y1175500D03*
Y1192500D03*
Y1199500D03*
Y1208500D03*
Y1215500D03*
Y1224500D03*
Y1231500D03*
Y1272500D03*
Y1279500D03*
X1130500Y1120500D03*
Y1127500D03*
Y1136500D03*
Y1143500D03*
Y1152500D03*
Y1159500D03*
Y1168500D03*
Y1175500D03*
Y1192500D03*
Y1199500D03*
Y1208500D03*
Y1215500D03*
Y1224500D03*
Y1231500D03*
Y1248500D03*
Y1255500D03*
X1139250Y1192750D03*
Y1199750D03*
Y1208500D03*
Y1215500D03*
X1146000Y1136250D03*
Y1143250D03*
Y1152500D03*
Y1159500D03*
X1146250Y1192500D03*
Y1199500D03*
Y1208250D03*
Y1215250D03*
X1154500Y1120500D03*
Y1127500D03*
Y1144500D03*
Y1151500D03*
Y1160500D03*
Y1167500D03*
Y1192750D03*
Y1199750D03*
Y1208750D03*
Y1215750D03*
Y1224250D03*
Y1231250D03*
X1162500Y1120500D03*
Y1127500D03*
Y1136250D03*
Y1143250D03*
Y1152500D03*
Y1159500D03*
Y1192500D03*
Y1199500D03*
Y1208500D03*
Y1215500D03*
Y1224500D03*
Y1231500D03*
X1170500Y1120500D03*
Y1127500D03*
Y1144500D03*
Y1151500D03*
Y1160500D03*
Y1167500D03*
Y1192500D03*
Y1199500D03*
Y1208500D03*
Y1215500D03*
Y1224500D03*
Y1231500D03*
X1178500Y1136250D03*
Y1143250D03*
Y1152500D03*
Y1159500D03*
Y1192250D03*
Y1199250D03*
Y1208500D03*
Y1215500D03*
Y1224500D03*
Y1231500D03*
Y1256500D03*
Y1263500D03*
X1186500Y1120500D03*
Y1127500D03*
Y1144500D03*
Y1151500D03*
Y1160250D03*
Y1167250D03*
Y1192500D03*
Y1199500D03*
Y1208500D03*
Y1215500D03*
Y1224500D03*
Y1231500D03*
Y1280500D03*
Y1287500D03*
X1194500Y1088500D03*
Y1095500D03*
Y1136250D03*
Y1143250D03*
Y1152500D03*
Y1159500D03*
Y1192500D03*
Y1199500D03*
Y1208500D03*
Y1215500D03*
X1202500Y1088500D03*
Y1095500D03*
Y1120500D03*
Y1127500D03*
Y1144500D03*
Y1151500D03*
Y1160500D03*
Y1167500D03*
Y1192500D03*
Y1199500D03*
Y1208500D03*
Y1215500D03*
X1210500Y1160250D03*
Y1167250D03*
Y1280500D03*
Y1287500D03*
X1234500Y1280500D03*
Y1287500D03*
X1242500Y1256500D03*
Y1263500D03*
G54D15*
X1325000Y602500D03*
Y657500D03*
X1432500Y602500D03*
Y657500D03*
X1535000Y602500D03*
Y657500D03*
X1637500Y602500D03*
Y657500D03*
X1765000Y600000D03*
Y655000D03*
G54D16*
X103142Y800000D03*
Y827500D03*
Y855000D03*
Y882500D03*
Y912500D03*
X116858Y800000D03*
Y827500D03*
Y855000D03*
Y882500D03*
Y912500D03*
X165642Y1102500D03*
X179358D03*
X339642Y1415500D03*
Y1463000D03*
X353358Y1415500D03*
Y1463000D03*
X484642Y306500D03*
Y324000D03*
X498358Y306500D03*
Y324000D03*
X530642Y1075000D03*
X544358D03*
X545642Y51500D03*
X559358D03*
X560642Y1075000D03*
X574358D03*
X585642Y51500D03*
X599358D03*
X637142Y211000D03*
X650858D03*
X665642Y51500D03*
X667142Y223500D03*
X679358Y51500D03*
X679642Y303500D03*
Y323500D03*
X680858Y223500D03*
X693358Y303500D03*
Y323500D03*
X733142Y957500D03*
X746858D03*
X988142Y1125000D03*
Y1142500D03*
X1001858Y1125000D03*
Y1142500D03*
X1038142Y520000D03*
X1051858D03*
X1280642Y1140250D03*
X1294358D03*
X1335642Y1335000D03*
X1343142Y1147500D03*
Y1210000D03*
X1349358Y1335000D03*
X1356858Y1147500D03*
Y1210000D03*
X1368142Y1050000D03*
Y1100000D03*
X1373142Y1147500D03*
Y1210000D03*
X1381858Y1050000D03*
Y1100000D03*
X1386858Y1147500D03*
Y1210000D03*
X1398142Y1100000D03*
X1411858D03*
X1530642Y1312500D03*
X1544358D03*
X1660642Y447500D03*
X1674358D03*
X1780642Y1112500D03*
X1794358D03*
X1880642Y1100000D03*
X1894358D03*
X1918142Y917500D03*
X1931858D03*
X1968142Y1380000D03*
X1981858D03*
X2330642Y1117500D03*
Y1135000D03*
X2344358Y1117500D03*
Y1135000D03*
X2388142Y1350000D03*
Y1367500D03*
X2395642Y1412500D03*
X2401858Y1350000D03*
Y1367500D03*
X2409358Y1412500D03*
G54D17*
X102500Y950642D03*
Y964358D03*
X207500Y1265642D03*
Y1279358D03*
X415000Y968142D03*
Y981858D03*
X472500Y1098142D03*
Y1111858D03*
X491500Y139142D03*
Y152858D03*
X492500Y968142D03*
Y981858D03*
X511500Y139142D03*
Y152858D03*
X611500Y269142D03*
Y282858D03*
Y321642D03*
Y335358D03*
X857300Y289085D03*
Y298610D03*
Y308135D03*
X882700Y289085D03*
Y308135D03*
Y298610D03*
X1102500Y650642D03*
Y664358D03*
X1125000Y650642D03*
Y664358D03*
X1147500Y650642D03*
Y664358D03*
X1170000Y650642D03*
Y664358D03*
X1235000Y1370642D03*
Y1384358D03*
X1255000Y1430642D03*
Y1444358D03*
X1257500Y1370642D03*
Y1384358D03*
X1280000Y1370642D03*
Y1384358D03*
X1295000Y1430642D03*
Y1444358D03*
X1302500Y1370642D03*
Y1384358D03*
X1337500Y515642D03*
Y529358D03*
X1342500Y1368142D03*
Y1381858D03*
X1357500Y515642D03*
Y529358D03*
X1437500Y515642D03*
Y529358D03*
X1457500Y515642D03*
Y529358D03*
X1500000Y1308142D03*
Y1321858D03*
X1540000Y515642D03*
Y529358D03*
X1552500Y228142D03*
Y241858D03*
X1560000Y515642D03*
Y529358D03*
X1570000Y228142D03*
Y241858D03*
X1645000Y515642D03*
Y529358D03*
X1665000Y515642D03*
Y529358D03*
X1720000Y1293142D03*
Y1306858D03*
X1770000Y515642D03*
Y529358D03*
X1790000Y515642D03*
Y529358D03*
X1810000Y1038142D03*
Y1051858D03*
X2382500Y1113142D03*
Y1126858D03*
X2512500Y1288142D03*
Y1301858D03*
X2515000Y1415642D03*
Y1429358D03*
X2610000Y1415642D03*
Y1429358D03*
X2655000Y1053142D03*
Y1066858D03*
G54D18*
X1022500Y828022D03*
Y856978D03*
X1052500Y828022D03*
Y856978D03*
X1072500Y705522D03*
Y734478D03*
Y755522D03*
Y784478D03*
X1082500Y828022D03*
Y856978D03*
X1102500Y705522D03*
Y734478D03*
Y755522D03*
Y784478D03*
X1132500Y705522D03*
Y734478D03*
Y755522D03*
Y784478D03*
X1345000Y680522D03*
Y709478D03*
X1452500Y678022D03*
Y706978D03*
X1555000Y678022D03*
Y706978D03*
X1657500Y680522D03*
Y709478D03*
X1660000Y740522D03*
Y769478D03*
X1687500Y740522D03*
Y769478D03*
X1717500Y740522D03*
Y769478D03*
X1785000Y678022D03*
Y706978D03*
X1867500Y785522D03*
Y814478D03*
X1882500Y470522D03*
Y499478D03*
Y523022D03*
Y551978D03*
X2142500Y1013022D03*
Y1041978D03*
X2170000Y1013022D03*
Y1041978D03*
Y1060522D03*
Y1089478D03*
X2240000Y1130522D03*
Y1159478D03*
X2270000Y1130522D03*
Y1159478D03*
X2300000Y1130522D03*
Y1159478D03*
G54D19*
X94700Y1193700D03*
Y1201300D03*
Y1211200D03*
Y1218800D03*
Y1228700D03*
Y1236300D03*
X110300Y1193700D03*
Y1201300D03*
Y1211200D03*
Y1218800D03*
Y1228700D03*
Y1236300D03*
X786200Y348310D03*
Y363910D03*
X793800Y348310D03*
Y363910D03*
G54D20*
X201500Y1242500D03*
X205500D03*
X209500D03*
X213500D03*
X217500D03*
X221500D03*
X225500D03*
X229500D03*
X233500D03*
X237500D03*
X241500D03*
X245500D03*
X249500D03*
X253500D03*
X257500D03*
X261500D03*
X265500D03*
X269500D03*
X273500D03*
X457000Y1064000D03*
X461000D03*
X465000D03*
X469000D03*
X473000D03*
X477000D03*
X481000D03*
X485000D03*
X489000D03*
X493000D03*
G54D21*
X195000Y1164000D03*
Y1168000D03*
Y1172000D03*
Y1176000D03*
Y1180000D03*
Y1184000D03*
Y1188000D03*
Y1192000D03*
Y1196000D03*
Y1200000D03*
Y1204000D03*
Y1208000D03*
Y1212000D03*
Y1216000D03*
Y1220000D03*
Y1224000D03*
Y1228000D03*
Y1232000D03*
Y1236000D03*
X451000Y1022000D03*
Y1026000D03*
Y1030000D03*
Y1034000D03*
Y1038000D03*
Y1042000D03*
Y1046000D03*
Y1050000D03*
Y1054000D03*
Y1058000D03*
G54D22*
X280000Y1164000D03*
Y1168000D03*
Y1172000D03*
Y1176000D03*
Y1180000D03*
Y1184000D03*
Y1188000D03*
Y1192000D03*
Y1196000D03*
Y1200000D03*
Y1204000D03*
Y1208000D03*
Y1212000D03*
Y1216000D03*
Y1220000D03*
Y1224000D03*
Y1228000D03*
Y1232000D03*
Y1236000D03*
X499000Y1022000D03*
Y1026000D03*
Y1030000D03*
Y1034000D03*
Y1038000D03*
Y1042000D03*
Y1046000D03*
Y1050000D03*
Y1054000D03*
Y1058000D03*
G54D23*
X201500Y1157500D03*
X205500D03*
X209500D03*
X213500D03*
X217500D03*
X221500D03*
X225500D03*
X229500D03*
X233500D03*
X237500D03*
X241500D03*
X245500D03*
X249500D03*
X253500D03*
X257500D03*
X261500D03*
X265500D03*
X269500D03*
X273500D03*
X457000Y1016000D03*
X461000D03*
X465000D03*
X469000D03*
X473000D03*
X477000D03*
X481000D03*
X485000D03*
X489000D03*
X493000D03*
G54D24*
X1690000Y239000D03*
Y376000D03*
X1755000Y239000D03*
Y376000D03*
G54D25*
X135475Y792500D03*
Y820000D03*
Y852500D03*
Y885000D03*
Y912500D03*
X145475Y1405000D03*
X154525Y792500D03*
Y820000D03*
Y852500D03*
Y885000D03*
Y912500D03*
X164525Y1405000D03*
X557975Y1394250D03*
X577025D03*
X757975Y1385000D03*
X777025D03*
X980475Y1162500D03*
Y1207500D03*
X999525Y1162500D03*
Y1207500D03*
X1300475Y685000D03*
Y707500D03*
X1319525Y685000D03*
Y707500D03*
X1335475Y1167500D03*
Y1190000D03*
X1354525Y1167500D03*
Y1190000D03*
X1375475Y1167500D03*
Y1190000D03*
X1394525Y1167500D03*
Y1190000D03*
X1407975Y682500D03*
Y705000D03*
X1427025Y682500D03*
Y705000D03*
X1510475Y680000D03*
Y705000D03*
X1529525Y680000D03*
Y705000D03*
X1612975Y682500D03*
Y707500D03*
X1632025Y682500D03*
Y707500D03*
X1657975Y427500D03*
X1677025D03*
X1687975Y1442500D03*
X1707025D03*
X1727975D03*
X1740475Y680000D03*
Y705000D03*
X1747025Y1442500D03*
X1759525Y680000D03*
Y705000D03*
X1850475Y960000D03*
X1869525D03*
X2060475Y1222500D03*
X2079525D03*
X2372975Y1057500D03*
Y1082500D03*
X2392025Y1057500D03*
Y1082500D03*
X2480475Y1077500D03*
Y1100000D03*
X2499525Y1077500D03*
Y1100000D03*
G54D26*
X1305750Y555250D03*
Y560250D03*
Y565250D03*
Y570250D03*
X1405750Y554750D03*
Y559750D03*
Y564750D03*
Y569750D03*
X1508500Y555000D03*
Y560000D03*
Y565000D03*
Y570000D03*
X1613000Y555000D03*
Y560000D03*
Y565000D03*
Y570000D03*
X1738000Y555000D03*
Y560000D03*
Y565000D03*
Y570000D03*
G54D27*
X1310450Y548750D03*
Y576750D03*
X1328450D03*
X1410450Y548250D03*
Y576250D03*
X1428450D03*
X1513200Y548500D03*
Y576500D03*
X1531200D03*
X1617700Y548500D03*
Y576500D03*
X1635700D03*
X1742700Y548500D03*
Y576500D03*
X1760700D03*
G54D28*
X1323550Y571250D03*
X1423550Y570750D03*
X1526300Y571000D03*
X1630800D03*
X1755800D03*
G54D29*
X1317650Y555750D03*
X1329250D03*
X1417650Y555250D03*
X1429250D03*
X1520400Y555500D03*
X1532000D03*
X1624900D03*
X1636500D03*
X1749900D03*
X1761500D03*
G54D30*
X1013450Y563965D03*
Y616035D03*
X1026150Y563965D03*
Y616035D03*
X1038850Y563965D03*
Y616035D03*
X1051550Y563965D03*
Y616035D03*
X1278050Y426465D03*
Y478535D03*
X1290750Y426465D03*
Y478535D03*
X1303450Y426465D03*
Y478535D03*
X1316150Y426465D03*
Y478535D03*
X1328850Y426465D03*
Y478535D03*
X1341550Y426465D03*
Y478535D03*
X1354250Y426465D03*
Y478535D03*
X1366950Y426465D03*
Y478535D03*
G54D31*
X1595000Y302500D03*
G54D32*
X1585000Y288200D03*
Y316800D03*
X1590000Y288200D03*
Y316800D03*
X1595000Y288200D03*
Y316800D03*
X1600000Y288200D03*
Y316800D03*
X1605000Y288200D03*
Y316800D03*
G54D33*
X2238250Y1037500D03*
Y1090000D03*
X2301750Y1037500D03*
Y1090000D03*
G54D34*
X157500Y1128944D03*
G54D35*
X492290Y183500D03*
X550710D03*
X1570790Y347500D03*
X1629210D03*
G54D36*
X2073022Y1027500D03*
X2101978D03*
G54D37*
X1439600Y402640D03*
Y409380D03*
X1444600Y402640D03*
Y409380D03*
X1449600Y402640D03*
Y409380D03*
G54D38*
X2017500Y1163290D03*
Y1221710D03*
G54D39*
X1264000Y171000D03*
G54D40*
X1152500Y317500D03*
X1264000Y274500D03*
G54D41*
Y212500D03*
G54D42*
X1168000Y317500D03*
X1179000D03*
X1190000D03*
X1201000D03*
X1212000D03*
X1223000D03*
X1234000D03*
X1245000D03*
X1254500D03*
G54D43*
X193500Y800500D03*
Y824500D03*
X198500Y1333000D03*
Y1357000D03*
X241500Y800500D03*
Y824500D03*
X246500Y1333000D03*
Y1357000D03*
X451000Y1128000D03*
Y1152000D03*
X499000Y1128000D03*
Y1152000D03*
G54D44*
X1440000Y1009500D03*
Y1205500D03*
X1445000Y1009500D03*
Y1205500D03*
X1450000Y1009500D03*
Y1205500D03*
X1455000Y1009500D03*
Y1205500D03*
X1460000Y1009500D03*
Y1205500D03*
X1465000Y1009500D03*
Y1205500D03*
X1470000Y1009500D03*
Y1205500D03*
X1475000Y1009500D03*
Y1205500D03*
X1480000Y1009500D03*
Y1205500D03*
X1485000Y1009500D03*
Y1205500D03*
X1490000Y1009500D03*
Y1205500D03*
X1495000Y1009500D03*
Y1205500D03*
X1500000Y1009500D03*
Y1205500D03*
X1505000Y1009500D03*
Y1205500D03*
X1510000Y1009500D03*
Y1205500D03*
X1515000Y1009500D03*
Y1205500D03*
X1520000Y1009500D03*
Y1205500D03*
X1525000Y1009500D03*
Y1205500D03*
X1530000Y1009500D03*
Y1205500D03*
X1535000Y1009500D03*
Y1205500D03*
X1540000Y1009500D03*
Y1205500D03*
X1545000Y1009500D03*
Y1205500D03*
X1550000Y1009500D03*
Y1205500D03*
X1555000Y1009500D03*
Y1205500D03*
G54D45*
X300475Y782660D03*
X310000Y762340D03*
X319525Y782660D03*
X335475D03*
X345000Y762340D03*
X354525Y782660D03*
X659475Y278660D03*
X669000Y258340D03*
X678525Y278660D03*
X1425475Y33840D03*
X1435000Y54160D03*
X1444525Y33840D03*
G54D46*
X1741665Y1327500D03*
X1768335D03*
G54D47*
X199840Y730000D03*
Y765000D03*
X220160Y720475D03*
Y739525D03*
Y755475D03*
Y774525D03*
X961670Y498590D03*
Y533590D03*
X981990Y489065D03*
Y508115D03*
Y524065D03*
Y543115D03*
X1954840Y820000D03*
X1975160Y810475D03*
Y829525D03*
X2417340Y1165000D03*
X2437660Y1155475D03*
Y1174525D03*
G54D48*
X1050500Y420028D03*
Y479972D03*
X1057000Y420028D03*
Y479972D03*
X1063500Y420028D03*
Y479972D03*
X1070000Y420028D03*
Y479972D03*
X1076500Y420028D03*
Y479972D03*
X1083000Y420028D03*
Y479972D03*
X1089500Y420028D03*
Y479972D03*
X1135500Y420028D03*
Y479972D03*
X1142000Y420028D03*
Y479972D03*
X1148500Y420028D03*
Y479972D03*
X1155000Y420028D03*
Y479972D03*
X1161500Y420028D03*
Y479972D03*
X1168000Y420028D03*
Y479972D03*
X1174500Y420028D03*
Y479972D03*
X1205500Y420028D03*
Y479972D03*
X1212000Y420028D03*
Y479972D03*
X1218500Y420028D03*
Y479972D03*
X1225000Y420028D03*
Y479972D03*
X1231500Y420028D03*
Y479972D03*
X1238000Y420028D03*
Y479972D03*
X1244500Y420028D03*
Y479972D03*
G54D49*
X634000Y86990D03*
Y120010D03*
G54D50*
X77500Y1180000D03*
Y1185000D03*
Y1190000D03*
Y1195000D03*
Y1200000D03*
Y1205000D03*
Y1210000D03*
Y1215000D03*
Y1220000D03*
Y1225000D03*
Y1230000D03*
Y1235000D03*
Y1240000D03*
Y1245000D03*
Y1250000D03*
Y1255000D03*
Y1260000D03*
Y1265000D03*
Y1270000D03*
Y1275000D03*
Y1280000D03*
Y1285000D03*
Y1290000D03*
Y1295000D03*
Y1300000D03*
Y1305000D03*
Y1310000D03*
Y1315000D03*
Y1320000D03*
Y1325000D03*
G54D51*
X1190000Y337500D03*
X1247500D03*
G54D52*
X1179000Y333000D03*
Y342000D03*
X1184000Y333000D03*
Y342000D03*
X1196000Y333000D03*
Y342000D03*
X1201000Y333000D03*
Y342000D03*
X1236500Y333000D03*
Y342000D03*
X1241500Y333000D03*
Y342000D03*
X1253500Y333000D03*
Y342000D03*
X1258500Y333000D03*
Y342000D03*
G54D53*
X1400150Y366010D03*
X1412850D03*
X1425550D03*
X1438250D03*
X1450950D03*
X1463650D03*
X1476350D03*
X1489050D03*
G54D54*
X1324850Y196910D03*
X1535150Y197010D03*
G54D55*
X1705075Y437500D03*
X1774925D03*
G54D56*
X1575950Y144560D03*
Y200440D03*
X1588650Y144560D03*
Y200440D03*
X1601350Y144560D03*
Y200440D03*
X1614050Y144560D03*
Y200440D03*
X1648450Y144560D03*
Y200440D03*
X1661150Y144560D03*
Y200440D03*
X1673850Y144560D03*
Y200440D03*
X1686550Y144560D03*
Y200440D03*
G54D57*
X1106800Y577750D03*
Y584250D03*
Y590750D03*
Y597250D03*
Y603749D03*
Y610249D03*
Y616749D03*
Y623249D03*
X1166200Y577750D03*
Y584251D03*
Y590751D03*
Y597251D03*
Y603750D03*
Y610250D03*
Y616750D03*
Y623250D03*
G54D58*
X2622500Y1235500D03*
Y1289500D03*
G54D59*
X118500Y947500D03*
Y967500D03*
X125000Y947500D03*
Y967500D03*
X131500Y947500D03*
Y967500D03*
X303500Y831000D03*
G54D60*
Y839000D03*
X307500Y831000D03*
Y839000D03*
X311500Y831000D03*
Y839000D03*
G54D61*
X125000Y957500D03*
G54D62*
X55475Y962300D03*
Y987700D03*
X57975Y1067300D03*
Y1092700D03*
X65000Y962300D03*
Y987700D03*
X67500Y1067300D03*
Y1092700D03*
X74525Y962300D03*
Y987700D03*
X77025Y1067300D03*
Y1092700D03*
G54D63*
X200000Y882950D03*
X205000D03*
X210000D03*
X215000D03*
X220000D03*
X225000D03*
X230000D03*
X235000D03*
X240000D03*
X245000D03*
X250000D03*
X255000D03*
G54D64*
X200000Y952050D03*
X205000D03*
X210000D03*
X215000D03*
X220000D03*
X225000D03*
X230000D03*
X235000D03*
X240000D03*
X245000D03*
X250000D03*
X255000D03*
G54D65*
X192950Y890000D03*
Y895000D03*
Y900000D03*
Y905000D03*
Y910000D03*
Y915000D03*
Y920000D03*
Y925000D03*
Y930000D03*
Y935000D03*
Y940000D03*
Y945000D03*
G54D66*
X262050Y890000D03*
Y895000D03*
Y900000D03*
Y905000D03*
Y910000D03*
Y915000D03*
Y920000D03*
Y925000D03*
Y930000D03*
Y935000D03*
Y940000D03*
Y945000D03*
G54D67*
X129800Y742975D03*
Y752500D03*
Y762025D03*
X155200Y742975D03*
Y752500D03*
Y762025D03*
G54D68*
X2667000Y1349400D03*
Y1374800D03*
Y1400200D03*
Y1425600D03*
X2763000Y1349400D03*
Y1374800D03*
Y1400200D03*
Y1425600D03*
G54D69*
X748965Y625950D03*
Y638650D03*
Y651350D03*
Y664050D03*
X801035Y625950D03*
Y638650D03*
Y651350D03*
Y664050D03*
G54D70*
X778022Y328610D03*
X806978D03*
X1230522Y810000D03*
X1259478D03*
X1660522Y805000D03*
X1689478D03*
X1740522Y1300000D03*
X1769478D03*
X1830522Y910000D03*
X1859478D03*
X2500522Y1052500D03*
X2529478D03*
G54D71*
X475000Y1040000D03*
G54D72*
X100500Y1385475D03*
Y1404525D03*
X278000Y1392975D03*
Y1412025D03*
X635000Y960475D03*
Y979525D03*
X657500Y960475D03*
Y979525D03*
X721830Y384065D03*
Y403115D03*
X762500Y947975D03*
Y967025D03*
X845000Y962975D03*
Y982025D03*
X875000Y960475D03*
Y979525D03*
X1017500Y642975D03*
Y662025D03*
Y682975D03*
Y702025D03*
Y722975D03*
Y742025D03*
Y765475D03*
Y784525D03*
X1042500Y642975D03*
Y662025D03*
Y682975D03*
Y702025D03*
Y722975D03*
Y742025D03*
Y765475D03*
Y784525D03*
X1162500Y715475D03*
Y734525D03*
Y755475D03*
Y774525D03*
X1187500Y715475D03*
Y734525D03*
Y755475D03*
Y774525D03*
X1560000Y740475D03*
Y759525D03*
X1585000Y740475D03*
Y759525D03*
X1590000Y225475D03*
Y244525D03*
X1610000Y740475D03*
Y759525D03*
X1612500Y225475D03*
Y244525D03*
X1635000Y225475D03*
Y244525D03*
Y740475D03*
Y759525D03*
X1882500Y572975D03*
Y592025D03*
X2062500Y1097975D03*
Y1117025D03*
Y1152975D03*
Y1172025D03*
X2085000Y1097975D03*
Y1117025D03*
Y1152975D03*
Y1172025D03*
X2107500Y1152975D03*
Y1172025D03*
X2130000Y1152975D03*
Y1172025D03*
X2695000Y1270475D03*
Y1289525D03*
X2697500Y1105475D03*
Y1124525D03*
X2720000Y1270475D03*
Y1289525D03*
X2722500Y1105475D03*
Y1124525D03*
G54D73*
X907500Y329132D03*
Y358088D03*
X932500Y279132D03*
Y308088D03*
X945000Y329132D03*
Y358088D03*
X967500Y279132D03*
Y308088D03*
X2115000Y1095522D03*
Y1124478D03*
G54D74*
X1535000Y412500D03*
G54D75*
X1507060Y393450D03*
Y406150D03*
Y418850D03*
Y431550D03*
G54D76*
X1562940Y393450D03*
Y406150D03*
Y418850D03*
Y431550D03*
G04 PASTA TOP*
M02*
