; Version : LOCAL
; Job     : D:\PD-Master\Mas\Mas100n1 ACB_0001_0\Mas100n1 ACUBE_PORTABILE R_0.pcb
; User    : SHINA:Administrator
; Date    : Thu Feb 04 15:44:56 2021
; Format  : 2.4 / Absolute / Inch / Trailing
; Contents: Thru / Drill / Plated
M48
INCH,LZ
FMAT,2
ICI,OFF
T08C0.0079
T10C0.0098
T09C0.0118
T11C0.0157
T05C0.0236
T02C0.0276
T01C0.0315
T04C0.0394
T07C0.0551
T12C0.0945
T16C0.1260
%
M72
G90
G93X0Y0
T08
X05672Y000232
X056433Y000969
X055717Y000929
X05539Y000228
X054012Y000232
X052547Y00024
X051685Y00078
X051228Y000228
X044358Y001575
X045283Y00187
X047236Y001953
X047437Y001232
X048843
X050618Y001331
X051988
X053374
X054736
X055646Y001252
X061417Y001689
X061811
X062205
X062598
X062992
X065772Y001402
X067374Y001984
X067717Y001217
Y00235
X066134Y002551
X061457Y002937
X061453Y002657
X06063
X060236Y002937
X056496Y002555
X054724Y0025
X054114Y002524
X053366Y002492
X052705Y002575
X051988Y002492
X051358Y002587
X05061Y002492
X048492Y002362
X047835
X045067Y002728
X044354Y002165
X042839Y002697
X042201Y002339
X04161
X040429
X026205Y00239
X025185Y002346
X023031Y002398
X022024
X022638Y003622
X024193Y003193
X054165Y003752
X058177Y003335
X05989
X060988Y004441
X057461Y004016
X056866Y00402
X052705Y004248
X051728Y004287
X05135Y004252
X048528Y004028
X047843Y004039
X028122Y004063
X026461Y004323
X024146Y004724
X013382Y004913
X011839Y005299
Y005693
X01465Y005276
X01474Y005835
X015047Y005528
X016063Y005276
X016126Y005937
X016646Y005969
X016665Y005701
X017406Y005276
X019713Y005476
X024429Y005339
X024961Y005382
X02565Y005795
X026264Y005508
X027067Y005146
X043878
X063043Y005311
X063543
X064083Y005476
X065898Y005343
X066398Y005346
X027126Y006961
X025898Y006346
X02313Y006906
X01752Y006374
X016374Y006157
X01589Y006126
X015528Y006102
X015236Y006122
X014701Y006134
X013965Y006417
X011839Y006087
Y00648
Y006874
X011835Y007693
X014252Y007185
X015189Y007071
X01563Y007102
X016122Y00713
X016614Y007114
X017106Y00711
X022705Y007673
X024634Y007461
X024874Y007882
X02585Y007709
X026433Y007441
X026988Y007524
X072906Y008244
X066394Y008228
X065906
X065409
X064886
X050197Y008366
X043236Y008882
X042835Y008374
X027843Y008598
X027122Y008965
X025815Y008906
X023953Y008394
X022709Y008929
X021681Y008339
X02035Y008516
X019252Y008236
X012843Y008661
X011835Y008024
X014831Y009693
X015343Y009689
X015866Y009693
X01637Y009689
X016898Y009693
X02028Y009681
X022728Y009224
X024669Y009008
X025583Y009185
X025854Y009197
X026512Y00911
X027098Y009701
X028083Y009039
X04248Y00952
X061122Y009862
X068402Y009409
X06437Y010043
X064098Y010366
X063484Y010028
X062598Y010035
X061811Y010134
X053882Y010921
X038972Y010626
X038091Y01063
X036717
X036Y010988
X035665Y010772
X034067Y010472
X033181Y01048
X027323Y010252
X027228Y010748
X025843Y010299
X025283Y010441
X024417Y010268
X023626Y010681
X019764Y010713
X012484Y01013
X013854Y011331
X013886Y011709
X01763Y011701
X020256Y011752
X022614Y011228
X023465Y011949
X024075Y01152
X024764Y011457
X025728Y011886
X027126Y011362
X027909Y011886
X028823Y011165
X029016Y011508
X032319Y011295
X032768Y011941
X035665Y011571
X053071Y01128
X053331Y011055
X053598Y011283
X062091Y011346
X075323Y01265
X075055
X06437Y012394
X06378Y012417
X062189Y012469
X061998Y012699
X05115Y0125
X048189Y012898
X047283Y012087
X037465Y012488
X036713Y012496
X035598Y012445
X035236Y012453
X034752Y012461
X034205Y012122
X033984Y012488
X033677
X033358Y012508
X033091Y012531
X032283Y012256
X031772Y01237
X031445Y012244
X031102Y01224
X030197Y012693
X028457Y012898
X026461Y012724
X025815Y012386
X023276Y012531
X020709Y012756
X015244Y012614
X01085Y013512
X012177Y013736
X019079Y013189
X023563Y013335
X02885Y013843
X03024Y013268
X030335Y013543
X03163Y013512
X032815Y013575
X033118Y013555
X033382Y013559
X033654Y013567
X034055Y013559
X034394Y013512
X034803Y013555
X035335Y013547
X036811Y013461
X037299Y013583
X039413Y013421
X039512Y013
X045772Y013071
X046843Y013992
X047173Y013787
X047598Y013819
X049114Y013787
X049378Y013815
X049681Y013827
X051134Y013484
X055622Y013874
X062307Y013339
Y013681
X063705
X064665Y013327
Y013681
X066902Y013862
X072835Y013642
X073315Y013571
X074724Y013689
X075732Y013976
X075693Y014555
X074614Y014567
X074362Y01487
X074083Y014854
X072339Y014516
X069957Y01428
Y014803
X064665Y014059
X062311Y014067
X060642Y014079
X056913Y014945
X056606
X054858Y014937
X048878Y014039
X04872Y014669
X048512Y014055
X045319Y014594
X044831Y01437
X043134Y014358
X041913Y014579
X037921Y014098
X0375Y0145
X036071Y014579
X035142Y0145
X034882Y014512
X034547Y014685
X03435Y014512
X033941
X033673Y0145
X033594Y014972
X03328Y014539
X032756Y014535
X031594Y014606
X031591Y014878
X031252Y014575
X030953
X030705Y014697
X029783
X029512
X028457Y01474
X027433Y014638
X016594Y014126
X01624Y01413
X015748Y014122
X014764Y01415
X01702Y015465
X018016Y01515
X018598Y015811
X018606Y0155
X020555Y015551
X020984Y015559
X02211Y015764
X022213Y015354
X026819Y015791
X028906Y015555
X029378Y015866
X030953Y015878
X031217
X031835Y015764
X032142
X03261Y01578
X03328Y015874
X033598Y015453
X034441Y015343
X035736Y015618
X035965Y015764
X036319Y015665
X03702Y015835
X040504Y015465
X040531Y015811
X042339Y015189
X043591Y015606
X043803Y015441
X044579Y015169
X045083
X045567
X046063
X05589Y015457
X056161Y015858
X056465
X057283Y01585
X057421Y01502
X057913Y015315
X057929Y015665
X058339Y015673
X058764Y015323
X06185Y015965
X062831Y015972
X066535Y015697
X069957Y015303
X072339Y015008
Y015496
Y015988
X074453Y015748
X074622Y015157
X075693Y015657
X075705Y01513
X07572Y01652
X075693Y016
Y016929
X07452
X074476Y016339
X07228Y016614
X072268Y01689
X070673Y01674
X06713Y016205
X066449Y016831
X059016Y016
X059004Y016339
X056913Y01648
X056606Y016378
X055709Y016398
X05522Y016465
X052457Y016142
X049642Y016059
X047976Y016067
X047189Y016535
X046984Y016173
X037035Y01672
X035799Y016154
X035425Y016799
X034933
X034441
X033949
X033268Y016819
X032614Y016969
X030811Y01689
X030508Y016882
X02989Y01689
X029563Y016906
X029043Y016457
X028614Y016413
X027654Y01626
X026941Y016579
X025835Y016654
X02211Y016685
X022091Y016358
X021189Y016685
X02078Y01648
X020555Y016142
Y016732
X018012Y016224
X017449Y016256
X017012Y016941
X017709Y017307
X01822Y017996
X018299Y017181
X019551Y017094
X019555Y017547
X019618Y017819
X020575Y017811
X020591Y017504
X02078Y017094
X021189Y017299
X02628Y017268
X028118Y017335
X028917Y017059
X028965Y017445
X029366Y01798
X030197Y017268
X037165Y01787
X049713Y017402
X053315Y017366
X053815Y017386
X054929Y01711
X057193Y01739
X057425Y017606
X057677Y01739
X06498Y017618
X06635
X067764Y017224
X070661Y017709
X070673Y017224
X072339Y017465
X074697Y018949
X072339Y018941
X072335Y018106
X072331Y01837
X066417Y018969
X050354Y018205
X049705Y018043
X048457Y018437
X048043
X047496Y018118
X045772Y018429
X04548Y018437
X045142Y018118
X04463
X038661Y018732
X038283Y018937
X037555Y018252
X037465Y018559
Y018835
X03652Y018839
X0365Y018252
X035531Y018012
Y018406
Y018799
X035138Y018012
Y018406
Y018799
X034744Y018012
Y018406
Y018799
X03435Y018012
Y018406
Y018799
X033957Y018012
Y018406
Y018799
X033563Y018012
Y018406
Y018799
X033169
X032382Y018012
Y018406
Y018799
X031988Y018012
Y018406
Y018799
X031594Y018012
Y018406
Y018799
X031201Y018012
Y018406
Y018799
X030807Y018012
Y018406
Y018799
X030413Y018012
Y018406
Y018799
X03002
X029413Y018256
X029378Y018732
X028354Y018854
X02835Y018307
X028079Y018323
X027756Y018012
X027362
X025382Y018563
X025012Y018559
X02474Y018717
X024059Y018657
X023469
X02285Y018685
X022295Y01865
X021496Y01863
X021189Y018118
X021087Y01863
X020575Y01822
X019551Y018118
Y01863
X018528Y018323
X017709Y018732
X017346Y018406
X018598Y019587
X019512Y019402
Y019783
X020555Y019094
Y019685
X020677Y019961
X021189Y019346
X021701Y019756
X021894Y019114
X024697Y019154
X025661Y019815
X026016Y019177
X026201Y019783
X02698Y019094
X027004Y019882
X027878Y019476
X028047Y019756
X029339Y019051
X029378Y019346
X03002Y019193
Y019587
Y01998
X030413Y019193
Y019587
Y01998
X030807Y019193
Y019587
Y01998
X031201Y019193
Y019587
Y01998
X031594Y019193
Y019587
X031988Y019193
Y019587
X032382
X033169
X033189Y019209
X033563Y019193
Y01998
X033957Y019193
Y019587
Y01998
X03435Y019193
Y019587
X034744Y019193
Y019587
Y01998
X035138Y019193
Y019587
Y01998
X035531Y019193
Y019587
Y01998
X035929Y019858
X036339Y019244
Y019516
X036366Y019799
X037465Y019449
X037469Y019728
X041228Y019587
X041917Y019929
X042768Y019874
X043197Y019756
X043634Y019917
X044346Y019587
X045067Y019937
X047126Y019587
X047823Y019921
X048543
X049083Y019587
X049406Y019559
X050933Y019457
X053571Y019791
X057382Y019815
X072307Y019917
X072315Y01963
X074689Y019457
X074701Y019898
X075693Y020429
Y020921
X074118Y020232
X072339Y020417
Y020949
X070472Y020012
X069685
X068701Y020386
X067744
X06674Y020374
X065551Y020012
X064764
X063772Y02037
X063157
X062138Y020362
X061417Y020012
X06063
X059654Y020386
X059035Y020374
X058102Y020362
X056594Y020012
X055618Y020381
X055028Y020386
X054067Y020362
X052657Y020012
X051673Y020366
X051091Y020354
X050031Y020362
X041811Y020472
X040343Y020008
X039972Y02089
X038181Y02037
X037465Y02078
X037441Y020476
X036232Y020366
X036031Y020575
X035724
X035531Y020374
X035138
X034744
X034339Y020406
X033957Y020374
X033563
X033169
X031201
X030413
X03002
X028303Y020768
X028252Y020472
X028047Y020063
X026921Y020571
X026291Y020681
X025567Y020358
X024031Y020051
X023508Y020067
X023236Y020063
X022791Y020039
X022193Y020492
X020677Y02078
X018598Y020768
Y021358
X019512Y021161
X019587Y021654
X020575Y021906
X020882Y021496
X021087Y021291
X022126Y021457
X022157Y021063
X024669Y021087
X024772Y021496
X024874Y021906
X026413Y021705
X026921Y021394
X028201Y021028
X028252Y021295
X029366Y02126
X02952Y021516
X03002Y021161
Y021555
Y021949
X030413Y021161
Y021555
Y021949
X030807Y021161
Y021555
Y021949
X031201Y021161
Y021555
Y021949
X031594
X031988
X032382
X033169Y021161
X033563
Y021555
Y021949
X033957Y021161
Y021555
Y021949
X034327Y021953
X03435Y021161
X034744
Y021516
Y021949
X035138Y021161
Y021555
Y021949
X035531Y021161
Y021555
Y021949
X036134Y021496
X037669Y021394
X038902Y021835
X041854Y021173
X042248Y021185
X042276Y021906
X042583Y021496
X042783Y021941
X051382Y021579
X05187Y021327
X052661Y02113
X052854Y021555
X053394Y021146
X053913Y021555
X055319Y021547
X055807Y021307
X056598Y02113
X056791Y021555
X057843Y021567
X059362Y021606
X059854Y021315
X060634Y02113
X060827Y021555
X06178Y021567
X063476Y021618
X063972Y021315
X064768Y02113
X064961Y021555
X065913Y021587
X068173Y021496
X068894Y021315
X069689Y02113
X069882Y021555
X070937Y021598
X072268Y021394
X072339Y021894
X075693Y021413
Y021898
Y02239
Y022882
X072335Y022504
Y022807
X068146Y022248
X063217Y022244
X059102
X055059Y022232
X051098Y022252
X050031Y022831
X04763Y022689
X04411Y022732
X043539Y022299
X040898Y022787
X040398Y022854
X039717Y022724
X039075Y022248
X037654Y02261
X037465Y022976
X037449Y022386
X036543Y022724
X03598Y022386
X035531Y022343
Y022736
X035138Y022343
Y022736
X034744Y022343
Y022736
X03435Y022343
Y022736
X033957Y022343
Y022736
X033563Y022343
Y022736
X033169Y022343
Y022736
X032382Y022343
Y022736
X031988Y022343
Y022736
X031594Y022343
Y022736
X031201Y022343
Y022736
X030807Y022343
Y022736
X030413Y022343
Y022736
X03002Y022343
Y022736
X029508Y022925
X028252Y022417
X02815Y02211
X028047Y022638
X027039Y022343
X026409Y022315
X025811Y022441
X024673Y02235
X023917Y022594
X023524Y022622
X02313Y022626
X022524Y022516
X022173Y022193
X020984Y022008
X020795Y022441
X020622Y022638
X019614Y022835
X019516Y022343
X018602Y022835
X018598Y022508
X022118Y023283
X022563Y023591
X022839Y023583
X02313Y023591
X024311Y023594
X02463Y023602
X025291Y023673
X025587Y023677
X026323Y023173
X028252Y023165
X029276Y023543
X03002Y02313
X030413
Y023524
X030504Y023953
X030807Y02313
Y023524
X031201Y02313
Y023524
X031594Y02313
Y023524
X031988Y02313
Y023524
X032382Y02313
Y023524
X033169Y02313
Y023524
X033563Y02313
Y023524
X033957Y02313
Y023524
X03435Y02313
Y023524
X034744Y02313
Y023524
X035138Y02313
Y023524
X035531Y02313
Y023524
X036236Y023953
X036535Y023197
X037461Y023272
X037469Y023567
X037906Y023929
X03837Y023472
X038898Y02385
X039067Y023402
X039102Y023031
X044488Y023449
X044894Y02322
X045244Y023236
X047402Y023406
X050039Y023677
X058382Y023122
X062413Y023138
X067028Y023142
X067697Y023717
X072339Y02337
X073594Y023307
X075693Y023374
X07522Y024173
X054882Y024339
X03961Y024252
X039512Y024567
X038898Y024165
X038827Y024441
X037874Y02426
Y024713
X037476Y024157
X036441Y024874
X036437Y024157
X036303Y024618
X035008Y02426
X034909Y024988
X034591Y024335
X034496Y024669
X033858Y024618
X033732Y024256
X033287Y024268
X033268Y024567
X033028Y024264
X032579Y024035
X032134Y024264
X031839Y024272
X031555
X031197Y024268
X030913
X030299Y024874
X03028Y024165
Y024425
X025941Y024567
X02372Y024118
X018835Y024772
X018646Y024583
X027945Y025898
X028047Y025382
X029992Y025898
X030606Y025693
X030811Y025283
X031028Y025531
X032142Y025283
X032661Y025339
X032972Y025283
X033268Y025181
X03378Y025283
X034189
X035567Y025331
X037567Y025591
X039469Y025315
X048024Y025917
X067764Y026921
X063142Y026874
X059106Y026776
X055071Y026874
X050839Y026972
X04811Y026307
X046248Y026976
X045878Y026965
X04535Y026961
X044992Y026965
X044606Y026961
X044106Y026976
X043606Y026961
X04322
X041504Y026069
Y026894
X040575Y02689
X04052Y026069
X039051Y026673
X037465Y026205
X036543Y026614
X032748Y026961
X03163Y026717
X031323Y026512
X030886Y026776
X030197Y026102
X032094Y027484
X032283Y027673
X032937Y02715
X033339Y027465
X033528Y027654
X033823Y027224
X034012Y027035
X034879Y027366
X035149Y027063
X039539Y027638
X040551
X042787Y027535
X043969Y027776
X045173
X046106Y027681
X046295Y02787
X050394Y027071
X050839Y027858
X055071Y02776
X058075Y027098
X059106Y02776
X063142Y027858
X068161Y02776
X071579Y027736
X072055Y027713
X070539Y028193
X070272
X069988
X06552Y028291
X065252
X064969
X061484Y028193
X061217
X060933
X057449
X057181
X056898
X053217Y028291
X052949
X052665
X047394Y028169
X040563Y028465
X039567Y028453
X035008Y028764
X03389Y028654
X031744Y028996
X027343Y028606
X009744Y028244
X009252Y028256
X006488Y028642
X006043Y028543
X004972
X003772Y029346
Y029921
X00828Y029102
X009169Y029642
X009744Y029591
X023028Y029004
Y029437
Y029929
X024138Y029232
Y029705
X02624Y029587
X026256Y029126
X027394Y02935
X027433Y029724
X030394Y029957
X030626Y029236
X030638Y029697
X031744Y029469
X033866Y029587
X034972Y02935
Y029823
X04052Y029219
X041504
X043433Y029386
X044476Y029382
X044937Y029378
X045244Y029583
X045276Y029976
X046268Y029898
X048252Y029996
X053717Y029354
X053976
X054413Y029327
X054673
X055098Y029657
X055358
X056465Y029886
X057484Y029587
X057673Y029398
X060835Y029154
X068276Y029173
X069925Y029067
X070201Y029075
X07022Y029992
X071925Y029343
X112118Y029339
X110264Y030528
X071508Y030311
X071449Y030913
X070732Y03
X069504Y030016
X068669Y030929
X065354
X064764
X064173
X063583
X062992
X062402
X061811
X06122
X06063
X059087Y030016
X058661Y030933
X05848Y030016
X057874Y030929
X057283Y030016
X056693Y030933
X056299Y030094
X055906Y030929
X055315
X054724
X054134
X053543
X052953
X052362
X051772
X051181
X050591
X048819Y030941
X047224Y030016
X041531Y030012
X040547
X039154Y030882
X034972Y030295
Y030768
X033866Y030059
Y030531
X031744Y030413
Y030783
X030638Y03065
X030402Y030323
X027433Y030197
X027394Y030768
X026256Y030059
Y030531
X024157Y030413
Y030913
X023028Y030654
X023016Y030224
X022232Y030874
X011705Y030012
X011323Y030815
X008307Y030488
X00635Y030299
X005602Y030346
X004805Y030902
X003857Y030909
X003772Y0315
X003857Y031992
X004805Y031984
X00489Y031492
X004972Y031209
X006453Y03124
X00824Y031516
X011602Y031902
X012665Y031287
X023028Y031122
Y031594
X024165Y031358
Y031831
X026256Y031
Y031476
X027394Y031713
X027539Y031323
X027843Y031835
X030638Y031122
Y031594
X031744Y031831
X031835Y031118
X033575Y031732
X033866Y031004
Y031476
X034972Y03124
Y031713
X035886Y03124
X043138Y031705
X043402Y031323
X043823Y031327
X04422Y031323
Y031835
X044626Y031382
X045142Y031327
X045244Y03163
X045449Y031016
X045756Y031425
X046063
X046268Y031118
X046709Y031067
X046827Y031374
X047189Y031118
X047496Y031024
X047508Y031386
X05548Y031732
X058858Y031106
X060291Y03174
X062102Y03137
X063886Y031327
X065016Y031409
X068173Y031016
X068787Y03122
X069094
X069606
X069878Y031232
X07015
X070618
X070835Y031835
X074744Y031913
X076272Y031988
X109087Y032272
Y032583
X079079Y032913
X077327Y032657
X076949Y032697
X076272Y032579
X074213Y032756
X073701Y032449
X07022Y032244
X069709Y032142
X069154Y032583
X065374Y032437
X063291Y032709
X05978Y032039
X059154Y032098
X058835Y032114
X058559Y032118
X058299
X057575
X057315
X056591
X056331
X055346
X049252Y032449
X048799
X048417
X04811
X046472Y032343
X04587Y032075
X045858Y032756
X04526Y032055
X045244Y032496
X044732Y032043
Y032449
X043996Y032287
X043811Y032039
X042618Y032165
X042008Y032598
X040862
X034972Y032657
X033866Y032421
Y032894
X033575Y032142
X032039Y032346
X031744Y032776
X030638Y032539
X030299Y032039
X027654Y03222
X027394Y032657
X026256Y032461
Y032894
X024165Y032303
Y032776
X023028Y032067
Y032539
X013657Y032579
X010843Y03278
X009622Y032961
X008921Y032461
X008283Y032748
X006453Y032323
X006183Y032969
X005235Y032976
X00489Y032575
X003772Y032583
Y033665
X003857Y033075
X004805Y033067
X00489Y033657
X006453Y033602
X007083Y033673
X00928Y033071
X009941Y033327
X010748Y033673
X011417Y033866
X011772Y033677
X012181Y03337
X013689Y033071
X013717Y033898
X023028Y033012
Y033484
Y033957
X024165Y033248
Y03372
X026256Y033366
Y033839
X027394Y03313
X027433Y033677
X027472Y033957
X030638Y033012
Y033484
X031744Y033248
Y03372
X033866Y033366
Y033839
X034972Y03313
Y033602
X039638Y033744
X039858Y03324
X040252
X040646
X041039
X041433
X041827
X04222
X042614
X043177
X055319Y033248
X055614Y033244
X056693Y033173
X056988Y033169
X057283Y033173
X057579Y033169
X057874Y033173
X058169Y033169
X058465Y033173
X05876Y033169
X059063Y033165
X05937
X059646Y033146
X059937Y033161
X060461Y033122
X060728Y03324
X061319Y033224
X062449
X062752Y033165
X066228Y033063
X06663Y033102
X066949Y033039
X067252Y033063
X067713Y033102
X068378Y033063
X068795Y033102
X069504Y033063
X069878Y033102
X070295Y033024
X070732Y033063
X072031Y033728
X07411Y03337
X07426Y033594
X075236Y03337
X076272Y033169
X077913Y033811
X078118Y033425
X079106Y033594
X07911Y033331
X079339Y033083
X109087Y033169
Y033661
X110035Y034228
X110031Y034496
X109087Y034299
Y034602
X080969Y034776
X080835Y034531
X07911Y034098
Y034866
X079106Y034362
X078138Y034201
X078118Y034961
X075236Y034291
X075205Y034965
X074268Y034091
Y034858
X07426Y034362
X072008Y034213
X071717Y034189
X071449
X071039
X070425Y034291
X070118Y034189
X069811Y034394
X069606Y034189
X069299
X068992Y034394
X068732Y034268
X068071Y034189
X067866Y034598
X067488Y034559
X067252Y034189
X066709Y034512
X066563Y034276
X066051Y034161
X065524Y034646
X065461Y034161
X065205Y034701
X06487Y034161
X064488Y034701
X06428Y034161
X064002Y034726
X063689Y034161
X063465Y034701
X063098Y034161
X062508
X061917
X061319
X060925
X060531Y034157
X060138Y034161
X059744
X05935
X058571
X05798
X05739
X05678Y034791
X05663Y034134
X055815Y034161
X055071Y034189
X054634Y034161
X054252Y034894
X054043Y034161
X053795Y034823
X053331Y034291
X052819Y034189
X052571Y034319
X052307Y034189
X051681Y034161
X051091
X050965Y034882
X050567Y034803
X0505Y034161
X050098Y034917
X049902Y034157
X049622Y034732
X048929Y034189
X04813Y034157
X047598Y034701
X047429Y034319
X047087Y034291
X046657Y034185
X04637Y034189
X046063Y034701
X045965Y034157
X045772Y034764
X045654Y034394
X045248Y034169
X044732Y034394
X0445Y034181
X044429Y034445
X044213Y034181
X044016Y034394
X043799Y034157
X043437Y034961
X04252Y034413
X041732Y034374
X040945Y034382
X040157Y034386
X039382Y034402
X038583Y034394
X037795Y034398
X037016Y034409
X034972Y034547
X033866Y034783
X033693Y034343
X033689Y034083
X031744Y034213
Y034665
X030638Y034902
X030606Y034189
X027945Y034087
X027394Y034547
X026256Y034783
X024165Y034193
Y034665
X023028Y034429
Y034902
X013717Y03439
Y034882
X012803Y034646
X012772Y034154
X011591Y034547
X01074Y034043
X010114Y034358
X009575Y034398
X009311Y034425
X009063Y034319
X008803Y034394
X008472Y034319
X007874Y034374
X00728Y034752
X007087Y034933
X006827Y034484
X006453Y034882
X00489Y03474
X004805Y03415
X003857Y034157
X003772Y034748
Y035929
X003857Y035339
X004805Y035331
X00489Y035921
X006346Y035417
X006654Y035213
X006858Y035929
X01065Y035343
X010661Y03572
X011598Y035039
X011843Y035622
X012768Y035866
X012772Y035138
X012795Y03552
X013717Y035866
X013732Y035374
X023028Y035382
Y035854
X024142Y035594
X024165Y035138
X026256Y035256
Y035717
X027366Y035012
Y035488
Y035965
X030638Y035374
Y035846
X031744Y035138
Y03561
X033866Y035256
Y035728
X034972Y03502
Y035492
Y035965
X043976Y035921
X044232Y035445
X044488Y035638
X045252Y035402
X045858Y03511
X046004Y035484
X046575Y035929
X047366Y035839
X047701Y035417
X048213Y035315
X048583Y035843
X04985Y035213
Y03552
X051386Y035417
X051693Y035008
X052102Y035315
X052614
X053024
X053307Y035323
X053571Y035307
X053843Y035315
X054583Y035307
X054937Y035303
X055346
X055654
X055941Y035311
X057732Y03511
X0585Y035102
X058961Y03511
X059268
X05978Y035315
X059941Y035094
X060335Y035134
X060728
X061118Y03515
X061858Y035157
X062748Y035622
X06348Y035394
X063563Y035138
X064394Y035516
X066154Y035465
X068004Y03563
X069291Y03522
X069299Y035724
X069587Y035449
X069606Y035929
X069913Y035622
X07022Y035417
X070421Y035594
X070756Y035925
X07426Y03513
Y035898
X074268Y035626
X075236Y035827
X075602Y035157
X078118Y035728
X079106Y03513
Y035898
X07911Y035634
X080866Y035724
X080957Y035346
X081004Y035945
X081075Y035114
X109079Y035476
X109087Y035217
X109031Y036122
Y036614
X081012Y036236
X080969Y036543
X079331
X079063Y036453
X078118Y03624
X076976Y036134
X076957Y036811
X07639Y036122
X075205Y036244
X073343Y036772
X072067Y036524
X071039Y036953
X070425Y036236
X069244Y036319
X068173Y036909
X068138Y036319
X06763Y036795
X066154Y036024
X064654Y036433
X063669Y036748
X063661Y036122
X06348Y036311
X06285Y036646
X062236Y036134
X062083Y03685
X061417Y036335
X060803Y036339
X060425Y036287
X059933
X059445
X058949
X058465Y036421
X057972Y036287
X057744Y03661
X056811Y036339
Y036957
X056197Y036339
X055756Y03672
X055673Y036327
X055268Y036307
X055248Y036724
X054756Y036307
X054264
X053772
X052409Y036646
X052307Y036339
X051803Y036307
X051283Y03685
X051264Y036323
X050004Y036012
X049441Y036031
X048535Y036323
X048Y036665
X047598Y036031
X047535Y036323
X047146Y036362
X046984Y036031
X046575Y036339
X046063Y036752
X045449Y036134
X045264Y03678
X044744Y036126
X044732Y036748
X044079Y036843
X043606Y036748
X04252Y036303
X040945
X039402Y036193
X038201Y036433
X037898Y036217
X037008Y036244
X034972Y036437
Y036909
X033866Y036201
Y036673
X031835Y036441
X030504
X030319Y036083
X030299Y036748
X027366Y036429
Y036917
X026256Y036201
Y036685
X024173Y036003
X024169Y036267
X024157Y036748
X022929Y036646
X013724Y036358
X013717Y03685
X012795Y036134
X012783Y036614
X011673Y036024
X011594Y036516
X010654Y036024
Y03639
Y03687
X007252Y036417
X007122Y03602
X006858Y036339
X005358Y036713
X004362Y036709
X003992Y036953
X002886Y03635
X002181Y037409
X002933
X005394Y037035
X006791Y037091
X007035Y037449
X007165Y037874
X008189Y037862
X008661Y037854
X00911Y037976
X010626Y037543
X010937Y037323
X011307
X012488Y037453
X012772Y037094
X013783Y037598
X013819Y037976
X016929Y037925
X02302Y037272
X023358Y037807
X024157Y037224
X026252Y037126
X027843Y037362
X028559Y037724
X030638Y037264
X032039Y03726
X033866Y037146
X035315Y037362
X03739Y03739
X04211Y037571
X043402Y037465
X043709Y037874
X04411Y037768
X044835Y037772
X046268Y037469
X04637Y037059
X04678Y037874
X04813Y037843
X048315Y037055
X048484Y037488
X049134Y037874
X049646Y037772
X050055Y037669
X05026Y037874
X050669
X051079Y037465
X051488Y037055
Y037362
Y037669
X052307
X052717Y037874
X053126Y037772
X053512Y037791
X053815Y037244
X054252Y037157
X054315Y037642
X055004Y037646
X055512Y03765
X057835Y037157
X058346Y037055
X058858
X059165
X059795Y037142
X060335Y037138
X060728Y037154
X06111Y037055
X061516Y037059
X062339Y037874
X06285Y037567
X063516Y037291
X06674Y037772
X067252Y037874
X068083Y03761
X068583Y03726
X069346Y037055
X070118Y037362
X070551Y037311
X071728Y03761
X07176Y03798
X072354Y037795
X073598Y037059
X074008Y037976
X074795Y037024
X076362Y037772
X077591Y037157
X079638
X109071Y037106
X110055
X077386Y038386
X077181Y038795
X076874Y038488
X076488Y038661
X076028Y038087
X075563Y038803
X074882Y038075
X074417Y038591
X074343Y038276
X074008Y038488
X073598Y03839
X073394Y038591
X072984Y038386
X072677
X072472Y038591
X072165Y038283
X07187Y038606
X071654Y038283
X071378Y038606
X071346Y038283
X070886Y038606
X070425Y038283
X070394Y038606
X070091Y038614
X070016Y038283
X069504
X06702Y03898
X062953Y038795
X06285Y038181
X061685Y03815
X061559Y038594
X06152Y038898
X061406Y03815
X061122Y038142
X060539Y038146
X059984Y038181
X059421Y038201
X058961Y038283
X058567Y038252
X058039Y038181
X057425
X056299Y038591
X056094Y038795
X05589Y038591
X055559Y038862
X054996Y038287
X054969Y038693
X053902Y038406
X052409
X05026Y038543
X04985Y038386
X049496Y038665
X047583Y038071
X047157Y038717
X046244Y038378
X045858Y038386
X044657Y038508
X044425Y038079
X044378Y038469
X042598Y038244
X042429Y038882
X041024Y038783
X040945Y038488
X040535Y038898
X039126Y038874
X038583Y038043
X038079Y038079
X037587Y038185
X035417Y038386
X03511Y038898
X035008Y038283
X033866Y038331
X031744Y038445
Y038917
X031386Y038031
X030638Y038681
X030575Y038075
X029689Y038673
X029378Y038079
X027535Y038693
X027366Y038327
X024142Y038681
X023028Y038445
Y038917
X019752Y038189
X017421Y038902
X015909Y038114
X015874Y038657
X010354Y038988
X010134Y03878
X01013Y038374
X009012Y038398
X008079Y038122
X007165Y038386
X005835Y038181
X005106Y038811
X004457Y0385
X004035Y038287
X002181Y039402
X002563Y03937
X002957Y039402
X008661Y039161
X009283Y039827
X009433Y039598
X009622Y039409
X009764Y039154
X01474Y039102
X014894Y039661
X015122Y039126
X017035Y039862
X018787Y039079
X019787Y039087
X020886
X021425Y039315
X022622Y039512
X022929Y039299
X02426Y039913
X024272Y039154
X024362Y039606
X025075Y039272
X025744Y039945
X026256Y039272
Y039744
X027366Y039035
Y039508
Y03998
X029276Y039409
X029685Y039614
X030299
X030638Y039154
Y039626
X031744Y03939
Y039862
X033866Y039272
Y039744
X035146Y039571
X038094Y039988
X038283Y039512
X038693Y039717
X039102Y039512
X039472Y039531
X040138Y039795
X040154Y039421
X041043Y039783
X041047Y039307
X041555Y039744
X041559Y039307
X041819Y039173
X042008Y039646
X042445Y039339
X04248Y039717
X042787
X043209Y039713
X043988Y039083
X044291Y039756
X044398Y039075
X044764Y039732
X045142Y039205
X045295Y039705
X046311Y03937
X047087Y039614
X047701Y039717
X048118Y039669
X04911Y039484
X05026Y039102
Y039717
X050858Y039039
X051079Y039819
X052315Y039488
X052559Y03935
X052819Y039307
X053618Y039795
X053898Y03935
X054661Y039819
X055043Y03926
Y039795
X058181Y03924
X059252
X059744Y039248
X060567Y039276
X061622Y039921
X06189Y039862
X062134Y039409
X062441Y039717
X062811Y039291
X063098Y039315
X065878Y039075
Y039567
X06702Y039472
X067354Y039717
X069882Y039567
X070276Y039598
X071144Y039689
X071551Y039614
X072047Y03965
X072492Y039634
X073087Y039614
X073504Y039618
X073906Y039614
X074331Y039559
X074827Y039512
X075193Y03974
X075748Y039614
X076165Y039961
X076177Y039469
X077181Y039614
Y039961
X082756Y03972
X106902Y039264
X107421Y039965
X107705Y040846
X107531Y040638
X107524Y040213
X106248Y040843
X104858Y040283
X104102Y040949
X103795Y04085
X102976Y040535
X10226Y040638
X101134Y040843
X099803
X092445Y040272
X092024
X091591
X089969Y040846
X088118Y040075
X086433Y040291
X085469Y040453
X083154
X081161
X077898Y040126
Y04074
X077181
X075031Y040126
Y04074
X075028Y040425
X074315Y040638
Y040945
X073701
X073386Y04063
X072575Y040638
X071961
X071654
X070937
X070425
X06939Y040587
X067252Y040126
X06702Y040496
Y040996
X065878Y040059
X065717Y040433
X064079Y04074
X063098Y040996
X062441Y040433
X062134Y040228
X061008
X060331Y040201
X059449Y040224
X058661Y040209
X058346Y040228
X056913
X056094Y040535
X054661Y040228
Y040638
X052839Y040898
X050465Y040843
X049953Y04074
X049031Y040843
X047087Y04074
X046472
X046035Y040862
X045244Y040843
X044461Y040748
X043504Y04074
X043094
X042583
X042224Y040929
X04161Y040768
X041047Y04074
X04074Y040535
X040354Y04076
X038283Y04074
X03787Y040945
X037465Y040433
X036236Y040945
X03511Y040126
Y040575
X033866Y040134
X033783Y040843
X03378Y040433
X032862Y040846
X031803Y040894
X031744Y040335
X030638Y040098
Y040571
X029339Y040343
X028354Y040433
X027976Y040437
X027366Y040654
X026102Y040638
X025949Y040252
X025689Y040516
X024272Y040335
X02426Y040638
X023028Y040098
X023008Y040551
X022929Y040843
X022705Y040256
Y040646
X021732Y040752
X021724Y040256
X020575Y040638
X019953Y040917
X017728Y040028
X017024Y040244
X015795Y040874
X014894Y040154
Y040646
X00228Y041543
X003031
X008563Y041961
X009055
X009547
X010035
X010531
X014843Y041354
X014894Y04163
X015803Y041358
X016933Y041744
X017157Y041016
X019957Y04161
X020268Y041969
X020563Y041134
X021677Y041461
X021681Y041732
X022705Y04124
X022724Y041661
X022894Y041988
X023028Y041752
X02426Y041039
Y041457
X025354Y041437
X026012Y04187
X026256Y041161
Y041634
X027433Y041039
Y041661
X029555Y041535
X030606Y04115
X030638Y041516
X031744Y04128
X032244Y041252
Y041969
X032846Y041866
X03337Y04115
X03378Y041354
Y041866
X035008Y041764
X03511Y041047
X035417Y041764
X037173Y041831
X037772Y041457
X038079Y041252
X038283Y041866
X038386Y041504
X038394Y04124
X039409Y041555
X040571Y041732
X040886
X041201
X041516
X041764Y04115
X041831Y041732
X042146
X042461
X042776
X042854Y041071
X043091Y041732
X043406
X04372
X044035
X04435
X044665
X044732Y041047
X045295Y041732
X04561
X045925
X046374Y041236
X046555Y041732
X04687
X047185
X047291Y041354
X0475Y041732
X047803Y041354
X047815Y041732
X04813
X048213Y041252
X048445Y041732
X048598Y041228
X04876Y041732
X049031Y041252
X049075Y041732
X04939
X050059Y041839
X051079Y041354
X051213Y041894
X052154Y04126
Y041874
X052717Y041661
X053024Y041969
X054799Y041339
X056547Y041776
X056606Y041354
X057016Y041252
X057425Y041764
X057665Y041992
X057937Y04115
X058094Y0415
X058465Y041488
X058768Y041154
X058961Y041866
X059165Y04115
X059472Y041559
X059807Y041189
X060039Y041724
X060189Y04115
X06061Y041213
X060906Y041252
X063055Y041559
X063098Y041996
X064252Y041256
X065878Y041043
Y041535
X06702Y041496
Y041996
X067488Y041583
X068685Y041047
X06889Y041634
X068925Y04137
X06989Y041043
X069913Y041535
X070043Y041831
X070354Y041709
X07126Y041787
X07185Y041776
X072866Y041362
X072882Y041047
X073701Y041354
X074925Y041634
X075031Y04115
X077181
X077358Y041594
X078681Y041531
X080496Y041642
X082756Y041165
X091638Y041878
X092028
X092449
X092969Y041634
X093799Y041181
X094252Y041126
X097685Y041902
X099224Y041413
X099236Y041969
X099906
X101339Y041866
X101646Y041764
X102402Y041339
X106961Y041661
X107441Y041642
X107378Y042787
X106429Y042717
X104528Y04239
X104102Y042378
X103547Y042177
X103283Y042378
X102874
X102457Y042417
X102055Y042378
X101748Y042362
X101339Y04248
X101236Y042173
X101071Y042783
X101031Y042378
X10065Y042469
X100606Y042803
X100315Y042276
X099343Y042815
X099236Y042299
X092969Y042618
X092031Y042343
X090591Y042154
X089921Y04298
X087476Y042913
X087213Y042583
X087008Y042071
X086803Y04248
X080484Y042709
X079787Y042421
X079681Y042902
X07737Y042484
X0765Y042035
X075976Y042421
X075031Y042276
X074913Y04202
X073768Y042717
X072654Y042224
X070917Y042717
X070087Y042224
X069913Y04248
X068894Y042693
X068886Y042024
X068787Y042276
X06702Y042488
X066906Y042988
X065878Y042028
Y04252
X06412Y042488
X062264Y042516
X061827Y042583
X061425Y042894
X060394Y042276
X05978Y042992
X058654Y042071
X058244Y04248
X057835Y042378
X05676Y042516
X05463Y042717
X053638Y042583
X053484Y042028
X053331Y042276
X052205Y042378
Y042685
X051209Y042803
X051181Y042276
X050772Y042378
X050567Y04289
X050362Y042173
X050055Y042992
X049705Y042047
Y042362
Y042992
X04939Y042047
Y042362
Y042677
Y042992
X049075Y042047
Y042362
Y042677
Y042992
X04876Y042047
Y042362
Y042677
Y042992
X048445Y042047
Y042362
Y042677
Y042992
X04813Y042047
Y042677
Y042992
X047815Y042047
Y042362
Y042677
X0475Y042047
Y042362
Y042677
Y042992
X047185Y042047
Y042362
Y042677
Y042992
X04687Y042047
Y042362
Y042677
Y042992
X046555Y042047
Y042677
Y042992
X04624Y042362
Y042677
Y042992
X045925Y042047
Y042362
Y042677
Y042992
X04561Y042047
Y042362
Y042677
Y042992
X045295Y042047
Y042362
Y042677
Y042992
X044665Y042047
Y042362
Y042677
Y042992
X04435Y042047
Y042362
Y042677
Y042992
X044035Y042047
Y042362
Y042677
Y042992
X04372Y042047
Y042362
Y042677
Y042992
X043406Y042362
Y042677
Y042992
X043091Y042047
Y042362
Y042677
Y042992
X042776Y042047
Y042362
Y042677
Y042992
X042461Y042047
Y042677
Y042992
X042146Y042047
Y042362
Y042677
Y042992
X041831Y042047
Y042362
Y042677
Y042992
X041516Y042047
Y042362
Y042677
Y042992
X041201Y042047
Y042362
Y042677
Y042992
X040886Y042047
Y042362
Y042677
Y042992
X040571Y042047
Y042362
Y042677
Y042992
X040256Y042047
Y042677
Y042992
X039717Y042378
X038311Y042815
X038268Y042323
X03715Y042236
X036953Y042583
X036016Y042815
X035008Y042173
Y04248
X03378Y042583
X033083Y042642
X032449Y04289
X031835Y042276
Y04289
X030606Y042992
X030504Y042378
X029555Y042913
X027535Y042276
X027366Y042744
X026256Y042815
X026205Y042087
X026Y042276
X024988Y042449
X02426Y042472
Y042787
X023028Y042909
X022929Y042276
Y042591
X021431Y042695
X02052Y042295
X019831Y042307
X019413Y042185
X018984Y042878
X018614Y042862
X016925Y042114
X01515Y04248
X010035Y042909
X009055Y042921
X00228Y043535
X002559Y043504
X003055Y043535
X007476Y043406
X010118Y043961
X010551Y043965
X011024Y043988
X011846Y04322
X015933Y043024
X016831Y043689
X019193Y043965
X019685
X020669Y043984
X020685Y043043
X022827Y043102
X023028Y043382
Y043665
X02426Y04339
Y043913
X025201Y043602
X026126Y043886
X026256Y043587
X027394Y043453
X027433Y043094
Y043913
X030299
X030504Y043402
X031835Y043606
X032039Y043197
X032772Y043898
X033079Y043307
X033165Y043913
X033358Y043281
X033866Y043051
Y043524
X034972Y043287
X035008Y043709
X036024Y043929
X036543Y043913
X037008Y043929
X037055Y043299
X037362Y043913
X038079
X038488Y043299
X039587Y043055
X039717Y043913
X039921Y043197
X040256Y043307
Y043622
Y043937
X040571Y043307
Y043622
Y043937
X040886Y043307
Y043622
Y043937
X041201Y043307
Y043622
Y043937
X041516Y043307
Y043622
Y043937
X041831Y043307
Y043622
Y043937
X042146Y043307
Y043622
Y043937
X042461Y043307
Y043622
Y043937
X042776Y043307
Y043622
Y043937
X043091Y043307
Y043622
Y043937
X043406Y043307
Y043622
Y043937
X04372Y043307
Y043622
Y043937
X044035Y043307
Y043622
X04435Y043307
Y043622
Y043937
X044665Y043307
Y043622
Y043937
X045295Y043307
Y043622
Y043937
X04561Y043307
Y043622
Y043937
X045925Y043307
Y043622
Y043937
X04624
X046555Y043307
Y043622
Y043937
X04687Y043307
Y043622
Y043937
X047185Y043307
Y043622
Y043937
X0475Y043622
Y043937
X047815Y043307
Y043622
Y043937
X04813Y043307
Y043622
Y043937
X048445Y043307
Y043622
Y043937
X04876Y043307
Y043622
Y043937
X049075
X04939Y043307
Y043622
Y043937
X049705Y043307
Y043622
X050157Y043402
X05026Y043811
X050634Y043539
X05087Y043307
X051181Y043299
X052386Y043898
X052417Y043307
X053472
X054661Y043606
X055969Y043307
X05776Y043614
X060307Y043366
X060598Y043094
X061724Y043197
X062031Y043709
X06412Y043823
X065878Y043799
X06702Y043803
X068583Y043504
X068787Y043913
X068791Y043106
X06889Y043504
X069913Y043094
Y043402
X071067Y043799
X071327Y043209
X072484Y04372
X072575Y043094
X073689Y043189
X073791Y043898
X074787
X074929Y043307
X075972Y043012
X076028Y043406
X077193Y043602
X079689Y043827
X079697Y04337
X086799Y043732
X088118Y043697
X091437Y043996
X097685Y043768
X098398
X099126Y043724
X099291Y04352
X099327Y043205
X100724Y04378
X104409Y043299
Y043811
X106201Y043126
X107185
X106441Y044953
X105555Y044906
X105433Y044425
X104409Y044323
Y044835
X100622Y044323
X099323Y04476
X099189Y044126
X095374Y044783
X094697Y044378
X094378Y04463
X093252Y044323
X092909Y044126
X091453Y044685
X08937Y044008
X086803Y044248
Y044732
X079642Y044685
X077244Y044291
X077209Y044008
X077189Y04498
X076114Y04424
X075031Y044205
X074835Y044453
X074807Y04478
X073819Y04439
X073795Y044882
X072677Y044323
X072398Y044677
X072169Y044898
X071142Y044323
X069913Y04463
X068898Y044681
X068886Y04498
X06702Y044295
Y044819
X065878Y044291
X064528Y044264
X06412Y044823
X063094Y044224
X062646Y044016
X062563Y044689
X062236Y044323
X061827Y044118
X059472Y044937
X056709Y044323
X055992Y044118
X0555Y044402
X055071Y044425
X05376Y044417
X053559Y044205
X053433Y04463
X052409Y044528
Y044937
X052213Y044264
X052134Y044827
X051189Y044236
X051181Y044528
X050157Y044425
X050055Y044937
X049953Y04422
X049705Y044252
Y044567
Y044882
X04939Y044252
Y044567
Y044882
X049075Y044252
Y044567
Y044882
X04876Y044252
Y044567
Y044882
X048445Y044252
Y044567
Y044882
X04813Y044252
Y044567
Y044882
X047815Y044252
Y044567
Y044882
X0475Y044252
Y044567
Y044882
X047185Y044252
Y044567
Y044882
X04687Y044252
Y044567
Y044882
X046555Y044252
Y044567
Y044882
X04624Y044252
Y044567
Y044882
X045925Y044252
Y044567
Y044882
X04561Y044252
Y044567
Y044882
X045295Y044252
Y044567
Y044882
X044665Y044252
Y044567
Y044882
X04435Y044252
Y044567
Y044882
X044035Y044252
Y044567
Y044882
X04372Y044567
Y044882
X043406Y044252
Y044567
Y044882
X043091Y044252
Y044567
Y044882
X042776Y044252
Y044567
Y044882
X042461Y044252
Y044567
Y044882
X042146Y044252
Y044567
Y044882
X041831Y044252
Y044567
Y044882
X041516Y044252
Y044567
Y044882
X041201Y044252
Y044567
Y044882
X040886Y044252
Y044567
Y044882
X040571Y044252
Y044567
Y044882
X040256Y044252
Y044882
X039921Y044732
X039819Y044425
X038598Y044307
X038398Y044764
X038181Y044528
X037811Y044906
X03726Y044835
X036748
X036256
X035724
X034972Y044232
Y044705
X03378Y04463
X03339Y044213
X033063Y044323
X032756Y044835
X031937Y044118
X031756Y044587
X030638Y04435
X030606Y044835
X029555Y04439
X027535Y044323
X027394Y04487
X026256Y044941
X026205Y044323
X025315Y04439
X02423Y044323
X024181Y044823
X023028Y044232
Y044591
X021685Y044587
X020177Y044012
X01885Y044201
X017205Y044409
X016929Y044646
X008563Y044024
X007087Y044004
X005807Y044035
X004992Y044094
X003693
X006965Y04587
X007087Y045083
X007673Y045571
X009055Y045142
X010138Y045272
X010654Y045846
X011547Y045657
X013189Y045287
X019071Y045354
X020374Y045185
X022827Y045654
X023028Y045059
X024165Y045768
X02426Y045244
X026256Y045445
X027535Y045346
X02774Y045858
X030197Y045654
X030606Y045858
X030638Y045295
X031937Y045449
Y045858
X03378Y045346
Y045858
X034972Y045177
X035008Y045795
X035378Y04552
X037465Y045961
X037976Y045449
X038591Y045142
X039717Y045858
X039819Y045346
X040256Y045197
Y045512
Y045827
X040571Y045197
Y045512
Y045827
X040886Y045197
Y045512
Y045827
X041201Y045197
Y045512
Y045827
X041516Y045197
Y045512
Y045827
X041831Y045197
Y045512
Y045827
X042146Y045197
Y045512
Y045827
X042461Y045197
Y045512
Y045827
X042776Y045197
Y045512
Y045827
X043091Y045197
Y045512
Y045827
X043406Y045197
Y045512
Y045827
X04372Y045197
Y045512
Y045827
X044035Y045197
Y045512
Y045827
X04435Y045197
Y045512
Y045827
X044665Y045197
Y045512
Y045827
X045295Y045197
Y045512
Y045827
X04561Y045197
Y045512
Y045827
X045925Y045197
Y045512
Y045827
X04624Y045197
Y045512
Y045827
X046555Y045197
Y045512
Y045827
X04687Y045197
Y045512
Y045827
X047185Y045197
Y045512
Y045827
X0475Y045197
Y045512
Y045827
X047815Y045197
Y045512
Y045827
X04813Y045197
Y045512
Y045827
X048445Y045197
Y045512
Y045827
X04876Y045197
Y045512
Y045827
X049075Y045197
Y045512
Y045827
X04939Y045197
Y045512
Y045827
X049705Y045197
Y045827
X049969Y045756
X050157Y045563
X050567Y045551
X050976Y045449
X051181Y045961
X052205Y045449
X052512
X053724Y045228
X054602Y045539
X055071Y045039
X055343Y045965
X055685Y045346
X056681Y045272
X056913Y045858
X057016Y045244
X057118Y045654
X057835Y045756
X058248Y045843
X06412Y045323
Y045823
X065819Y045039
X065878Y045768
X06702Y045319
Y045819
X068583Y045654
X068992Y045858
X070472Y045732
X070866Y045799
X071256
X07165
X072043
X072201Y045366
X072441Y045799
X072673Y045374
X072831Y045799
X073244
X073421Y045087
X073622Y045799
X073803Y045374
X074012Y045799
X074409Y045791
X074929Y045756
X075031Y045039
X075748Y045858
X075953Y045142
X076094Y045571
X076858Y045921
X077283Y045449
X078055Y045815
X079638Y045087
X08502Y045028
X086803Y045039
X086909Y045327
X091402Y045669
X092028Y045102
X092421Y045118
X092618Y045866
X092815Y045126
X09311Y045866
X09322Y045134
X093701Y045866
X093811Y045043
X094417Y045413
X094913Y045429
X096031Y045071
X099343Y045256
Y045768
X100417Y045142
Y045654
X100878Y045972
X104512Y045571
X107858Y046776
X107583Y046677
X107008Y046547
X10452Y046657
X103445Y046114
X10315Y046079
X102874Y046268
X102701Y046075
X101925Y046122
X10185Y04637
X101378Y046165
X101146Y046047
X10011Y046268
X099623Y046055
X09613Y046677
X094803Y046272
X094795Y046614
X094787Y046882
X093996Y046358
X093701Y04685
X09311
X092618
X092224Y046358
X091205Y046067
X090551Y04602
X08937Y046035
X088189Y046055
X087315Y046063
X085472Y04678
X084614Y046815
X084343Y046748
X084319Y046244
X08072Y046236
X080717Y046732
X079094Y046335
X078205Y046752
X077591Y046165
X077358Y046984
X075283Y046764
X07478Y04678
X074386
X073988
X073598
X073291
X072827Y046728
X072173Y046724
X071791
X071051
X070673
X069888Y046902
X069811Y04637
X06963Y046949
X069398Y046209
X068807Y046921
X067047Y046268
X065819Y04637
X064732Y046035
X06412Y046823
X063063Y046228
X059063Y046882
X058654Y046575
X058449Y04678
X058039
X05763Y046575
X05728Y046142
X054559Y04637
X05374Y046063
Y046677
X052953Y046445
X052205Y046063
Y046984
X052142Y046602
X052134Y046331
X051181Y046268
Y046575
Y046984
X050772
X050465Y046677
X050055Y046165
X049705Y046142
Y046772
X04939Y046142
Y046772
X049075Y046142
Y046772
X04876Y046142
Y046772
X048445Y046142
Y046772
X04813Y046142
Y046772
X047815Y046142
Y046772
X0475Y046142
Y046772
X047185Y046142
Y046772
X04687Y046142
Y046772
X046555Y046142
Y046772
X04624Y046142
Y046772
X045925Y046142
Y046772
X04561Y046142
Y046772
X045295Y046142
Y046772
X044665Y046142
Y046772
X04435Y046142
Y046772
X044035Y046142
Y046772
X04372Y046142
Y046772
X043406Y046142
Y046772
X043091Y046142
Y046772
X042776Y046142
Y046772
X042461Y046142
Y046772
X042146Y046142
Y046772
X041831Y046142
Y046772
X041516Y046142
Y046772
X041201Y046142
Y046772
X040886Y046142
Y046772
X040571Y046142
Y046772
X040256Y046142
Y046772
X039717Y046268
Y04678
X039Y046268
X03824Y04665
X037976Y046063
X037567Y046984
X037551Y046469
X036787Y046886
X03624Y046819
X036213Y046272
X035535Y046469
X035008Y046268
X033866Y046358
Y046831
X033472Y046165
X031835Y04678
X030606Y046882
X030504Y046268
X027394Y046122
Y046594
X026256Y046358
Y046823
X024165Y04624
X024157Y04678
X023028Y046476
Y046949
X019252Y046169
X014512Y046654
X013217Y046941
X011469Y046654
X008169Y046457
X008028Y046764
X007972Y046213
X00737Y046268
X005429Y046161
X004831Y046264
X003449Y046453
Y046846
X002654Y046657
Y047445
X004094Y04702
Y047295
Y047709
Y047984
X004831Y047248
X005433Y047244
X007358
X007984Y047598
X008083Y04702
Y047343
X008189Y047913
X011335Y047024
X011547Y047736
X012193Y047421
X012531Y047839
X013516Y047142
Y047634
X023028Y047421
X024165Y047185
X02426Y047598
X024268Y047862
X026205Y047906
X026256Y047303
X027394Y047067
Y047539
X030197Y047087
X030299Y047701
X030606Y047394
X031835Y047252
Y047724
X032339Y047972
X032343Y047461
X032815Y047598
X033055Y047047
X03337Y047087
X033575Y047803
X033866Y047303
X034972Y047067
Y047539
X035453Y047228
X037874Y047189
X038181Y047803
X03824Y047535
X039717Y047394
Y047906
X039969Y047795
X039996Y047134
X040256Y047087
Y047402
Y047717
X040571Y047087
Y047402
Y047717
X040886Y047087
Y047402
Y047717
X041201Y047087
Y047402
Y047717
X041516Y047087
Y047402
Y047717
X041831Y047087
Y047402
Y047717
X042146Y047087
Y047402
Y047717
X042461Y047087
Y047402
Y047717
X042776Y047087
Y047402
Y047717
X043091Y047087
Y047402
Y047717
X043406Y047087
Y047402
Y047717
X04372Y047087
Y047402
Y047717
X044035Y047087
Y047402
Y047717
X04435Y047087
Y047402
Y047717
X044665Y047087
Y047402
Y047717
X045295Y047087
Y047402
Y047717
X04561Y047087
Y047402
Y047717
X045925Y047087
Y047402
Y047717
X04624Y047087
Y047402
Y047717
X046555Y047087
Y047402
Y047717
X04687Y047087
Y047402
Y047717
X047185Y047087
Y047402
Y047717
X0475Y047087
Y047402
Y047717
X047815Y047087
Y047402
Y047717
X04813Y047087
Y047402
Y047717
X048445Y047087
Y047402
Y047717
X04876Y047087
Y047402
Y047717
X049075Y047087
Y047402
Y047717
X04939Y047087
Y047402
Y047717
X049705Y047087
Y047402
Y047717
X050732Y047575
X05111Y047433
X051213Y047831
X052134Y047378
X052512Y047398
X053638Y047291
X05872Y047996
X060004Y047
X06152Y047701
X064283Y047087
X065878Y047244
X067047Y047087
Y047579
X068992Y047598
X069197Y047087
X069402Y047291
X069606Y047803
X069913Y047291
X071346Y047496
X071449Y047087
X073496Y047496
X073819Y047925
X074787Y047256
X077795Y047173
X078205Y047189
X07976Y04748
X081012Y047528
X081504
X082
X084031Y047539
X084039Y047803
X085008Y047606
X085276Y047602
X086799Y047272
X09165Y047256
X092004Y047965
X093264Y047673
X093559Y047638
X093866Y047598
X094378
X094736Y047469
X094992Y047189
X096122Y047539
X096224Y047197
X09685Y047535
X098488Y047319
X100264Y047866
X100366Y047354
X100827Y047394
X100961Y047866
X102567Y047394
X102823Y047587
X104232Y047386
X105535Y047087
X10561Y047685
X107378Y047906
X107685
X107071Y048213
X105638Y04811
X101862Y048228
X096366Y048087
X095756Y048343
X094929Y048315
X094575Y048591
X094094Y048642
X092618Y048646
X092228Y04811
X092177Y048469
X090268Y048138
X088106
X087504Y048425
X081173Y048827
X078094Y048752
X077421Y048957
X076921
X076465Y048929
X075921Y048957
X073984Y048732
X072299Y048134
X07137Y048673
X071331Y04822
X071039Y048929
X070835Y048417
X07022Y048315
Y048827
X069803Y048689
X069362Y048925
X066028Y048386
X065315Y048693
X064488Y048315
X063055Y04811
X062008Y048945
X061827Y048008
X061417Y048945
X061213Y048008
X061024Y048945
X060823Y048024
X060441
X060035
X059654
X058661Y048945
X058291Y048949
X057972Y048965
X057425Y048008
X055988Y048335
X055724Y048323
X055445Y048413
X055358Y048161
X054827Y048118
X054807Y048469
X054354Y048008
Y048315
X054047Y048724
X053843Y048315
X052898Y048705
X05259Y048389
X052512Y048008
X052488Y048696
X052205Y04811
Y048827
X051213Y048307
X050874Y04852
X049705Y048031
Y048346
Y048661
Y048976
X04939Y048031
Y048346
Y048661
Y048976
X049075Y048031
Y048346
Y048661
Y048976
X04876Y048031
Y048346
Y048661
Y048976
X048445Y048031
Y048346
Y048661
Y048976
X04813Y048031
Y048346
Y048661
Y048976
X047815Y048031
Y048346
Y048661
X0475Y048031
Y048346
Y048661
X047185Y048031
Y048346
Y048661
Y048976
X04687Y048031
Y048346
Y048661
Y048976
X046555Y048031
Y048346
Y048661
Y048976
X04624Y048031
Y048346
Y048661
Y048976
X045925Y048031
Y048346
Y048661
Y048976
X04561Y048031
Y048346
Y048661
Y048976
X045295Y048031
Y048346
X044665Y048031
Y048346
Y048661
Y048976
X04435Y048031
Y048346
Y048661
Y048976
X044035Y048031
Y048346
Y048661
Y048976
X04372Y048031
Y048346
Y048661
Y048976
X043406Y048031
Y048346
Y048661
Y048976
X043091Y048031
Y048346
Y048661
Y048976
X042776Y048031
Y048346
Y048661
Y048976
X042461Y048031
Y048346
Y048661
Y048976
X042146Y048031
Y048346
Y048661
Y048976
X041831Y048031
Y048346
Y048661
Y048976
X041516Y048031
Y048346
Y048661
Y048976
X041201Y048031
Y048346
Y048661
Y048976
X040886Y048031
Y048346
Y048661
Y048976
X040571Y048031
Y048346
Y048661
Y048976
X040256Y048031
Y048661
Y048976
X040039Y048161
X040024Y048622
X039717Y048417
X038142Y048854
X037772Y048213
X036748Y048323
X03672Y048736
X03552Y04852
Y04878
X034972Y048012
Y048484
Y048957
X033866Y04872
X033831Y048248
X033472Y048417
X031744Y048366
Y048839
X030638Y048602
X030606Y048008
X027394Y048012
Y048484
X026256Y04872
X026205Y048315
X024169Y048146
X024165Y048602
X023028Y048366
Y048882
X013457Y04813
X013374Y048622
X012524Y048228
X010453Y048638
X010311Y048409
X008012Y048118
X00737Y048315
X00735Y048819
X006366Y048319
X005386Y048819
X004094Y048398
Y048673
X003469Y048713
X002654Y048035
X002559Y048724
X002654Y049413
X003445Y049291
Y049882
X003449Y049016
Y049606
X004496Y049311
Y049886
X006366Y049449
Y049752
X007087Y049547
X007984Y049339
X008598Y049236
X00911Y049441
X009417Y049339
X009681Y049311
X010598Y049209
X011232Y049638
X011724
X013378Y049114
X014437
X023028Y049311
Y049783
X024157Y049764
X024165Y049075
X026256Y049193
X027394Y049429
X027433Y049031
X02774Y049646
X030606Y049031
Y04985
X031744Y049311
Y049787
X033571
X03378Y049031
X033866Y049421
X034972Y049429
X035315Y049134
Y049748
X036134Y049236
X036417Y049201
X036724Y04935
X037055Y049232
X037465Y049236
X037874Y049748
X03824Y049307
X038283Y049748
X039
X039717Y049236
X039799Y049925
X039921Y049543
X040256Y049291
Y049606
Y049921
X040571Y049291
Y049606
Y049921
X040886Y049291
Y049606
Y049921
X041201Y049291
Y049606
Y049921
X041516Y049291
Y049606
Y049921
X041831Y049291
Y049606
X042146Y049291
Y049606
Y049921
X042461Y049291
Y049606
Y049921
X042776Y049291
Y049606
Y049921
X043091Y049291
Y049606
Y049921
X043406Y049291
Y049606
Y049921
X04372Y049291
Y049606
Y049921
X044035Y049291
Y049606
Y049921
X04435Y049291
Y049606
Y049921
X044665Y049291
Y049606
Y049921
X045295Y049291
Y049921
X04561
X045925
X046555Y049291
Y049606
X04687Y049291
Y049606
Y049921
X047185Y049606
X0475Y049291
Y049606
X047815Y049291
Y049606
Y049921
X04813Y049291
Y049606
Y049921
X048445Y049291
Y049606
Y049921
X04876Y049291
Y049606
Y049921
X049075Y049291
Y049606
Y049921
X04939Y049291
Y049606
Y049921
X049705Y049291
Y049606
Y049921
X050465Y049441
X051161Y04974
X051181Y049031
X052142Y049661
X05215Y049209
X052409Y049953
X052512Y049543
X052614Y049236
X053843Y049134
X054945Y049016
X055035Y049606
X056606Y049339
X056689Y04985
X05722Y049031
X057728Y049957
X059472Y049031
X061902Y049969
X068709Y049921
X069402Y049646
X069874Y049028
X070772Y049024
X073177Y049102
X074732
X078075Y049646
X078083Y049988
X079594Y049646
X081787Y049146
X08428Y049551
X085433Y049071
X085827Y049067
X087819Y049409
X088157Y049465
X090256Y049969
X092433Y04948
X095189Y049476
X097177Y049071
X097535Y049079
X09787
X099291Y049661
X101563Y049024
X104197Y049303
X106102Y049634
X106429Y049287
X107087Y049614
X107445Y049291
X107787Y049031
X104724Y050098
X104197Y050846
X101799Y050102
X098417Y05028
X09661Y050953
X090283Y050957
X089874Y05026
X089638Y050618
X088339Y050362
X088327Y050102
X087799Y050858
X086906Y050567
X086547Y050563
X085031Y050728
X083118Y050346
X081783Y05013
X081472Y050122
X079331Y050055
Y050465
X078717Y050976
X078102Y050874
X076965Y050913
X072961Y050929
X071063Y050575
X070181Y0505
X062488Y050591
X061417Y05
X061122Y050256
X06063Y050276
X059941Y050047
X058957Y050051
X058551Y050055
X058244Y050465
X055874Y050815
X055583Y050567
X055071Y050465
Y050976
X054673Y050972
X054354Y050669
X054264Y050972
X052937Y050846
X052717Y05026
X052524Y050547
X052307Y050362
X052091Y050043
X051898Y050772
X051591Y050874
X051492Y050583
X051181Y050567
X051102Y050276
X050465Y050055
X05026Y050874
X050157Y050362
X049705Y050236
Y050866
X04939Y050236
Y050551
Y050866
X049075Y050236
Y050551
Y050866
X04876Y050236
Y050551
Y050866
X048445Y050236
Y050551
Y050866
X04813Y050236
Y050551
Y050866
X047815Y050236
Y050551
Y050866
X0475Y050551
X047185
X04687Y050236
Y050551
Y050866
X046555Y050551
X04624Y050236
Y050551
Y050866
X045925Y050236
Y050551
Y050866
X04561Y050236
Y050551
Y050866
X045295Y050236
Y050551
Y050866
X044665Y050236
Y050551
Y050866
X04435Y050236
Y050551
Y050866
X044035Y050236
Y050551
Y050866
X04372Y050236
Y050551
Y050866
X043406Y050236
Y050551
Y050866
X043091Y050236
Y050551
Y050866
X042776Y050236
Y050551
Y050866
X042461Y050236
Y050551
Y050866
X042146Y050236
Y050551
Y050866
X041831Y050551
X041516Y050236
Y050551
Y050866
X041201Y050236
Y050551
Y050866
X040886Y050236
Y050551
Y050866
X040571Y050236
Y050551
Y050866
X040256Y050236
Y050551
Y050866
X03824Y050193
X037913Y050693
X0375Y050169
X035622Y050157
X035008Y050055
X034972Y050374
Y050846
X033866Y05061
X032815Y05039
X032689Y050965
X031748Y050256
X031744Y050728
X030299Y050669
X027638Y050157
X027394Y050846
X027366Y050402
X026256Y050138
Y05061
X024567Y050906
X024157Y050236
X023028Y050256
Y050791
X010543Y05026
X009744Y050587
X009252Y050591
X00876Y050602
X008476Y050618
X006803Y050547
X006366Y050299
Y050622
X004504Y050157
X004496Y050787
X003469
X002654Y050004
Y050594
X002626Y051091
X004504Y05128
X006587Y051543
X007079
X00876
X009252
X009724Y051693
X010236
X010748
X01126
X011669
X012181
X022929Y051283
X024157Y051181
X024398Y051957
X024465Y051488
X026256Y051083
Y051555
X027394Y051319
Y051791
X030417Y051583
X030606Y051181
Y051898
X031744Y051201
X033866Y051071
Y051555
X034972Y051319
Y051791
X040126Y051795
X040535
X040571Y051181
X040886
X040945Y051693
X041201Y051181
X041354Y051795
X041516Y051181
X041933Y051787
X042146Y051181
X042327Y051787
X042461Y051181
X04272Y051787
X042776Y051181
X043091
X043114Y051787
X043406Y051181
X043512Y051787
X04372Y051181
X043858Y051787
X044035Y051181
X044193Y051783
X04435Y051181
X044665
X044693Y051787
X045169Y051654
X045295Y051181
X045551Y051693
X04561Y051181
X045925
X045961Y051693
X04624Y051181
X046268Y051787
X046472Y051591
X04687Y051181
X046984Y051591
X047323Y051705
X047701Y051693
X047815Y051181
X04813
X048445
X048622Y051693
X04876Y051181
X049031Y051693
X049075Y051181
X04939
X049441Y051795
X049713Y051787
X04985Y051386
X051413Y051441
Y051701
X052327Y051043
X052618Y051051
X055685Y051087
X056689Y051528
X057937Y051488
X058346Y051079
X058567Y051803
X058575Y051531
X059882Y051283
X060189Y051276
X060504Y051295
X062543Y051488
X062843Y051193
X071449Y051488
X074634Y051799
X075921Y051007
X076421
X077988Y051291
X079496Y051193
X079535Y051591
X080472Y051185
X083232Y051496
Y051811
X084051Y051339
Y051654
Y051969
X085433Y051634
X085925Y051606
X086394Y051488
X087008Y051181
X087264Y051764
X087492Y051579
X087717Y051937
X088713Y051787
X08972Y051673
X089819Y051059
X090626Y051937
X091102Y051591
X091717Y051996
X092004Y051157
X092024Y051969
X092331Y051898
X092598Y051173
X092921Y051992
X093457Y051898
X093559Y051591
X094295Y051941
X094303Y051213
X09476Y051189
X095941Y051197
X097539Y051606
X098917Y051575
X099358Y051047
X101602Y051173
X103248Y051661
X105843Y051902
X106102Y051854
X106638Y051575
X113008Y052906
X112189Y052819
X110449Y052512
X110138Y052704
X106587Y052461
X103437Y052764
X102772Y052819
X102059Y052764
X101441Y052819
X099795Y052764
X099189Y052819
X098319Y052764
X097244Y052307
X096858Y052559
X09622Y052102
X096016Y052921
X095504Y052
X095331Y052559
X094787Y052717
X094575Y052091
X090957Y052374
X090937Y052815
X089713Y052165
X089665Y052827
X089634Y052433
X087799Y052614
X087724Y052205
X086535Y052059
X085984Y052402
X084142Y052307
X084051Y052598
X083232Y052118
Y052441
Y052909
X081378Y052461
X079705Y052768
X079008Y052311
X078063Y052244
X077496Y052268
X077047Y052331
X076567Y052921
X074941Y052449
X071756Y052205
X071449Y052819
X071425Y052469
X06152Y052512
Y052921
X058571Y052169
X058563Y052429
X058551Y052819
X057669Y052555
X05763Y052102
X057587Y052843
X053331Y052205
X052843Y052252
X052102Y052
Y052512
X051181Y052614
X050772Y052512
X050055Y052614
X049713Y052551
X048724Y052512
Y052819
X04811Y052717
X046268Y052614
X045866Y052701
X045472
X045079
X044118Y052921
X043106Y052543
X042713
X042319
X041925
X041531
X041138
X040744
X040252
X035008Y052819
X034972Y052264
X033866Y052028
Y052504
X031744Y052146
Y052618
X030638Y052382
Y052854
X027394Y052264
Y052736
X026256Y052024
X026217Y0525
X025862Y052972
X024165Y052382
Y052854
X023028Y052157
Y052618
X013614Y052921
X009705Y052957
X007815Y052925
X006654Y052819
X004819Y053969
X006
X006591
X006756Y053535
X008791Y053248
X009004Y053402
X010433Y053453
X012181Y05374
X012465Y05376
X024165Y053327
X024205Y053799
X026252Y053445
X027394Y053209
X030638Y053327
Y053799
X031744Y053839
X031835Y053433
X03378Y053024
X034972Y053209
X035008Y053843
X042299Y053929
X043197Y053228
X043606Y053024
X044016Y053228
X044949Y053512
X045492Y053504
X046063Y053535
X04637Y053126
X048016Y053724
X04811Y053433
X049063Y053606
X049339Y053024
X049953Y053638
X050807Y053634
X052307Y053638
X052819Y053535
X053354Y053618
X053461Y053248
X057528Y053945
X057583Y053106
X058555Y053417
Y053685
X058567Y053106
X059028Y053854
X061063Y053957
X061504Y053917
X06152Y053638
X061583Y053299
X063382Y053402
X068685Y053024
X069402
X069791
X071953Y053256
X073744Y053524
X074634Y05315
X079724Y053138
X083106Y053701
X085165Y053535
X085343Y053295
X087213Y053535
X087713Y053913
X087724Y053024
X088646Y05315
Y053535
X089661Y053646
X089772Y053126
X090972Y053134
Y053535
X091744Y053346
X091819Y053638
X092146Y053248
X092457Y053449
X092661Y053807
X092843Y053024
X093709Y053843
X095327Y05315
X096543Y05387
X096799Y05335
X105843Y053126
X105945Y053433
X10785Y053126
X109823Y053638
X110244Y05374
X110654Y053638
X111787Y053429
X113929Y053535
X114839Y05361
X10963Y054354
X107992Y05415
X106028Y054323
X103524Y054626
X10315Y054862
X102484Y05424
X102362Y054866
X102146Y054626
X101772Y054862
X101106Y054248
X099882Y054634
X099508Y054862
X098843Y054248
X098406Y054626
X098031Y054862
X097642Y054811
X097366Y054248
X096949Y054862
X096425Y054764
X095709
X095197
X094276Y05415
X093354
X093047
X092823Y054772
X092024Y05415
Y054559
X091819Y054764
X090909Y054382
X089874Y054252
X089657Y054626
X088339Y054354
X088079Y054122
X087949Y054705
X087622Y054457
X08711Y05415
X086189
X085827Y05411
X085268Y054154
X084039Y054197
X083772Y054122
X08376Y054972
X082547Y054118
X082543Y054421
X080622Y054047
X076961Y054331
X072965Y054035
X072697
X068224Y054854
X067618Y054051
X067224Y054854
X066843Y054866
X064862Y054953
X062559Y054035
X061717Y054354
X060476Y054362
X060189Y054354
X059732Y054236
X058756Y054047
X058524Y054232
X057559Y054209
X05722Y054457
X057016Y054661
X056606Y054559
X055992Y054661
X055709Y054811
X055425Y054756
X055146Y054732
X052484Y054406
X052102Y054969
X050772Y054354
X049957Y054315
X049071
X048189Y054323
X047291Y054354
X046268Y054457
X045244Y054354
X044937Y054969
X044484Y054008
X043913Y054354
X043878Y054807
X043484Y054417
X02948Y054528
X027331Y054047
X027228Y054354
X023264Y054028
X023134Y054661
X022008Y05415
X021598Y054457
X011433Y054843
X009622Y054803
X009307Y05474
X008461Y054744
X008189Y054748
X006972Y054614
X005106Y054894
X003957Y054181
X004402Y055992
X004504Y05548
X005315Y055315
X00687
X009008Y055992
X009417Y055677
X010031Y055992
X010232Y055386
X010441Y055787
X010748Y055992
X011772Y05589
X035724Y055378
X036236
X036646
X037157
X038693Y055374
X039102
X039406Y055323
X040843Y05548
X04248
X043283Y055217
X046268Y055071
X046677
X04863Y055067
X048969Y055831
X049409Y055819
X049516Y055067
X050055Y055827
X050315
X050465Y055071
X050874Y055787
X051283Y055685
X051287Y055067
X052358Y055705
X053126Y055583
X054866Y055378
X05513Y0555
X056732Y055575
X057886Y055016
X05789Y055799
X059646Y055776
X059984Y055378
Y055787
X060433Y055307
X060799Y055272
X061122Y055323
X062528Y055008
X07528Y055512
X080138
X084346Y05589
X084827Y055787
X085531Y055075
X085846Y055866
X086189Y055075
X086488Y055772
X086906Y055071
X087622Y055378
X087697Y05598
X089772Y055071
Y055709
X090965Y055118
X092272Y055047
X093343Y055055
X093913Y055059
X094276Y055173
X094665Y055961
X094992Y055992
X095181Y055677
X095472Y05576
X095783Y055031
X096937Y05548
X097051Y05576
X097646Y055823
X098843Y055437
X100173Y05522
X103839Y055217
X106012Y055406
X106374
X105Y056622
X103736Y056004
X102976Y056606
X101071Y056189
X099898Y056201
X098472Y056484
X092909Y056346
X092421Y056449
X092228Y056094
X092154Y056441
X091937Y056098
X091Y056299
X089835Y056201
X087756Y056791
X087291Y056425
X086657Y056531
X085504Y056791
X077756Y05652
X06928Y056791
X06889Y056094
X06839Y056071
X068071Y056094
X066945
X066228
X06585Y056791
X065835Y056094
X060028Y056953
X055709
X055315
X04852Y056197
X047598Y056811
X046472Y056197
X04463Y056094
X040945Y056811
X040638
X040126
X039614
X018512Y056795
X018323Y056606
X014831Y05687
X014823Y056378
X012594Y056594
X012488Y056197
X011772
X011362Y056094
X010358Y056039
X009724Y056094
X008709Y056071
X008248Y056039
X005327Y056035
X005039
X003976
X003673Y056157
X003602Y057134
X003992Y057118
X00435Y057114
X004646Y057146
X005016Y057118
X005335Y057142
X005614Y057146
X006142Y057118
X006433Y057102
X006705Y057094
X007165Y057118
X007472Y057016
X007909Y057142
X008193Y057146
X008496Y057016
X008803
X009161Y057142
X011362Y057732
X011772Y05763
X013339Y057197
X017197Y057937
X047268Y057134
X047941Y057075
X049016Y057185
X049953Y057016
X051469Y057028
X054311Y057965
X054969Y057016
X056102Y057657
X056496Y057374
X056811Y057016
X057433Y057012
X057713Y057291
X058465Y057669
X058799Y057024
X059252Y057677
X060433Y057362
X061256Y057185
X069811Y057016
X113343Y058445
X110874Y058744
X110449Y058142
X11002Y058457
X054122Y058154
X01728Y058378
X010031Y058142
X00972
X009315
X008972Y058055
X008681
X008205Y058508
X008189Y058142
X008012Y058685
X006276Y058457
X005728Y058449
X004594Y058508
Y058768
X004118Y058689
X003894Y058055
X003378Y058039
T10
X028937Y038484
Y038878
X028642Y038681
X028346Y038484
Y038878
X010039Y046555
X00935
X008661
Y047244
Y047933
X00935Y047244
Y047933
X010039Y047244
Y047933
X074213Y050394
Y050787
X073819Y050394
Y050787
T09
X060183Y01594
X060683
Y01654
X060183
X023819Y020965
X023425
X023031
Y021358
Y021752
X023425Y021358
Y021752
X023819Y021358
Y021752
X00813Y035295
Y035709
X008543Y035295
Y035709
X008957Y035295
Y035709
X00937Y035295
Y035709
X009783Y035295
Y035709
Y036122
Y036535
Y036949
X00937Y036122
Y036535
Y036949
X008957Y036122
Y036535
Y036949
X008543Y036122
Y036535
Y036949
X00813Y036122
Y036535
Y036949
X004724Y037697
X005118
X019193Y040453
Y040945
X018701Y040453
X018209
Y040945
Y041437
X018701
X019193
X102067Y043799
X102953
Y044783
X102067
X060531Y052264
Y052756
X060039Y052264
Y052756
X059547Y052264
Y052756
X056043Y052126
Y052539
Y052953
X05563Y052126
Y052539
Y052953
X055217Y052126
Y052539
Y052953
X054803Y052126
Y052539
Y052953
X05439Y052126
Y052539
Y052953
Y053366
Y05378
X054803Y053366
Y05378
X055217Y053366
Y05378
X05563Y053366
Y05378
X056043Y053366
Y05378
X059547Y053248
X060039
X060531
T11
X097539Y045472
T05
X111319Y032874
X110709Y033071
Y033465
Y033858
X111319Y033268
Y033661
Y034055
Y034449
Y034843
X110709Y034252
Y034646
Y035039
Y035433
Y035827
X111319Y035236
Y03563
Y036024
Y036417
X110709Y03622
X095354Y050295
X094606
X092598
X09185
T02
X109055Y040551
X108465Y040748
Y041732
X109055Y041339
Y042126
Y042913
X108465Y04252
Y043504
X109055Y043701
X108465Y047835
X109055Y047638
Y048425
X108465Y048819
Y049606
X109055Y049213
Y05
Y050787
X108465Y050591
T01
X038348Y015512
Y016299
Y017087
T04
X021622Y001339
X022622
X023622
X02487
X02587
X02687
X036102Y027193
X037102
Y028193
X036102
Y029193
X037102
X00122Y030917
Y031917
Y032917
Y033917
Y034917
Y035917
Y036917
Y037917
X064453Y037205
X065453
X078937Y03878
X00122Y038917
Y039917
X068209Y039173
X078937Y039764
Y040748
X068209Y040173
X00122Y040917
Y041917
X068209Y041173
Y042173
X00122Y042917
Y043917
X068209Y043173
Y044173
Y045173
Y046173
X071933Y047441
X072933
X064961Y049213
Y050197
Y051181
X064665Y053051
X065665
T07
X110453Y022382
T12
X013976Y002165
X076969Y00813
X00126Y013031
X113583Y014803
Y026417
X074213Y026772
X015945Y028937
X00126Y029173
X036516Y051378
X00126Y056535
X024882Y057874
X106772
T16
X070276Y006535
X040748
T00
M30
